<svg width="141" height="648" viewBox="0 0 141 648" fill="none" xmlns="http://www.w3.org/2000/svg">
<path d="M32.2902 416.701L37.5952 408.052L66.1975 407.748L65.5319 406.68L36.9828 406.982L31.6873 415.619H24.6118L57.9708 357.84C58.1068 357.596 58.2399 357.37 58.3703 357.163C58.5062 356.948 58.6422 356.743 58.7767 356.552C58.9126 356.36 59.0529 356.173 59.1941 355.994C59.3438 355.806 59.4876 355.635 59.6237 355.485C59.7605 355.335 59.9042 355.187 60.0525 355.046L58.5801 355.051C58.5173 355.125 58.4549 355.192 58.392 355.27C58.2353 355.466 58.0785 355.674 57.9252 355.89C57.7778 356.099 57.6253 356.328 57.4714 356.572C57.3303 356.798 57.1839 357.042 57.0347 357.305L22.7445 416.701H32.2902ZM72.4049 376.901L73.6503 376.902L70.9187 372.167L69.6777 372.172L72.4049 376.901ZM58.3414 395.134L57.6745 394.063C56.0717 394.061 54.4298 394.06 52.8486 394.058L53.0766 393.703C53.8222 392.548 54.5675 391.395 55.3047 390.258L54.6792 389.254L50.8662 395.13C53.3579 395.13 55.8496 395.131 58.3414 395.134ZM62.7854 336.88L63.5791 336.877L63.1677 336.214L62.7854 336.88ZM61.2281 367.089L63.9873 362.305L66.7128 367.031L67.9478 367.018L63.9855 360.151C62.6511 362.468 61.3162 364.786 59.9805 367.103L61.2281 367.089ZM71.2115 349.184C69.8555 346.998 68.4999 344.811 67.1445 342.625H65.8746L69.9385 349.184H71.2115ZM55.7144 349.184H56.9544L60.7257 342.625H59.4838C58.2274 344.811 56.9709 346.997 55.7144 349.184L55.7144 349.184ZM58.2699 372.219L57.0298 372.224C56.1335 373.781 55.2369 375.337 54.3401 376.893L55.5744 376.894L58.2699 372.219ZM90.9635 406.41L84.9752 406.473C84.7121 406.859 84.4173 407.222 84.0938 407.558L90.3416 407.492L90.9635 406.41ZM84.1529 372.113L87.1283 376.908L88.4016 376.909C87.4096 375.309 86.4173 373.708 85.4248 372.108L84.1529 372.113ZM92.5434 383.589C91.3521 381.666 90.1599 379.743 88.9668 377.821L88.3163 378.823L91.9319 384.651L92.5434 383.589ZM86.5001 394.079C82.7053 394.078 78.9373 394.077 75.1963 394.076L75.8115 395.143C79.1693 395.144 82.527 395.146 85.8846 395.148L86.5001 394.079ZM77.1998 406.556L71.4269 406.617C71.6477 406.974 71.8686 407.33 72.0895 407.686L78.2145 407.621C77.8432 407.299 77.5035 406.942 77.1999 406.556H77.1998ZM63.647 394.069C63.8679 394.425 64.0885 394.781 64.3091 395.137C66.3904 395.138 68.4716 395.139 70.5527 395.14L69.9414 394.073C67.8323 394.072 65.7294 394.071 63.6471 394.069H63.647ZM73.2614 399.867L72.646 398.793L66.591 398.818L67.2571 399.892L73.2614 399.867ZM41.0285 399.999L61.3194 399.916L60.6505 398.842L42.8949 398.915L51.4449 384.06L50.8037 383.031C47.5454 388.687 44.287 394.343 41.0285 399.999H41.0285ZM100.359 225.224C103.738 225.211 107.117 225.198 110.495 225.186L111.168 224.105C107.776 224.114 104.384 224.124 100.991 224.136L100.359 225.224ZM101.369 262.014H102.614L106.699 254.984H105.454L101.369 262.014ZM116.387 215.727H105.878L105.277 216.762H115.742L116.387 215.727ZM93.6404 216.762H99.5031L100.098 215.727H94.2382L93.6404 216.762ZM113.793 227.277L112.551 227.278C110.353 231.099 108.157 234.921 105.961 238.744L107.201 238.748C109.398 234.924 111.596 231.101 113.793 227.277V227.277ZM108.343 191.295L111.313 196.212C111.517 195.855 111.722 195.499 111.927 195.142L108.959 190.227L108.343 191.295ZM102.702 201.065C104.646 201.06 106.59 201.054 108.534 201.048C108.74 200.689 108.946 200.33 109.153 199.971C107.209 199.979 105.265 199.986 103.321 199.993L102.702 201.065ZM75.9918 366.933L70.4555 357.274C70.354 357.085 70.2406 356.893 70.1194 356.705C69.9928 356.509 69.8544 356.309 69.708 356.113C69.5685 355.927 69.4135 355.733 69.2455 355.535C69.0955 355.36 68.9364 355.186 68.7738 355.019C68.246 355.021 67.7182 355.022 67.1903 355.024C67.3048 355.118 67.4206 355.211 67.5278 355.309C67.6923 355.457 67.849 355.607 67.9929 355.757C68.1488 355.918 68.2994 356.084 68.4409 356.25C68.5854 356.419 68.7214 356.591 68.8479 356.761C68.976 356.934 69.0981 357.111 69.211 357.286C69.3208 357.457 69.4212 357.629 69.5088 357.793L74.7541 366.946L75.9918 366.933ZM63.8457 305.243L64.4556 304.187L61.4155 299.291L60.8102 300.345L63.8457 305.243ZM56.5234 307.804L58.6837 311.272C58.8432 311.568 59.0016 311.846 59.1557 312.101C59.2794 312.305 59.4099 312.503 59.5407 312.7L60.1466 311.651C60.1181 311.604 60.0873 311.561 60.0593 311.514C59.9008 311.25 59.7516 310.989 59.6157 310.734L57.1315 306.745L56.5234 307.804ZM55.7543 334.384L54.2887 336.906L55.5374 336.902L56.6866 334.925C56.8544 334.634 57.021 334.361 57.1819 334.108C57.35 333.846 57.5177 333.598 57.6851 333.363C57.8548 333.125 58.0275 332.898 58.1998 332.684C58.3815 332.458 58.5599 332.25 58.7323 332.064C58.9125 331.868 59.0954 331.683 59.2761 331.513C59.4615 331.339 59.6467 331.178 59.8313 331.03C60.0158 330.882 60.2066 330.744 60.3997 330.614C60.5901 330.487 60.7788 330.374 60.9616 330.277L61.2788 330.119L61.5942 329.985L61.9127 329.873L62.2271 329.783L62.552 329.712L62.8637 329.667L63.1852 329.641L63.508 329.637L63.8157 329.657L64.1283 329.697L64.4451 329.759L64.7562 329.84L65.0604 329.943L65.3729 330.067L65.6847 330.214L65.9852 330.376C66.1749 330.486 66.3647 330.606 66.5466 330.736C66.7268 330.863 66.9119 331.006 67.0975 331.164C67.2784 331.317 67.4594 331.482 67.6361 331.659C67.8163 331.838 67.994 332.026 68.1635 332.221C68.3334 332.415 68.5047 332.623 68.6747 332.845C68.8384 333.058 69.0014 333.283 69.158 333.516C69.3173 333.753 69.474 333.998 69.6247 334.251C69.7817 334.512 69.9305 334.773 70.0665 335.028L71.2035 336.853L72.4696 336.849L71.0027 334.494C70.8548 334.221 70.6944 333.939 70.5239 333.655C70.3602 333.383 70.1886 333.116 70.0127 332.859C69.838 332.604 69.6586 332.357 69.4767 332.121C69.2992 331.892 69.112 331.667 68.9187 331.45C68.7285 331.236 68.5368 331.034 68.3466 330.847C68.1506 330.657 67.9514 330.475 67.7522 330.308C67.5521 330.141 67.3486 329.983 67.1424 329.839C66.9363 329.693 66.7284 329.56 66.5238 329.442L66.1569 329.246L65.786 329.072L65.4102 328.924L65.0413 328.803L64.659 328.703L64.2875 328.631L63.916 328.584L63.535 328.562L63.1426 328.565L62.7588 328.594L62.3726 328.65L61.9837 328.732L61.5999 328.842L61.2146 328.978L60.8318 329.139L60.4567 329.328C60.2421 329.442 60.0287 329.569 59.82 329.708C59.6095 329.847 59.3999 330 59.1964 330.162C58.9905 330.326 58.7861 330.502 58.586 330.687C58.3866 330.873 58.1875 331.073 57.9911 331.284C57.7932 331.497 57.5941 331.725 57.4001 331.963C57.2149 332.191 57.0252 332.437 56.8373 332.698C56.6467 332.963 56.462 333.233 56.2873 333.508C56.1122 333.78 55.9347 334.073 55.7543 334.384V334.384ZM71.3171 288.588C71.1857 288.799 71.047 289.006 70.9068 289.207C70.7699 289.401 70.6287 289.589 70.4848 289.77C70.3426 289.949 70.2 290.118 70.0594 290.274C69.9191 290.429 69.772 290.579 69.6203 290.724C69.4697 290.868 69.3199 291.001 69.1728 291.119C69.0169 291.245 68.8617 291.358 68.7129 291.457C68.5659 291.555 68.414 291.646 68.2578 291.729L67.9643 291.874L67.6752 291.993L67.3841 292.091L67.088 292.165L66.7849 292.221L66.4843 292.253L66.1792 292.261L65.8736 292.25L65.6041 292.222L65.4887 292.203L64.9219 293.189L65.1122 293.233L65.4507 293.29L65.7921 293.326L66.1741 293.339L66.5534 293.328L66.927 293.29L67.3052 293.223L67.6733 293.128L68.0388 293.006L68.4051 292.856L68.7595 292.682C68.9414 292.586 69.1182 292.48 69.2894 292.366C69.4643 292.25 69.6394 292.124 69.8091 291.988C69.9772 291.854 70.1485 291.706 70.3166 291.548C70.4812 291.393 70.6459 291.227 70.8061 291.053C70.9637 290.881 71.1249 290.694 71.2867 290.493C71.4434 290.297 71.6012 290.088 71.7554 289.872C71.9033 289.663 72.0558 289.435 72.2091 289.191C72.3641 288.946 72.5115 288.697 72.6491 288.451L81.4763 273.161C81.2615 272.814 81.0467 272.468 80.8321 272.122L71.7111 287.92C71.5804 288.154 71.4478 288.378 71.3171 288.588V288.588ZM45.3159 264.221L59.2271 288.487C59.3281 288.676 59.4409 288.867 59.5622 289.055C59.6832 289.245 59.8219 289.443 59.97 289.644C60.1075 289.829 60.2628 290.022 60.4299 290.217C60.5249 290.329 60.6287 290.437 60.73 290.547L61.2964 289.572L61.2425 289.513C61.097 289.342 60.9592 289.169 60.8344 289C60.6985 288.817 60.5754 288.641 60.4706 288.476C60.3553 288.296 60.2548 288.125 60.17 287.967L47.1712 265.279L48.8533 265.262C50.5474 265.245 52.2434 265.228 53.9331 265.22L64.6507 283.801L65.2757 282.725L54.5496 264.138L45.3159 264.221ZM84.2824 268.19L84.3155 268.243L106.936 229.06H98.13L92.4801 238.782L92.6985 238.78L97.995 230.14H105.07L83.6807 267.188C83.8868 267.506 84.0904 267.831 84.2824 268.19V268.19ZM88.7299 225.268C90.6959 225.261 92.6618 225.254 94.6276 225.246L95.2553 224.153C93.2914 224.159 91.3273 224.165 89.3632 224.171L88.7299 225.268ZM59.4904 387.365L90.3807 387.343L91.0008 386.267L58.8235 386.289C59.046 386.647 59.2683 387.006 59.4904 387.365V387.365ZM91.9087 280.436L97.6402 270.573L97.0177 269.501L91.2643 279.401L91.9087 280.436ZM59.1849 150.332L58.0587 150.344L56.0787 153.575C54.4409 156.418 52.8027 159.262 51.164 162.105C51.5765 162.104 51.989 162.103 52.4015 162.101L53.4507 160.279L59.1849 150.332ZM119.47 254.984H117.798L113.42 262.014H114.976C116.475 259.675 117.973 257.332 119.47 254.984ZM104.15 149.854L111.161 161.919C111.575 161.917 111.989 161.916 112.403 161.915L105.387 149.841L104.15 149.854ZM115.906 237L108.885 249.08L110.128 249.084L117.143 237.013L115.906 237ZM98.0491 394.08C96.0923 394.08 94.1307 394.08 92.1795 394.08L91.5616 395.15C93.5187 395.152 95.4757 395.153 97.4327 395.153L98.0491 394.08ZM99.3005 301.908C99.0876 301.565 98.8746 301.222 98.6616 300.878L93.32 309.722L94.5854 309.721L99.3005 301.908ZM120.781 208.671H109.978L109.361 209.733H120.12L120.781 208.671ZM70.5394 113.327C70.3747 113.055 70.2043 112.789 70.0282 112.531C69.8535 112.278 69.6731 112.031 69.4924 111.794C69.3503 111.612 69.1936 111.428 69.0351 111.245L68.4635 112.239C68.5364 112.329 68.6086 112.411 68.6823 112.506C68.846 112.72 69.0116 112.949 69.1742 113.187C69.3275 113.412 69.4834 113.658 69.641 113.918C69.7945 114.174 69.9442 114.437 70.0847 114.699L71.5669 117.079L72.1757 116.025L71.0192 114.168C70.8704 113.894 70.7105 113.613 70.5394 113.327L70.5394 113.327ZM70.2136 129.275L73.9357 135.283L74.1686 134.924L74.9877 134.924C73.6002 132.686 72.213 130.449 70.8262 128.212L70.2136 129.275ZM68.7628 150.23L75.1464 161.296L84.3804 161.213L78.0289 150.132L76.7941 150.145L82.5283 160.153L75.7656 160.212L69.9984 150.217L68.7628 150.23ZM67.7064 133.711L67.6724 133.686L67.1285 134.63C67.2663 134.74 67.4057 134.856 67.5461 134.983C67.7117 135.132 67.8684 135.284 68.0122 135.432C68.1688 135.592 68.3188 135.756 68.4583 135.92C68.5994 136.086 68.7363 136.258 68.8671 136.432C68.9997 136.61 69.1218 136.787 69.23 136.957C69.3419 137.133 69.4429 137.303 69.5289 137.464L70.9317 139.913L71.5901 138.898L70.4701 136.944C70.3696 136.756 70.2572 136.565 70.136 136.377C70.0095 136.181 69.8717 135.982 69.7238 135.785C69.5789 135.591 69.4241 135.398 69.2636 135.21C69.1063 135.025 68.9397 134.843 68.7686 134.667C68.6089 134.502 68.4333 134.333 68.2464 134.163C68.0812 134.014 67.9003 133.862 67.7064 133.711V133.711ZM72.2729 140.09L71.0325 140.089L73.7859 144.895L75.024 144.89L72.2729 140.09ZM75.1219 120.755L74.5139 121.811L82.6763 134.918L83.9428 134.917L75.1219 120.755ZM79.8777 144.87L81.1515 144.865C80.1653 143.274 79.179 141.683 78.1924 140.092L76.9147 140.092L78.0809 141.974L79.8777 144.87ZM92.9991 297.88C94.3866 297.88 95.6322 297.882 96.8067 297.886L96.1413 296.813C94.8929 296.81 93.6444 296.803 92.3962 296.803C91.9626 297.507 91.5299 298.211 91.0982 298.916L91.7073 299.979L92.9991 297.88ZM102.879 385.677L99.844 380.804L99.2338 381.861L102.27 386.736C102.473 386.383 102.676 386.03 102.879 385.677ZM82.4902 354.976L89.8453 366.786L91.1054 366.772L83.7561 354.972C83.334 354.974 82.9121 354.975 82.4902 354.976ZM88.117 342.624L91.9288 349.184H93.1751L89.3632 342.624H88.117ZM93.1401 372.076L96.2754 377.111L96.885 376.053L94.4053 372.071L93.1401 372.076ZM98.4536 403.292L97.8298 404.365C97.9906 404.643 98.1565 404.933 98.3171 405.21L98.9626 406.325L96.677 406.349L96.0482 407.431L100.813 407.381L98.4536 403.292ZM88.8757 399.803L94.7743 399.779L95.3946 398.7L89.4987 398.724L88.8757 399.803ZM98.3851 420.339C95.0987 420.351 91.8123 420.363 88.5259 420.376L87.9082 421.438C91.1817 421.428 94.4552 421.418 97.7286 421.408L98.3851 420.339ZM87.831 306.277L89.1255 304.174L88.8834 304.176L88.3918 303.324C87.0809 305.459 85.7702 307.593 84.4595 309.728L85.7161 309.727L87.831 306.277ZM92.6666 262.014H93.8305C95.1774 259.671 96.524 257.328 97.8703 254.984H96.6273C93.3366 260.71 90.046 266.436 86.7555 272.161L87.4022 273.199C89.3524 269.807 91.3023 266.414 93.2518 263.021L92.6666 262.014ZM88.4007 284.329L85.5502 289.234L86.1686 290.313L89.0438 285.366C88.8293 285.02 88.6149 284.674 88.4007 284.329ZM83.918 277.098C82.7611 279.112 81.6039 281.125 80.4464 283.139C80.6732 283.221 80.8938 283.319 81.1064 283.433C81.2112 283.492 81.3027 283.571 81.4038 283.637C82.4571 281.804 83.5103 279.972 84.5632 278.139L83.918 277.098ZM78.9732 372.134L77.7304 372.139L80.4616 376.905L81.7083 376.906L78.9732 372.134ZM114.419 201.029L114.802 201.028L115.48 201.027L114.94 200.132L114.419 201.029ZM74.7976 342.624L78.8829 349.184H80.1514L76.0662 342.624H74.7976ZM82.8971 293.799L72.995 310.838C72.8348 311.116 72.6688 311.389 72.4969 311.658C72.3341 311.912 72.1661 312.161 71.9955 312.401C71.8241 312.641 71.6508 312.868 71.4785 313.08C71.3053 313.294 71.1277 313.501 70.9485 313.694C70.7672 313.892 70.5845 314.077 70.4036 314.248C70.2191 314.421 70.033 314.583 69.8484 314.731C69.6615 314.88 69.4745 315.018 69.2872 315.143C69.1034 315.266 68.9135 315.38 68.7182 315.483L68.4053 315.64L68.0875 315.775L67.7712 315.888L67.4577 315.977L67.1338 316.048L66.8213 316.092L66.4964 316.119L66.1715 316.122L65.8709 316.104L65.5541 316.063L65.243 316.004L64.9269 315.92L64.6255 315.82L64.312 315.694L63.9985 315.546L63.696 315.383L63.6925 315.38L63.1547 316.314L63.159 316.316L63.5212 316.512L63.8936 316.687L64.2633 316.835L64.6391 316.957L65.0196 317.057L65.3926 317.129L65.774 317.176L66.1498 317.199L66.5341 317.195L66.926 317.166L67.314 317.109L67.7012 317.027L68.0841 316.919L68.4651 316.783L68.8444 316.623L69.2265 316.435C69.4333 316.324 69.6463 316.197 69.8578 316.056C70.0684 315.916 70.278 315.763 70.4833 315.601C70.683 315.442 70.8893 315.264 71.0956 315.073C71.1536 315.019 71.2104 314.956 71.2682 314.9L70.8045 314.899L74.1558 309.735L74.8825 309.734L83.5177 294.874L82.8971 293.799ZM70.9525 56.1877L73.8308 51.1916L73.2088 50.1062L70.3072 55.1468L70.9525 56.1877ZM75.4084 63.3749L78.4184 58.1609C78.1316 57.9281 77.8623 57.6746 77.6124 57.4026L74.7643 62.3361C74.9789 62.6824 75.1936 63.0287 75.4084 63.3749ZM76.2525 44.819L75.8433 45.53L76.4683 46.6137L84.6268 32.4526L83.3808 32.4536L76.2525 44.819ZM66.3112 38.0694L59.7227 38.0742L60.3898 39.1503L66.9281 39.146L66.3112 38.0694ZM99.0448 22.43L97.7992 22.4351L80.1532 53.0015L80.7746 54.079L99.0448 22.43ZM45.3323 43.8929L59.2433 68.1586C59.3447 68.3474 59.4589 68.5396 59.5803 68.7293C59.7067 68.9248 59.8455 69.1235 59.9919 69.3182C60.1336 69.5098 60.2888 69.7019 60.4508 69.8936C60.6094 70.0778 60.7765 70.2613 60.9489 70.4389C61.117 70.6112 61.2911 70.7802 61.4677 70.9389C61.6341 71.0877 61.8157 71.2419 62.0108 71.3936C62.1883 71.5329 62.3737 71.6682 62.5617 71.7953C62.7471 71.9202 62.9375 72.0379 63.1272 72.1427L63.4649 72.3221L63.8 72.4807L64.1346 72.6181L64.4699 72.7343L64.8065 72.832L65.1402 72.9076L65.477 72.9622L65.8087 72.9976L66.1925 73.0105L66.5735 73.0001L66.9441 72.9622L67.326 72.8938L67.6935 72.7994C67.8285 72.7612 67.9515 72.7205 68.0588 72.6789L68.4193 72.5309L68.7787 72.3552C68.9468 72.2658 69.1243 72.1591 69.3098 72.0379C69.4741 71.9288 69.6474 71.8024 69.8259 71.6612C69.9868 71.5329 70.1559 71.3865 70.3342 71.2203C70.4997 71.0663 70.6625 70.9007 70.8238 70.726C70.983 70.5527 71.1449 70.3647 71.3053 70.1655C71.4561 69.9774 71.6122 69.7703 71.7738 69.5443C71.9202 69.3365 72.0716 69.1087 72.2251 68.8662C72.3346 68.6926 72.4484 68.497 72.5617 68.301L71.9178 67.2672L71.7289 67.5945C71.5991 67.825 71.4622 68.0529 71.3243 68.2729C71.1927 68.4834 71.0567 68.6878 70.9189 68.8833C70.783 69.0781 70.6418 69.2661 70.5006 69.4437C70.3518 69.6317 70.2103 69.7989 70.0761 69.9453C69.9297 70.1073 69.7809 70.2588 69.6345 70.3981C69.4855 70.5412 69.3358 70.6728 69.1894 70.7896C69.0361 70.9145 68.8826 71.026 68.7354 71.1247C68.5786 71.229 68.4245 71.3216 68.2765 71.4003L67.9801 71.5458L67.6919 71.6644L67.3965 71.7635L67.103 71.8377L66.805 71.8914L66.501 71.9235L66.1936 71.9348L65.8878 71.9208L65.615 71.8923L65.3378 71.8465L65.0598 71.7814L64.7826 71.7003L64.4985 71.5997L64.2161 71.4845L63.9319 71.35L63.6558 71.2046C63.4886 71.1111 63.3206 71.0063 63.1535 70.8944C62.9845 70.7801 62.8182 70.6589 62.6587 70.5324C62.4916 70.4011 62.3272 70.2632 62.1714 70.123C62.0049 69.974 61.8481 69.8215 61.7028 69.6741C61.5521 69.5183 61.402 69.352 61.2565 69.1814C61.1162 69.0179 60.9786 68.8446 60.8477 68.6704C60.7198 68.499 60.5993 68.323 60.4876 68.1497C60.3766 67.9765 60.2752 67.8041 60.1868 67.6389L47.1877 44.9498L48.882 44.9332C50.5726 44.9149 52.265 44.8968 53.9503 44.889L65.7124 65.2831L68.1004 61.1382L67.4548 60.1017L65.7133 63.127L54.5671 43.8088L45.3323 43.8929ZM24.6299 195.291L33.6456 179.673L33.0044 178.629L22.7609 196.372H32.3066L37.6092 187.724L38.5828 187.713L37.9266 186.644L36.9984 186.654L31.7057 195.291H24.6299ZM39.2486 167.813L35.4607 174.374H36.7046L40.492 167.813H39.2486ZM14.0747 201.344L36.4587 201.268C56.6347 201.201 76.8119 201.139 96.9902 201.083L97.6062 200.014C91.7218 200.036 85.8378 200.058 79.9542 200.08L15.9376 200.261L30.6072 174.725L30.3916 174.374H30.809L34.5778 167.813H33.3437C26.921 178.99 20.498 190.167 14.0747 201.344ZM83.1095 150.078L90.4967 161.983L91.763 161.979C89.3024 158.007 86.84 154.035 84.3758 150.065L83.1095 150.078ZM72.5082 38.0648L71.5373 38.0655L72.1587 39.1427L73.0945 39.1422C74.5445 36.9167 75.9904 34.6886 77.4322 32.4578L76.1458 32.4588L72.5082 38.0648ZM99.5143 161.955C99.9367 161.954 100.359 161.952 100.781 161.951L93.3187 149.97L92.0586 149.983L99.5143 161.955ZM102.444 144.777L99.7271 140.101L98.4815 140.101L101.202 144.782L102.444 144.777ZM96.7089 134.908L93.4635 129.324L92.2246 129.335L95.464 134.909L96.7089 134.908ZM20.9125 30.2757L58.6933 90.9325C58.8499 91.2244 59.0122 91.5068 59.1741 91.7753C59.3385 92.0463 59.5099 92.3131 59.686 92.5713C59.8612 92.8268 60.0399 93.0725 60.2222 93.3083C60.3997 93.5381 60.5877 93.7634 60.7798 93.9805C60.9713 94.1963 61.1633 94.3987 61.3559 94.5877C61.5508 94.7774 61.7501 94.9592 61.9482 95.1248C62.1476 95.292 62.3511 95.4497 62.5563 95.5943C62.7554 95.7354 62.9632 95.868 63.1737 95.9893L63.5367 96.1848L63.9055 96.3581L64.2765 96.5044L64.6504 96.6267L65.029 96.7262L65.4076 96.8008L65.7895 96.8491L66.1636 96.8708L66.5508 96.8674L66.938 96.8387L67.3287 96.7816L67.7158 96.6994L68.1011 96.5894L68.4816 96.4553L68.8645 96.2933L69.2412 96.1061C69.449 95.9961 69.6614 95.869 69.8743 95.7275C70.0804 95.5916 70.2891 95.4399 70.4987 95.2747C70.6996 95.1147 70.9068 94.9362 71.1127 94.7438C71.3119 94.5576 71.511 94.3592 71.7061 94.1496C71.9019 93.9402 72.0983 93.7139 72.2915 93.4793C72.4718 93.2583 72.6624 93.008 72.8598 92.7352C73.0511 92.4685 73.2367 92.1966 73.4133 91.9219C73.5873 91.6519 73.7639 91.3597 73.9443 91.0499L81.3882 78.2403C81.3463 78.2407 81.3034 78.2554 81.2614 78.2543C80.9139 78.2422 80.5697 78.1819 80.2388 78.0751L73.0124 90.5102C72.8504 90.7909 72.6857 91.0637 72.5185 91.3218C72.3548 91.5773 72.1865 91.827 72.0135 92.071C71.844 92.3091 71.6708 92.5352 71.4984 92.7491C71.3171 92.9734 71.1387 93.1797 70.9673 93.3656C70.7864 93.5633 70.6027 93.7485 70.4216 93.9202C70.2374 94.0935 70.0519 94.2554 69.8683 94.4033C69.6855 94.5496 69.4949 94.6884 69.3026 94.8163C69.1173 94.9396 68.9287 95.0526 68.737 95.1552L68.4218 95.312L68.1065 95.4461L67.7853 95.5614L67.4724 95.6496L67.1503 95.7208L66.8333 95.7658L66.5164 95.7908L66.1906 95.7954L65.8885 95.7771L65.5688 95.7364L65.2615 95.6756L64.9409 95.5915L64.6412 95.4914L64.3267 95.3657L64.0235 95.2235L63.7134 95.0564C63.5256 94.9471 63.3357 94.8261 63.1489 94.6926C62.9633 94.5628 62.7798 94.4188 62.5989 94.2672C62.4247 94.1208 62.2454 93.956 62.0611 93.7728C61.8808 93.5952 61.7042 93.4071 61.5343 93.2124C61.3681 93.0218 61.1991 92.8155 61.032 92.5974C60.8622 92.3751 60.6976 92.147 60.5434 91.9194C60.3946 91.7009 60.2385 91.455 60.0776 91.1882C59.9241 90.9336 59.7752 90.6712 59.6313 90.4036L22.8553 31.3521L47.4295 31.3722L49.5616 31.3726L48.8865 30.2887C39.5618 30.2844 30.2371 30.2801 20.9125 30.2757ZM132.277 505.009L131.653 503.936L101.217 503.949C106.312 495.769 111.729 487.38 117.127 478.939L116.353 477.607L99.2727 505.028C110.274 505.018 121.275 505.012 132.277 505.009ZM34.8304 38.0926L50.6841 63.6477L66.5301 89.2194C69.5785 83.9136 72.6275 78.6082 75.677 73.3032L75.0312 72.2662L66.4956 87.1183L59.2139 75.404L51.6093 63.1454L36.7681 39.1657L54.4082 39.1543L53.7383 38.0786L34.8304 38.0926ZM126.246 309.924L126.862 310.996L132.755 311.013L132.136 309.943L126.246 309.924ZM115.394 128.909C115.904 128.913 116.415 128.921 116.926 128.925L116.297 127.843L116.005 127.84L110.704 119.19H101.158L111.142 136.485L113.398 140.107H113.233L119.847 151.563L120.02 151.563L129.998 167.813H129.228L135.448 178.587C135.598 178.854 135.746 179.101 135.889 179.328C136.041 179.571 136.191 179.797 136.338 180.004C136.49 180.219 136.648 180.427 136.806 180.622C136.967 180.823 137.127 181.011 137.288 181.185C137.411 181.318 137.538 181.442 137.664 181.565L138.249 180.625C138.178 180.551 138.107 180.484 138.036 180.406C137.895 180.251 137.752 180.081 137.608 179.901C137.465 179.722 137.325 179.535 137.189 179.341C137.056 179.152 136.919 178.944 136.781 178.725L136.383 178.054L103.024 120.272H110.101L115.394 128.909ZM137.109 318.539H131.197L131.82 319.624H137.825C137.565 319.276 137.326 318.914 137.109 318.539V318.539ZM53.462 172.802C54.5401 171.129 55.6204 169.466 56.7029 167.813H55.4195L51.163 174.374H108.519L104.433 167.813H103.163L106.861 173.751H104.697C87.0142 173.751 69.3267 173.75 52.8651 173.729L53.462 172.802ZM125.751 335.729L135.522 335.759L134.892 334.677L125.087 334.647L125.751 335.729ZM126.855 0H125.611L124.994 1.06079L126.231 1.0746L126.855 0ZM98.0095 9.81238H105.086L100.909 17.0474L102.159 17.0342L106.952 8.73146H97.407L92.2533 17.1392L93.528 17.1256L98.0095 9.81238ZM114.785 5.25336L113.542 5.25709L110.713 10.1789H111.954C112.897 8.53678 113.841 6.89495 114.785 5.25336ZM112.63 447.441H113.872C114.45 446.434 115.028 445.427 115.607 444.421L114.944 444.423C110.992 444.433 107.039 444.444 103.086 444.458C103.293 444.818 103.5 445.179 103.707 445.539C107.052 445.526 110.398 445.513 113.744 445.501C113.372 446.148 113.001 446.794 112.63 447.441ZM97.9784 450.47H100.583L99.9524 449.386H97.3732L92.0734 458.037L28.8509 458.707C30.5226 461.602 32.193 464.497 33.8622 467.393L86.7683 467.175L76.2128 485.47L65.6798 503.782L54.5334 484.466L45.3002 484.55L59.2114 508.815C59.3118 509.004 59.4253 509.194 59.5467 509.383C59.6722 509.579 59.8106 509.779 59.9579 509.974C60.1034 510.168 60.2586 510.361 60.4188 510.551C60.5754 510.736 60.7427 510.919 60.9138 511.094C61.0829 511.268 61.2578 511.437 61.4344 511.596C61.6008 511.746 61.7816 511.898 61.9768 512.051C62.1552 512.19 62.3423 512.326 62.532 512.453C62.7224 512.581 62.9113 512.697 63.0948 512.801L63.432 512.978L63.7686 513.136L64.0994 513.272L64.4391 513.389L64.7742 513.489L65.1078 513.564L65.4446 513.619L65.7746 513.654L66.156 513.668L66.538 513.656L66.9119 513.618L67.2886 513.551L67.6545 513.457L68.0223 513.337L68.387 513.186L68.7445 513.012C68.9172 512.92 69.0957 512.814 69.2757 512.694C69.4517 512.578 69.6247 512.452 69.7945 512.315C69.9635 512.18 70.1339 512.033 70.3038 511.874C70.4597 511.727 70.6217 511.563 70.7897 511.381C70.9491 511.208 71.1112 511.02 71.273 510.818C71.4308 510.623 71.5875 510.415 71.741 510.198C71.8938 509.98 72.0465 509.752 72.1938 509.519C72.348 509.275 72.4944 509.028 72.6318 508.782L103.447 455.4L102.825 454.329L71.6932 508.251C71.5554 508.496 71.4219 508.721 71.2947 508.922C71.1572 509.143 71.0202 509.348 70.8869 509.539C70.7515 509.731 70.6122 509.918 70.4719 510.094C70.3281 510.276 70.1836 510.446 70.0424 510.602C69.8932 510.768 69.7453 510.919 69.6014 511.055C69.4517 511.197 69.3026 511.329 69.1553 511.448C69.0014 511.572 68.8479 511.685 68.7 511.785C68.5474 511.886 68.3925 511.979 68.241 512.059L67.9454 512.204L67.658 512.322C67.4669 512.393 67.2706 512.45 67.0708 512.492L66.7675 512.548L66.4669 512.579L66.1613 512.588L65.8546 512.577L65.5843 512.549L65.2984 512.5L65.025 512.438L64.7442 512.356L64.4627 512.257L64.1813 512.141L63.8928 512.005L63.62 511.86C63.4553 511.767 63.2892 511.664 63.1228 511.552C62.9522 511.439 62.784 511.315 62.623 511.189C62.4654 511.067 62.3034 510.928 62.1406 510.782C61.9734 510.631 61.8157 510.478 61.6695 510.329C61.5145 510.169 61.3653 510.005 61.2269 509.843C61.0805 509.67 60.9428 509.498 60.8172 509.328C60.6846 509.15 60.5617 508.973 60.4534 508.802C60.34 508.624 60.2385 508.453 60.1544 508.295L47.1548 485.608L53.9184 485.547L65.6789 505.938L88.6346 466.091L34.4806 466.313C33.4534 464.546 32.453 462.806 31.4431 461.049L30.7035 459.764L92.6822 459.107L97.9784 450.47ZM106.919 449.386H105.918L106.418 450.255L106.919 449.386ZM113.79 463.083L116.71 458.057L116.09 456.982L113.17 462.005L113.79 463.083ZM84.7388 336.811L85.9827 336.808L80.4106 327.219H114.756L114.256 326.391L120.007 326.373L120.526 327.219H130.559L129.93 326.137H78.5355L84.7388 336.811ZM118.27 369.191L123.753 378.688L124.4 377.651L118.895 368.116L118.27 369.191ZM112.23 450.297L111.608 449.219C110.643 450.897 109.679 452.575 108.715 454.253L109.336 455.333C110.3 453.654 111.265 451.975 112.23 450.297L112.23 450.297ZM119.423 356.223L119.615 356.556L119.805 356.224L119.423 356.223ZM102.365 296.83L102.119 296.83L102.244 297.031L102.365 296.83ZM83.8111 398.747L77.9044 398.771L78.524 399.845L83.1893 399.826L83.8111 398.747ZM66.7482 224.239L67.4283 225.336L73.4256 225.32L72.796 224.221C70.78 224.227 68.7641 224.233 66.7482 224.239ZM50.9655 342.624L47.1536 349.184H48.4002L52.212 342.624H50.9655ZM80.6302 421.461L82.3167 421.456L82.9254 420.396C82.1565 420.399 81.3876 420.402 80.6187 420.405L79.9768 420.407C80.1944 420.758 80.4122 421.11 80.6302 421.461ZM79.5169 225.303C80.6928 225.299 81.8686 225.294 83.0444 225.289L83.6789 224.188C81.8056 224.194 79.9323 224.2 78.0591 224.205L78.6935 225.305L79.5169 225.303ZM38.3583 421.591C50.4883 421.551 62.6184 421.514 74.7486 421.479L74.0914 420.424L15.9229 420.588L41.8228 375.502L53.5722 355.067C53.1585 355.068 52.7451 355.069 52.3318 355.07C39.5761 377.272 26.8182 399.472 14.0581 421.671L38.3583 421.591ZM43.7173 355.097L41.8329 358.34L42.4683 359.392L44.9662 355.093C44.5497 355.095 44.1334 355.096 43.7173 355.097ZM87.9574 216.762L88.5538 215.727H73.1693L73.7662 216.762H87.9574ZM104.153 208.671H98.3112L97.698 209.733H103.542L104.153 208.671ZM47.8757 167.813C46.6154 170 45.3555 172.187 44.096 174.374H45.3381L49.114 167.813H47.8757ZM86.814 238.842L87.4367 237.758L75.2105 237.888C75.4315 238.245 75.6526 238.601 75.8736 238.958L86.814 238.842ZM110.232 188.021C111.736 188.015 113.31 188.012 115.094 188.011C115.256 188.276 115.413 188.531 115.575 188.795L116.188 187.729L115.699 186.933L110.852 186.947L110.232 188.021ZM82.2027 246.866C82.4095 246.507 82.6161 246.147 82.8224 245.788L80.1152 245.799C80.337 246.157 80.5589 246.514 80.7808 246.872L82.2027 246.866ZM77.1448 264.429C77.4525 264.264 77.779 264.137 78.1172 264.051L88.6529 245.764L88.4221 245.765L86.5965 248.906C85.8891 250.252 84.8769 251.413 83.6408 252.297L76.3291 264.97C76.5851 264.767 76.8579 264.586 77.1447 264.429H77.1448ZM44.3377 187.652L100.831 187.054L96.8291 180.12L95.5886 180.124C96.5083 181.728 97.4121 183.293 98.308 184.838L98.9788 185.998L43.692 186.583L44.3377 187.652ZM119.252 192.714L118.632 193.78C120.534 196.881 122.424 199.959 124.303 203.016L124.945 201.985L122.58 198.129L119.252 192.714ZM124.154 184.277L129.86 194.094L130.504 193.061L124.777 183.206L124.154 184.277ZM123.274 167.813L127.044 174.374H128.279L124.509 167.813H123.274ZM127.903 206.807C127.69 207.149 127.478 207.492 127.266 207.834L127.781 208.671H126.747C126.527 209.025 126.308 209.379 126.088 209.733H129.698L127.903 206.807ZM125.821 222.079L129.066 216.495L128.491 216.49L128.929 215.726H122.372C122.158 216.072 121.944 216.417 121.73 216.762H127.667L124.577 222.078L125.821 222.079ZM135.594 201.784C135.423 201.519 135.258 201.246 135.099 200.969L133.369 197.991L132.727 199.027L134.167 201.506C134.346 201.818 134.523 202.109 134.697 202.379C134.872 202.653 135.058 202.926 135.249 203.192C135.414 203.42 135.579 203.632 135.742 203.836L136.321 202.825C136.247 202.726 136.176 202.638 136.1 202.533C135.927 202.291 135.756 202.042 135.594 201.785L135.594 201.784ZM128.468 176.854L134.288 186.984L134.932 185.95L129.09 175.784L128.468 176.854ZM98.3365 342.624H97.0929C98.3503 344.81 99.6069 346.997 100.863 349.184H102.106L98.3365 342.624ZM132.117 231.998L133.693 232.004C134.632 230.418 135.535 228.843 136.444 227.267L135.063 227.267L132.117 231.998ZM119.644 174.374L115.831 167.813H114.586L118.399 174.374H119.644ZM95.2716 354.936L102.082 366.656L102.317 366.654L102.836 365.807L96.5156 354.932L95.2716 354.936ZM105.223 283.621L101.234 283.623C101.914 282.532 102.618 281.424 103.308 280.326L102.683 279.25L99.2889 284.699C101.475 284.697 103.661 284.696 105.848 284.696L105.223 283.621ZM109.872 267.709L105.77 274.294L106.41 275.408C108.031 272.857 109.668 270.292 111.322 267.714L109.872 267.709ZM108.586 140.105L107.35 140.105L114.115 151.87L119.872 161.891L120.495 161.89L114.268 151.58L115.178 151.577L108.586 140.105ZM110.719 293.078L110.098 292.009L107.263 296.923L112.989 296.984L112.358 295.899L109.114 295.865L109.596 295.026C109.968 294.381 110.343 293.73 110.719 293.078H110.719ZM121.121 310.979L120.498 309.906L110.243 309.874L110.913 310.949L121.121 310.979ZM73.5442 355.004L78.0652 362.301L80.9064 366.881L82.1755 366.867C79.7225 362.911 77.2699 358.956 74.8175 355C74.3929 355.001 73.9685 355.003 73.5442 355.004ZM140.952 441.049L141.337 440.731V439.392L140.952 439.679V441.049ZM140.952 427.596C141.08 427.619 141.207 427.646 141.337 427.669V426.581C141.198 426.554 141.079 426.514 140.952 426.488V427.596ZM140.952 319.624H141.337V318.539H140.952V319.624ZM139.673 454.5L140.935 454.513L141.279 453.958L141.337 453.757V453.164L140.627 452.962L139.673 454.5ZM138.233 412.047L136.984 412.034L140.621 418.364L141.337 418.173V417.548L141.284 417.357L138.233 412.047ZM140.952 496.567C140.513 496.517 140.088 496.383 139.699 496.173L139.667 496.152L132.791 496.147L133.411 497.225C136.053 497.227 138.695 497.229 141.337 497.23V496.153L140.952 496.153L140.952 496.567ZM140.183 464.058C140.024 464.19 139.875 464.32 139.736 464.449L139.638 464.545L140.952 464.545V464.826L141.337 464.529V463.211L140.453 463.843L140.183 464.058ZM137.867 480.763C137.473 481.443 137.078 482.138 136.683 482.819L137.308 483.903L141.284 477.01L141.337 476.82V476.199L140.621 476.009L137.867 480.763ZM140.952 335.514V335.777L141.337 335.778V334.696L140.481 334.693L140.952 335.514ZM137.883 505.006C139.034 505.006 140.186 505.006 141.337 505.004V503.932L137.267 503.934L137.883 505.006ZM136.186 327.219H141.337V326.137H135.563L136.186 327.219ZM112.59 342.624H111.325L115.344 349.184H129.897L129.776 349.392C133.63 349.436 137.484 349.477 141.337 349.516V348.436L115.99 348.169L112.59 342.624ZM140.952 357.385L141.337 357.387V356.312L140.952 356.311V357.385ZM135.802 368.854L135.135 369.929L141.337 369.936V368.858L139.192 368.86C138.062 368.861 136.931 368.863 135.802 368.854L135.802 368.854ZM137.293 385.082L136.673 386.158L140.621 393.01L141.337 392.818V392.2L141.284 392.01L137.293 385.082ZM139.953 362.159L141.337 362.158V361.08L140.622 361.081L139.953 362.159ZM139.819 402.189C139.757 402.157 139.693 402.113 139.631 402.076L137.842 402.077C137.984 402.207 138.127 402.334 138.265 402.445C138.436 402.581 138.611 402.708 138.786 402.825C138.96 402.939 139.137 403.045 139.316 403.142L139.577 403.273L139.837 403.386L140.095 403.487C140.508 403.621 140.915 403.714 141.337 403.819V402.714L140.622 402.527C140.346 402.435 140.078 402.322 139.819 402.189L139.819 402.189ZM23.9699 238.471L16.1273 225.479L61.4872 225.353L60.8049 224.257C58.4043 224.265 56.0037 224.272 53.603 224.279L14.216 224.408L22.0621 237.399L14.6046 237.421C13.0422 234.903 11.517 232.432 10.0289 230.008L1.91679 216.762H56.1364L55.4916 215.727H0.017172C4.68476 223.312 9.36893 230.894 13.9992 238.502C17.3227 238.483 20.6468 238.48 23.9699 238.471ZM16.1081 445.806L79.5715 445.63C85.6251 445.611 91.678 445.588 97.7301 445.562L97.0994 444.476C84.4366 444.513 71.7741 444.551 59.1118 444.59L14.2002 444.736L22.0464 457.728L14.5874 457.749C13.0266 455.236 11.5029 452.767 10.0161 450.342L1.9002 437.088H92.8061L92.6526 436.824H129.049L129.496 436.055H0L4.84047 443.931C7.88089 448.901 10.9546 453.852 13.9835 458.829C17.3061 458.81 20.6311 458.809 23.9544 458.8L16.1081 445.806ZM51.0975 208.671H2.03278L56.7038 114.595C56.8684 114.31 57.0355 114.034 57.2026 113.773C57.369 113.513 57.537 113.264 57.7027 113.032C57.8698 112.798 58.0445 112.569 58.2239 112.348C58.3953 112.135 58.5728 111.93 58.7513 111.734C58.9231 111.546 59.1057 111.362 59.2936 111.185C59.484 111.005 59.6703 110.842 59.8497 110.7C60.0349 110.552 60.2222 110.415 60.4083 110.291C60.6013 110.162 60.7936 110.048 60.9817 109.949L61.2962 109.791L61.6112 109.656L61.9327 109.542L62.2419 109.455L62.5658 109.384L62.8828 109.339L63.204 109.312L63.5227 109.309L63.8319 109.328L64.142 109.368L64.4123 109.421L64.9745 108.453L64.6817 108.377L64.3081 108.304L63.9262 108.256L63.5504 108.234L63.1675 108.236L62.777 108.265L62.3943 108.321L62.001 108.404L61.6233 108.511L61.2334 108.648L60.8542 108.809L60.4732 108.997C60.2584 109.112 60.046 109.239 59.8382 109.376C59.6286 109.515 59.419 109.668 59.2146 109.831C59.0136 109.99 58.8092 110.167 58.6038 110.357C58.4041 110.544 58.204 110.744 58.008 110.955C57.8098 111.167 57.6125 111.395 57.4183 111.632C57.2319 111.862 57.0416 112.11 56.8519 112.373C56.6606 112.639 56.4743 112.911 56.2984 113.185C56.1261 113.454 55.9493 113.746 55.7698 114.056L0.168054 209.733H51.7589L51.0975 208.671ZM110.228 467.068L72.9793 531.165C72.8156 531.448 72.6493 531.723 72.4831 531.983C72.315 532.245 72.1461 532.494 71.9789 532.728C71.8032 532.973 71.63 533.201 71.4619 533.409C71.2896 533.622 71.1111 533.828 70.9308 534.024C70.7508 534.221 70.5679 534.406 70.3869 534.578C70.2023 534.751 70.0162 534.913 69.8317 535.061C69.6533 535.205 69.4653 535.342 69.2737 535.471C69.0876 535.595 68.8955 535.708 68.7038 535.812L68.3896 535.968L68.0727 536.102L67.7555 536.216L67.4396 536.305L67.1157 536.376L66.8013 536.422L66.4807 536.446L66.1551 536.45L65.8458 536.432L65.5333 536.391L65.2203 536.33L64.9111 536.247L64.6107 536.148L64.2912 536.02L63.9854 535.878L63.6812 535.713C63.4863 535.6 63.2968 535.479 63.1176 535.353C62.9373 535.225 62.7536 535.082 62.5684 534.925C62.3863 534.771 62.2065 534.606 62.0288 534.43C61.8494 534.251 61.6719 534.063 61.502 533.869C61.3359 533.679 61.1669 533.473 60.9998 533.255C60.8293 533.031 60.6646 532.805 60.5112 532.577C60.3519 532.34 60.1943 532.095 60.0444 531.844C59.8851 531.58 59.7358 531.317 59.5984 531.061L22.8226 472.007L48.3934 472.028L76.8164 472.033L72.4762 478.721L34.7976 478.748L50.6505 504.304L66.4945 529.875C79.7891 506.736 93.0871 483.597 106.388 460.461L105.764 459.387C92.661 482.181 79.5607 504.977 66.4634 527.774L51.5763 503.801L36.7335 479.824L73.0616 479.8C74.9792 476.856 76.8916 473.909 78.799 470.958C59.4919 470.941 40.185 470.933 20.8781 470.933L58.6667 531.6C58.825 531.896 58.9836 532.173 59.1385 532.428C59.3144 532.716 59.486 532.985 59.6521 533.228C59.8254 533.482 60.0048 533.728 60.1859 533.962C60.3649 534.193 60.5529 534.419 60.7454 534.637C60.9367 534.852 61.1288 535.054 61.3186 535.24C61.5145 535.432 61.7146 535.612 61.9119 535.779C62.1131 535.946 62.318 536.105 62.5234 536.25C62.7306 536.395 62.9374 536.528 63.1437 536.644L63.509 536.841L63.8773 537.014L64.2497 537.163L64.6256 537.286L65.0085 537.386L65.379 537.458L65.7576 537.505L66.1317 537.527L66.5189 537.524L66.907 537.494L67.295 537.44L67.684 537.357L68.0693 537.248L68.4522 537.112L68.8336 536.951L69.2085 536.764C69.4233 536.649 69.6355 536.521 69.8442 536.384C70.0538 536.245 70.2635 536.094 70.4669 535.931C70.6645 535.774 70.8693 535.597 71.0811 535.4C71.2808 535.215 71.4785 535.015 71.6741 534.806C71.8718 534.593 72.0691 534.367 72.2614 534.13C72.4492 533.9 72.64 533.651 72.8297 533.389C73.0202 533.125 73.2056 532.853 73.3807 532.579C73.5615 532.297 73.7419 532.004 73.9133 531.703L110.851 468.14L110.228 467.068ZM85.5904 55.9149C84.9877 57.1501 84.0469 58.189 82.8773 58.9107C82.8048 58.9493 82.7333 58.9572 82.661 58.99L77.8643 67.3364C78.079 67.6831 78.2938 68.0295 78.5087 68.3757C86.6788 54.1617 94.8479 39.9471 103.016 25.7319L85.5904 55.9149ZM33.8942 26.7358L86.8019 26.5191L86.3599 27.2858L87.6033 27.2864L88.6694 25.4358L34.5169 25.6566C33.3424 23.6436 32.2236 21.6949 31.1037 19.747L30.7355 19.1067L54.0072 18.8605L53.3897 17.7902L28.8829 18.0511C30.5543 20.9446 32.2247 23.8395 33.8942 26.7358ZM23.9874 18.1427L16.1439 5.1491L33.804 5.10006L33.1397 4.01823L14.2323 4.08031L22.0811 17.0724L21.5495 17.0739C19.377 17.0834 17.2127 17.0931 14.622 17.0931L4.1234 0H2.85997L14.0165 18.1705L23.9874 18.1427ZM112.879 509.645L135.023 509.736L134.396 508.656C127.016 508.622 119.637 508.593 112.257 508.567L107.247 517.252L141.337 517.612V516.536L109.098 516.193L112.879 509.645ZM134.131 642.163C134.3 642.459 134.478 642.75 134.658 643.03C134.836 643.307 135.024 643.581 135.217 643.851C135.399 644.103 135.587 644.349 135.783 644.588C135.977 644.826 136.173 645.052 136.371 645.264C136.568 645.476 136.769 645.677 136.969 645.863C137.168 646.049 137.373 646.225 137.578 646.387C137.782 646.55 137.991 646.702 138.201 646.841C138.411 646.98 138.624 647.108 138.838 647.223L139.165 647.387L139.482 647.526L139.807 647.649C140.308 647.803 140.819 647.92 141.337 648V646.911C141.005 646.848 140.7 646.793 140.374 646.702L140.122 646.619L139.858 646.517L139.605 646.404L139.341 646.272C139.156 646.173 138.966 646.059 138.773 645.931C138.587 645.807 138.4 645.669 138.213 645.52C138.028 645.372 137.841 645.21 137.657 645.036C137.476 644.865 137.292 644.679 137.11 644.482C136.931 644.287 136.753 644.08 136.579 643.865C136.403 643.648 136.231 643.422 136.064 643.19C135.897 642.955 135.727 642.704 135.558 642.442C135.393 642.182 135.227 641.91 135.065 641.627L80.3941 547.548H141.337V546.467H78.5189L134.131 642.163ZM102.349 517.16C99.0264 517.148 95.7032 517.132 92.3807 517.132C87.7002 524.732 83.0286 532.339 78.3658 539.951H141.337V538.869H80.2974L87.9306 526.417L92.9825 518.209L100.44 518.228L92.5936 531.222L141.337 531.366V530.298L94.5045 530.152L102.349 517.16ZM140.615 509.759L141.337 509.762V508.685C140.89 508.683 140.442 508.681 139.994 508.679L140.615 509.759ZM134.98 590.257L141.337 590.263V589.186L139.215 589.187C138.001 589.189 136.783 589.192 135.569 589.181C134.435 587.455 133.274 585.659 132.116 583.868L131.229 582.492L141.337 582.486V581.409L129.246 581.417C131.159 584.362 133.071 587.309 134.98 590.257V590.257ZM92.4363 554.879L116.701 597.083L140.621 638.721L141.337 638.529V637.907L141.284 637.716L94.3001 555.959L141.337 556.108V555.023L93.0996 554.881L92.4363 554.879ZM119.407 576.55L140.621 613.367L141.337 613.177V612.558L141.284 612.367L121.274 577.634L141.337 577.716V576.641L120.073 576.553L119.407 576.55ZM94.6595 87.2021H95.9231L100.167 80.1744H98.9042L94.6595 87.2021ZM110.67 559.847H101.124L135.415 619.243C135.566 619.509 135.713 619.757 135.856 619.985C136.002 620.216 136.152 620.442 136.304 620.658C136.457 620.875 136.614 621.083 136.772 621.278C136.932 621.478 137.093 621.666 137.252 621.838C137.413 622.013 137.579 622.18 137.743 622.334C137.912 622.493 138.083 622.64 138.251 622.775C138.422 622.911 138.597 623.038 138.773 623.155C138.952 623.273 139.128 623.379 139.3 623.469L139.561 623.601L139.825 623.716L140.086 623.817C140.5 623.955 140.913 624.043 141.337 624.148V623.045L140.594 622.854C140.321 622.761 140.054 622.648 139.797 622.516C139.655 622.441 139.503 622.348 139.343 622.242C139.193 622.143 139.04 622.03 138.887 621.905C138.741 621.788 138.592 621.655 138.441 621.512C138.289 621.367 138.142 621.215 138.001 621.059C137.851 620.894 137.708 620.725 137.574 620.555C137.433 620.378 137.292 620.19 137.156 619.998C137.026 619.811 136.887 619.601 136.742 619.371L136.349 618.71L102.993 560.929H110.068L115.362 569.567C124.02 569.64 132.679 569.747 141.337 569.841V568.764L115.973 568.496L110.67 559.847ZM116.963 99.2945H141.337V98.2134H116.3L116.963 99.2945ZM138.438 311.03L141.337 311.039V309.972L137.821 309.961C138.027 310.317 138.232 310.673 138.437 311.03L138.438 311.03ZM140.952 106.891H141.337V105.81H140.952V106.891ZM126.459 115.404L133.341 115.425L133.018 114.927L140.952 114.924V115.449L141.337 115.45V114.369C136.17 114.344 131.003 114.339 125.836 114.322C126.044 114.683 126.251 115.043 126.459 115.404ZM138.93 137.049L141.337 137.059V135.983L138.309 135.971L138.93 137.049ZM140.952 76.9514L141.337 76.9555V75.8799L140.952 75.8758V76.9514ZM134.356 129.111C136.683 129.137 139.01 129.162 141.337 129.185V128.109L133.733 128.028L134.356 129.111ZM139.808 0L139.611 0.196378C139.454 0.356029 139.293 0.530194 139.133 0.712762C138.947 0.924234 138.764 1.14487 138.59 1.3737C138.411 1.60662 138.234 1.85 138.063 2.10272C137.885 2.36623 137.717 2.62677 137.564 2.88319C137.395 3.16479 137.237 3.4408 137.09 3.71124L99.3073 64.3718C100.308 64.3709 101.308 64.3703 102.309 64.3702L102.583 63.9239L108.334 63.9405L108.076 64.3668C119.163 64.3577 130.25 64.3512 141.337 64.3474V63.2771L101.25 63.2943C113.309 43.9319 127.352 23.2471 138.402 3.57716L138.785 2.95775L139.185 2.37307C139.315 2.19197 139.453 2.01108 139.597 1.83166L140.005 1.34828L140.42 0.909262L140.803 0.546541L141.337 0.101443V0H139.808ZM118.985 47.2634L120.255 47.2644L141.279 13.3547L141.337 13.154V12.5587L140.627 12.3581L118.985 47.2634ZM140.952 141.829L141.337 141.829V140.752L140.952 140.752V141.829ZM140.952 24.1961L141.337 23.8967V22.5714L140.952 22.8517V24.1961ZM137.941 40.0466C136.535 42.4793 135.14 44.8958 133.771 47.2737L135.019 47.2746L141.284 36.4121L141.337 36.2207V35.6014L140.621 35.41L137.941 40.0466ZM117.031 52.4643L115.76 52.4648L113.588 55.9687L113.226 56.5532C122.595 56.5532 131.966 56.5598 141.337 56.5731V55.4976L115.163 55.4767L117.031 52.4643ZM128.928 41.6821L125.725 47.2682L126.973 47.2691C128.036 45.4096 129.107 43.5547 130.168 41.6933L128.928 41.6821ZM108.621 74.2693L109.861 74.2728L112.911 68.9883L141.337 69.1044V68.0289C131.655 67.9826 121.973 67.9436 112.29 67.9118L108.621 74.2693ZM140.952 90.7089L141.337 90.71V89.644L140.952 89.6427V90.7089ZM136.983 262.014H138.225L141.284 256.71L141.337 256.52V255.9L140.621 255.709L136.983 262.014ZM118.653 276.885C126.214 276.887 133.776 276.893 141.337 276.903V275.825L117.993 275.808L118.653 276.885ZM140.191 243.737L139.742 244.128L139.309 244.553C139.146 244.72 138.983 244.9 138.822 245.088C138.66 245.279 138.505 245.473 138.363 245.664C138.214 245.863 138.078 246.061 137.957 246.248C137.837 246.436 137.723 246.626 137.623 246.813L136.277 249.161L137.521 249.165C137.954 248.416 138.378 247.658 138.813 246.91L139.105 246.472L139.43 246.04L139.785 245.619L140.137 245.244L140.508 244.887L140.836 244.601L141.337 244.214V242.891L140.73 243.322C140.55 243.451 140.369 243.591 140.191 243.736L140.191 243.737ZM130.452 297.169L141.337 297.285V296.208L129.827 296.085L130.452 297.169ZM135.6 148.525L133.975 146.035L131.262 141.835L136.018 141.832L135.396 140.756L129.505 140.76C130.094 141.785 130.683 142.81 131.272 143.835L135.013 149.602L141.337 149.606V148.529L139.224 148.532C138.017 148.533 136.807 148.536 135.6 148.525ZM125.959 289.371L141.337 289.435V288.359C136.004 288.333 130.671 288.311 125.337 288.292L125.959 289.371ZM140.952 284.679L141.337 284.679V283.604L140.952 283.604V284.679ZM140.952 234.182L141.279 233.655L141.337 233.455V232.866L140.952 232.758L140.952 234.182ZM122.117 127.905L122.739 128.987C124.706 129.008 126.672 129.029 128.638 129.05L128.014 127.968L122.117 127.905ZM133.243 137.027L132.621 135.948L126.726 135.924L127.345 137.002L133.243 137.027ZM121.309 136.978L121.606 136.979L120.979 135.901L120.107 135.897L119.441 135.895L140.621 172.652L141.337 172.461V171.843L141.284 171.652L121.309 136.978ZM140.096 220.051C139.925 220.202 139.76 220.359 139.602 220.519C139.444 220.68 139.283 220.853 139.121 221.037C138.931 221.254 138.746 221.479 138.571 221.706C138.48 221.824 138.386 221.96 138.294 222.088L139.641 222.089L140.003 221.66C140.134 221.514 140.275 221.365 140.421 221.22L140.806 220.856L141.337 220.416V219.077L140.404 219.786L140.096 220.051ZM139.879 205.855L139.86 205.846L139.319 206.784L139.5 206.863L139.815 206.985L140.401 207.161C140.714 207.231 141.021 207.285 141.337 207.343V206.251C140.929 206.18 140.527 206.08 140.132 205.953L139.879 205.855ZM140.952 183.384C141.081 183.416 141.206 183.454 141.337 183.487V182.382L140.952 182.281V183.384ZM140.952 196.426V197.918L141.337 197.816V197.194L141.284 197.004L140.952 196.426ZM92.037 105.809L92.7106 106.891H104.121L103.492 105.809H92.037ZM119.699 394.825L119.056 395.864L119.65 396.886L120.898 396.887L119.699 394.825ZM102.933 342.624L106.719 349.184H107.964L104.177 342.624H102.933ZM130.372 387.995L127.268 382.619L126.623 383.659L129.751 389.077L130.372 387.995ZM123.537 388.636C125.119 391.388 126.7 394.14 128.283 396.892L129.524 396.893L124.182 387.597L123.537 388.636ZM117.214 411.824C119.721 415.915 122.2 419.953 124.651 423.938L125.923 423.941C123.448 419.906 120.971 415.871 118.493 411.838L117.214 411.824ZM105.273 391.557L106.844 394.081H103.807L103.182 395.156C105.049 395.158 106.917 395.159 108.784 395.159L105.885 390.504L105.273 391.557ZM104.153 354.908C105.09 356.539 106.028 358.17 106.965 359.801H108.208L105.394 354.904L104.153 354.908ZM105.057 371.774L107.979 376.802L108.599 375.724L105.678 370.698L105.057 371.774ZM127.503 486.944C128.479 485.238 129.456 483.532 130.435 481.828L129.81 480.745L126.879 485.858L127.503 486.944ZM123.697 491.41L124.377 491.416L124.033 490.823L123.697 491.41ZM125.4 406.781L126.65 406.786L123.918 402.083L122.671 402.084L125.4 406.781ZM118.908 452.133L119.547 453.176L125.712 442.567L124.469 442.563L118.908 452.133ZM125.354 463.155C125.633 463.637 125.911 464.12 126.189 464.603C127.204 462.973 128.219 461.342 129.216 459.715L127.501 459.708L125.354 463.155ZM133.871 465.905L133.222 464.905L129.667 470.64L130.278 471.701L133.871 465.905ZM113.554 420.283C110.445 420.297 107.337 420.308 104.228 420.318L103.58 421.39C107.315 421.38 111.051 421.368 114.786 421.356L115.464 421.355L107.62 408.36L115.078 408.34C115.486 409.008 115.881 409.651 116.287 410.313L116.902 409.247C116.496 408.586 116.09 407.924 115.684 407.262L105.709 407.292L113.554 420.283ZM126.719 475.393L123.681 480.294L124.291 481.356L127.331 476.453L126.719 475.393ZM92.4118 76.4742L83.1272 91.5933C83.3675 91.9019 83.5919 92.2226 83.7994 92.5541C86.879 87.5292 89.9604 82.5004 93.0145 77.5525L94.212 77.5556L94.8714 76.4814L92.4118 76.4742ZM110.913 381.852L116.16 390.88L116.805 389.845L111.536 380.779L110.913 381.852ZM80.3303 98.2133L80.8646 97.3409L80.2281 96.3142L78.3979 99.2944H82.0759L81.4055 98.2133H80.3303ZM64.2268 119.612L67.2698 124.524L67.8819 123.463C66.8659 121.826 65.8506 120.189 64.8362 118.551L64.2268 119.612ZM79.9272 108.174C80.3437 108.267 80.745 108.418 81.1193 108.623C81.2993 108.733 81.4735 108.852 81.6411 108.98L80.4272 106.891H86.786L86.1154 105.809H78.553L79.9272 108.174ZM99.0783 98.2133H87.306L87.9792 99.2944H99.7066L99.0783 98.2133ZM92.6276 90.5663L94.6378 90.5724L93.6504 88.8731L92.6276 90.5663ZM120.166 474.179C121.192 472.566 122.207 470.952 123.224 469.339L122.396 467.904L119.361 472.777L120.166 474.179ZM61.1852 144.946L62.2929 144.942L64.002 141.977L65.7039 144.928L66.9435 144.923L64.0689 139.941L61.1852 144.946ZM62.3945 132.21L62.0252 132.304L61.6565 132.426L61.2952 132.576L60.9366 132.751C60.7643 132.843 60.5868 132.948 60.4064 133.067C60.2326 133.184 60.0593 133.31 59.8895 133.445C59.7214 133.579 59.5517 133.726 59.3828 133.884C59.2181 134.038 59.0538 134.206 58.8919 134.381C58.7332 134.552 58.5728 134.738 58.4128 134.937C58.2541 135.134 58.0965 135.343 57.9425 135.56C57.7942 135.769 57.6428 135.997 57.4893 136.24C57.3345 136.486 57.1853 136.735 57.0484 136.982L42.5283 162.132C42.9435 162.131 43.3586 162.129 43.7736 162.128L57.9859 137.508L58.3876 136.834C58.52 136.624 58.6569 136.418 58.7964 136.22C58.9324 136.026 59.0719 135.84 59.2114 135.664C59.3569 135.482 59.5004 135.312 59.6401 135.158C59.7875 134.997 59.9363 134.845 60.0834 134.704C60.2326 134.563 60.3814 134.431 60.5286 134.313C60.6802 134.19 60.8337 134.078 60.9823 133.978C61.1349 133.876 61.2901 133.783 61.4417 133.703L61.7361 133.558L62.0243 133.439L62.1462 133.399L62.8773 132.132L62.7712 132.143L62.3945 132.21ZM129.003 430.076H129.689L129.516 429.796H92.5789L93.0672 429H2.01732L39.6375 364.263L38.9969 363.22L0.14361 430.077L129.003 430.076ZM109.461 364.144C110.427 365.824 111.392 367.504 112.357 369.183L112.979 368.103L110.084 363.066L109.461 364.144ZM53.5117 302.969L54.1238 301.915L22.8388 251.68L48.3769 251.7L76.8322 251.705L72.4917 258.394L34.8132 258.421L50.668 283.976L57.8308 295.536L58.4363 294.494L51.5927 283.474L36.75 259.495L73.0789 259.471L78.1786 251.609C77.8583 251.305 77.5614 250.978 77.2905 250.629C58.4921 250.614 39.6935 250.605 20.8947 250.603L53.5117 302.969ZM33.8769 247.063L74.9047 246.896L74.2361 245.823L34.4996 245.984C33.3312 243.973 32.1662 241.955 31.0047 239.929L30.7218 239.436L69.9993 239.02L69.3332 237.951L28.868 238.38C30.5386 241.273 32.2082 244.168 33.8769 247.063ZM92.0068 209.733L92.6187 208.671H57.096L57.7545 209.733H92.0068ZM68.5219 216.762L67.9287 215.727H61.4704C61.6845 216.072 61.8984 216.417 62.112 216.762H68.5219ZM109.419 105.809L110.041 106.891H115.845L115.221 105.809H109.419ZM130.596 237.155L128.915 237.137L121.453 249.118L123.181 249.123C125.702 245.126 128.174 241.136 130.596 237.155V237.155ZM134.896 267.783L133.657 267.78L132.329 270.081L125.567 270.021C125.998 269.268 126.431 268.514 126.863 267.76L125.619 267.756L123.712 271.082L132.946 271.164L134.896 267.783ZM128.055 254.984H126.787L122.429 262.014H123.697L128.055 254.984ZM121.558 227.274L118.845 231.943L120.086 231.948L122.803 227.273L121.558 227.274ZM113.787 288.244L114.407 289.324L120.246 289.348L119.623 288.268C117.677 288.261 115.732 288.249 113.787 288.244L113.787 288.244ZM111.128 283.618L111.746 284.693C113.683 284.691 115.62 284.69 117.557 284.69L116.937 283.615L111.128 283.618ZM118.88 267.736L115.846 272.629H116.045L116.577 273.497L120.146 267.74L118.88 267.736ZM87.1687 140.096L85.9007 140.095L88.851 144.833L90.1158 144.828L87.1687 140.096ZM105.054 98.2133C105.261 98.5736 105.468 98.934 105.675 99.2944H111.46L110.836 98.2133H105.054ZM118.222 295.962L118.845 297.046L124.727 297.109L124.101 296.024L118.222 295.962ZM97.9578 115.316L109.037 115.35L108.41 114.271C104.702 114.262 100.994 114.251 97.2865 114.238L97.9578 115.316ZM132.939 254.984L128.91 262.014H130.156C131.494 259.667 132.837 257.324 134.185 254.984H132.939ZM120.126 114.306C118.181 114.3 116.236 114.294 114.292 114.288L114.913 115.369L120.75 115.386L120.126 114.306ZM137.796 237.231L130.409 249.144L131.674 249.148L139.054 237.245L137.796 237.231ZM140.838 196.226L137.772 190.891L137.129 191.928L140.025 196.969C140.276 196.701 140.548 196.453 140.838 196.226H140.838ZM115.3 374.303C117.089 377.416 118.878 380.529 120.668 383.643L121.313 382.606L115.924 373.228L115.3 374.303ZM136.081 422.858C135.913 422.623 135.745 422.374 135.577 422.113C135.416 421.861 135.251 421.586 135.084 421.298L129.655 411.956L128.4 411.943L134.149 421.836C134.327 422.147 134.504 422.437 134.677 422.706C134.853 422.982 135.04 423.254 135.232 423.522C135.342 423.675 135.459 423.821 135.575 423.97L136.971 423.974C136.848 423.834 136.726 423.697 136.598 423.539C136.431 423.332 136.258 423.103 136.081 422.858H136.081ZM138.759 443.605C138.893 443.397 139.03 443.199 139.164 443.013C139.262 442.877 139.368 442.742 139.474 442.607L138.142 442.603C138.108 442.653 138.071 442.699 138.036 442.75C137.862 443.005 137.692 443.269 137.531 443.538C137.37 443.803 137.211 444.081 137.056 444.368L130.804 454.405L132.41 454.423C134.453 451.013 136.459 447.613 138.363 444.244L138.759 443.605ZM132.505 402.08L131.264 402.08C132.171 403.659 133.078 405.237 133.986 406.816L135.229 406.821L132.505 402.08ZM131.048 391.323L134.265 396.896L135.511 396.897L132.3 391.335L131.048 391.323ZM134.472 488.82L133.849 487.742C133.337 488.635 132.824 489.508 132.312 490.411C131.371 490.399 130.425 490.393 129.48 490.385L130.102 491.468L132.929 491.493L134.472 488.82ZM136.342 469.713L136.231 469.543L132.642 475.804L133.266 476.887C134.635 474.495 136.005 472.104 137.377 469.714L136.342 469.713ZM136.421 459.745L133.443 464.549L134.713 464.548L137.688 459.75L136.421 459.745ZM113.193 497.21C118.045 497.21 122.898 497.214 127.75 497.22L127.124 496.142L115.128 496.134L121.317 486.151L120.704 485.095L113.555 496.626L113.193 497.21ZM80.3138 318.539L82.5418 314.905L81.2809 314.904C80.3154 316.478 79.3494 318.051 78.383 319.624H93.8122L104.221 319.581L104.245 319.624H126.145L125.515 318.539H80.3138ZM110.014 354.89L115.305 364.055L115.926 362.974L111.257 354.886C110.842 354.887 110.428 354.888 110.014 354.89V354.89ZM119.231 334.63L93.116 334.551L92.4519 334.55L92.7833 335.126C93.1011 335.678 93.4186 336.231 93.7359 336.783L94.9776 336.78L94.3172 335.63L119.883 335.711L119.231 334.63ZM122.601 361.739L128.228 371.503L128.874 370.467L123.226 360.663L122.601 361.739ZM132.043 365.378L132.674 364.365C132.198 363.631 131.72 362.898 131.245 362.163L134.046 362.162L134.717 361.085L129.26 361.089C130.188 362.518 131.116 363.948 132.043 365.378H132.043ZM134.66 380.511L131.729 375.423L131.085 376.462L134.041 381.591L134.66 380.511ZM137.699 356.297L125.792 356.249L125.168 357.321L137.031 357.369L137.699 356.297Z" fill="#EAC5D3"/>
<path d="M140.952 160.68V158.68L103.711 93.8775L140.952 93.9936V92.9895C127.963 92.9479 114.974 92.9095 101.985 92.8743C114.985 115.471 127.974 138.073 140.952 160.68ZM79.5104 289.921L88.3103 305.178L95.8006 305.111L84.71 285.76C83.9739 284.437 82.8988 283.333 81.5952 282.562C80.9352 282.178 80.199 281.943 79.4386 281.875C78.6064 281.814 77.7745 281.995 77.0428 282.396C75.7044 283.204 74.6247 284.377 73.9308 285.778L46.6652 333.008H54.4023L58.6083 326.145L108.852 325.614L104.794 318.581L62.8997 318.752L79.5104 289.921ZM104.22 319.581L107.137 324.634L58.045 325.155L53.8442 332.008H48.3939L74.7978 286.271C75.402 285.036 76.3427 283.998 77.5114 283.275C78.0775 282.965 78.7213 282.825 79.365 282.873C79.9793 282.93 80.5735 283.121 81.1059 283.433C82.2502 284.109 83.1927 285.08 83.8358 286.243L94.0848 304.128L88.8829 304.175L79.5093 287.927L61.1708 319.757L104.22 319.581ZM85.1454 267.692C84.3442 266.039 83.1029 264.638 81.5578 263.645C80.8284 263.21 80.0017 262.966 79.1535 262.935C78.2879 262.92 77.4335 263.132 76.6754 263.55C75.0724 264.523 73.771 265.922 72.9165 267.591L28.7326 343.621H131.767C128.036 337.538 124.302 331.456 120.564 325.375L112.487 325.399L118.712 335.708L41.4985 335.949L78.8904 270.883L102.348 308.717L73.613 308.738L68.9689 315.897C84.3739 315.897 99.7785 315.904 115.183 315.917L85.1454 267.692ZM74.1553 309.735L104.14 309.713C95.7183 296.118 87.2913 282.526 78.8588 268.939L39.7724 336.951C66.6744 336.863 93.577 336.779 120.48 336.7L114.255 326.391L120.006 326.374L129.984 342.625H30.4657L73.7791 268.09C74.5421 266.583 75.7067 265.317 77.1442 264.43C77.751 264.093 78.4354 263.922 79.1293 263.932C79.8114 263.96 80.4758 264.158 81.0617 264.508C82.4522 265.417 83.5661 266.691 84.2819 268.19L113.384 314.918L70.8041 314.9L74.1553 309.735ZM135.128 162.236C135.984 163.904 137.286 165.302 138.888 166.276C139.524 166.624 140.228 166.831 140.952 166.883V165.882C140.392 165.831 139.85 165.665 139.357 165.396C137.92 164.51 136.755 163.243 135.993 161.737L92.679 87.2021H140.952V86.2008H90.9431L135.128 162.236ZM80.8657 227.076L72.0643 211.819L64.5749 211.887L75.6655 231.237C76.4018 232.561 77.4768 233.665 78.7804 234.436C79.4404 234.82 80.1766 235.054 80.937 235.122C81.769 235.183 82.6009 235.002 83.3325 234.601C84.6705 233.793 85.75 232.62 86.4445 231.22L113.71 183.989H105.973L101.767 190.851L51.5231 191.384L55.5816 198.417L97.4757 198.245L80.8657 227.076ZM56.1552 197.418L53.239 192.364L102.33 191.843L106.531 184.99H111.982L85.5777 230.726C84.9741 231.961 84.0332 232.999 82.864 233.721C82.2979 234.032 81.6544 234.172 81.0106 234.125C80.3962 234.068 79.8018 233.876 79.2695 233.564C78.1252 232.887 77.1826 231.917 76.5394 230.754L66.2906 212.868L71.4927 212.822L80.8657 229.071L99.2035 197.241L56.1552 197.418ZM110.101 62.9487L102.024 62.9254L90.8176 81.1748H140.952V80.1745H92.6035L102.582 63.9239L108.333 63.9405L102.109 74.2501C115.056 74.2836 128.004 74.3214 140.952 74.3635V73.3726L103.876 73.2574L110.101 62.9487ZM140.952 140.56V138.566L125.113 111.074L140.952 111.138V110.142L123.385 110.07C129.245 120.231 135.1 130.395 140.952 140.56ZM80.8521 401.887L72.0503 386.63L64.5618 386.698L75.6528 406.049C76.3893 407.372 77.4641 408.475 78.7673 409.247C79.4269 409.63 80.1628 409.865 80.923 409.932C81.7552 409.994 82.5874 409.813 83.3196 409.413C84.658 408.605 85.7378 407.432 86.4316 406.031L113.697 358.8H105.961L101.755 365.662L51.5102 366.195L55.5689 373.228L97.4618 373.055L80.8521 401.887ZM56.1421 372.228L53.2259 367.174L102.317 366.654L106.518 359.801H111.969L85.5646 405.538C84.9607 406.772 84.0199 407.81 82.851 408.533C82.2848 408.843 81.6413 408.982 80.9976 408.936C80.3833 408.878 79.7891 408.686 79.2568 408.375C78.1123 407.699 77.1696 406.729 76.5266 405.566L66.2776 387.68L71.4795 387.632L80.8521 403.883L99.1897 372.051L56.1421 372.228ZM116.615 96.817H108.878L136.144 144.047C136.838 145.448 137.917 146.622 139.255 147.43C139.78 147.716 140.357 147.891 140.952 147.946V146.941C140.522 146.89 140.105 146.757 139.725 146.551C138.557 145.83 137.617 144.793 137.015 143.56L110.607 97.8183H116.058L120.258 104.672L140.952 104.892V103.894L120.821 103.68L116.615 96.817ZM28.6149 348.222C32.3434 354.291 36.071 360.362 39.7974 366.434L47.8751 366.409L41.6491 356.101L118.865 355.859L81.4724 420.926L58.0148 383.091L86.7494 383.071L91.3929 375.913C75.9885 375.903 60.5837 375.896 45.1785 375.892L75.217 424.116C76.0181 425.77 77.2594 427.17 78.8045 428.164C79.5341 428.599 80.3612 428.842 81.2098 428.873C82.075 428.888 82.9292 428.676 83.687 428.258C85.2899 427.286 86.5912 425.887 87.4457 424.218L131.61 348.222H28.6149ZM86.5833 423.718C85.8203 425.225 84.6558 426.492 83.2181 427.378C82.6113 427.715 81.9269 427.886 81.2331 427.876C80.5513 427.848 79.8873 427.65 79.3016 427.3C77.9103 426.391 76.796 425.117 76.0804 423.618L46.9786 376.889L89.5584 376.91L86.2075 382.074L56.2227 382.095C64.6553 395.682 73.0822 409.274 81.5035 422.87C94.5413 400.204 107.57 377.533 120.59 354.857C93.6874 354.928 66.7845 355.012 39.8814 355.109L46.1071 365.418L40.356 365.434L30.3782 349.185H129.897L86.5833 423.718ZM47.8878 191.599L41.6631 181.289L118.878 181.048L81.4851 246.115L58.0276 208.28L86.7627 208.261L91.4058 201.102C76.0018 201.092 60.597 201.084 45.1916 201.08L75.2298 249.306C76.0315 250.959 77.2727 252.359 78.8174 253.352C79.547 253.787 80.3741 254.031 81.2226 254.063C82.0879 254.078 82.942 253.866 83.6998 253.448C85.3023 252.474 86.6036 251.075 87.459 249.406L131.623 173.411H28.6285C32.3558 179.481 36.083 185.551 39.8103 191.622L47.8878 191.599ZM129.91 174.374L86.5961 248.906C85.833 250.413 84.6687 251.68 83.2314 252.568C82.6244 252.904 81.94 253.075 81.2461 253.065C80.5644 253.037 79.9004 252.839 79.3148 252.489C77.924 251.58 76.8099 250.306 76.0943 248.807L46.9913 202.079L89.5712 202.098L86.2203 207.263L56.2357 207.284C64.6685 220.871 73.0953 234.463 81.5163 248.06C94.5542 225.394 107.583 202.723 120.603 180.046C93.7012 180.118 66.7985 180.201 39.8952 180.297L46.1201 190.606L40.369 190.624L30.3912 174.374L129.91 174.374ZM140.952 47.2786V46.2817L120.241 46.2669L140.952 12.8619V10.9677L118.449 47.2631L140.952 47.2786ZM137.444 5.24077L107.404 53.4664C118.587 53.4603 129.769 53.4542 140.952 53.4481V52.4537L109.204 52.4676L138.307 5.73974C138.941 4.46229 139.843 3.3365 140.952 2.43898V1.24018C139.446 2.23592 138.235 3.61751 137.444 5.24086V5.24077ZM80.879 52.265L72.0772 37.0081L64.5877 37.0756L75.6793 56.4266C76.4157 57.7495 77.4903 58.8531 78.7932 59.6244C79.4532 60.0082 80.1894 60.2427 80.9498 60.3115C81.7823 60.3716 82.6144 60.1905 83.3466 59.7898C84.6848 58.9821 85.7645 57.809 86.4586 56.4085L113.723 9.17757H105.986L101.781 16.04L51.5361 16.5734L55.5948 23.6063L97.4887 23.4339L80.879 52.265ZM56.1679 22.6059L53.2519 17.553L102.343 17.0315L106.544 10.1789H111.995L85.5905 55.9157C84.9867 57.1501 84.0459 58.1885 82.8769 58.9107C82.3108 59.2207 81.6672 59.3605 81.0235 59.3134C80.4092 59.2563 79.815 59.065 79.2828 58.7531C78.1386 58.0766 77.1961 57.1066 76.5526 55.9436L66.3034 38.0567L71.5065 38.0109L80.8789 54.2603L99.2165 22.4291L56.1679 22.6059ZM47.9019 16.7882L41.676 6.47862L118.891 6.23785L81.4983 71.3033L58.0407 33.469L86.7755 33.449L91.4189 26.2916C76.0148 26.2811 60.61 26.2739 45.2045 26.2698L75.2431 74.4942C76.0443 76.1472 77.2856 77.5476 78.8305 78.5415C79.5597 78.9755 80.386 79.2198 81.234 79.252C82.1 79.2675 82.9549 79.0551 83.7129 78.636C85.3159 77.6631 86.6175 76.2644 87.4726 74.5956L130.823 0H129.668L86.6092 74.0959C85.8466 75.6032 84.682 76.8702 83.2442 77.7569C82.638 78.0935 81.9541 78.265 81.2608 78.2541C80.5783 78.2272 79.9136 78.0291 79.3276 77.678C77.9366 76.7696 76.8225 75.4958 76.1075 73.9961L47.0045 27.2685L89.5836 27.2873L86.2334 32.4515L56.2496 32.4729C64.6821 46.0606 73.1087 59.6523 81.5294 73.2478C94.5673 50.5828 107.596 27.9119 120.616 5.23509C93.7139 5.30595 66.8113 5.38988 39.9085 5.48686L46.134 15.7955L40.382 15.8129L30.6726 0H29.5015C32.9436 5.60285 36.3842 11.2067 39.8233 16.8115L47.9019 16.7882ZM135.8 470.711L140.952 470.714V469.717L136.342 469.713L132.991 464.549L140.952 464.545V463.546L131.156 463.552L135.8 470.711ZM113.736 63.1624L140.952 63.4509V62.4543L115.452 62.183L118.368 57.1299L140.952 57.222V56.225L117.794 56.1305L113.736 63.1624ZM120.577 150.564L112.501 150.588L118.726 160.897L41.5116 161.138L78.9032 96.0723L102.362 133.907L73.626 133.927L68.9825 141.086C84.3877 141.086 99.7924 141.093 115.197 141.106L85.1584 92.8814C84.3572 91.2283 83.116 89.828 81.571 88.8341C80.842 88.4002 80.0158 88.156 79.168 88.1238C78.3018 88.108 77.4467 88.3205 76.6886 88.7398C75.0854 89.7121 73.7839 91.1109 72.9294 92.78L28.7518 168.798H131.774C128.045 162.718 124.313 156.641 120.577 150.564H120.577ZM73.7922 93.28C74.5554 91.7731 75.7198 90.5062 77.1569 89.6187C77.7632 89.2822 78.4473 89.1108 79.1406 89.1217C79.8234 89.1485 80.4885 89.3466 81.0748 89.6976C82.4653 90.6066 83.5793 91.8803 84.295 93.3795L113.398 140.107L70.818 140.089L74.1682 134.924L104.153 134.903C95.7312 121.307 87.3043 107.715 78.8721 94.1279L39.7852 162.141C66.6882 162.052 93.5909 161.969 120.493 161.89L114.268 151.58L120.02 151.563L129.997 167.813H30.4787L73.7922 93.28ZM79.5235 115.111L88.324 130.368L95.8138 130.3L84.7228 110.949C83.9866 109.626 82.9117 108.522 81.6083 107.751C80.9483 107.367 80.212 107.133 79.4514 107.064C78.6193 107.004 77.7873 107.185 77.0558 107.586C75.7177 108.394 74.638 109.567 73.9438 110.967L46.6778 158.197H54.4151L58.6218 151.335L108.865 150.802L104.807 143.77L62.9136 143.942L79.5235 115.111ZM104.233 144.77L107.15 149.823L58.0582 150.344L53.858 157.197H48.4066L74.8106 111.46C75.4152 110.226 76.3558 109.188 77.5243 108.465C78.0902 108.155 78.734 108.015 79.3777 108.062C79.9921 108.119 80.5864 108.311 81.1188 108.623C82.2629 109.299 83.2054 110.268 83.8488 111.431L94.0976 129.318L88.8958 129.365L79.5226 113.116L61.1848 144.946L104.233 144.77ZM137.881 23.3112L126.787 42.6606L134.278 42.7281L140.952 31.158V29.1634L133.706 41.7249L128.503 41.6783L138.752 23.7927C139.294 22.8167 140.045 21.9725 140.952 21.3208V20.135C139.667 20.9058 138.608 22.0012 137.881 23.3112ZM110.074 412.571L101.998 412.547L90.7917 430.796H140.952V429.796H92.5785L102.556 413.545L108.307 413.562L102.081 423.872C115.038 423.905 127.995 423.943 140.952 423.985V422.995L103.85 422.88L110.074 412.571ZM135.116 337.047C135.971 338.715 137.272 340.114 138.875 341.086C139.515 341.437 140.224 341.644 140.952 341.694V340.695C140.388 340.645 139.84 340.479 139.344 340.207C137.907 339.321 136.743 338.055 135.98 336.549L92.6662 262.014H140.952V261.012H90.9295L135.116 337.047ZM110.087 237.759L102.01 237.735L90.8047 255.985H140.952V254.984H92.5908L102.569 238.734L108.321 238.751L102.095 249.06C115.047 249.094 127.999 249.133 140.952 249.175V248.184L103.863 248.069L110.087 237.759ZM140.952 315.395V313.399L125.099 285.884L140.952 285.95V284.952L123.371 284.88C129.235 295.049 135.095 305.22 140.952 315.395V315.395ZM116.602 271.628H108.864L136.131 318.859C136.825 320.26 137.905 321.433 139.243 322.241C139.772 322.528 140.353 322.703 140.952 322.758V321.754C140.517 321.703 140.096 321.57 139.712 321.361C138.544 320.641 137.604 319.604 137.002 318.37L110.593 272.629H116.045L120.245 279.482L140.952 279.702V278.705L120.808 278.491L116.602 271.628ZM140.952 335.514V333.513L103.698 268.688L140.952 268.804V267.801C127.958 267.76 114.965 267.721 101.972 267.686C114.976 290.289 127.969 312.899 140.952 335.514V335.514ZM137.431 180.052L107.392 228.277C118.579 228.27 129.766 228.264 140.952 228.26V227.265L109.191 227.279L138.295 180.551C138.931 179.268 139.838 178.139 140.952 177.24V176.043C139.44 177.039 138.223 178.424 137.431 180.052ZM113.723 237.973L140.952 238.263V237.265L115.438 236.995L118.355 231.941L140.952 232.034V231.037L117.781 230.941L113.723 237.973ZM140.952 222.09V221.092L120.227 221.079L140.952 187.652V185.761C133.45 197.867 125.945 209.971 118.436 222.074L140.952 222.09ZM137.868 198.121L126.774 217.471L134.265 217.539L140.952 205.946V203.951L133.692 216.536L128.491 216.49L138.74 198.603C139.285 197.623 140.04 196.775 140.952 196.122V194.939C139.661 195.709 138.597 196.807 137.868 198.121L137.868 198.121ZM140.952 396.901V395.904L120.214 395.888L140.952 362.442V360.547L118.422 396.885L140.952 396.901ZM135.812 295.9L140.952 295.904V294.906L136.355 294.903L133.005 289.738L140.952 289.734V288.735L131.169 288.742L135.812 295.9ZM140.952 510.347V508.347L103.684 443.499L140.952 443.616V442.612C127.955 442.57 114.957 442.532 101.958 442.496C114.966 465.107 127.964 487.724 140.952 510.347ZM135.102 511.857C135.958 513.526 137.259 514.924 138.862 515.898C139.506 516.25 140.219 516.458 140.952 516.507V515.507C140.383 515.459 139.831 515.292 139.331 515.018C137.893 514.131 136.729 512.865 135.966 511.358L92.6522 436.824H140.952V435.823H90.9166L135.102 511.857ZM116.589 446.439H108.852L136.119 493.669C136.812 495.07 137.891 496.244 139.229 497.052C139.762 497.341 140.348 497.518 140.952 497.571V496.567C140.513 496.517 140.087 496.383 139.699 496.173C138.531 495.451 137.591 494.414 136.989 493.181L110.58 447.441H116.032L120.231 454.293L140.952 454.513V453.516L120.795 453.302L116.589 446.439ZM135.825 121.089L140.952 121.092V120.094L136.368 120.091L133.017 114.927L140.952 114.924V113.924L131.182 113.931L135.825 121.089ZM113.71 412.785L140.952 413.074V412.076L115.425 411.805L118.342 406.752L140.952 406.844V405.847L117.768 405.753L113.71 412.785ZM137.417 354.864L107.378 403.088C118.569 403.081 129.761 403.075 140.952 403.069V402.076L109.178 402.09L138.281 355.362C138.919 354.074 139.831 352.941 140.952 352.042V350.847C139.433 351.842 138.211 353.23 137.417 354.864H137.417ZM140.952 490.228V488.235L125.087 460.695L140.952 460.761V459.764L123.358 459.691C129.227 469.868 135.092 480.047 140.952 490.228H140.952ZM137.855 372.932L126.761 392.283L134.251 392.35L140.952 380.734V378.74L133.679 391.347L128.477 391.3L138.726 373.415C139.273 372.429 140.034 371.578 140.952 370.923V369.741C139.655 370.512 138.587 371.613 137.855 372.932L137.855 372.932Z" fill="#275CAA"/>
</svg>
