<svg width="16" height="16" viewBox="0 0 16 16" fill="none" xmlns="http://www.w3.org/2000/svg">
<path d="M8.56729 2.2439C10.0492 2.30894 11.3459 2.65366 12.4573 3.27805C13.5842 3.88943 14.4563 4.76748 15.0738 5.91219C15.6913 7.05691 16 8.42276 16 10.0098V16H14.4023V10.0488C14.4023 7.98049 13.8929 6.4 12.8741 5.30732C11.8707 4.20163 10.4351 3.59675 8.56729 3.49268V13.6585H7.43271V3.49268C5.58032 3.59675 4.14472 4.20163 3.1259 5.30732C2.10709 6.41301 1.59768 7.9935 1.59768 10.0488V16H0V10.0098C0 8.42276 0.308731 7.06341 0.926194 5.93171C1.54366 4.78699 2.4081 3.90894 3.51954 3.29756C4.64641 2.67317 5.9508 2.32195 7.43271 2.2439V0H8.56729V2.2439Z" fill="#00AEEF"/>
</svg>
