<svg width="17" height="18" viewBox="0 0 17 18" fill="none" xmlns="http://www.w3.org/2000/svg">
<path d="M16 2.5H13V0.5H12V2.5H4.99998V0.5H4V2.5H1C0.76139 2.50028 0.432633 2.59519 0.263911 2.76391C0.0951883 2.93263 0.000277892 3.26139 0 3.5V16.5C0.000277892 16.7386 0.0951635 17.0674 0.263886 17.2361C0.432609 17.4048 0.761366 17.4997 0.999975 17.5H16C16.2386 17.4997 16.5674 17.4048 16.7361 17.2361C16.9048 17.0674 16.9998 16.7386 17 16.5L17 3.5C16.9997 3.26139 16.9048 2.93263 16.7361 2.76391C16.5674 2.59519 16.2386 2.50028 16 2.5ZM16 16.5H1V3.5H4V5.5H4.99998V3.5H12V5.5H13V3.5H16L16 16.5Z" fill="#4B5765"/>
<path d="M2.99998 6.5H4.99998V8.59998H2.99998V6.5Z" fill="#4B5765"/>
<path d="M5.99998 6.5H7.99998V8.59998H5.99998V6.5Z" fill="#4B5765"/>
<path d="M8.99998 6.5H11V8.59998H8.99998V6.5Z" fill="#4B5765"/>
<path d="M12 6.5H14V8.59998H12V6.5Z" fill="#4B5765"/>
<path d="M2.99998 9.5H4.99998V11.5H2.99998V9.5Z" fill="#4B5765"/>
<path d="M5.99998 9.5H7.99998V11.5H5.99998V9.5Z" fill="#4B5765"/>
<path d="M8.99998 9.5H11V11.5H8.99998V9.5Z" fill="#4B5765"/>
<path d="M12 9.5H14V11.5H12V9.5Z" fill="#4B5765"/>
<path d="M2.99998 12.5H4.99998V14.5H2.99998V12.5Z" fill="#4B5765"/>
<path d="M5.99998 12.5H7.99998V14.5H5.99998V12.5Z" fill="#4B5765"/>
<path d="M8.99998 12.5H11V14.5H8.99998V12.5Z" fill="#4B5765"/>
<path d="M12 12.5H14V14.5H12V12.5Z" fill="#4B5765"/>
</svg>
