<svg width="11" height="11" viewBox="0 0 11 11" fill="none" xmlns="http://www.w3.org/2000/svg">
<path d="M5.811 10.442C5.10033 10.442 4.433 10.3077 3.809 10.039C3.185 9.779 2.63467 9.415 2.158 8.947C1.69 8.47033 1.32167 7.92 1.053 7.296C0.793 6.672 0.663 6.00467 0.663 5.294C0.663 4.57467 0.793 3.90733 1.053 3.292C1.32167 2.668 1.69 2.122 2.158 1.654C2.63467 1.17733 3.185 0.809 3.809 0.548999C4.433 0.280333 5.10033 0.146 5.811 0.146C6.53033 0.146 7.19767 0.280333 7.813 0.548999C8.437 0.809 8.983 1.17733 9.451 1.654C9.92767 2.122 10.296 2.668 10.556 3.292C10.8247 3.90733 10.959 4.57467 10.959 5.294C10.959 6.00467 10.8247 6.672 10.556 7.296C10.296 7.92 9.92767 8.47033 9.451 8.947C8.983 9.415 8.437 9.779 7.813 10.039C7.19767 10.3077 6.53033 10.442 5.811 10.442Z" fill="#4B5765"/>
</svg>
