<svg width="28" height="28" viewBox="0 0 28 28" fill="none" xmlns="http://www.w3.org/2000/svg">
<path d="M13.9967 9.55374C11.5485 9.55374 9.55049 11.5518 9.55049 14.0001C9.55049 16.4484 11.5485 18.4464 13.9967 18.4464C16.445 18.4464 18.443 16.4484 18.443 14.0001C18.443 11.5518 16.445 9.55374 13.9967 9.55374ZM27.3322 14.0001C27.3322 12.1588 27.3488 10.3343 27.2454 8.49636C27.142 6.36159 26.6551 4.46697 25.094 2.90592C23.5297 1.34153 21.6384 0.857869 19.5037 0.754465C17.6625 0.651062 15.838 0.66774 14.0001 0.66774C12.1589 0.66774 10.3343 0.651062 8.49646 0.754465C6.36173 0.857869 4.46715 1.34486 2.90612 2.90592C1.34176 4.47031 0.858109 6.36159 0.754708 8.49636C0.651307 10.3376 0.667984 12.1622 0.667984 14.0001C0.667984 15.838 0.651307 17.6659 0.754708 19.5038C0.858109 21.6386 1.3451 23.5332 2.90612 25.0942C4.47048 26.6586 6.36173 27.1423 8.49646 27.2457C10.3377 27.3491 12.1622 27.3324 14.0001 27.3324C15.8413 27.3324 17.6658 27.3491 19.5037 27.2457C21.6384 27.1423 23.533 26.6553 25.094 25.0942C26.6584 23.5299 27.142 21.6386 27.2454 19.5038C27.3522 17.6659 27.3322 15.8413 27.3322 14.0001ZM13.9967 20.8414C10.2109 20.8414 7.15558 17.786 7.15558 14.0001C7.15558 10.2142 10.2109 7.15879 13.9967 7.15879C17.7826 7.15879 20.8379 10.2142 20.8379 14.0001C20.8379 17.786 17.7826 20.8414 13.9967 20.8414ZM21.1181 8.47635C20.2342 8.47635 19.5204 7.76253 19.5204 6.8786C19.5204 5.99467 20.2342 5.28086 21.1181 5.28086C22.002 5.28086 22.7158 5.99467 22.7158 6.8786C22.7161 7.0885 22.6749 7.29638 22.5947 7.49035C22.5145 7.68431 22.3968 7.86055 22.2484 8.00897C22.1 8.15738 21.9238 8.27506 21.7298 8.35526C21.5359 8.43547 21.328 8.47661 21.1181 8.47635Z" fill="url(#paint0_linear)"/>
<defs>
<linearGradient id="paint0_linear" x1="14.0003" y1="0.666748" x2="14.0003" y2="27.3334" gradientUnits="userSpaceOnUse">
<stop stop-color="#625ACA"/>
<stop offset="1" stop-color="#E53F60"/>
</linearGradient>
</defs>
</svg>
