<svg width="25" height="24" viewBox="0 0 25 24" fill="none" xmlns="http://www.w3.org/2000/svg">
<path d="M5.87988 23.3617H0.817381V7.07007H5.87988V23.3617ZM3.31738 5.07007C1.71842 5.07007 0.68457 3.93726 0.68457 2.53621C0.68457 1.10653 1.74967 0.00756836 3.38248 0.00756836C5.0153 0.00756836 6.0153 1.10653 6.04655 2.53621C6.04655 3.93726 5.0153 5.07007 3.31738 5.07007ZM24.3695 23.3617H19.307V14.3331C19.307 12.2315 18.5726 10.8044 16.7419 10.8044C15.3434 10.8044 14.5127 11.7706 14.1455 12.7003C14.0101 13.031 13.9762 13.4998 13.9762 13.9659V23.3591H8.91113V12.2654C8.91113 10.2315 8.84603 8.53101 8.77832 7.06746H13.1768L13.4085 9.33048H13.5101C14.1768 8.26798 15.8096 6.70028 18.5413 6.70028C21.8721 6.70028 24.3695 8.93205 24.3695 13.7289V23.3617Z" fill="#007AB9"/>
</svg>
