<svg width="33" height="32" viewBox="0 0 33 32" fill="none" xmlns="http://www.w3.org/2000/svg">
<path class="str" d="M17.1975 16.1344V22.6047H15.5366V16.1344V15.6344H15.0366H13.1225V14.3125H15.0366H15.5366V13.8125V12.4469C15.5366 10.708 16.7247 9.39531 18.2616 9.39531H20.0163V10.8656H18.2616C17.9118 10.8656 17.6385 11.0835 17.4766 11.3035C17.3044 11.5376 17.1975 11.8466 17.1975 12.1844V13.8125V14.3125H17.6975H19.9176L19.6747 15.6344H17.6975H17.1975V16.1344ZM16.9631 0.5C8.40262 0.5 1.46313 7.43948 1.46313 16C1.46313 24.5605 8.40262 31.5 16.9631 31.5C25.5237 31.5 32.4631 24.5605 32.4631 16C32.4631 7.43948 25.5237 0.5 16.9631 0.5Z" stroke="#4B5765"/>
<path class="path" d="M20.5163 11.3656H18.2616C17.9944 11.3656 17.6976 11.7172 17.6976 12.1844V13.8125H20.5179L20.0913 16.1344H17.6976V23.1047H15.0366V16.1344H12.6226V13.8125H15.0366V12.4469C15.0366 10.4875 16.396 8.89532 18.2616 8.89532H20.5163V11.3656Z" fill="#4B5765"/>
</svg>
