<svg width="141" height="99" viewBox="0 0 141 99" fill="none" xmlns="http://www.w3.org/2000/svg">
<path d="M135.791 92.9448C135.701 92.8542 135.61 92.8542 135.519 92.8542C135.338 92.8542 135.248 92.9448 135.248 93.0353V93.1259L137.331 96.0237V98.2876C137.331 98.3782 137.421 98.4687 137.602 98.4687C137.783 98.4687 137.874 98.3782 137.874 98.2876V96.0237L139.957 93.1259L140.047 93.0353C140.047 92.9448 139.957 92.8542 139.776 92.8542C139.685 92.8542 139.594 92.8542 139.504 92.9448L137.602 95.5709L135.791 92.9448ZM127.188 93.0353C127.098 92.9448 127.007 92.8542 126.917 92.8542C126.735 92.8542 126.645 92.9448 126.645 93.0353V98.3782C126.645 98.4687 126.735 98.5593 126.917 98.5593C127.098 98.5593 127.188 98.4687 127.188 98.3782V93.6692L131.444 98.4687C131.535 98.5593 131.626 98.6498 131.716 98.6498C131.897 98.6498 131.897 98.5593 131.897 98.4687V93.1259C131.897 93.0353 131.807 92.9448 131.626 92.9448C131.444 92.9448 131.354 93.0353 131.354 93.1259V97.8348L127.188 93.0353ZM121.664 96.2048H119.038L120.397 93.4881L121.664 96.2048ZM122.751 98.4687C122.842 98.5593 122.842 98.5593 122.932 98.5593C123.023 98.5593 123.204 98.4687 123.204 98.3782V98.2876L120.578 93.0353C120.487 92.9448 120.397 92.8542 120.306 92.8542C120.215 92.8542 120.125 92.9448 120.034 93.0353L117.408 98.2876V98.3782C117.408 98.4687 117.499 98.5593 117.68 98.5593C117.77 98.5593 117.861 98.5593 117.861 98.4687L118.767 96.6576H121.845L122.751 98.4687ZM111.884 93.307C112.246 93.307 112.609 93.307 112.971 93.307C114.148 93.307 114.691 93.8503 114.691 94.5748C114.691 95.3898 114.058 95.9331 112.971 95.9331C112.699 95.9331 112.337 95.9331 111.975 95.9331V93.307H111.884ZM112.88 92.8542C112.518 92.8542 112.156 92.8542 111.613 92.8542C111.431 92.8542 111.341 92.9448 111.341 93.1259V98.3782C111.341 98.4687 111.431 98.5593 111.613 98.5593C111.794 98.5593 111.884 98.4687 111.884 98.3782V96.2954C112.246 96.2954 112.518 96.2954 112.971 96.2954C113.695 96.2954 114.329 96.1142 114.691 95.752C115.054 95.3898 115.235 95.0276 115.235 94.4842C115.144 93.7598 114.691 92.8542 112.88 92.8542ZM104.006 96.4765C104.006 96.4765 104.096 96.567 104.187 96.567C104.278 96.567 104.278 96.567 104.368 96.4765L106.632 93.7598V98.3782C106.632 98.4687 106.723 98.5593 106.904 98.5593C107.085 98.5593 107.175 98.4687 107.175 98.3782V93.1259C107.175 93.0353 107.085 92.9448 106.904 92.9448C106.813 92.9448 106.632 93.0353 106.541 93.2165L104.187 96.1143L101.651 93.2165C101.47 93.0353 101.38 92.9448 101.289 92.9448C101.108 92.9448 101.017 93.0353 101.017 93.2165V98.4687C101.017 98.5593 101.108 98.6498 101.289 98.6498C101.47 98.6498 101.561 98.5593 101.561 98.4687V93.8503L104.006 96.4765ZM91.5996 95.6615C91.5996 94.937 91.8713 94.3937 92.3241 93.8503C92.8674 93.3976 93.5013 93.1259 94.2258 93.1259C94.9502 93.1259 95.5841 93.3976 96.1274 93.8503C96.6708 94.3031 96.8519 94.937 96.8519 95.6615C96.8519 96.3859 96.5802 96.9293 96.1274 97.4726C95.5841 97.9254 94.9502 98.197 94.2258 98.197C93.5013 98.197 92.8674 97.9254 92.3241 97.4726C91.8713 97.0198 91.5996 96.3859 91.5996 95.6615ZM91.0563 95.6615C91.0563 96.4765 91.328 97.2009 91.9619 97.7443C92.5957 98.2876 93.3202 98.5593 94.2258 98.5593C95.1313 98.5593 95.9463 98.2876 96.4897 97.7443C97.1236 97.2009 97.3952 96.4765 97.3952 95.6615C97.3952 94.8465 97.1236 94.122 96.4897 93.5787C95.8558 93.0353 95.1313 92.7637 94.2258 92.7637C93.3202 92.7637 92.5052 93.0353 91.9619 93.5787C91.328 94.2126 91.0563 94.8465 91.0563 95.6615ZM87.8868 93.5787C87.9774 93.5787 87.9774 93.5787 87.9774 93.5787C88.0679 93.5787 88.1585 93.5787 88.1585 93.4881V93.3976C88.1585 93.307 88.1585 93.307 88.0679 93.2165C87.6151 92.9448 87.0718 92.7637 86.3474 92.7637C85.4418 92.7637 84.6268 93.0353 84.0835 93.5787C83.5401 94.122 83.2684 94.8465 83.2684 95.6615C83.2684 96.567 83.5401 97.2915 84.174 97.7443C84.8079 98.2876 85.5324 98.5593 86.5285 98.5593C87.1624 98.5593 87.8868 98.3782 88.3396 98.0159C88.4302 98.0159 88.4302 97.9254 88.4302 97.8348C88.4302 97.8348 88.4302 97.7443 88.3396 97.7443C88.249 97.6537 88.249 97.6537 88.1585 97.6537C88.0679 97.6537 88.0679 97.6537 87.9774 97.6537C87.5246 97.9254 86.9813 98.1065 86.4379 98.1065C85.6229 98.1065 84.989 97.8348 84.4457 97.382C83.9023 96.9293 83.7212 96.2954 83.7212 95.5709C83.7212 94.8465 83.9929 94.2126 84.4457 93.7598C84.8985 93.307 85.5324 93.0353 86.3474 93.0353C86.9813 93.2164 87.5246 93.307 87.8868 93.5787ZM73.8506 93.307H76.0239C76.1145 93.307 76.2956 93.2164 76.2956 93.1259C76.2956 93.0353 76.2051 92.9448 76.0239 92.9448H71.2245C71.0434 92.9448 70.9528 93.0353 70.9528 93.1259C70.9528 93.2164 71.0434 93.307 71.2245 93.307H73.3978V98.3782C73.3978 98.4687 73.4884 98.5593 73.6695 98.5593C73.8506 98.5593 73.9411 98.4687 73.9411 98.3782V93.307H73.8506ZM62.9838 93.0353C62.8933 92.9448 62.8027 92.8542 62.7122 92.8542C62.5311 92.8542 62.4405 92.9448 62.4405 93.0353V98.3782C62.4405 98.4687 62.5311 98.5593 62.7122 98.5593C62.8933 98.5593 62.9838 98.4687 62.9838 98.3782V93.6692L67.24 98.4687C67.3305 98.5593 67.4211 98.6498 67.5117 98.6498C67.6928 98.6498 67.6928 98.5593 67.6928 98.4687V93.1259C67.6928 93.0353 67.6022 92.9448 67.4211 92.9448C67.24 92.9448 67.1494 93.0353 67.1494 93.1259V97.8348L62.9838 93.0353ZM55.6488 95.8426H58.1844C58.3655 95.8426 58.456 95.752 58.456 95.6615C58.456 95.5709 58.3655 95.4804 58.1844 95.4804H55.6488V93.307H58.456C58.6371 93.307 58.7277 93.2164 58.7277 93.1259C58.7277 93.0353 58.6371 92.9448 58.456 92.9448H55.3771C55.196 92.9448 55.1054 93.0353 55.1054 93.2165V98.3782C55.1054 98.4687 55.196 98.6498 55.3771 98.6498H58.456C58.6371 98.6498 58.7277 98.5593 58.7277 98.4687C58.7277 98.3782 58.6371 98.2876 58.456 98.2876H55.5582V95.8426H55.6488ZM47.7704 96.4765C47.7704 96.4765 47.8609 96.567 47.9515 96.567C48.0421 96.567 48.042 96.567 48.1326 96.4765L50.3965 93.7598V98.3782C50.3965 98.4687 50.4871 98.5593 50.6682 98.5593C50.8493 98.5593 50.9399 98.4687 50.9399 98.3782V93.1259C50.9399 93.0353 50.8493 92.9448 50.6682 92.9448C50.5776 92.9448 50.3965 93.0353 50.306 93.2165L47.9515 96.1143L45.4159 93.2165C45.2348 93.0353 45.1442 92.9448 45.0537 92.9448C44.8726 92.9448 44.782 93.0353 44.782 93.2165V98.4687C44.782 98.5593 44.8726 98.6498 45.0537 98.6498C45.2348 98.6498 45.3254 98.5593 45.3254 98.4687V93.8503L47.7704 96.4765ZM39.2581 93.307H41.4314C41.522 93.307 41.7031 93.2164 41.7031 93.1259C41.7031 93.0353 41.6126 92.9448 41.4314 92.9448H36.632C36.4508 92.9448 36.3603 93.0353 36.3603 93.1259C36.3603 93.2164 36.4508 93.307 36.632 93.307H38.8053V98.3782C38.8053 98.4687 38.8959 98.5593 39.077 98.5593C39.2581 98.5593 39.3486 98.4687 39.3486 98.3782V93.307H39.2581ZM29.7497 97.8348C29.7497 97.9254 29.7497 97.9254 29.8402 98.0159C30.3836 98.3782 31.0175 98.6498 31.6514 98.6498C32.1947 98.6498 32.738 98.4687 33.1003 98.197C33.4625 97.9254 33.6436 97.5632 33.6436 97.1104C33.6436 95.1181 30.3836 95.752 30.3836 94.2126C30.3836 93.5787 30.9269 93.2165 31.7419 93.2165C32.1947 93.2165 32.5569 93.307 33.0097 93.5787C33.1003 93.5787 33.1003 93.5787 33.1908 93.5787C33.2814 93.5787 33.3719 93.5787 33.3719 93.4881L33.4625 93.3976C33.4625 93.307 33.4625 93.307 33.3719 93.2165C32.9192 92.9448 32.3758 92.7637 31.8325 92.7637C30.6552 92.7637 29.9308 93.3976 29.9308 94.2126C29.9308 96.1143 33.1908 95.5709 33.1908 97.1104C33.1908 97.4726 33.0097 97.7443 32.738 97.9254C32.4664 98.1065 32.1041 98.197 31.6514 98.197C31.1986 98.197 30.6552 98.0159 30.1119 97.6537C30.0214 97.6537 30.0213 97.5632 29.9308 97.5632C29.8402 97.5632 29.8402 97.5631 29.7497 97.6537C29.7497 97.7443 29.7497 97.7443 29.7497 97.8348ZM23.4107 95.8426H25.9463C26.1274 95.8426 26.218 95.752 26.218 95.6615C26.218 95.5709 26.1274 95.4804 25.9463 95.4804H23.4107V93.307H26.218C26.3991 93.307 26.4897 93.2164 26.4897 93.1259C26.4897 93.0353 26.3991 92.9448 26.218 92.9448H23.1391C22.958 92.9448 22.8674 93.0353 22.8674 93.2165V98.3782C22.8674 98.4687 22.958 98.6498 23.1391 98.6498H26.3085C26.4897 98.6498 26.5802 98.5593 26.5802 98.4687C26.5802 98.3782 26.4897 98.2876 26.3085 98.2876H23.4107V95.8426ZM14.4457 92.9448C14.4457 92.8542 14.3551 92.8542 14.2646 92.8542C14.0834 92.8542 13.9929 92.9448 13.9929 93.0353V93.1259L16.5285 98.4687C16.619 98.5593 16.619 98.6498 16.8001 98.6498C16.8907 98.6498 16.9812 98.5593 17.0718 98.4687L19.6074 93.1259V93.0353C19.6074 92.9448 19.5168 92.8542 19.3357 92.8542C19.2452 92.8542 19.1546 92.8542 19.1546 92.9448L16.8907 97.8348L14.4457 92.9448ZM5.93338 93.0353C5.84282 92.9448 5.75226 92.8542 5.66171 92.8542C5.4806 92.8542 5.39004 92.9448 5.39004 93.0353V98.3782C5.39004 98.4687 5.4806 98.5593 5.66171 98.5593C5.84282 98.5593 5.93338 98.4687 5.93338 98.3782V93.6692L10.1895 98.4687C10.2801 98.5593 10.3706 98.6498 10.4612 98.6498C10.6423 98.6498 10.6423 98.5593 10.6423 98.4687V93.1259C10.6423 93.0353 10.5517 92.9448 10.3706 92.9448C10.1895 92.9448 10.099 93.0353 10.099 93.1259V97.8348L5.93338 93.0353ZM1.04334 93.0353C1.04334 92.9448 0.952781 92.8542 0.771669 92.8542C0.590556 92.8542 0.5 92.9448 0.5 93.0353V98.2876C0.5 98.3782 0.590556 98.4687 0.771669 98.4687C0.952781 98.4687 1.04334 98.3782 1.04334 98.2876V93.0353Z" fill="#4B5765"/>
<path d="M53.4753 74.2902C53.6565 74.3808 53.747 74.5619 53.747 74.743V88.3265C53.747 88.5076 53.6565 88.6887 53.4753 88.7792C53.2942 88.8698 53.1131 88.9603 52.932 88.9603C52.7509 88.9603 52.4792 88.8698 52.3887 88.7792C52.2076 88.6887 52.117 88.5076 52.117 88.3265V74.743C52.117 74.5619 52.2076 74.3808 52.3887 74.2902C52.5698 74.1997 52.7509 74.1091 52.932 74.1091C53.2037 74.1091 53.3848 74.1091 53.4753 74.2902ZM60.086 74.1997C60.2671 74.2902 60.3576 74.3808 60.5387 74.4713L72.3111 86.6059V74.6525C72.3111 74.4713 72.4016 74.2902 72.4922 74.1997C72.5827 74.1091 72.8544 74.0186 73.0355 74.0186C73.2166 74.0186 73.3977 74.1091 73.5788 74.1997C73.6694 74.2902 73.76 74.4713 73.76 74.6525V88.3265C73.76 88.5076 73.6694 88.6887 73.5788 88.7792C73.4883 88.8698 73.3072 88.9603 73.0355 88.9603C72.8544 88.9603 72.7638 88.9603 72.5827 88.8698C72.4016 88.7792 72.3111 88.6887 72.2205 88.5981L60.3576 76.373V88.3265C60.3576 88.5076 60.2671 88.6887 60.1765 88.7792C60.086 88.8698 59.8143 88.9603 59.6332 88.9603C59.4521 88.9603 59.271 88.8698 59.1804 88.7792C59.0898 88.6887 58.9993 88.5076 58.9993 88.3265V74.6525C58.9993 74.4713 59.0898 74.2902 59.1804 74.1997C59.271 74.1091 59.4521 74.0186 59.7237 74.0186C59.8143 74.1091 59.9048 74.1091 60.086 74.1997ZM91.8712 88.9603C91.5995 88.9603 91.3279 88.8698 91.2373 88.5981L89.6073 85.4286C88.3395 82.9836 87.0717 80.7197 85.8039 78.2747L84.4456 75.8297C84.0834 76.4636 83.7211 77.0975 83.4495 77.8219C82.2722 80.0858 81.0045 82.3497 79.7367 84.7042C79.1933 85.7909 78.2878 87.602 77.6539 88.5981C77.4728 88.8698 77.2917 88.9603 77.02 88.9603C76.8389 88.9603 76.6578 88.8698 76.4766 88.7792C76.3861 88.6887 76.2955 88.5076 76.2955 88.3265C76.2955 88.2359 76.2955 88.2359 76.2955 88.1453C77.02 85.8814 82.1817 77.188 83.6306 74.4713C83.7212 74.2902 83.8117 74.1997 83.9928 74.1091C84.0834 74.0186 84.2645 74.0186 84.4456 74.0186C84.6267 74.0186 84.8078 74.0186 84.8984 74.1091C85.0795 74.1997 85.17 74.2902 85.2606 74.4713C86.8001 77.2786 91.8712 85.7003 92.5957 88.0548C92.5957 88.1453 92.5957 88.1453 92.5957 88.2359C92.5957 88.417 92.5051 88.5981 92.324 88.6887C92.2334 88.8698 92.0523 88.9603 91.8712 88.9603ZM96.1274 74.1997C96.3085 74.2902 96.399 74.3808 96.5801 74.4713L108.443 86.6059V74.6525C108.443 74.4713 108.534 74.2902 108.624 74.1997C108.715 74.1091 108.986 74.0186 109.167 74.0186C109.349 74.0186 109.53 74.1091 109.711 74.1997C109.801 74.2902 109.892 74.4713 109.892 74.6525V88.3265C109.892 88.5076 109.801 88.6887 109.711 88.7792C109.62 88.8698 109.439 88.9603 109.167 88.9603C108.986 88.9603 108.896 88.9603 108.715 88.8698C108.534 88.7792 108.443 88.6887 108.352 88.5981L96.4896 76.373V88.3265C96.4896 88.5076 96.399 88.6887 96.3085 88.7792C96.2179 88.8698 95.9463 88.9603 95.7651 88.9603C95.584 88.9603 95.4029 88.8698 95.3124 88.7792C95.2218 88.6887 95.1312 88.5076 95.1312 88.3265V74.6525C95.1312 74.4713 95.2218 74.2902 95.3124 74.1997C95.4029 74.1091 95.584 74.0186 95.8557 74.0186C95.8557 74.1091 96.0368 74.1091 96.1274 74.1997ZM138.779 81.9875H131.716V87.602H139.775C139.957 87.602 140.138 87.6926 140.319 87.7831C140.409 87.8737 140.5 88.0548 140.5 88.2359C140.5 88.417 140.409 88.5981 140.319 88.6887C140.228 88.7792 140.047 88.8698 139.775 88.8698H130.992C130.81 88.8698 130.539 88.7792 130.448 88.6887C130.267 88.5981 130.177 88.417 130.177 88.2359V74.743C130.177 74.5619 130.267 74.3808 130.448 74.2902C130.629 74.1997 130.81 74.1091 130.992 74.1091H139.594C139.775 74.1091 139.957 74.1997 140.138 74.2902C140.228 74.3808 140.319 74.5619 140.319 74.743C140.319 74.9241 140.228 75.1052 140.138 75.1958C140.047 75.2863 139.866 75.3769 139.594 75.3769H131.807V80.8103H138.87C139.051 80.8103 139.232 80.9008 139.413 80.9914C139.504 81.0819 139.594 81.2631 139.594 81.4442C139.594 81.6253 139.504 81.7158 139.413 81.897C139.142 81.897 138.96 81.9875 138.779 81.9875ZM126.373 76.1014C126.283 76.1014 126.283 76.1014 126.192 76.0108C125.649 75.7391 125.015 75.4675 124.29 75.3769C123.566 75.1958 122.841 75.1958 121.936 75.1958C120.849 75.1958 119.853 75.3769 119.038 75.6486C118.133 75.9202 117.408 76.373 116.684 77.0069C116.05 77.6408 115.506 78.2747 115.144 78.9992C114.782 79.7236 114.601 80.6292 114.601 81.5347C114.601 82.4403 114.782 83.3459 115.144 84.0703C115.506 84.7948 116.05 85.5192 116.684 86.0625C117.408 86.6059 118.223 87.0587 119.129 87.4209C120.034 87.6926 121.03 87.8737 122.208 87.8737C123.023 87.8737 123.747 87.7831 124.471 87.602C125.196 87.4209 125.83 87.1492 126.464 86.787C126.554 86.787 126.645 86.6964 126.645 86.6964C126.735 86.6964 126.826 86.6964 126.826 86.6964C126.917 86.6964 127.007 86.6964 127.098 86.787C127.188 86.787 127.279 86.8776 127.369 86.9681C127.369 87.0587 127.46 87.0587 127.46 87.1492C127.46 87.2398 127.46 87.2398 127.46 87.3303C127.46 87.4209 127.46 87.5114 127.369 87.602C127.369 87.6926 127.279 87.7831 127.188 87.7831C126.554 88.2359 125.649 88.5076 124.743 88.7792C123.838 89.0509 122.841 89.1415 121.936 89.1415C120.578 89.1415 119.4 88.9603 118.223 88.5981C117.136 88.2359 116.14 87.7831 115.325 87.0587C114.51 86.3342 113.876 85.6098 113.424 84.7042C112.971 83.7986 112.79 82.8025 112.79 81.6253C112.79 80.5386 112.971 79.5425 113.424 78.6369C113.786 77.7314 114.42 76.9164 115.235 76.1919C116.05 75.4675 116.955 74.9241 118.042 74.5619C119.129 74.1997 120.306 74.0186 121.664 74.0186C122.66 74.0186 123.656 74.1091 124.471 74.2902C125.286 74.4713 126.011 74.743 126.645 75.1052C126.735 75.1958 126.826 75.1958 126.917 75.2863C127.007 75.3769 127.007 75.4675 127.007 75.558C127.007 75.558 127.007 75.6486 127.007 75.7391C127.007 75.8297 126.917 75.8297 126.917 75.9202C126.735 76.1013 126.554 76.1919 126.283 76.1919C126.464 76.1014 126.373 76.1014 126.373 76.1014ZM20.1506 87.5114V87.602V88.5981V88.6887V88.7792H33.1907C33.3719 88.7792 33.553 88.6887 33.7341 88.5981C33.8246 88.5076 33.9152 88.3264 33.9152 88.1453C33.9152 87.9642 33.8246 87.7831 33.7341 87.6926C33.6435 87.602 33.4624 87.5114 33.1907 87.5114H21.8712L33.3719 75.1958C33.4624 75.0147 33.6435 74.9241 33.6435 74.8336C33.7341 74.743 33.7341 74.6524 33.7341 74.5619C33.7341 74.3808 33.6435 74.2902 33.553 74.1997C33.4624 74.1091 33.2813 74.1091 33.1002 74.1091H20.8751C20.694 74.1091 20.5129 74.1997 20.3317 74.2902C20.2412 74.3808 20.1506 74.5619 20.1506 74.6525V74.743C20.1506 74.9241 20.2412 75.1052 20.3317 75.1958C20.4223 75.2863 20.6034 75.3769 20.8751 75.3769H31.3796L20.1506 87.4209V87.5114Z" fill="#4B5765"/>
<path fill-rule="evenodd" clip-rule="evenodd" d="M79.9177 81.9883H85.985C86.3472 81.9883 86.6189 82.2599 86.6189 82.6222C86.6189 82.9844 86.3472 83.2561 85.985 83.2561H79.9177V81.9883Z" fill="#4B5765"/>
<path d="M47.1365 81.3544C47.5893 81.3544 47.8609 81.0827 47.8609 80.7205C47.8609 80.3583 47.5893 80.0866 47.1365 80.0866H38.8053V73.2043H48.042C48.4948 73.2043 48.7665 72.9326 48.7665 72.5704C48.7665 72.2082 48.4948 71.9365 48.042 71.9365H38.0809C37.6281 71.9365 37.1753 72.2082 37.1753 72.661V88.2367C37.1753 88.5989 37.5375 88.8705 37.9903 88.8705C38.4431 88.8705 38.8053 88.5989 38.8053 88.2367V81.3544H47.1365Z" fill="#4B5765"/>
<path d="M17.7057 88.5081C17.8868 88.7797 18.0679 88.8703 18.4301 88.8703C18.7924 88.8703 19.2451 88.5081 19.2451 88.2364C19.2451 88.1458 19.2451 88.0553 19.1546 87.9647L10.7329 72.2985C10.5517 72.0268 10.2801 71.8457 9.8273 71.8457C9.46507 71.8457 9.1934 72.0268 9.01229 72.2985L0.590556 87.9647C0.5 88.0553 0.5 88.1458 0.5 88.2364C0.5 88.5986 0.862225 88.8703 1.31501 88.8703C1.67723 88.8703 1.85834 88.7797 2.03946 88.5081C4.75614 83.4369 7.20116 78.8185 9.91785 73.6568C12.4534 78.3658 14.989 83.0747 17.434 87.8742L17.5246 88.0553L17.7057 88.5081Z" fill="#4B5765"/>
<path fill-rule="evenodd" clip-rule="evenodd" d="M4.39404 82.3506H12.363C12.7252 82.3506 12.9969 82.6223 12.9969 82.9845C12.9969 83.3467 12.7252 83.6184 12.363 83.6184H4.39404V82.3506Z" fill="#4B5765"/>
<path fill-rule="evenodd" clip-rule="evenodd" d="M48.5854 52.1942H51.7549L54.0188 48.4814C54.1094 48.3909 54.0188 48.4814 54.1094 48.3909H89.3358C89.0641 47.8475 88.7019 47.3948 88.4302 46.8514C88.1585 46.3081 87.7963 45.7647 87.5246 45.312H55.5583C55.6488 45.1308 56.2827 43.9536 56.4638 43.6819L59.2711 38.8825C60.4483 36.7091 61.8067 34.6263 62.9839 32.453C63.2556 31.9096 63.6178 31.4569 63.8895 30.9135L69.5039 21.3145C69.6851 21.0429 70.2284 19.7751 70.4095 19.6845L71.3151 21.224C71.5867 21.7673 71.949 22.2201 72.2206 22.7634C72.8545 23.7596 73.3979 24.8462 74.0318 25.8424C74.6657 26.929 75.209 27.9252 75.8429 28.9213C76.1146 29.4646 76.4768 29.9174 76.7484 30.4607L77.654 32.0907H81.0046C80.8235 31.638 79.3746 29.2835 79.1029 28.8307L73.3073 18.6884C72.6734 17.6017 72.1301 16.334 70.319 16.4245C68.9606 16.5151 68.2362 17.8734 67.6023 18.9601C67.3306 19.5034 66.9684 20.0468 66.6061 20.5901C66.3345 21.1334 65.9723 21.6768 65.61 22.2201L61.8067 28.8307C61.1728 29.9174 60.5389 31.0946 59.905 32.1813C59.3616 33.1774 58.4561 34.5358 58.0033 35.5319C57.3694 36.7091 56.7355 37.7052 56.1016 38.8825C54.8338 41.1464 53.566 43.3197 52.2983 45.4931L48.5854 52.1942Z" fill="#4B5765"/>
<path fill-rule="evenodd" clip-rule="evenodd" d="M89.1546 27.8356L75.209 4.01926C74.4845 2.57036 73.4884 1.6648 72.4923 1.12146C71.8584 0.759238 71.1339 0.578125 70.5001 0.578125C69.7756 0.578125 69.1417 0.759238 68.5078 1.12146C67.5117 1.6648 66.6061 2.57036 65.8817 3.83815L51.121 29.0128L37.1753 52.8291C36.2698 54.1874 35.9076 55.4552 35.9981 56.6325C35.9981 57.3569 36.1792 57.9908 36.5414 58.5341C36.9037 59.0775 37.3565 59.6208 37.8998 59.983C38.8959 60.6169 40.1637 60.9792 41.7032 60.8886H71.1339L99.0253 60.9792C100.655 61.0697 102.014 60.7075 103.01 60.0736C103.644 59.7114 104.096 59.168 104.368 58.6247C104.73 58.0814 104.911 57.3569 104.911 56.723C105.002 55.6363 104.64 54.3686 103.825 53.1008L101.018 48.3013H96.8519L102.104 57.3569H38.8054L70.5001 2.47981L90.513 37.1629H67.1495L65.3383 40.2418H96.3992C95.403 38.6118 89.1546 27.9261 89.1546 27.8356Z" fill="#4B5765"/>
</svg>
