<svg width="70" height="349" viewBox="0 0 70 349" fill="none" xmlns="http://www.w3.org/2000/svg">
<path d="M54.0077 124.549L51.3802 129.199L37.2144 129.362L37.5441 129.937L51.6836 129.774L54.3063 125.131H57.8105L41.2888 156.194C41.2215 156.325 41.1556 156.447 41.091 156.558C41.0237 156.674 40.9563 156.784 40.8897 156.887C40.8224 156.99 40.7529 157.09 40.683 157.186C40.6088 157.288 40.5376 157.38 40.4702 157.46C40.4025 157.541 40.3313 157.62 40.2578 157.696L40.9871 157.694C41.0182 157.654 41.0491 157.617 41.0802 157.576C41.1578 157.47 41.2355 157.359 41.3114 157.242C41.3844 157.13 41.4599 157.007 41.5362 156.876C41.6061 156.754 41.6786 156.623 41.7525 156.482L58.7354 124.549H54.0077ZM34.1401 145.946L33.5233 145.946L34.8762 148.491L35.4908 148.489L34.1401 145.946ZM41.1053 136.144L41.4356 136.72C42.2294 136.721 43.0426 136.721 43.8257 136.722L43.7128 136.913C43.3435 137.534 42.9744 138.154 42.6093 138.765L42.9191 139.305L44.8075 136.146C43.5735 136.146 42.3394 136.145 41.1053 136.144ZM38.9043 167.463L38.5112 167.464L38.715 167.821L38.9043 167.463ZM39.6756 151.221L38.3091 153.794L36.9592 151.253L36.3476 151.26L38.3099 154.952C38.9708 153.706 39.632 152.46 40.2935 151.214L39.6756 151.221ZM34.7311 160.848C35.4027 162.023 36.0741 163.199 36.7454 164.374H37.3743L35.3616 160.848H34.7311ZM42.4064 160.848H41.7922L39.9244 164.374H40.5395C41.1617 163.199 41.784 162.023 42.4064 160.848L42.4064 160.848ZM41.1407 148.463L41.7549 148.461C42.1988 147.624 42.6428 146.787 43.087 145.951L42.4757 145.95L41.1407 148.463ZM24.9486 130.082L27.9144 130.047C28.0447 129.84 28.1907 129.645 28.3509 129.464L25.2566 129.5L24.9486 130.082ZM28.3216 148.52L26.848 145.942L26.2174 145.942C26.7087 146.802 27.2001 147.663 27.6917 148.523L28.3216 148.52ZM24.1661 142.351C24.7561 143.385 25.3466 144.418 25.9375 145.452L26.2596 144.913L24.469 141.78L24.1661 142.351ZM27.1592 136.711C29.0386 136.711 30.9048 136.712 32.7576 136.713L32.4529 136.139C30.7899 136.138 29.1269 136.137 27.464 136.136L27.1592 136.711ZM31.7653 130.003L34.6245 129.97C34.5151 129.778 34.4057 129.587 34.2963 129.396L31.2627 129.431C31.4466 129.604 31.6149 129.795 31.7653 130.003H31.7653ZM38.4776 136.716C38.3682 136.525 38.2589 136.334 38.1497 136.142C37.1189 136.142 36.0881 136.141 35.0574 136.141L35.3602 136.714C36.4048 136.715 37.4463 136.715 38.4775 136.716H38.4776ZM33.7159 133.599L34.0207 134.177L37.0195 134.163L36.6896 133.586L33.7159 133.599ZM49.6798 133.528L39.6304 133.573L39.9617 134.15L48.7555 134.111L44.5209 142.097L44.8385 142.651C46.4522 139.61 48.066 136.569 49.6798 133.528H49.6798ZM20.2953 227.492C18.6218 227.499 16.9484 227.506 15.2751 227.512L14.9417 228.093C16.6217 228.089 18.3018 228.083 19.9821 228.077L20.2953 227.492ZM19.7951 207.713H19.1784L17.1553 211.492H17.7719L19.7951 207.713ZM12.3572 232.598H17.5618L17.8597 232.041H12.6765L12.3572 232.598ZM23.6228 232.041H20.7192L20.4245 232.598H23.3267L23.6228 232.041ZM13.6416 226.388L14.2569 226.388C15.3453 224.333 16.4332 222.278 17.5207 220.223L16.9065 220.221C15.8183 222.277 14.73 224.332 13.6416 226.388V226.388ZM16.3413 245.733L14.8703 243.09C14.7689 243.281 14.6674 243.473 14.5659 243.665L16.036 246.307L16.3413 245.733ZM19.1348 240.48C18.172 240.483 17.2093 240.486 16.2466 240.49C16.1445 240.683 16.0423 240.876 15.9401 241.069C16.9027 241.064 17.8654 241.06 18.8281 241.057L19.1348 240.48ZM32.3636 151.305L35.1056 156.498C35.1558 156.6 35.212 156.703 35.272 156.804C35.3347 156.909 35.4033 157.017 35.4758 157.123C35.5449 157.223 35.6216 157.327 35.7048 157.433C35.7791 157.527 35.8579 157.621 35.9384 157.711C36.1998 157.71 36.4613 157.709 36.7227 157.708C36.666 157.658 36.6086 157.607 36.5555 157.555C36.4741 157.475 36.3965 157.395 36.3252 157.314C36.248 157.227 36.1734 157.138 36.1033 157.049C36.0317 156.958 35.9644 156.866 35.9018 156.774C35.8383 156.681 35.7778 156.586 35.7219 156.492C35.6675 156.4 35.6178 156.308 35.5744 156.219L32.9766 151.298L32.3636 151.305ZM38.3792 184.471L38.0771 185.039L39.5828 187.671L39.8826 187.105L38.3792 184.471ZM42.0057 183.095L40.9358 181.23C40.8568 181.071 40.7783 180.922 40.702 180.784C40.6407 180.675 40.5761 180.568 40.5113 180.462L40.2112 181.027C40.2254 181.052 40.2406 181.075 40.2544 181.1C40.333 181.242 40.4069 181.382 40.4742 181.519L41.7045 183.664L42.0057 183.095ZM42.3866 168.805L43.1125 167.449L42.494 167.451L41.9249 168.514C41.8417 168.67 41.7592 168.817 41.6795 168.953C41.5963 169.094 41.5133 169.227 41.4303 169.354C41.3463 169.482 41.2608 169.604 41.1754 169.719C41.0854 169.84 40.9971 169.952 40.9117 170.052C40.8224 170.157 40.7319 170.257 40.6423 170.348C40.5505 170.441 40.4588 170.528 40.3674 170.608C40.276 170.687 40.1815 170.762 40.0859 170.832C39.9916 170.9 39.8981 170.96 39.8076 171.013L39.6505 171.097L39.4943 171.17L39.3365 171.23L39.1808 171.278L39.0199 171.316L38.8656 171.34L38.7063 171.354L38.5464 171.356L38.394 171.346L38.2392 171.325L38.0823 171.291L37.9282 171.247L37.7776 171.192L37.6228 171.125L37.4684 171.046L37.3196 170.959C37.2256 170.9 37.1316 170.836 37.0415 170.766C36.9522 170.698 36.8606 170.621 36.7687 170.536C36.6791 170.453 36.5894 170.364 36.5019 170.27C36.4126 170.174 36.3247 170.072 36.2407 169.967C36.1566 169.863 36.0717 169.751 35.9875 169.632C35.9064 169.517 35.8257 169.396 35.7481 169.271C35.6693 169.144 35.5917 169.012 35.517 168.876C35.4393 168.736 35.3656 168.595 35.2982 168.459L34.7351 167.477L34.108 167.479L34.8346 168.745C34.9078 168.892 34.9872 169.044 35.0717 169.197C35.1528 169.343 35.2377 169.486 35.3248 169.625C35.4114 169.761 35.5002 169.894 35.5903 170.021C35.6782 170.144 35.771 170.265 35.8667 170.382C35.9609 170.497 36.0558 170.606 36.15 170.706C36.2471 170.808 36.3458 170.906 36.4444 170.996C36.5435 171.086 36.6443 171.171 36.7464 171.248C36.8485 171.326 36.9515 171.398 37.0528 171.461L37.2345 171.567L37.4182 171.66L37.6043 171.74L37.787 171.805L37.9764 171.859L38.1604 171.897L38.3444 171.923L38.5331 171.935L38.7274 171.933L38.9175 171.917L39.1088 171.887L39.3014 171.843L39.4914 171.784L39.6823 171.711L39.8719 171.624L40.0576 171.523C40.1639 171.462 40.2696 171.393 40.373 171.319C40.4773 171.244 40.5811 171.162 40.6818 171.074C40.7838 170.986 40.885 170.892 40.9841 170.792C41.0829 170.692 41.1815 170.585 41.2788 170.471C41.3768 170.357 41.4754 170.234 41.5715 170.106C41.6632 169.984 41.7571 169.851 41.8502 169.711C41.9446 169.569 42.0361 169.423 42.1226 169.276C42.2093 169.129 42.2973 168.972 42.3866 168.805V168.805ZM34.6788 193.426C34.7439 193.312 34.8126 193.201 34.882 193.093C34.9498 192.989 35.0198 192.887 35.0911 192.79C35.1614 192.694 35.2321 192.603 35.3017 192.52C35.3712 192.436 35.4441 192.355 35.5192 192.277C35.5938 192.2 35.668 192.129 35.7408 192.065C35.818 191.997 35.8949 191.936 35.9686 191.883C36.0414 191.83 36.1166 191.781 36.194 191.737L36.3394 191.659L36.4825 191.595L36.6267 191.542L36.7734 191.503L36.9235 191.473L37.0724 191.455L37.2235 191.451L37.3748 191.457L37.5083 191.472L37.5655 191.482L37.8462 190.952L37.7519 190.928L37.5843 190.898L37.4152 190.878L37.226 190.872L37.0381 190.877L36.8531 190.898L36.6658 190.934L36.4835 190.985L36.3024 191.05L36.121 191.131L35.9455 191.224C35.8554 191.276 35.7679 191.333 35.6831 191.394C35.5965 191.457 35.5097 191.525 35.4257 191.598C35.3424 191.67 35.2576 191.749 35.1744 191.835C35.0928 191.918 35.0112 192.007 34.9319 192.1C34.8539 192.193 34.774 192.294 34.6939 192.401C34.6163 192.507 34.5381 192.619 34.4618 192.735C34.3885 192.848 34.313 192.97 34.237 193.102C34.1603 193.233 34.0873 193.367 34.0191 193.499L29.6473 201.72C29.7537 201.906 29.86 202.092 29.9663 202.278L34.4837 193.785C34.5484 193.659 34.6141 193.539 34.6788 193.426V193.426ZM47.5564 206.526L40.6667 193.48C40.6166 193.378 40.5607 193.276 40.5007 193.175C40.4407 193.073 40.372 192.966 40.2987 192.858C40.2306 192.758 40.1537 192.655 40.0709 192.55C40.0239 192.49 39.9725 192.431 39.9223 192.372L39.6418 192.896L39.6685 192.928C39.7405 193.021 39.8088 193.113 39.8706 193.204C39.9379 193.303 39.9989 193.397 40.0508 193.486C40.1079 193.583 40.1576 193.675 40.1997 193.76L46.6376 205.957L45.8044 205.966C44.9654 205.975 44.1254 205.985 43.2886 205.989L37.9805 196L37.671 196.578L42.9832 206.571L47.5564 206.526ZM28.2575 204.392L28.2411 204.364L17.0379 225.43H21.3992L24.1974 220.203L24.0893 220.204L21.4661 224.849H17.9622L28.5555 204.931C28.4534 204.76 28.3526 204.585 28.2575 204.392V204.392ZM26.0548 227.468C25.0811 227.472 24.1074 227.476 23.1339 227.48L22.823 228.068C23.7957 228.065 24.7684 228.061 25.7411 228.058L26.0548 227.468ZM40.5362 140.321L25.2372 140.332L24.9301 140.911L40.8665 140.899C40.7563 140.706 40.6462 140.514 40.5362 140.321V140.321ZM24.4804 197.809L21.6418 203.111L21.9501 203.687L24.7996 198.365L24.4804 197.809ZM40.6875 267.756L41.2453 267.749L42.226 266.012C43.0371 264.484 43.8484 262.955 44.66 261.426C44.4557 261.427 44.2514 261.427 44.0472 261.428L43.5275 262.408L40.6875 267.756ZM10.8302 211.492H11.6582L13.8267 207.713H13.0558C12.3133 208.97 11.5715 210.23 10.8302 211.492ZM18.4178 268.012L14.9454 261.526C14.7402 261.527 14.5351 261.528 14.33 261.529L17.805 268.02L18.4178 268.012ZM12.5953 221.161L16.0726 214.666L15.4571 214.664L11.9827 221.154L12.5953 221.161ZM21.4393 136.71C22.4084 136.71 23.3799 136.71 24.3463 136.71L24.6523 136.135C23.6831 136.134 22.7138 136.134 21.7446 136.133L21.4393 136.71ZM20.8195 186.264C20.925 186.449 21.0304 186.634 21.1359 186.818L23.7815 182.064L23.1548 182.064L20.8195 186.264ZM10.1808 236.391H15.5311L15.8368 235.82H10.5085L10.1808 236.391ZM35.064 287.651C35.1456 287.797 35.23 287.94 35.3172 288.078C35.4037 288.215 35.493 288.348 35.5825 288.475C35.6529 288.573 35.7305 288.672 35.809 288.77L36.0921 288.235C36.056 288.187 36.0202 288.143 35.9838 288.092C35.9027 287.977 35.8207 287.854 35.7401 287.726C35.6642 287.605 35.587 287.473 35.5089 287.333C35.4329 287.195 35.3588 287.054 35.2892 286.913L34.5551 285.633L34.2536 286.2L34.8264 287.198C34.9001 287.346 34.9793 287.497 35.064 287.651L35.064 287.651ZM35.2254 279.076L33.3819 275.846L33.2666 276.039L32.8609 276.04C33.5481 277.242 34.2351 278.445 34.9219 279.648L35.2254 279.076ZM35.9439 267.81L32.7823 261.861L28.209 261.906L31.3547 267.863L31.9662 267.856L29.1263 262.476L32.4756 262.444L35.3319 267.817L35.9439 267.81ZM36.4671 276.692L36.4839 276.705L36.7533 276.197C36.685 276.138 36.616 276.076 36.5465 276.008C36.4645 275.928 36.3869 275.846 36.3157 275.767C36.2381 275.68 36.1638 275.592 36.0947 275.504C36.0248 275.415 35.957 275.322 35.8923 275.229C35.8266 275.133 35.7661 275.038 35.7125 274.947C35.6571 274.852 35.607 274.76 35.5645 274.674L34.8697 273.357L34.5436 273.903L35.0983 274.953C35.1481 275.054 35.2038 275.157 35.2638 275.259C35.3264 275.364 35.3947 275.471 35.4679 275.577C35.5397 275.681 35.6164 275.785 35.6959 275.886C35.7737 275.985 35.8563 276.083 35.941 276.178C36.0201 276.266 36.1071 276.357 36.1997 276.449C36.2815 276.529 36.371 276.61 36.4671 276.692V276.692ZM34.2055 273.262L34.8198 273.263L33.4561 270.679L32.8429 270.682L34.2055 273.262ZM32.7944 283.657L33.0956 283.089L29.053 276.043L28.4257 276.043L32.7944 283.657ZM30.439 270.692L29.8082 270.695C30.2966 271.55 30.7851 272.406 31.2737 273.261L31.9065 273.261L31.3289 272.249L30.439 270.692ZM23.9404 188.43C23.2532 188.43 22.6363 188.429 22.0546 188.427L22.3841 189.004C23.0024 189.005 23.6208 189.009 24.239 189.009C24.4538 188.631 24.6681 188.252 24.8819 187.873L24.5802 187.301L23.9404 188.43ZM19.0473 141.228L20.5503 143.848L20.8526 143.28L19.3488 140.659C19.2483 140.849 19.1478 141.038 19.0473 141.228ZM29.1452 157.734L25.5024 151.384L24.8783 151.392L28.5182 157.736C28.7272 157.735 28.9362 157.734 29.1452 157.734ZM26.3583 164.374L24.4705 160.848H23.8532L25.7412 164.374H26.3583ZM23.8706 148.54L22.3177 145.834L22.0158 146.402L23.244 148.543L23.8706 148.54ZM21.2389 131.758L21.5479 131.181C21.4683 131.032 21.3861 130.875 21.3065 130.726L20.9869 130.127L22.1188 130.114L22.4303 129.532L20.0703 129.56L21.2389 131.758ZM25.9826 133.634L23.0612 133.647L22.754 134.227L25.674 134.214L25.9826 133.634ZM21.2729 122.593C22.9005 122.586 24.5282 122.58 26.1558 122.573L26.4618 122.002C24.8405 122.007 23.2193 122.013 21.598 122.018L21.2729 122.593ZM26.5 183.915L25.8589 185.046L25.9788 185.045L26.2223 185.503C26.8715 184.356 27.5207 183.208 28.1698 182.06L27.5474 182.061L26.5 183.915ZM24.1051 207.713H23.5286C22.8616 208.972 22.1946 210.232 21.5278 211.492H22.1434C23.7732 208.414 25.403 205.335 27.0327 202.257L26.7124 201.699C25.7465 203.523 24.7808 205.347 23.8152 207.171L24.1051 207.713ZM26.2178 195.716L27.6296 193.079L27.3233 192.498L25.8993 195.158C26.0056 195.344 26.1117 195.53 26.2178 195.716ZM28.438 199.603C29.0109 198.52 29.5841 197.438 30.1574 196.355C30.045 196.311 29.9358 196.258 29.8305 196.197C29.7786 196.165 29.7332 196.123 29.6832 196.088C29.1615 197.073 28.6399 198.058 28.1184 199.043L28.438 199.603ZM30.887 148.509L31.5025 148.506L30.1498 145.944L29.5324 145.944L30.887 148.509ZM13.3318 240.5L13.1419 240.5L12.8061 240.501L13.0736 240.982L13.3318 240.5ZM32.955 164.374L30.9317 160.848H30.3035L32.3268 164.374H32.955ZM28.9436 190.624L33.8478 181.464C33.9272 181.314 34.0094 181.167 34.0945 181.022C34.1751 180.886 34.2583 180.752 34.3428 180.623C34.4277 180.494 34.5135 180.372 34.5989 180.258C34.6847 180.143 34.7726 180.032 34.8614 179.928C34.9512 179.822 35.0417 179.722 35.1313 179.63C35.2226 179.537 35.3148 179.45 35.4062 179.371C35.4988 179.29 35.5914 179.216 35.6842 179.149C35.7752 179.083 35.8693 179.022 35.966 178.966L36.121 178.882L36.2783 178.809L36.435 178.748L36.5903 178.701L36.7507 178.662L36.9055 178.639L37.0664 178.624L37.2273 178.622L37.3762 178.632L37.5331 178.654L37.6872 178.686L37.8437 178.731L37.993 178.785L38.1482 178.853L38.3035 178.932L38.4533 179.02L38.4551 179.021L38.7214 178.52L38.7193 178.518L38.5399 178.413L38.3555 178.319L38.1723 178.239L37.9862 178.174L37.7978 178.12L37.6131 178.081L37.4242 178.056L37.238 178.044L37.0477 178.046L36.8536 178.061L36.6614 178.092L36.4697 178.136L36.28 178.194L36.0914 178.267L35.9035 178.353L35.7142 178.454C35.6118 178.514 35.5063 178.583 35.4016 178.658C35.2973 178.733 35.1935 178.816 35.0918 178.903C34.9929 178.988 34.8907 179.084 34.7886 179.187C34.7598 179.216 34.7317 179.25 34.703 179.28L34.9327 179.28L33.2729 182.057L32.913 182.057L28.6362 190.046L28.9436 190.624ZM34.8594 318.37L33.4339 321.056L33.7419 321.64L35.179 318.93L34.8594 318.37ZM32.6525 314.506L31.1618 317.309C31.3038 317.434 31.4372 317.571 31.561 317.717L32.9716 315.065C32.8652 314.878 32.7589 314.692 32.6525 314.506ZM32.2345 324.482L32.4371 324.1L32.1276 323.517L28.0869 331.131L28.704 331.13L32.2345 324.482ZM37.1581 328.111L40.4212 328.108L40.0908 327.53L36.8526 327.532L37.1581 328.111ZM20.9462 336.519L21.5631 336.516L30.3026 320.083L29.9948 319.504L20.9462 336.519ZM47.5483 324.98L40.6586 311.934C40.6084 311.833 40.5518 311.729 40.4917 311.627C40.4291 311.522 40.3604 311.416 40.2879 311.311C40.2177 311.208 40.1408 311.105 40.0605 311.002C39.982 310.902 39.8993 310.804 39.8139 310.708C39.7306 310.616 39.6444 310.525 39.5569 310.44C39.4745 310.36 39.3846 310.277 39.288 310.195C39.2 310.12 39.1082 310.047 39.0151 309.979C38.9233 309.912 38.829 309.849 38.7351 309.792L38.5678 309.696L38.4018 309.611L38.2361 309.537L38.07 309.474L37.9033 309.422L37.7381 309.381L37.5713 309.352L37.407 309.333L37.2169 309.326L37.0282 309.331L36.8446 309.352L36.6555 309.389L36.4735 309.439C36.4066 309.46 36.3457 309.482 36.2926 309.504L36.114 309.584L35.936 309.678C35.8528 309.726 35.7649 309.783 35.673 309.849C35.5916 309.907 35.5058 309.975 35.4174 310.051C35.3377 310.12 35.254 310.199 35.1656 310.288C35.0837 310.371 35.003 310.46 34.9231 310.554C34.8443 310.647 34.7641 310.748 34.6847 310.855C34.61 310.956 34.5327 311.068 34.4526 311.189C34.3801 311.301 34.3051 311.424 34.2291 311.554C34.1749 311.647 34.1185 311.752 34.0624 311.858L34.3813 312.414L34.4749 312.238C34.5392 312.114 34.607 311.991 34.6752 311.873C34.7404 311.76 34.8078 311.65 34.876 311.545C34.9434 311.44 35.0133 311.339 35.0832 311.243C35.1569 311.142 35.227 311.052 35.2934 310.974C35.3659 310.887 35.4397 310.805 35.5122 310.73C35.586 310.653 35.6601 310.583 35.7326 310.52C35.8086 310.453 35.8846 310.393 35.9574 310.34C36.0351 310.284 36.1114 310.234 36.1848 310.191L36.3315 310.113L36.4743 310.049L36.6206 309.996L36.7659 309.956L36.9135 309.927L37.0641 309.91L37.2163 309.904L37.3678 309.912L37.5029 309.927L37.6402 309.952L37.7779 309.987L37.9151 310.03L38.0559 310.084L38.1957 310.146L38.3365 310.218L38.4733 310.297C38.556 310.347 38.6392 310.403 38.722 310.463C38.8057 310.525 38.8881 310.59 38.967 310.658C39.0498 310.729 39.1313 310.803 39.2084 310.878C39.2909 310.958 39.3685 311.04 39.4405 311.119C39.5151 311.203 39.5895 311.293 39.6615 311.384C39.731 311.472 39.7992 311.565 39.864 311.659C39.9274 311.751 39.987 311.846 40.0424 311.939C40.0973 312.032 40.1476 312.125 40.1913 312.214L46.6294 324.412L45.7902 324.421C44.953 324.431 44.1147 324.44 43.28 324.445L37.4547 313.48L36.2719 315.709L36.5917 316.266L37.4542 314.639L42.9746 325.025L47.5483 324.98ZM57.8016 243.584L53.3364 251.981L53.6539 252.543L58.7272 243.003H53.9995L51.3733 247.653L50.8911 247.659L51.2161 248.233L51.6758 248.228L54.2971 243.584H57.8016ZM50.5614 258.357L52.4374 254.83H51.8213L49.9456 258.357H50.5614ZM63.0292 240.331L51.9431 240.371C41.9506 240.407 31.9574 240.44 21.9637 240.471L21.6586 241.045C24.573 241.034 27.4872 241.022 30.4011 241.01L62.1066 240.913L54.8412 254.641L54.948 254.83H54.7413L52.8747 258.357H53.4859C56.6669 252.348 59.848 246.339 63.0292 240.331ZM28.8384 267.892L25.1798 261.492L24.5526 261.494C25.7713 263.63 26.9908 265.765 28.2113 267.899L28.8384 267.892ZM34.0889 328.114L34.5698 328.113L34.262 327.534L33.7985 327.534C33.0804 328.731 32.3643 329.929 31.6502 331.128L32.2873 331.127L34.0889 328.114ZM20.7136 261.507C20.5044 261.508 20.2952 261.508 20.0861 261.509L23.7821 267.951L24.4062 267.943L20.7136 261.507ZM19.2626 270.742L20.6082 273.256L21.2251 273.256L19.8778 270.739L19.2626 270.742ZM22.1031 276.048L23.7104 279.05L24.324 279.044L22.7196 276.047L22.1031 276.048ZM59.6427 332.301L40.931 299.69C40.8534 299.534 40.7731 299.382 40.6929 299.237C40.6114 299.092 40.5266 298.948 40.4394 298.809C40.3526 298.672 40.2641 298.54 40.1738 298.413C40.0859 298.29 39.9928 298.168 39.8976 298.052C39.8028 297.936 39.7077 297.827 39.6123 297.725C39.5158 297.623 39.4171 297.526 39.319 297.437C39.2202 297.347 39.1194 297.262 39.0178 297.184C38.9191 297.108 38.8163 297.037 38.712 296.972L38.5322 296.867L38.3495 296.774L38.1658 296.695L37.9806 296.629L37.7931 296.576L37.6056 296.535L37.4165 296.51L37.2312 296.498L37.0394 296.5L36.8477 296.515L36.6542 296.546L36.4624 296.59L36.2716 296.649L36.0832 296.721L35.8935 296.808L35.707 296.909C35.6041 296.968 35.4989 297.036 35.3934 297.113C35.2913 297.186 35.188 297.267 35.0841 297.356C34.9847 297.442 34.8821 297.538 34.7801 297.641C34.6814 297.741 34.5828 297.848 34.4862 297.961C34.3892 298.073 34.2919 298.195 34.1962 298.321C34.107 298.44 34.0125 298.575 33.9148 298.721C33.82 298.865 33.7281 299.011 33.6406 299.159C33.5545 299.304 33.467 299.461 33.3777 299.627L29.6909 306.514C29.7117 306.514 29.7329 306.506 29.7537 306.507C29.9258 306.513 30.0963 306.545 30.2602 306.603L33.8392 299.917C33.9194 299.767 34.001 299.62 34.0838 299.481C34.1649 299.344 34.2483 299.21 34.3339 299.078C34.4179 298.95 34.5037 298.829 34.589 298.714C34.6788 298.593 34.7672 298.482 34.8521 298.382C34.9417 298.276 35.0326 298.176 35.1223 298.084C35.2136 297.991 35.3055 297.904 35.3964 297.824C35.4869 297.746 35.5813 297.671 35.6765 297.602C35.7683 297.536 35.8617 297.475 35.9567 297.42L36.1128 297.336L36.269 297.264L36.428 297.202L36.583 297.154L36.7425 297.116L36.8995 297.092L37.0565 297.079L37.2178 297.076L37.3675 297.086L37.5258 297.108L37.678 297.14L37.8368 297.186L37.9852 297.239L38.1409 297.307L38.2911 297.383L38.4447 297.473C38.5377 297.532 38.6318 297.597 38.7243 297.669C38.8162 297.739 38.9071 297.816 38.9967 297.898C39.083 297.976 39.1717 298.065 39.263 298.163C39.3523 298.259 39.4398 298.36 39.524 298.465C39.6063 298.567 39.6899 298.678 39.7727 298.795C39.8568 298.915 39.9383 299.038 40.0147 299.16C40.0884 299.277 40.1657 299.41 40.2454 299.553C40.3214 299.69 40.3952 299.831 40.4665 299.975L58.6805 331.722L46.5096 331.712L45.4536 331.711L45.788 332.294C50.4063 332.296 55.0245 332.299 59.6427 332.301ZM4.48745 77.0718L4.79616 77.6488L19.8702 77.6418C17.3468 82.0399 14.6641 86.55 11.9907 91.0881L12.3742 91.8043L20.8333 77.0621C15.3847 77.067 9.93607 77.0703 4.48745 77.0718ZM52.7496 328.099L44.8977 314.359L37.0497 300.611C35.5399 303.464 34.0298 306.316 32.5195 309.168L32.8393 309.726L37.0668 301.741L40.6732 308.039L44.4395 314.63L51.7899 327.522L43.0533 327.528L43.3851 328.106L52.7496 328.099ZM7.47414 181.955L7.16906 181.379L4.25069 181.369L4.55688 181.945L7.47414 181.955ZM12.8489 279.273C12.5961 279.271 12.3431 279.267 12.0903 279.265L12.4018 279.846L12.5461 279.848L15.1718 284.498H19.8996L14.9546 275.2L13.8372 273.253H13.919L10.6434 267.094L10.5575 267.094L5.6161 258.357H5.99712L2.91666 252.565C2.84251 252.422 2.76907 252.289 2.69822 252.167C2.62322 252.036 2.54858 251.914 2.47608 251.803C2.40061 251.688 2.32248 251.576 2.24442 251.471C2.16462 251.363 2.08498 251.262 2.00548 251.169C1.94452 251.097 1.88188 251.03 1.81946 250.964L1.52934 251.47C1.56452 251.509 1.59991 251.545 1.63482 251.587C1.70473 251.671 1.77556 251.762 1.84717 251.859C1.91755 251.955 1.98701 252.056 2.05434 252.159C2.12047 252.262 2.18827 252.373 2.25681 252.491L2.45345 252.852L18.9751 283.917H15.4704L12.8489 279.273ZM2.09434 177.323H5.02204L4.71345 176.74H1.73948C1.86819 176.927 1.98668 177.121 2.09434 177.323V177.323ZM43.5219 255.675C42.988 256.575 42.4529 257.469 41.9168 258.357H42.5524L44.6605 254.83H16.2537L18.2776 258.357H18.9067L17.0751 255.165H18.1468C26.9045 255.165 35.6646 255.165 43.8175 255.177L43.5219 255.675ZM7.71946 168.082L2.88029 168.065L3.19192 168.647L8.04838 168.663L7.71946 168.082ZM7.17239 348.578H7.78892L8.09419 348.008L7.48172 348L7.17239 348.578ZM21.4589 343.303H17.9541L20.0228 339.413L19.4036 339.42L17.0297 343.884H21.7573L24.3098 339.364L23.6784 339.371L21.4589 343.303ZM13.1505 345.754L13.7663 345.752L15.1672 343.106H14.5525C14.0853 343.989 13.618 344.871 13.1505 345.754ZM14.218 108.022H13.6029C13.3165 108.564 13.0301 109.105 12.7434 109.646L13.0717 109.645C15.0291 109.64 16.9867 109.633 18.9446 109.626C18.842 109.432 18.7395 109.238 18.637 109.045C16.9802 109.052 15.3232 109.059 13.666 109.065C13.8502 108.718 14.0342 108.37 14.218 108.022ZM21.4743 106.394H20.1845L20.4966 106.977H21.7741L24.3989 102.326L55.7111 101.965C54.8831 100.409 54.0558 98.8524 53.2291 97.2953L27.0263 97.4126L32.2542 87.5765L37.4708 77.7316L42.9913 88.1166L47.5642 88.0714L40.6744 75.0257C40.6247 74.9246 40.5685 74.8222 40.5083 74.7206C40.4462 74.6153 40.3776 74.5077 40.3047 74.4026C40.2326 74.2983 40.1558 74.1945 40.0764 74.0925C39.9988 73.9933 39.916 73.8946 39.8313 73.8006C39.7475 73.707 39.6609 73.6161 39.5734 73.5305C39.491 73.4499 39.4015 73.3685 39.3048 73.2863C39.2164 73.2115 39.1238 73.1383 39.0298 73.0699C38.9355 73.0014 38.842 72.9386 38.7511 72.8831L38.5841 72.7876L38.4174 72.7029L38.2535 72.6295L38.0853 72.5666L37.9193 72.513L37.7541 72.4729L37.5873 72.4432L37.4238 72.4245L37.2349 72.4171L37.0458 72.4232L36.8606 72.4436L36.674 72.4795L36.4928 72.5302L36.3106 72.5949L36.13 72.6759L35.9529 72.7696C35.8674 72.8188 35.779 72.8762 35.6899 72.9404C35.6027 73.0028 35.517 73.0707 35.4329 73.144C35.3492 73.2166 35.2648 73.2957 35.1807 73.3813C35.1034 73.4602 35.0232 73.5485 34.94 73.6463C34.8611 73.7394 34.7808 73.8405 34.7006 73.9491C34.6225 74.0539 34.5449 74.1655 34.4689 74.2826C34.3932 74.3994 34.3176 74.5219 34.2446 74.6475C34.1682 74.7788 34.0957 74.9115 34.0277 75.0438L18.7656 103.743L19.0739 104.319L34.4925 75.3293C34.5608 75.1976 34.6269 75.0765 34.6899 74.9684C34.758 74.8496 34.8259 74.7392 34.8919 74.6369C34.959 74.5334 35.028 74.4329 35.0974 74.3384C35.1686 74.2405 35.2402 74.1488 35.3101 74.065C35.384 73.976 35.4573 73.8946 35.5286 73.8215C35.6027 73.7451 35.6765 73.6743 35.7495 73.6105C35.8257 73.5435 35.9017 73.4829 35.975 73.4294C36.0506 73.375 36.1273 73.325 36.2023 73.2819L36.3487 73.2036L36.4911 73.1407C36.5857 73.1021 36.6829 73.0714 36.7819 73.049L36.9321 73.0192L37.081 73.0024L37.2323 72.9973L37.3842 73.0034L37.5181 73.0187L37.6597 73.0447L37.7951 73.0783L37.9342 73.1221L38.0736 73.1752L38.213 73.2376L38.3558 73.311L38.491 73.3889C38.5725 73.4387 38.6548 73.494 38.7372 73.5542C38.8217 73.6151 38.905 73.6818 38.9847 73.7498C39.0628 73.8153 39.143 73.89 39.2237 73.9687C39.3065 74.0496 39.3846 74.1316 39.457 74.2118C39.5338 74.2978 39.6076 74.3863 39.6762 74.4734C39.7487 74.5661 39.8169 74.6588 39.8791 74.7501C39.9448 74.8459 40.0056 74.9409 40.0593 75.0331C40.1155 75.1284 40.1657 75.2207 40.2074 75.3055L46.6457 87.5024L43.2959 87.5354L37.4712 76.5725L26.102 97.9955L52.9228 97.876C53.4316 98.8263 53.927 99.7613 54.4272 100.706L54.7935 101.397L24.0973 101.75L21.4743 106.394ZM17.0461 106.977H17.5422L17.2946 106.509L17.0461 106.977ZM13.6434 99.6126L12.1969 102.315L12.5043 102.893L13.9502 100.192L13.6434 99.6126ZM28.0315 167.5L27.4154 167.502L30.1751 172.656H13.1647L13.4127 173.102L10.5643 173.111L10.307 172.656H5.33827L5.64982 173.238H31.1038L28.0315 167.5ZM11.4243 150.091L8.70874 144.985L8.38869 145.543L11.1149 150.669L11.4243 150.091ZM14.4159 106.487L14.7242 107.066C15.2019 106.164 15.6795 105.262 16.1569 104.36L15.8494 103.779C15.3717 104.682 14.8939 105.584 14.4159 106.487L14.4159 106.487ZM10.8535 157.063L10.7585 156.885L10.6643 157.063L10.8535 157.063ZM19.3016 188.994L19.4237 188.995L19.3616 188.886L19.3016 188.994ZM28.4909 134.201L31.4163 134.188L31.1095 133.611L28.7989 133.621L28.4909 134.201ZM36.9417 228.021L36.6048 227.431L33.6345 227.44L33.9464 228.031C34.9448 228.028 35.9433 228.024 36.9417 228.021ZM44.7583 164.374L46.6463 160.848H46.0288L44.141 164.374H44.7583ZM30.0663 121.99L29.2311 121.993L28.9296 122.562C29.3104 122.561 29.6912 122.559 30.072 122.557L30.3899 122.556C30.2822 122.367 30.1743 122.179 30.0663 121.99ZM30.6177 227.45C30.0354 227.452 29.453 227.454 28.8706 227.457L28.5564 228.049C29.4842 228.046 30.412 228.043 31.3397 228.04L31.0255 227.448L30.6177 227.45ZM51.0023 121.92C44.9947 121.941 38.987 121.961 32.9793 121.98L33.3048 122.547L62.1139 122.459L49.2864 146.699L43.4673 157.685C43.6722 157.684 43.877 157.684 44.0817 157.683C50.3992 145.747 56.7178 133.811 63.0374 121.877L51.0023 121.92ZM48.3482 157.669L49.2814 155.925L48.9667 155.36L47.7296 157.671C47.9359 157.67 48.1421 157.669 48.3482 157.669ZM26.4374 232.041L26.142 232.598H33.7615L33.4658 232.041H26.4374ZM18.4164 236.391H21.3095L21.6132 235.82H18.7187L18.4164 236.391ZM46.2886 258.357C46.9128 257.182 47.5368 256.006 48.1606 254.83H47.5455L45.6753 258.357H46.2886ZM27.0037 220.171L26.6953 220.753L32.7505 220.683C32.6411 220.492 32.5316 220.3 32.4221 220.108L27.0037 220.171ZM15.4052 247.493C14.6607 247.496 13.8812 247.498 12.9974 247.498C12.917 247.356 12.8395 247.219 12.7593 247.077L12.4557 247.65L12.698 248.078L15.0982 248.07L15.4052 247.493ZM29.2875 215.856C29.1851 216.05 29.0828 216.243 28.9806 216.436L30.3214 216.43C30.2116 216.238 30.1017 216.046 29.9917 215.853L29.2875 215.856ZM31.7925 206.414C31.6402 206.503 31.4784 206.571 31.3109 206.617L26.0929 216.449L26.2073 216.448L27.1114 214.76C27.4618 214.036 27.9631 213.412 28.5753 212.937L32.1965 206.124C32.0697 206.233 31.9346 206.33 31.7926 206.414H31.7925ZM48.0409 247.691L20.0616 248.013L22.0435 251.741L22.6579 251.739C22.2024 250.876 21.7548 250.035 21.3111 249.205L20.9788 248.581L48.3607 248.266L48.0409 247.691ZM10.9384 244.97L11.2454 244.397C10.3034 242.73 9.36705 241.075 8.43648 239.431L8.11837 239.986L9.28967 242.059L10.9384 244.97ZM8.51019 249.506L5.68438 244.228L5.36555 244.784L8.20197 250.082L8.51019 249.506ZM8.94603 258.357L7.07915 254.83H6.46714L8.33449 258.357H8.94603ZM6.65354 237.393C6.75883 237.209 6.86403 237.025 6.96915 236.841L6.71422 236.391H7.22611C7.33492 236.201 7.44363 236.01 7.55226 235.82H5.76453L6.65354 237.393ZM7.6847 229.183L6.07747 232.185L6.36213 232.188L6.14553 232.598H9.39283C9.49886 232.412 9.60479 232.227 9.71062 232.041H6.77038L8.30059 229.183L7.6847 229.183ZM2.8446 240.094C2.92903 240.236 3.01106 240.383 3.08945 240.532L3.94641 242.133L4.26461 241.576L3.551 240.243C3.46233 240.076 3.37495 239.919 3.28886 239.774C3.20185 239.626 3.10967 239.48 3.01527 239.337C2.93343 239.214 2.85197 239.1 2.77106 238.991L2.48416 239.534C2.52083 239.587 2.5564 239.635 2.59399 239.691C2.67938 239.821 2.76398 239.955 2.84462 240.093L2.8446 240.094ZM6.37363 253.497L3.4911 248.051L3.17226 248.606L6.06583 254.072L6.37363 253.497ZM21.2969 164.374H21.9129C21.2901 163.199 20.6677 162.024 20.0457 160.848H19.43L21.2969 164.374ZM4.56649 223.85L3.78609 223.847C3.32085 224.699 2.87357 225.546 2.42343 226.394L3.10721 226.393L4.56649 223.85ZM10.7439 254.83L12.6323 258.357H13.2489L11.3605 254.83H10.7439ZM22.8149 157.755L19.4417 151.454L19.3256 151.456L19.0686 151.911L22.1988 157.757L22.8149 157.755ZM17.8863 196.096L19.8617 196.095C19.5252 196.682 19.1765 197.277 18.8345 197.867L19.1443 198.446L20.8252 195.517C19.7425 195.518 18.6598 195.518 17.5769 195.518L17.8863 196.096ZM15.5839 204.651L17.6154 201.11L17.2983 200.512C16.4955 201.883 15.6846 203.262 14.8656 204.648L15.5839 204.651ZM16.2208 273.254L16.833 273.254L13.4825 266.929L10.631 261.541L10.3227 261.542L13.4065 267.085L12.9557 267.086L16.2208 273.254ZM15.1643 191.012L15.472 191.586L16.8761 188.945L14.0401 188.912L14.3524 189.495L15.9592 189.514L15.7203 189.964C15.5363 190.311 15.3503 190.661 15.1643 191.012H15.1643ZM10.0123 181.388L10.321 181.964L15.4 181.982L15.0684 181.404L10.0123 181.388ZM33.5758 157.719L31.3367 153.795L29.9295 151.334L29.301 151.341C30.5159 153.467 31.7306 155.594 32.9452 157.721C33.1555 157.72 33.3657 157.719 33.5758 157.719ZM0.190613 111.459L5.34058e-05 111.63V112.35L0.190613 112.195V111.459ZM0.190613 118.691C0.127426 118.679 0.0647202 118.665 5.34058e-05 118.652V119.237C0.069046 119.252 0.128067 119.273 0.190613 119.287V118.691ZM0.190613 176.74H5.34058e-05V177.323H0.190613V176.74ZM0.824051 104.227L0.199203 104.22L0.0287933 104.518L3.8147e-05 104.626V104.945L0.351852 105.054L0.824051 104.227ZM1.53748 127.051L2.15587 127.058L0.354744 123.655L5.34058e-05 123.757V124.093L0.0261917 124.196L1.53748 127.051ZM0.190643 81.6109C0.408188 81.6375 0.61895 81.7095 0.81134 81.8228L0.827049 81.8341L4.23255 81.8368L3.9257 81.2573C2.6172 81.2557 1.30867 81.2548 9.91821e-05 81.2542V81.8335L0.190659 81.8336L0.190643 81.6109ZM0.571465 99.0885C0.650536 99.0177 0.724312 98.9478 0.792862 98.878L0.841637 98.8264L0.190643 98.8268V98.6754L8.39233e-05 98.8351V99.5438L0.437988 99.2039L0.571465 99.0885ZM1.71855 90.1073C1.9139 89.7417 2.10944 89.3681 2.30489 89.002L1.99554 88.4193L0.0262375 92.1251L9.91821e-05 92.2274V92.5609L0.354774 92.6633L1.71855 90.1073ZM0.190659 168.197V168.056L9.91821e-05 168.055V168.637L0.424141 168.638L0.190659 168.197ZM1.71071 77.0735C1.14053 77.0736 0.570343 77.074 0.00012207 77.0746V77.651L2.01598 77.6501L1.71071 77.0735ZM2.55141 172.656H0.00012207V173.238H2.85959L2.55141 172.656ZM14.2376 164.374H14.8643L12.8736 160.848H5.6659L5.72585 160.736C3.81712 160.712 1.90852 160.69 5.34058e-05 160.669V161.25L12.5538 161.393L14.2376 164.374ZM0.190659 156.438L9.91821e-05 156.438V157.015L0.190659 157.016V156.438ZM2.74141 150.273L3.07162 149.694L0.00012207 149.691V150.27L1.0623 150.27C1.62189 150.269 2.18227 150.268 2.74136 150.273L2.74141 150.273ZM2.00276 141.548L2.31026 140.969L0.35479 137.286L9.91821e-05 137.389V137.721L0.0262375 137.824L2.00276 141.548ZM0.685555 153.872L0.00012207 153.872V154.452L0.354424 154.452L0.685555 153.872ZM0.75206 132.351C0.782631 132.368 0.81411 132.391 0.845253 132.411L1.73131 132.411C1.66065 132.341 1.59 132.273 1.52173 132.213C1.43667 132.14 1.35013 132.072 1.26338 132.009C1.17757 131.947 1.08964 131.891 1.00088 131.838L0.87175 131.768L0.743118 131.707L0.615295 131.653C0.410706 131.581 0.209076 131.531 0.000144958 131.474V132.069L0.354095 132.169C0.4907 132.219 0.623703 132.28 0.752007 132.351L0.75206 132.351ZM58.1284 220.37L62.0126 227.355L39.5473 227.423L39.8852 228.012C41.0741 228.008 42.2631 228.004 43.4521 228L62.9593 227.931L59.0733 220.946L62.7668 220.935C63.5406 222.288 64.296 223.617 65.033 224.92L69.0507 232.041H42.1973L42.5167 232.598H69.9915C67.6798 228.52 65.3599 224.443 63.0666 220.353C61.4206 220.364 59.7743 220.365 58.1284 220.37ZM62.0222 108.901L30.5907 108.996C27.5925 109.006 24.5947 109.019 21.5973 109.033L21.9097 109.616C28.1811 109.596 34.4525 109.576 40.7237 109.555L62.9671 109.476L59.0811 102.492L62.7753 102.48C63.5483 103.831 64.303 105.159 65.0394 106.462L69.0589 113.588H24.036L24.112 113.73H6.08598L5.86459 114.144H70L67.6027 109.909C66.0968 107.237 64.5745 104.575 63.0744 101.9C61.4288 101.91 59.782 101.91 58.1361 101.915L62.0222 108.901ZM44.693 236.391H68.9932L41.9164 286.969C41.8348 287.122 41.752 287.27 41.6693 287.411C41.5869 287.551 41.5037 287.684 41.4216 287.809C41.3389 287.935 41.2523 288.058 41.1635 288.177C41.0786 288.291 40.9907 288.402 40.9023 288.507C40.8172 288.608 40.7267 288.707 40.6337 288.802C40.5394 288.899 40.4471 288.986 40.3583 289.063C40.2665 289.142 40.1738 289.216 40.0816 289.283C39.986 289.352 39.8908 289.413 39.7976 289.467L39.6419 289.552L39.4859 289.624L39.3266 289.685L39.1735 289.732L39.0131 289.771L38.8561 289.795L38.697 289.809L38.5392 289.811L38.386 289.8L38.2324 289.779L38.0986 289.751L37.8201 290.271L37.9651 290.312L38.1502 290.351L38.3393 290.377L38.5254 290.389L38.7151 290.388L38.9085 290.372L39.098 290.342L39.2928 290.297L39.4799 290.24L39.673 290.166L39.8608 290.079L40.0495 289.978C40.1559 289.917 40.2611 289.848 40.364 289.775C40.4678 289.7 40.5716 289.618 40.6728 289.53C40.7724 289.445 40.8736 289.35 40.9753 289.247C41.0742 289.147 41.1733 289.04 41.2704 288.926C41.3686 288.812 41.4663 288.689 41.5625 288.562C41.6548 288.438 41.749 288.305 41.843 288.164C41.9377 288.021 42.03 287.874 42.1171 287.727C42.2025 287.582 42.29 287.425 42.3789 287.259L69.9168 235.82H44.3654L44.693 236.391ZM15.4073 97.47L33.8556 63.0098C33.9367 62.8576 34.019 62.71 34.1014 62.5704C34.1846 62.4293 34.2683 62.2956 34.3511 62.1699C34.4381 62.0381 34.5239 61.9156 34.6071 61.8034C34.6924 61.6889 34.7808 61.578 34.8701 61.4727C34.9593 61.3671 35.0499 61.2674 35.1395 61.1753C35.2309 61.0821 35.3231 60.995 35.4145 60.9154C35.5029 60.8382 35.596 60.7641 35.6908 60.6951C35.783 60.6285 35.8782 60.5676 35.9731 60.5117L36.1287 60.4278L36.2857 60.3557L36.4428 60.2943L36.5992 60.2463L36.7596 60.2086L36.9154 60.1839L37.0742 60.1705L37.2354 60.1685L37.3886 60.1783L37.5434 60.2002L37.6984 60.2333L37.8515 60.2776L38.0003 60.3312L38.1585 60.3996L38.31 60.4764L38.4607 60.5649C38.5572 60.6253 38.651 60.6906 38.7398 60.7586C38.8291 60.8271 38.9201 60.9043 39.0118 60.9886C39.102 61.0715 39.191 61.1602 39.279 61.2546C39.3679 61.351 39.4558 61.452 39.5399 61.5563C39.6222 61.6581 39.7059 61.769 39.7887 61.8864C39.8731 62.0066 39.9547 62.1285 40.0307 62.251C40.1095 62.3782 40.1876 62.5099 40.2619 62.645C40.3407 62.7871 40.4147 62.9282 40.4827 63.066L58.6967 94.8147L46.0322 94.8036L31.9552 94.8008L34.1048 91.2053L52.7658 91.1905L44.9143 77.4512L37.0673 63.7032C30.4829 76.1439 23.8968 88.5836 17.3091 101.022L17.6182 101.6C24.1079 89.3451 30.596 77.0895 37.0827 64.8329L44.4558 77.7213L51.807 90.6121L33.8148 90.625C32.8651 92.2078 31.9179 93.7924 30.9733 95.379C40.5355 95.3878 50.0976 95.3923 59.6597 95.3924L40.9442 62.776C40.8658 62.6168 40.7873 62.4678 40.7105 62.3311C40.6234 62.176 40.5384 62.0316 40.4561 61.9007C40.3703 61.7643 40.2815 61.6321 40.1918 61.5062C40.1031 61.3819 40.01 61.2605 39.9147 61.1431C39.8199 61.0276 39.7248 60.9192 39.6308 60.8189C39.5338 60.7161 39.4347 60.6189 39.3369 60.5294C39.2373 60.4394 39.1358 60.3542 39.0341 60.276C38.9315 60.1983 38.829 60.1265 38.7269 60.0641L38.5459 59.9584L38.3635 59.8653L38.1791 59.7851L37.9929 59.7191L37.8033 59.6655L37.6198 59.6269L37.4323 59.6012L37.247 59.5896L37.0552 59.5914L36.863 59.6074L36.6708 59.6366L36.4782 59.6812L36.2873 59.7396L36.0977 59.8127L35.9088 59.8992L35.7232 59.9998C35.6168 60.0617 35.5117 60.1302 35.4083 60.2038C35.3045 60.2787 35.2007 60.3602 35.0999 60.4478C35.002 60.532 34.9006 60.6271 34.7957 60.7332C34.6968 60.8328 34.5989 60.94 34.502 61.0527C34.4041 61.1668 34.3064 61.2884 34.2111 61.4158C34.1181 61.5396 34.0236 61.6734 33.9297 61.8145C33.8354 61.9565 33.7435 62.1023 33.6568 62.2498C33.5672 62.4016 33.4779 62.559 33.393 62.7206L15.0988 96.8938L15.4073 97.47ZM27.6097 318.517C27.9082 317.853 28.3741 317.294 28.9534 316.906C28.9893 316.885 29.0247 316.881 29.0606 316.864L31.4362 312.376C31.3299 312.19 31.2235 312.004 31.1171 311.818C27.0706 319.459 23.0248 327.102 18.9794 334.744L27.6097 318.517ZM53.2132 334.204L27.0097 334.321L27.2286 333.909L26.6128 333.908L26.0847 334.903L52.9048 334.784C53.4865 335.867 54.0406 336.914 54.5953 337.962L54.7776 338.306L43.2519 338.438L43.5577 339.014L55.6952 338.873C54.8674 337.318 54.0401 335.761 53.2132 334.204ZM58.1198 338.824L62.0044 345.81L53.2579 345.836L53.5869 346.418L62.9512 346.384L59.0639 339.4L59.3272 339.399C60.4032 339.394 61.4751 339.388 62.7582 339.388L67.9578 348.578H68.5835L63.058 338.809L58.1198 338.824ZM14.0947 74.5796L3.12708 74.5305L3.43788 75.1111C7.09267 75.1294 10.7475 75.1455 14.4023 75.1593L16.8838 70.4902L5.34058e-05 70.2965V70.8749L15.9671 71.0592L14.0947 74.5796ZM3.56905 3.33478C3.48509 3.17514 3.39716 3.01904 3.30784 2.86823C3.2199 2.71976 3.12681 2.57205 3.03121 2.42688C2.94116 2.29132 2.84777 2.15936 2.75106 2.03098C2.655 1.90305 2.55756 1.7814 2.45975 1.66733C2.36195 1.55322 2.26247 1.44525 2.16335 1.34518C2.0647 1.24542 1.96339 1.15094 1.86188 1.06342C1.76065 0.975891 1.65711 0.894348 1.55328 0.819275C1.44947 0.744873 1.34398 0.675873 1.23767 0.613922L1.07585 0.525879L0.918915 0.451477L0.758118 0.384918C0.509987 0.302185 0.256638 0.239197 6.86646e-05 0.196411V0.781647C0.164391 0.815643 0.315781 0.845398 0.477051 0.894348L0.601929 0.939056L0.732811 0.993927L0.857964 1.05457L0.988853 1.12537C1.08028 1.17841 1.1745 1.23987 1.26992 1.30884C1.362 1.37534 1.45464 1.4494 1.54738 1.52991C1.63882 1.60913 1.73146 1.69666 1.8228 1.78979C1.91239 1.88193 2.00337 1.98169 2.09343 2.08777C2.18229 2.19257 2.27059 2.30386 2.35685 2.41977C2.44386 2.53629 2.5292 2.65771 2.61169 2.78253C2.69454 2.90866 2.7785 3.04373 2.86219 3.18478C2.94403 3.32416 3.02605 3.47034 3.10632 3.62265L30.1832 54.202H5.34058e-05V54.7832H31.112L3.56905 3.33478ZM19.3097 70.5396C20.9552 70.5461 22.6011 70.5544 24.2467 70.5544C26.5648 66.4684 28.8785 62.3791 31.1878 58.2864H6.86646e-05V58.8679H30.2312L26.4507 65.5627L23.9486 69.9757L20.255 69.9651L24.1412 62.9792L6.86646e-05 62.902V63.476L23.1948 63.5547L19.3097 70.5396ZM0.357788 74.5182L5.34058e-05 74.5166V75.096C0.221733 75.0971 0.443474 75.0981 0.665276 75.0989L0.357788 74.5182ZM3.14832 31.2405L6.86646e-05 31.2372V31.8165L1.05109 31.8156C1.65248 31.8147 2.25568 31.8132 2.85701 31.8189C3.41845 32.7469 3.99339 33.7128 4.56686 34.6757L5.00624 35.415L5.34058e-05 35.4183V35.9973L5.98853 35.993C5.04088 34.4097 4.09414 32.8256 3.14832 31.2406V31.2405ZM24.2192 50.2608L12.2016 27.5707L0.354744 5.18527L5.34058e-05 5.28802V5.62253L0.0261917 5.72537L23.2961 49.6801L6.86646e-05 49.6V50.1834L23.8906 50.2598L24.2192 50.2608ZM10.8612 38.6096L0.354774 18.8161L8.39233e-05 18.9183V19.2508L0.0262222 19.3534L9.93668 38.0271L6.86646e-05 37.9828V38.5611L10.5313 38.6081L10.8612 38.6096ZM23.1181 301.696H22.4922L20.3905 305.474H21.0158L23.1181 301.696ZM15.1884 47.5897H19.9162L2.93301 15.6569C2.85819 15.514 2.78542 15.3804 2.71457 15.2579C2.64261 15.1341 2.56825 15.0125 2.49279 14.8961C2.41695 14.7797 2.33928 14.6679 2.26125 14.5627C2.18182 14.4551 2.10202 14.354 2.02351 14.2618C1.94371 14.1677 1.8614 14.0779 1.77987 13.9951C1.69618 13.9099 1.61177 13.8307 1.52854 13.7581C1.44366 13.685 1.35693 13.6165 1.26992 13.5535C1.18153 13.4904 1.09406 13.4335 1.009 13.385L0.87986 13.3142L0.748978 13.2519L0.619942 13.1979C0.414429 13.1238 0.210304 13.0763 6.86646e-05 13.02V13.6127L0.36805 13.7157C0.503517 13.7657 0.635429 13.8263 0.762718 13.8972C0.833099 13.9378 0.908661 13.9876 0.9879 14.0444C1.06179 14.0979 1.13771 14.1586 1.21355 14.2256C1.28577 14.2888 1.35985 14.3601 1.43449 14.437C1.50957 14.5153 1.58255 14.5966 1.6524 14.6805C1.72666 14.7695 1.79732 14.8601 1.86392 14.9515C1.93384 15.047 2.0033 15.148 2.07064 15.251C2.13539 15.3516 2.20411 15.4643 2.27569 15.5881L2.47048 15.9434L18.9905 47.0083H15.4867L12.8648 42.3643C8.57681 42.3247 4.28795 42.2674 0 42.2166V42.7955L12.5624 42.9397L15.1884 47.5897ZM12.072 295.195H5.34058e-05V295.776H12.4001L12.072 295.195ZM1.43614 181.36L7.62939e-06 181.356V181.929L1.74126 181.935C1.6397 181.744 1.538 181.552 1.43616 181.36L1.43614 181.36ZM0.190598 291.111H3.8147e-05V291.692H0.190598V291.111ZM7.36866 286.534L3.96021 286.522L4.12037 286.79L0.190613 286.792V286.51L5.34058e-05 286.509V287.091C2.55906 287.104 5.11818 287.107 7.67733 287.115C7.57444 286.922 7.47155 286.728 7.36866 286.534ZM1.19231 274.897L6.86646e-05 274.892V275.47L1.49998 275.477L1.19231 274.897ZM0.190613 307.207L5.34058e-05 307.205V307.783L0.190613 307.785V307.207ZM3.45755 279.165C2.30502 279.151 1.15252 279.137 5.34058e-05 279.125V279.703L3.76633 279.747L3.45755 279.165ZM0.757149 348.578L0.855057 348.473C0.932648 348.387 1.01244 348.293 1.09169 348.195C1.18359 348.081 1.27449 347.963 1.36076 347.84C1.44942 347.714 1.53709 347.584 1.62151 347.448C1.70989 347.306 1.79311 347.166 1.86868 347.028C1.95263 346.877 2.03095 346.728 2.10365 346.583L20.8161 313.97C20.3207 313.971 19.8252 313.971 19.3296 313.971L19.1939 314.211L16.3456 314.202L16.4731 313.973C10.9821 313.978 5.49106 313.981 5.34058e-05 313.983V314.559L19.854 314.549C13.8815 324.959 6.9266 336.08 1.45389 346.655L1.26426 346.988L1.06602 347.302C1.00164 347.4 0.933098 347.497 0.861885 347.593L0.659798 347.853L0.454285 348.089L0.264656 348.284L5.34058e-05 348.524V348.578H0.757149ZM11.0703 323.168L10.4413 323.168L0.0287933 341.398L3.8147e-05 341.506V341.826L0.351852 341.934L11.0703 323.168ZM0.190674 272.327L0.00012207 272.327V272.906L0.190674 272.906V272.327ZM0.190674 335.57L0.00012207 335.731V336.443L0.190674 336.292V335.57ZM1.68219 327.048C2.37862 325.74 3.06951 324.441 3.74728 323.163L3.12935 323.162L0.0262222 329.002L8.39233e-05 329.105V329.438L0.354759 329.541L1.68219 327.048ZM12.038 320.372L12.6676 320.372L13.7435 318.488L13.9227 318.174C9.28223 318.174 4.64139 318.17 0.000205994 318.163V318.741L12.9632 318.752L12.038 320.372ZM6.146 326.169L7.73228 323.166L7.11417 323.165C6.58778 324.165 6.05743 325.162 5.53167 326.163L6.146 326.169ZM16.2032 308.649L15.5891 308.647L14.0784 311.488L9.91821e-05 311.426V312.004C4.79514 312.029 9.59045 312.05 14.386 312.067L16.2032 308.649ZM0.190674 299.811L0.00012207 299.81V300.383L0.190674 300.384V299.811ZM2.15646 207.713H1.54159L0.0262222 210.564L8.39233e-05 210.666V211L0.354759 211.102L2.15646 207.713ZM11.2346 199.718C7.48988 199.716 3.74507 199.713 0.000190735 199.708V200.287L11.5615 200.297L11.2346 199.718ZM0.56768 217.539L0.790001 217.329L1.00438 217.1C1.0851 217.01 1.16574 216.914 1.24591 216.813C1.32571 216.71 1.40257 216.606 1.47291 216.503C1.54662 216.396 1.61442 216.29 1.67398 216.189C1.73365 216.088 1.78981 215.986 1.8396 215.885L2.5062 214.622L1.89028 214.62C1.67539 215.023 1.46577 215.431 1.25015 215.833L1.1056 216.068L0.944801 216.3L0.768936 216.527L0.594276 216.729L0.410736 216.921L0.248177 217.074L0.000175476 217.282V217.993L0.300827 217.762C0.390015 217.692 0.479622 217.617 0.567543 217.539L0.56768 217.539ZM5.39112 188.812L5.34058e-05 188.75V189.329L5.70045 189.395L5.39112 188.812ZM2.84158 268.727L3.64635 270.066L4.98987 272.324L2.63446 272.325L2.94236 272.904L5.86026 272.902C5.56857 272.351 5.27682 271.8 4.98501 271.249L3.13198 268.148L6.86646e-05 268.146V268.725L1.04639 268.723C1.64425 268.723 2.24352 268.722 2.84158 268.727ZM7.61619 193.005L5.34058e-05 192.971V193.549C2.64128 193.563 5.28268 193.575 7.92423 193.585L7.61619 193.005ZM0.190613 195.527L5.34058e-05 195.527V196.105L0.190613 196.105V195.527ZM0.190613 222.676L0.0287933 222.959L3.8147e-05 223.067V223.383L0.190598 223.442L0.190613 222.676ZM9.5191 279.813L9.21107 279.231C8.23708 279.22 7.26319 279.209 6.28939 279.197L6.59881 279.779L9.5191 279.813ZM4.0087 274.909L4.31702 275.489L7.23667 275.502L6.92974 274.922L4.0087 274.909ZM9.91958 274.935L9.77245 274.935L10.0828 275.514L10.5145 275.516L10.8444 275.517L0.354744 255.756L5.34058e-05 255.858V256.191L0.0261917 256.294L9.91958 274.935ZM0.614746 230.273C0.699356 230.192 0.781212 230.107 0.859329 230.021C0.937836 229.935 1.01733 229.842 1.09781 229.743C1.19173 229.626 1.28319 229.505 1.3702 229.383C1.41528 229.32 1.46155 229.247 1.50728 229.178L0.84021 229.177L0.660751 229.408C0.596001 229.487 0.525902 229.566 0.45385 229.644L0.263023 229.84L5.34058e-05 230.077V230.797L0.462067 230.415L0.614746 230.273ZM0.722069 237.905L0.731865 237.91L0.999809 237.406L0.909836 237.363L0.75383 237.298L0.463715 237.203C0.308449 237.165 0.156693 237.137 3.8147e-05 237.105V237.692C0.202133 237.73 0.40152 237.784 0.596718 237.852L0.722069 237.905ZM0.190598 249.986C0.126961 249.969 0.0649872 249.948 3.8147e-05 249.931V250.525L0.190598 250.579V249.986ZM0.190598 242.974V242.172L3.8147e-05 242.227V242.562L0.0261765 242.664L0.190598 242.974ZM24.4169 291.692L24.0833 291.111H18.432L18.7434 291.692H24.4169ZM10.7165 136.31L11.0353 135.752L10.7411 135.202L10.1232 135.201L10.7165 136.31ZM19.0207 164.374L17.1451 160.848H16.5285L18.4041 164.374H19.0207ZM5.43095 139.982L6.96819 142.872L7.28758 142.313L5.73817 139.4L5.43095 139.982ZM8.81575 139.637C8.03258 138.158 7.24919 136.678 6.46558 135.199L5.8508 135.198L8.49668 140.196L8.81575 139.637ZM11.9476 127.171C10.7058 124.971 9.47802 122.801 8.26418 120.658L7.63443 120.656C8.86021 122.826 10.0868 124.995 11.3142 127.163L11.9476 127.171ZM17.8616 138.067L17.0833 136.71H18.5877L18.8973 136.132C17.9724 136.131 17.0475 136.131 16.1225 136.13L17.5583 138.633L17.8616 138.067ZM18.4161 157.77C17.9519 156.894 17.4877 156.017 17.0235 155.14H16.4081L17.8017 157.772L18.4161 157.77ZM17.9686 148.703L16.5214 145.999L16.2144 146.579L17.6609 149.281L17.9686 148.703ZM6.85176 86.7844C6.36842 87.7016 5.88442 88.6184 5.39979 89.5349L5.70921 90.1169L7.16082 87.368L6.85176 86.7844ZM8.73681 84.3835L8.39986 84.3802L8.57036 84.6987L8.73681 84.3835ZM7.89314 129.882L7.27402 129.879L8.62745 132.408L9.245 132.407L7.89314 129.882ZM11.1087 105.5L10.7921 104.939L7.73862 110.643L8.35424 110.645L11.1087 105.5ZM7.91588 99.5741C7.77797 99.3146 7.64016 99.0549 7.50245 98.7952C6.99961 99.6717 6.49688 100.548 6.00319 101.423L6.85267 101.427L7.91588 99.5741ZM3.69767 98.0952L4.01919 98.633L5.78013 95.55L5.47736 94.9796L3.69767 98.0952ZM13.7601 122.623C15.2998 122.616 16.8394 122.609 18.3789 122.604L18.6998 122.028C16.85 122.033 15 122.039 13.15 122.046L12.8143 122.046L16.6989 129.033L13.0056 129.044C12.8032 128.685 12.6075 128.339 12.4065 127.983L12.1019 128.556C12.3033 128.912 12.5044 129.267 12.7054 129.623L17.6454 129.608L13.7601 122.623ZM7.23977 92.9944L8.74469 90.3596L8.44246 89.7887L6.93672 92.4248L7.23977 92.9944ZM24.2313 307.464L28.8296 299.335C28.7106 299.169 28.5995 298.997 28.4967 298.819C26.9715 301.52 25.4454 304.224 23.9328 306.884L23.3397 306.882L23.0131 307.46L24.2313 307.464ZM15.0682 143.285L12.4696 138.431L12.1501 138.988L14.7594 143.861L15.0682 143.285ZM30.2149 295.776L29.9502 296.245L30.2655 296.797L31.1719 295.195H29.3503L29.6824 295.776H30.2149ZM38.1904 284.272L36.6833 281.631L36.3802 282.201C36.8834 283.081 37.3862 283.961 37.8886 284.842L38.1904 284.272ZM30.4145 290.421C30.2083 290.371 30.0095 290.29 29.8241 290.18C29.7349 290.121 29.6487 290.057 29.5657 289.988L30.1669 291.111H27.0176L27.3497 291.692H31.0951L30.4145 290.421ZM20.9296 295.776H26.76L26.4266 295.195H20.6184L20.9296 295.776ZM24.1244 299.887L23.1288 299.884L23.6179 300.798L24.1244 299.887ZM10.4852 93.6472C9.97722 94.5143 9.47485 95.3819 8.97109 96.2495L9.3812 97.0205L10.8843 94.401L10.4852 93.6472ZM39.6968 270.651L39.1482 270.654L38.3018 272.247L37.4589 270.661L36.8449 270.664L38.2686 273.342L39.6968 270.651ZM39.0979 277.499L39.2808 277.448L39.4634 277.382L39.6423 277.302L39.82 277.208C39.9053 277.158 39.9932 277.102 40.0826 277.038C40.1686 276.975 40.2544 276.907 40.3386 276.835C40.4218 276.762 40.5059 276.684 40.5895 276.599C40.6711 276.516 40.7525 276.426 40.8326 276.331C40.9112 276.24 40.9907 276.139 41.0699 276.032C41.1485 275.927 41.2266 275.814 41.3029 275.697C41.3763 275.585 41.4513 275.463 41.5273 275.332C41.604 275.2 41.6779 275.066 41.7457 274.933L48.937 261.412C48.7314 261.412 48.5258 261.413 48.3203 261.414L41.2813 274.65L41.0824 275.013C41.0168 275.126 40.949 275.236 40.8799 275.343C40.8126 275.447 40.7435 275.547 40.6744 275.642C40.6024 275.739 40.5313 275.831 40.4621 275.914C40.3891 276 40.3154 276.082 40.2425 276.158C40.1686 276.234 40.0949 276.304 40.022 276.368C39.947 276.434 39.8709 276.494 39.7973 276.548C39.7218 276.603 39.6449 276.653 39.5698 276.696L39.424 276.774L39.2813 276.838L39.2209 276.86L38.8588 277.54L38.9114 277.535L39.0979 277.499ZM6.10861 117.358H5.76922L5.85457 117.509H24.1485L23.9067 117.936H69.0009L50.3688 152.741L50.686 153.302L69.9289 117.358L6.10861 117.358ZM15.7872 152.805C15.309 151.902 14.8308 150.999 14.3528 150.095L14.0452 150.677L15.4788 153.384L15.7872 152.805ZM43.4973 185.694L43.1942 186.261L58.6886 213.269L46.0404 213.257L31.9474 213.255L34.0971 209.659L52.7581 209.644L44.9057 195.905L41.3582 189.69L41.0583 190.25L44.4477 196.175L51.7989 209.067L33.8062 209.079L31.2805 213.307C31.4392 213.47 31.5862 213.646 31.7204 213.833C41.0307 213.842 50.341 213.846 59.6515 213.847L43.4973 185.694ZM53.2218 215.75L32.902 215.84L33.2331 216.417L52.9134 216.331C53.4921 217.412 54.069 218.497 54.6443 219.586L54.7844 219.851L35.3315 220.075L35.6614 220.65L55.7026 220.419C54.8752 218.863 54.0482 217.307 53.2218 215.75ZM24.4319 235.82L24.1288 236.391H41.7221L41.396 235.82H24.4319ZM36.0632 232.041L36.357 232.598H39.5556C39.4496 232.412 39.3436 232.227 39.2378 232.041H36.0632ZM15.8081 291.692L15.5003 291.111H12.6253L12.9346 291.692H15.8081ZM5.31963 221.077L6.15212 221.087L9.84819 214.646L8.99206 214.643C7.74365 216.792 6.51951 218.937 5.31963 221.077V221.077ZM3.18997 204.611L3.80392 204.613L4.46137 203.376L7.81067 203.408C7.59685 203.813 7.38284 204.218 7.16863 204.624L7.7849 204.626L8.72905 202.837L4.15584 202.793L3.18997 204.611ZM6.57826 211.492H7.20616L9.36491 207.713H8.73689L6.57826 211.492ZM9.79597 226.39L11.1399 223.88L10.5251 223.877L9.17959 226.39L9.79597 226.39ZM13.6449 193.611L13.3375 193.03L10.4457 193.017L10.7544 193.598C11.718 193.602 12.6815 193.608 13.6449 193.611L13.6449 193.611ZM14.9616 196.098L14.6557 195.52C13.6962 195.521 12.7369 195.521 11.7776 195.521L12.0849 196.099L14.9616 196.098ZM11.1223 204.636L12.625 202.006H12.5265L12.2631 201.539L10.4952 204.634L11.1223 204.636ZM26.828 273.259L27.456 273.259L25.9948 270.712L25.3684 270.715L26.828 273.259ZM17.9702 295.776C17.8675 295.582 17.7649 295.389 17.6624 295.195H14.7974L15.1065 295.776H17.9702ZM11.4482 189.461L11.1395 188.878L8.2266 188.845L8.53668 189.428L11.4482 189.461ZM21.4845 286.581L15.9974 286.563L16.3081 287.143C18.1445 287.148 19.9808 287.154 21.817 287.161L21.4845 286.581ZM4.15916 211.492L6.15481 207.713H5.53768C4.87486 208.974 4.20971 210.234 3.54224 211.492H4.15916ZM10.5053 287.124C11.4686 287.127 12.4317 287.13 13.3948 287.134L13.0873 286.553L10.1962 286.543L10.5053 287.124ZM1.75407 221.036L5.41254 214.632L4.78604 214.63L1.13094 221.029L1.75407 221.036ZM0.247406 243.082L1.76598 245.95L2.08436 245.393L0.649925 242.683C0.525368 242.827 0.3908 242.96 0.247421 243.082H0.247406ZM12.8955 147.343C12.0094 145.669 11.1233 143.996 10.237 142.322L9.91719 142.879L12.5863 147.921L12.8955 147.343ZM2.60307 121.239C2.68631 121.365 2.76954 121.499 2.85278 121.639C2.93257 121.775 3.01441 121.922 3.09717 122.077L5.78587 127.1L6.4074 127.107L3.56007 121.788C3.47212 121.621 3.3842 121.465 3.29885 121.32C3.21129 121.172 3.11865 121.025 3.02389 120.882C2.96941 120.8 2.91111 120.721 2.85394 120.641L2.16259 120.639C2.22327 120.714 2.28386 120.787 2.34731 120.873C2.4298 120.984 2.51561 121.107 2.6031 121.239H2.60307ZM1.27709 110.084C1.21069 110.196 1.14289 110.303 1.07629 110.403C1.02798 110.476 0.97525 110.548 0.922874 110.621L1.58227 110.623C1.59953 110.596 1.61783 110.572 1.63482 110.544C1.72108 110.407 1.8056 110.265 1.88531 110.121C1.96475 109.978 2.04362 109.829 2.12049 109.674L5.21687 104.278L4.42123 104.269C3.40955 106.102 2.4161 107.93 1.47312 109.741L1.27709 110.084ZM4.37456 132.41L4.98887 132.409C4.53979 131.561 4.09046 130.712 3.64089 129.863L3.02509 129.861L4.37456 132.41ZM5.09602 138.192L3.50252 135.197L2.88552 135.196L4.47601 138.186L5.09602 138.192ZM3.4003 85.7755L3.70872 86.3554C3.96243 85.8751 4.21617 85.4059 4.46991 84.9204C4.9358 84.9269 5.40474 84.9299 5.87247 84.9344L5.56425 84.3523L4.1641 84.3384L3.4003 85.7755ZM2.47398 96.0482L2.52875 96.1398L4.3064 92.7733L3.99744 92.1912C3.3193 93.4771 2.64066 94.7626 1.96152 96.0479L2.47398 96.0482ZM2.43481 101.407L3.90988 98.8246L3.28097 98.825L1.80756 101.404L2.43481 101.407ZM13.939 81.265C11.5358 81.265 9.13263 81.2632 6.72934 81.2595L7.03957 81.839L12.9808 81.8437L9.91521 87.2105L10.2191 87.7782L13.7597 81.5792L13.939 81.265ZM30.2231 177.323L29.1196 179.277L29.744 179.277C30.2223 178.431 30.7007 177.586 31.1793 176.74H23.5377L18.3826 176.763L18.3704 176.74H7.5244L7.8365 177.323H30.2231ZM15.5135 157.78L12.893 152.853L12.5854 153.434L14.8981 157.782C15.1032 157.782 15.3083 157.781 15.5135 157.78V157.78ZM10.9487 168.673L23.8825 168.715L24.2114 168.715L24.0473 168.406C23.8899 168.109 23.7326 167.812 23.5755 167.515L22.9605 167.517L23.2876 168.134L10.6255 168.091L10.9487 168.673ZM9.27932 154.098L6.49258 148.848L6.17273 149.406L8.96973 154.676L9.27932 154.098ZM4.6032 152.141L4.29073 152.686C4.52627 153.081 4.76318 153.475 4.99844 153.87L3.61093 153.871L3.27888 154.45L5.98157 154.447C5.52184 153.679 5.06236 152.91 4.60316 152.141H4.6032ZM3.30695 144.006L4.75855 146.741L5.07748 146.182L3.61359 143.425L3.30695 144.006ZM1.80204 157.023L7.69926 157.049L8.00798 156.473L2.13284 156.447L1.80204 157.023Z" fill="#EAC5D3"/>
<path d="M0.190777 262.193V263.268L18.635 298.107L0.190777 298.045V298.585C6.62399 298.607 13.0571 298.628 19.49 298.646C13.0516 286.498 6.6185 274.347 0.190777 262.193ZM30.6209 192.709L26.2626 184.506L22.5528 184.543L28.0457 194.946C28.4103 195.658 28.9427 196.251 29.5884 196.666C29.9152 196.872 30.2798 196.998 30.6565 197.035C31.0686 197.067 31.4806 196.97 31.843 196.755C32.5059 196.32 33.0406 195.69 33.3843 194.937L46.8881 169.544H43.0562L40.9731 173.234L16.0888 173.52L18.0989 177.301L38.8477 177.209L30.6209 192.709ZM18.3828 176.763L16.9385 174.046L41.2521 173.767L43.3326 170.082H46.0319L32.9549 194.672C32.6556 195.335 32.1897 195.893 31.6109 196.282C31.3305 196.449 31.0117 196.524 30.6929 196.498C30.3887 196.468 30.0943 196.365 29.8307 196.197C29.264 195.833 28.7972 195.312 28.4786 194.687L23.4026 185.071L25.979 185.046L30.6214 193.781L39.7039 176.668L18.3828 176.763ZM27.8301 204.66C28.2269 205.549 28.8416 206.302 29.6069 206.836C29.9681 207.069 30.3776 207.2 30.7977 207.217C31.2263 207.225 31.6495 207.111 32.0249 206.887C32.8189 206.364 33.4634 205.612 33.8866 204.714L55.7696 163.839H4.73992C6.5875 167.109 8.43689 170.379 10.2881 173.648L14.2884 173.635L11.2054 168.093L49.447 167.963L30.928 202.945L19.3103 182.604L33.5417 182.593L35.8418 178.744C28.2122 178.744 20.5827 178.74 12.9534 178.733L27.8301 204.66ZM33.2731 182.057L18.4228 182.068C22.5936 189.378 26.7672 196.685 30.9436 203.99L50.3019 167.424C36.9782 167.472 23.6541 167.517 10.3298 167.559L13.4128 173.102L10.5645 173.111L5.62276 164.374H54.9112L33.4594 204.446C33.0815 205.256 32.5047 205.937 31.7928 206.414C31.4923 206.595 31.1533 206.687 30.8096 206.681C30.4718 206.667 30.1428 206.56 29.8526 206.372C29.1639 205.883 28.6122 205.198 28.2577 204.392L13.8444 179.27L34.9329 179.28L33.2731 182.057ZM3.07504 261.356C2.65112 260.459 2.00659 259.707 1.21297 259.184C0.897827 258.997 0.549164 258.885 0.190765 258.858V259.395C0.467846 259.423 0.736752 259.512 0.980843 259.657C1.6926 260.134 2.26921 260.814 2.64699 261.624L24.0989 301.696H0.190777V302.234H24.9586L3.07504 261.356ZM29.9496 226.496L34.3087 234.698L38.018 234.662L32.5251 224.259C32.1605 223.547 31.6281 222.954 30.9824 222.539C30.6556 222.333 30.291 222.207 29.9143 222.17C29.5023 222.138 29.0903 222.235 28.7279 222.45C28.0653 222.885 27.5306 223.515 27.1866 224.268L13.6831 249.661H17.5146L19.5976 245.971L44.4821 245.685L42.4721 241.904L21.7232 241.997L29.9496 226.496ZM42.188 242.441L43.6323 245.158L19.3193 245.438L17.2383 249.123H14.5388L27.6159 224.534C27.9149 223.87 28.3809 223.312 28.9599 222.923C29.2403 222.757 29.559 222.681 29.8779 222.706C30.1822 222.737 30.4765 222.84 30.7402 223.008C31.3069 223.372 31.7738 223.893 32.0923 224.519L37.1682 234.134L34.5918 234.16L29.9496 225.423L20.8675 242.536L42.188 242.441ZM15.4701 314.735L19.4707 314.748L25.0208 304.936H0.190777V305.474H24.1363L19.1941 314.211L16.3458 314.202L19.4286 308.659C13.016 308.641 6.60339 308.621 0.190777 308.598V309.131L18.5535 309.193L15.4701 314.735ZM0.190777 273.009V274.081L8.03522 288.862L0.190777 288.827V289.363L8.891 289.402C5.98907 283.939 3.089 278.475 0.190777 273.009ZM29.9564 132.513L34.3156 140.716L38.0245 140.679L32.5314 130.276C32.1667 129.564 31.6343 128.971 30.9889 128.557C30.6622 128.35 30.2978 128.224 29.9213 128.188C29.5091 128.155 29.0969 128.252 28.7343 128.467C28.0714 128.901 27.5366 129.532 27.193 130.285L13.6895 155.678H17.5209L19.604 151.989L44.4885 151.702L42.4784 147.921L21.7301 148.014L29.9564 132.513ZM42.1945 148.459L43.6388 151.176L19.3257 151.456L17.2447 155.14H14.5454L27.6224 130.55C27.9215 129.887 28.3874 129.329 28.9664 128.94C29.2468 128.774 29.5655 128.698 29.8843 128.724C30.1886 128.755 30.4828 128.858 30.7465 129.025C31.3133 129.389 31.7802 129.91 32.0987 130.536L37.1747 140.151L34.5984 140.177L29.9564 131.44L20.8743 148.554L42.1945 148.459ZM12.2442 296.527H16.0762L2.57193 271.134C2.22816 270.381 1.69364 269.75 1.0311 269.316C0.77124 269.162 0.485306 269.068 0.190765 269.039V269.579C0.403763 269.606 0.609997 269.678 0.798431 269.789C1.37685 270.176 1.84225 270.734 2.14072 271.397L15.2197 295.988H12.5201L10.44 292.304L0.190777 292.185V292.722L10.1608 292.837L12.2442 296.527ZM55.8279 161.365C53.9812 158.102 52.1351 154.838 50.2895 151.574L46.2889 151.587L49.3724 157.129L11.1298 157.259L29.6492 122.278L41.267 142.618L27.0356 142.629L24.7358 146.478C32.3652 146.483 39.9947 146.487 47.6244 146.489L32.7473 120.562C32.3505 119.673 31.7357 118.92 30.9705 118.386C30.6092 118.152 30.1995 118.021 29.7792 118.005C29.3507 117.997 28.9277 118.111 28.5524 118.335C27.7585 118.858 27.114 119.61 26.6908 120.508L4.8175 161.365H55.8279ZM27.1179 120.776C27.4958 119.966 28.0725 119.285 28.7845 118.808C29.0851 118.628 29.4241 118.535 29.7677 118.541C30.1054 118.556 30.4342 118.662 30.7243 118.85C31.4133 119.339 31.9653 120.024 32.3196 120.83L46.7329 145.953L25.6444 145.942L27.304 143.165L42.1546 143.154C37.9782 135.849 33.8046 128.542 29.6338 121.232C23.1765 133.418 16.7237 145.606 10.2753 157.798C23.5994 157.76 36.9236 157.714 50.2479 157.662L47.1645 152.12L50.0128 152.111L54.9546 160.847H5.66606L27.1179 120.776ZM46.2826 245.57L49.3655 251.112L11.1234 251.242L29.6429 216.26L41.2606 236.602L27.0291 236.612L24.7294 240.46C32.3586 240.466 39.9881 240.47 47.6179 240.472L32.7409 214.545C32.3439 213.656 31.7291 212.904 30.9641 212.369C30.6027 212.136 30.1931 212.004 29.7729 211.987C29.3443 211.979 28.9213 212.093 28.546 212.318C27.7523 212.842 27.1078 213.594 26.6842 214.491L4.81115 255.348H55.8211C53.9751 252.085 52.1291 248.821 50.2831 245.557L46.2826 245.57ZM5.6597 254.83L27.1115 214.76C27.4895 213.949 28.0662 213.268 28.778 212.791C29.0786 212.61 29.4176 212.518 29.7612 212.524C30.0989 212.539 30.4277 212.645 30.7178 212.834C31.4066 213.322 31.9584 214.007 32.3128 214.813L46.7266 239.935L25.6381 239.925L27.2977 237.148L42.1481 237.137C37.9716 229.832 33.7981 222.525 29.6274 215.215C23.1701 227.401 16.7173 239.589 10.2689 251.781C23.5926 251.742 36.9167 251.697 50.2411 251.646L47.1581 246.103L50.0064 246.094L54.9481 254.83L5.6597 254.83ZM0.190777 323.16V323.696L10.4483 323.704L0.190777 341.663V342.682L11.3358 323.168L0.190777 323.16ZM1.92797 345.761L16.8059 319.833C11.2675 319.836 5.72916 319.84 0.190777 319.843V320.378L15.9146 320.37L1.50079 345.492C1.18659 346.179 0.739784 346.784 0.190777 347.267V347.911C0.93668 347.376 1.5366 346.633 1.92797 345.761V345.761ZM29.9431 320.479L34.3023 328.682L38.0116 328.645L32.5183 318.242C32.1536 317.53 31.6214 316.937 30.9761 316.522C30.6492 316.316 30.2846 316.19 29.908 316.153C29.4957 316.121 29.0836 316.218 28.7209 316.434C28.0582 316.868 27.5234 317.498 27.1796 318.251L13.6766 343.644H17.5081L19.5912 339.955L44.4757 339.668L42.4656 335.887L21.7168 335.979L29.9431 320.479ZM42.1817 336.425L43.6259 339.141L19.3124 339.422L17.2319 343.106H14.5324L27.6096 318.516C27.9086 317.853 28.3746 317.294 28.9536 316.906C29.2339 316.74 29.5527 316.664 29.8715 316.69C30.1757 316.72 30.47 316.823 30.7336 316.991C31.3003 317.355 31.7671 317.876 32.0858 318.501L37.1619 328.118L34.585 328.142L29.9431 319.406L20.8611 336.52L42.1817 336.425ZM46.2756 339.552L49.3591 345.095L11.117 345.224L29.6363 310.244L41.2542 330.584L27.0227 330.595L24.723 334.443C32.3521 334.449 39.9817 334.453 47.6116 334.455L32.7344 308.528C32.3375 307.639 31.7228 306.887 30.9576 306.352C30.5965 306.119 30.1872 305.987 29.7672 305.97C29.3383 305.962 28.9149 306.076 28.5395 306.301C27.7456 306.824 27.101 307.576 26.6774 308.474L5.20747 348.578H5.7794L27.1051 308.742C27.4828 307.932 28.0595 307.251 28.7716 306.774C29.0719 306.593 29.4106 306.501 29.7539 306.507C30.092 306.521 30.4212 306.628 30.7114 306.816C31.4004 307.305 31.9521 307.99 32.3063 308.796L46.72 333.918L25.6319 333.908L27.2912 331.131L42.1413 331.12C37.9649 323.815 33.7914 316.507 29.6209 309.198C23.1637 321.383 16.7108 333.572 10.2624 345.764C23.5863 345.726 36.9103 345.68 50.2345 345.628L47.1512 340.086L50 340.077L54.8087 348.578H55.3888C53.684 345.566 51.98 342.553 50.2767 339.54L46.2756 339.552ZM2.74216 95.5117L0.190731 95.5099V96.0462L2.47408 96.0482L4.13379 98.8245L0.190731 98.8268V99.3636L5.04239 99.3603L2.74216 95.5117ZM13.6698 314.62L0.190731 314.465V315.001L12.8203 315.147L11.376 317.864L0.19072 317.814V318.35L11.6601 318.401L13.6698 314.62ZM10.2817 267.631L14.2819 267.618L11.1985 262.076L49.4405 261.946L30.9216 296.927L19.3034 276.586L33.5352 276.575L35.835 272.727C28.2053 272.727 20.5758 272.723 12.9465 272.716L27.8236 298.643C28.2204 299.531 28.8352 300.284 29.6003 300.819C29.9614 301.052 30.3706 301.183 30.7904 301.2C31.2194 301.209 31.643 301.095 32.0184 300.869C32.8125 300.347 33.4571 299.595 33.8802 298.697L55.7601 257.828H4.7365C6.58327 261.096 8.43168 264.364 10.2817 267.631H10.2817ZM33.4529 298.428C33.0749 299.238 32.4983 299.92 31.7865 300.397C31.4862 300.578 31.1474 300.67 30.804 300.664C30.4658 300.65 30.1364 300.543 29.8461 300.354C29.1574 299.866 28.6057 299.181 28.2512 298.375L13.8374 273.253L34.926 273.263L33.2667 276.04L18.4162 276.051C22.5872 283.36 26.7608 290.668 30.937 297.973L50.2956 261.407C36.9713 261.455 23.6472 261.5 10.3234 261.542L13.4064 267.085L10.5579 267.094L5.61618 258.357H54.9048L33.4529 298.428ZM30.6144 286.692L26.2558 278.489L22.5463 278.525L28.0393 288.929C28.4039 289.64 28.9363 290.234 29.5818 290.648C29.9087 290.855 30.2734 290.981 30.6501 291.018C31.0622 291.05 31.4743 290.953 31.8366 290.737C32.4993 290.303 33.034 289.672 33.3778 288.919L46.8819 263.527H43.0498L40.9664 267.217L16.0822 267.503L18.0924 271.283L38.8408 271.191L30.6144 286.692ZM18.3764 270.746L16.932 268.03L41.2455 267.749L43.3257 264.065H46.0257L32.9485 288.654C32.6491 289.318 32.1833 289.876 31.6046 290.265C31.3242 290.431 31.0054 290.507 30.6866 290.481C30.3823 290.45 30.088 290.348 29.8243 290.18C29.2577 289.816 28.7908 289.295 28.4722 288.67L23.3963 279.053L25.9726 279.028L30.6148 287.764L39.697 270.651L18.3764 270.746ZM1.71174 336.045L7.20643 325.643L3.49641 325.606L0.190765 331.827V332.899L3.77938 326.146L6.35618 326.171L1.28031 335.787C1.01181 336.311 0.639729 336.765 0.190731 337.115V337.753C0.827049 337.339 1.35164 336.75 1.71174 336.045ZM15.4835 126.769L19.4836 126.782L25.0336 116.971H0.190777V117.509H24.1487L19.2072 126.245L16.3586 126.236L19.4424 120.693C13.0251 120.676 6.60785 120.655 0.190765 120.633V121.165L18.5664 121.227L15.4835 126.769ZM3.08114 167.373C2.65779 166.476 2.01325 165.724 1.21934 165.201C0.902309 165.013 0.551376 164.901 0.190765 164.874V165.412C0.470123 165.438 0.741356 165.528 0.98732 165.674C1.69887 166.15 2.27538 166.831 2.65331 167.641L24.1052 207.713H0.190765V208.251H24.9653L3.08114 167.373ZM15.477 220.753L19.4775 220.765L25.0271 210.954H0.190765V211.492H24.1426L19.2009 220.229L16.352 220.219L19.4355 214.677C13.0207 214.658 6.60581 214.638 0.190742 214.615V215.148L18.56 215.21L15.477 220.753ZM0.190777 179.014V180.086L8.04206 194.879L0.190777 194.844V195.381L8.89783 195.419C5.99378 189.952 3.09143 184.484 0.190777 179.014V179.014ZM12.2508 202.544H16.0827L2.5783 177.151C2.23457 176.398 1.69987 175.767 1.03711 175.333C0.775234 175.179 0.487305 175.084 0.190765 175.055V175.595C0.40601 175.622 0.614479 175.694 0.804977 175.806C1.38348 176.193 1.84892 176.751 2.14729 177.414L15.2265 202.006H12.5266L10.4464 198.321L0.190742 198.203V198.739L10.1676 198.854L12.2508 202.544ZM0.190777 168.197V169.273L18.6416 204.125L0.190765 204.062V204.601C6.6261 204.624 13.0613 204.644 19.4964 204.663C13.056 192.511 6.62078 180.356 0.190777 168.197V168.197ZM1.9348 251.777L16.812 225.851C11.2714 225.854 5.73096 225.857 0.190731 225.86V226.395L15.9209 226.387L1.50669 251.509C1.19164 252.199 0.742695 252.806 0.190765 253.289V253.933C0.939724 253.397 1.54211 252.653 1.9348 251.777ZM13.6766 220.638L0.190777 220.482V221.018L12.8269 221.164L11.3821 223.881L0.190823 223.831V224.367L11.6665 224.418L13.6766 220.638ZM0.190777 229.177V229.713L10.455 229.72L0.190777 247.692V248.708C3.90634 242.2 7.62347 235.692 11.3422 229.185L0.190777 229.177ZM1.71831 242.063L7.21244 231.66L3.5028 231.623L0.190777 237.856V238.929L3.78639 232.163L6.36235 232.188L1.28626 241.804C1.01643 242.331 0.642307 242.787 0.190811 243.138V243.774C0.830009 243.36 1.35696 242.77 1.71826 242.063L1.71831 242.063ZM0.190777 135.194V135.73L10.4616 135.738L0.190777 153.72V154.738L11.3491 135.202L0.190777 135.194ZM2.73626 189.495L0.190777 189.493V190.029L2.46766 190.03L4.12681 192.808L0.190697 192.809V193.346L5.03579 193.343L2.73626 189.495ZM0.190777 74.2024V75.2776L18.6484 110.141L0.190777 110.079V110.619C6.62778 110.641 13.0653 110.662 19.5033 110.68C13.0606 98.5245 6.62313 86.3651 0.190777 74.2024ZM3.08799 73.3903C2.66413 72.4933 2.01955 71.7414 1.22582 71.218C0.906834 71.0284 0.553585 70.9167 0.19072 70.8907V71.428C0.47237 71.4538 0.745895 71.5435 0.993645 71.6912C1.70564 72.1676 2.28243 72.8485 2.66028 73.6585L24.1122 113.73H0.190777V114.268H24.9717L3.08799 73.3903ZM12.2572 108.561H16.0888L2.58431 83.1686C2.24117 82.4154 1.7067 81.7845 1.04395 81.3503C0.780159 81.1947 0.48978 81.0996 0.190777 81.0708V81.6109C0.408318 81.6375 0.619076 81.7095 0.811466 81.8228C1.38984 82.2106 1.85519 82.7683 2.15362 83.4313L15.2329 108.022H12.5329L10.4533 104.338L0.190765 104.22V104.756L10.174 104.871L12.2572 108.561ZM2.72978 283.478L0.190765 283.476V284.012L2.4608 284.014L4.12051 286.79L0.190765 286.792V287.33L5.02948 287.326L2.72978 283.478ZM13.6831 126.654L0.190811 126.499V127.035L12.8333 127.181L11.3889 129.898L0.190811 129.848V130.384L11.673 130.435L13.6831 126.654ZM1.94136 157.794L16.8187 131.867C11.2761 131.871 5.73345 131.874 0.190765 131.878V132.412L15.9274 132.404L1.5136 157.526C1.19747 158.219 0.746021 158.828 0.190742 159.311V159.954C0.943203 159.419 1.54815 158.672 1.94137 157.794H1.94136ZM0.190765 85.0186V86.0905L8.04815 100.897L0.190765 100.861V101.397L8.90438 101.436C5.99757 95.9648 3.09304 90.4923 0.190777 85.0186H0.190765ZM1.72458 148.08L7.21899 137.677L3.50953 137.64L0.190777 143.886V144.958L3.79273 138.18L6.36916 138.205L1.29314 147.821C1.02206 148.351 0.645451 148.808 0.190777 149.16V149.796C0.832912 149.381 1.36221 148.789 1.72459 148.08L1.72458 148.08Z" fill="#275CAA"/>
</svg>
