<svg width="123" height="566" viewBox="0 0 123 566" fill="none" xmlns="http://www.w3.org/2000/svg">
<path d="M94.3992 202.03L89.7824 209.584L64.8911 209.849L65.4703 210.783L90.3154 210.519L94.9239 202.975H101.081L72.0504 253.442C71.9321 253.656 71.8162 253.853 71.7027 254.033C71.5844 254.221 71.4661 254.401 71.3491 254.567C71.2308 254.735 71.1087 254.898 70.9858 255.054C70.8556 255.219 70.7304 255.368 70.6119 255.499C70.4929 255.63 70.3678 255.759 70.2388 255.883L71.5201 255.879C71.5748 255.814 71.6291 255.755 71.6839 255.687C71.8202 255.516 71.9567 255.334 72.0901 255.145C72.2183 254.963 72.3511 254.763 72.485 254.55C72.6078 254.353 72.7352 254.139 72.8651 253.91L102.706 202.03H94.3992ZM59.489 236.793L58.4052 236.792L60.7824 240.928L61.8623 240.923L59.489 236.793ZM71.7279 220.868L72.3083 221.803C73.7031 221.805 75.1319 221.806 76.5081 221.807L76.3096 222.117C75.6608 223.126 75.0121 224.133 74.3706 225.126L74.9149 226.004L78.2333 220.871C76.0648 220.871 73.8964 220.87 71.7279 220.868ZM67.8605 271.75L67.1697 271.752L67.5277 272.331L67.8605 271.75ZM69.2157 245.363L66.8145 249.542L64.4426 245.414L63.3679 245.426L66.816 251.424C67.9773 249.4 69.1391 247.375 70.3014 245.352L69.2157 245.363ZM60.5275 261.003C61.7076 262.912 62.8874 264.822 64.0669 266.732H65.172L61.6354 261.003H60.5275ZM74.014 261.003H72.9349L69.6529 266.732H70.7337C71.8271 264.823 72.9205 262.913 74.0141 261.003L74.014 261.003ZM71.7901 240.882L72.8693 240.878C73.6493 239.519 74.4296 238.159 75.21 236.8L74.1359 236.8L71.7901 240.882ZM43.3382 211.018L48.5496 210.963C48.7785 210.626 49.0351 210.309 49.3166 210.015L43.8795 210.073L43.3382 211.018ZM49.2652 240.975L46.6759 236.787L45.5677 236.786C46.431 238.184 47.2945 239.582 48.1583 240.98L49.2652 240.975ZM41.9633 230.952C43 232.631 44.0376 234.311 45.0758 235.99L45.6419 235.114L42.4954 230.024L41.9633 230.952ZM47.2225 221.789C50.525 221.79 53.8041 221.79 57.0598 221.792L56.5244 220.86C53.6022 220.858 50.6801 220.857 47.7581 220.856L47.2225 221.789ZM55.3162 210.891L60.3401 210.837C60.148 210.526 59.9558 210.215 59.7635 209.904L54.4331 209.961C54.7562 210.242 55.0519 210.553 55.3161 210.891H55.3162ZM67.1106 221.798C66.9184 221.487 66.7264 221.176 66.5344 220.865C64.7232 220.864 62.912 220.863 61.1008 220.862L61.6329 221.794C63.4684 221.795 65.2984 221.796 67.1105 221.798H67.1106ZM58.7436 216.733L59.2792 217.672L64.5485 217.65L63.9689 216.712L58.7436 216.733ZM86.7946 216.618L69.1362 216.691L69.7184 217.629L85.1704 217.565L77.7296 230.54L78.2876 231.439C81.1232 226.499 83.9589 221.558 86.7945 216.618H86.7946ZM35.1618 369.276C32.2213 369.288 29.2808 369.299 26.3405 369.31L25.7546 370.254C28.7067 370.246 31.6589 370.237 34.6114 370.227L35.1618 369.276ZM34.2828 337.142H33.1992L29.6444 343.282H30.7277L34.2828 337.142ZM21.2133 377.572H30.3585L30.8821 376.668H21.7744L21.2133 377.572ZM41.0086 376.668H35.9066L35.3888 377.572H40.4884L41.0086 376.668ZM23.4703 367.483L24.5514 367.483C26.4639 364.145 28.3755 360.806 30.2863 357.467L29.2071 357.464C27.295 360.804 25.3827 364.144 23.4703 367.483V367.483ZM28.2139 398.912L25.6293 394.618C25.4511 394.929 25.2728 395.24 25.0944 395.552L27.6775 399.845L28.2139 398.912ZM33.1226 390.378C31.4308 390.383 29.7391 390.388 28.0475 390.394C27.8682 390.707 27.6887 391.021 27.509 391.334C29.2005 391.327 30.8921 391.321 32.5836 391.315L33.1226 390.378ZM56.3675 245.5L61.1855 253.936C61.2738 254.101 61.3724 254.269 61.478 254.433C61.5882 254.604 61.7086 254.779 61.836 254.951C61.9574 255.113 62.0923 255.283 62.2385 255.455C62.369 255.608 62.5075 255.76 62.649 255.906C63.1083 255.905 63.5676 255.903 64.027 255.902C63.9274 255.82 63.8266 255.738 63.7333 255.653C63.5902 255.524 63.4538 255.393 63.3285 255.262C63.1929 255.121 63.0619 254.976 62.9387 254.831C62.8129 254.684 62.6946 254.533 62.5845 254.385C62.473 254.234 62.3667 254.079 62.2685 253.927C62.1729 253.777 62.0856 253.627 62.0093 253.483L57.4446 245.489L56.3675 245.5ZM66.9377 299.383L66.407 300.306L69.0526 304.582L69.5794 303.662L66.9377 299.383ZM73.31 297.147L71.43 294.117C71.2912 293.858 71.1533 293.616 71.0192 293.393C70.9116 293.215 70.798 293.042 70.6842 292.87L70.1569 293.787C70.1817 293.827 70.2085 293.865 70.2328 293.906C70.3708 294.137 70.5006 294.364 70.6189 294.587L72.7808 298.071L73.31 297.147ZM73.9793 273.93L75.2548 271.727L74.1681 271.731L73.168 273.458C73.0219 273.711 72.877 273.95 72.7369 274.171C72.5907 274.4 72.4447 274.617 72.299 274.822C72.1514 275.03 72.0011 275.228 71.8511 275.415C71.693 275.613 71.5377 275.794 71.3877 275.957C71.2308 276.128 71.0717 276.29 70.9144 276.438C70.7531 276.589 70.5919 276.731 70.4312 276.86C70.2707 276.989 70.1047 277.11 69.9366 277.223C69.7709 277.334 69.6067 277.433 69.4476 277.518L69.1716 277.655L68.8971 277.772L68.6199 277.87L68.3463 277.949L68.0636 278.011L67.7923 278.05L67.5125 278.073L67.2316 278.076L66.9638 278.059L66.6918 278.024L66.4161 277.97L66.1453 277.899L65.8806 277.809L65.6086 277.701L65.3373 277.572L65.0758 277.43C64.9107 277.335 64.7455 277.23 64.5873 277.116C64.4304 277.006 64.2693 276.88 64.1078 276.743C63.9504 276.609 63.7928 276.464 63.6391 276.311C63.4822 276.154 63.3277 275.99 63.1801 275.819C63.0323 275.65 62.8831 275.468 62.7353 275.274C62.5928 275.088 62.4509 274.892 62.3146 274.688C62.176 274.481 62.0397 274.267 61.9085 274.046C61.7719 273.818 61.6423 273.59 61.524 273.368L60.5345 271.773L59.4327 271.777L60.7093 273.834C60.838 274.073 60.9776 274.319 61.1259 274.567C61.2684 274.805 61.4177 275.038 61.5708 275.262C61.7229 275.485 61.879 275.7 62.0372 275.907C62.1918 276.107 62.3547 276.303 62.5229 276.492C62.6884 276.68 62.8552 276.856 63.0208 277.019C63.1914 277.185 63.3647 277.344 63.538 277.49C63.7122 277.636 63.8893 277.775 64.0687 277.9C64.2481 278.027 64.4291 278.144 64.6071 278.247L64.9263 278.418L65.2491 278.57L65.5762 278.699L65.8972 278.805L66.2299 278.892L66.5532 278.955L66.8765 278.996L67.2081 279.015L67.5496 279.012L67.8836 278.987L68.2197 278.938L68.5581 278.867L68.8921 278.771L69.2274 278.652L69.5606 278.511L69.887 278.347C70.0738 278.247 70.2595 278.136 70.4411 278.015C70.6243 277.893 70.8067 277.76 70.9838 277.617C71.163 277.474 71.3409 277.321 71.515 277.159C71.6885 276.997 71.8618 276.822 72.0327 276.638C72.2049 276.452 72.3783 276.253 72.5471 276.045C72.7082 275.845 72.8733 275.631 73.0369 275.403C73.2027 275.171 73.3634 274.936 73.5155 274.696C73.6678 274.458 73.8224 274.201 73.9793 273.93V273.93ZM60.4357 313.931C60.55 313.746 60.6707 313.565 60.7927 313.391C60.9119 313.221 61.0347 313.056 61.16 312.899C61.2837 312.742 61.4078 312.595 61.5302 312.459C61.6523 312.323 61.7803 312.191 61.9123 312.065C62.0434 311.939 62.1737 311.824 62.3018 311.72C62.4374 311.61 62.5725 311.511 62.702 311.425C62.8299 311.339 62.9621 311.259 63.098 311.187L63.3535 311.06L63.605 310.957L63.8584 310.871L64.1161 310.806L64.3798 310.758L64.6415 310.73L64.907 310.722L65.1729 310.732L65.4074 310.756L65.5079 310.773L66.0011 309.912L65.8356 309.874L65.541 309.824L65.2438 309.792L64.9114 309.781L64.5813 309.79L64.2562 309.824L63.9271 309.883L63.6067 309.965L63.2886 310.072L62.9698 310.203L62.6614 310.355C62.5031 310.439 62.3493 310.531 62.2003 310.631C62.0481 310.732 61.8957 310.843 61.748 310.962C61.6017 311.078 61.4526 311.207 61.3064 311.346C61.1631 311.481 61.0197 311.626 60.8803 311.778C60.7432 311.928 60.603 312.092 60.4621 312.266C60.3257 312.438 60.1884 312.62 60.0542 312.809C59.9255 312.992 59.7928 313.191 59.6594 313.404C59.5245 313.618 59.3963 313.836 59.2764 314.05L51.5945 327.406C51.7815 327.708 51.9684 328.011 52.1551 328.314L60.0928 314.514C60.2065 314.31 60.3219 314.115 60.4357 313.931V313.931ZM83.0635 335.214L70.9571 314.019C70.8692 313.854 70.771 313.687 70.6655 313.523C70.5602 313.357 70.4395 313.184 70.3105 313.008C70.1909 312.847 70.0557 312.679 69.9103 312.508C69.8277 312.41 69.7373 312.316 69.6492 312.22L69.1563 313.071L69.2032 313.123C69.3298 313.273 69.4497 313.423 69.5583 313.571C69.6766 313.731 69.7837 313.885 69.8749 314.029C69.9752 314.186 70.0627 314.335 70.1366 314.473L81.4489 334.29L79.9849 334.305C78.5106 334.32 77.0347 334.335 75.5643 334.342L66.2371 318.112L65.6933 319.052L75.0277 335.287L83.0635 335.214ZM49.1525 331.748L49.1236 331.701L29.438 365.926H37.1015L42.0183 357.434L41.8283 357.436L37.219 364.983H31.0622L49.6761 332.623C49.4968 332.345 49.3195 332.061 49.1525 331.748V331.748ZM45.282 369.238C43.5711 369.244 41.8602 369.251 40.1495 369.258L39.6032 370.212C41.3124 370.207 43.0216 370.202 44.7308 370.196L45.282 369.238ZM70.728 227.654L43.8454 227.672L43.3057 228.613L71.3083 228.593C71.1147 228.28 70.9213 227.967 70.728 227.654V227.654ZM42.5157 321.052L37.5277 329.667L38.0695 330.602L43.0764 321.955L42.5157 321.052ZM70.9938 434.691L71.9739 434.681L73.697 431.859C75.1223 429.375 76.548 426.892 77.9741 424.408C77.6151 424.409 77.2561 424.41 76.8972 424.411L75.9841 426.004L70.9938 434.691ZM18.5302 343.282H19.9851L23.7956 337.142H22.4409C21.1363 339.185 19.8327 341.231 18.5302 343.282ZM31.8627 435.109L25.7613 424.571C25.4007 424.572 25.0402 424.573 24.6799 424.575L30.7859 435.12L31.8627 435.109ZM21.6318 358.991L27.7418 348.439L26.6604 348.436L20.5554 358.98L21.6318 358.991ZM37.1719 221.788C38.8748 221.788 40.5819 221.788 42.28 221.788L42.8177 220.853C41.1145 220.852 39.4114 220.851 37.7084 220.851L37.1719 221.788ZM36.0828 302.296C36.2682 302.596 36.4535 302.896 36.6389 303.196L41.2874 295.472L40.1862 295.472L36.0828 302.296ZM17.3891 383.735H26.7904L27.3275 382.807H17.9649L17.3891 383.735ZM61.1125 467.014C61.2558 467.251 61.4041 467.483 61.5573 467.709C61.7094 467.93 61.8663 468.146 62.0236 468.353C62.1473 468.512 62.2836 468.672 62.4216 468.833L62.919 467.964C62.8556 467.885 62.7927 467.814 62.7286 467.731C62.5861 467.544 62.442 467.344 62.3005 467.136C62.1671 466.94 62.0314 466.725 61.8943 466.497C61.7607 466.274 61.6304 466.044 61.5082 465.815L60.2182 463.736L59.6885 464.657L60.6949 466.279C60.8244 466.519 60.9636 466.764 61.1124 467.014L61.1125 467.014ZM61.396 453.084L58.1568 447.836L57.9541 448.15L57.2413 448.15C58.4488 450.104 59.656 452.058 60.8628 454.012L61.396 453.084ZM62.6585 434.78L57.1032 425.115L49.0672 425.187L54.5947 434.866L55.6692 434.855L50.6791 426.113L56.5643 426.062L61.5832 434.792L62.6585 434.78ZM63.5779 449.209L63.6075 449.231L64.0808 448.406C63.9609 448.31 63.8396 448.209 63.7174 448.098C63.5733 447.968 63.4369 447.836 63.3118 447.706C63.1755 447.566 63.045 447.423 62.9236 447.28C62.8007 447.135 62.6816 446.984 62.5678 446.833C62.4524 446.677 62.3461 446.522 62.252 446.374C62.1546 446.22 62.0667 446.071 61.9918 445.931L60.771 443.792L60.1981 444.678L61.1727 446.385C61.2602 446.549 61.3581 446.716 61.4635 446.881C61.5736 447.052 61.6935 447.226 61.8222 447.398C61.9483 447.567 62.083 447.736 62.2228 447.9C62.3596 448.061 62.5046 448.221 62.6535 448.374C62.7925 448.518 62.9454 448.666 63.108 448.815C63.2517 448.945 63.4091 449.077 63.5779 449.209V449.209ZM59.6039 443.638L60.6833 443.638L58.2871 439.441L57.2097 439.445L59.6039 443.638ZM57.1245 460.525L57.6536 459.603L50.5502 448.155L49.448 448.156L57.1245 460.525ZM52.9857 439.463L51.8772 439.467C52.7354 440.857 53.5938 442.246 54.4524 443.636L55.5643 443.636L54.5494 441.992L52.9857 439.463ZM41.5667 305.815C40.3592 305.815 39.2752 305.813 38.2531 305.809L38.8321 306.747C39.9186 306.75 41.0052 306.756 42.0914 306.756C42.4688 306.141 42.8453 305.525 43.221 304.909L42.6909 303.981L41.5667 305.815ZM32.9688 229.128L35.6099 233.384L36.1409 232.461L33.4986 228.203C33.322 228.511 33.1454 228.82 32.9688 229.128ZM50.7122 255.944L44.3113 245.628L43.2147 245.64L49.6105 255.947C49.9778 255.946 50.345 255.945 50.7122 255.944ZM45.8154 266.732L42.4981 261.003H41.4135L44.7309 266.732H45.8154ZM41.444 241.008L38.7155 236.61L38.1849 237.534L40.343 241.012L41.444 241.008ZM36.8199 213.742L37.3627 212.804C37.2228 212.562 37.0784 212.308 36.9387 212.066L36.3769 211.093L38.366 211.071L38.9132 210.126L34.7663 210.17L36.8199 213.742ZM45.1552 216.789L40.0218 216.81L39.482 217.753L44.6129 217.732L45.1552 216.789ZM36.8795 198.852C39.7395 198.841 42.5995 198.831 45.4596 198.82L45.9971 197.892C43.1483 197.901 40.2995 197.909 37.4508 197.918L36.8795 198.852ZM46.0643 298.48L44.9378 300.317L45.1484 300.315L45.5762 301.06C46.717 299.195 47.8577 297.331 48.9983 295.466L47.9048 295.467L46.0643 298.48ZM41.8561 337.142H40.8432C39.6711 339.189 38.4992 341.235 37.3275 343.282H38.4092C41.2729 338.281 44.1366 333.28 47.0003 328.279L46.4374 327.372C44.7403 330.336 43.0434 333.299 41.3468 336.263L41.8561 337.142ZM45.5685 317.651L48.0492 313.367L47.511 312.424L45.0088 316.745C45.1955 317.047 45.3821 317.349 45.5685 317.651ZM49.4696 323.967C50.4764 322.208 51.4834 320.449 52.4908 318.691C52.2934 318.619 52.1014 318.533 51.9165 318.434C51.8253 318.382 51.7456 318.313 51.6576 318.255C50.7409 319.856 49.8244 321.457 48.9081 323.057L49.4696 323.967ZM53.7728 240.957L54.8544 240.952L52.4775 236.79L51.3926 236.789L53.7728 240.957ZM22.9259 390.41L22.5923 390.411L22.0021 390.412L22.4722 391.193L22.9259 390.41ZM57.4067 266.732L53.8515 261.003H52.7475L56.3027 266.732H57.4067ZM50.3581 309.38L58.9755 294.497C59.1149 294.254 59.2593 294.015 59.4089 293.78C59.5506 293.558 59.6968 293.341 59.8453 293.131C59.9944 292.922 60.1452 292.724 60.2952 292.538C60.446 292.351 60.6005 292.171 60.7564 292.002C60.9142 291.829 61.0732 291.668 61.2307 291.518C61.3912 291.367 61.5532 291.226 61.7138 291.096C61.8764 290.965 62.0392 290.845 62.2022 290.736C62.3622 290.629 62.5274 290.53 62.6973 290.439L62.9697 290.302L63.2462 290.184L63.5215 290.085L63.7943 290.008L64.0762 289.946L64.3482 289.907L64.6309 289.884L64.9136 289.881L65.1752 289.897L65.451 289.932L65.7217 289.985L65.9968 290.057L66.2591 290.145L66.5319 290.255L66.8047 290.384L67.068 290.527L67.071 290.529L67.539 289.714L67.5353 289.711L67.2201 289.54L66.896 289.387L66.5743 289.258L66.2472 289.152L65.9161 289.064L65.5915 289.002L65.2596 288.96L64.9326 288.94L64.5981 288.943L64.2571 288.969L63.9194 289.019L63.5824 289.09L63.2492 289.185L62.9177 289.304L62.5875 289.444L62.255 289.608C62.075 289.704 61.8897 289.816 61.7056 289.939C61.5224 290.061 61.34 290.195 61.1613 290.336C60.9875 290.475 60.808 290.631 60.6285 290.798C60.5779 290.845 60.5285 290.9 60.4782 290.949L60.8818 290.949L57.9653 295.46L57.3328 295.461L49.8179 308.44L50.3581 309.38ZM60.753 516.922L58.2481 521.286L58.7893 522.234L61.3146 517.832L60.753 516.922ZM56.8752 510.645L54.2557 515.199C54.5052 515.402 54.7397 515.624 54.9571 515.861L57.4357 511.552C57.2489 511.25 57.0621 510.947 56.8752 510.645ZM56.1406 526.853L56.4967 526.232L55.9528 525.285L48.8528 537.654L49.9371 537.653L56.1406 526.853ZM64.7921 532.748L70.5257 532.744L69.9452 531.804L64.2552 531.808L64.7921 532.748ZM36.3054 546.408L37.3894 546.404L52.746 519.705L52.2052 518.764L36.3054 546.408ZM83.0491 527.661L70.943 506.466C70.8547 506.302 70.7554 506.134 70.6497 505.968C70.5397 505.797 70.4189 505.624 70.2915 505.454C70.1682 505.286 70.0331 505.118 69.8921 504.951C69.7542 504.79 69.6087 504.63 69.4587 504.475C69.3124 504.324 69.1609 504.177 69.0072 504.038C68.8624 503.908 68.7043 503.773 68.5346 503.641C68.38 503.519 68.2187 503.401 68.0551 503.29C67.8938 503.181 67.7281 503.078 67.563 502.986L67.2691 502.83L66.9775 502.691L66.6863 502.571L66.3945 502.47L66.1015 502.384L65.8112 502.318L65.5181 502.271L65.2294 502.24L64.8953 502.228L64.5638 502.238L64.2413 502.271L63.9089 502.33L63.5892 502.413C63.4717 502.446 63.3646 502.482 63.2712 502.518L62.9575 502.647L62.6447 502.801C62.4985 502.879 62.344 502.972 62.1825 503.078C62.0395 503.173 61.8887 503.284 61.7334 503.407C61.5934 503.519 61.4462 503.647 61.291 503.792C61.147 503.927 61.0054 504.071 60.865 504.224C60.7264 504.375 60.5855 504.539 60.4459 504.713C60.3147 504.878 60.1788 505.059 60.0382 505.256C59.9108 505.438 59.779 505.637 59.6454 505.848C59.5502 506 59.4512 506.171 59.3525 506.342L59.9129 507.245L60.0773 506.959C60.1903 506.758 60.3094 506.559 60.4293 506.367C60.5439 506.183 60.6623 506.004 60.7822 505.833C60.9005 505.663 61.0234 505.499 61.1462 505.344C61.2757 505.18 61.3989 505.034 61.5156 504.906C61.643 504.764 61.7725 504.632 61.8999 504.51C62.0296 504.385 62.1599 504.27 62.2873 504.168C62.4207 504.059 62.5543 503.962 62.6824 503.876C62.8189 503.785 62.9529 503.704 63.0818 503.635L63.3397 503.508L63.5905 503.404L63.8476 503.318L64.103 503.253L64.3624 503.206L64.6269 503.178L64.8944 503.168L65.1606 503.18L65.398 503.205L65.6392 503.245L65.8812 503.302L66.1223 503.373L66.3696 503.461L66.6154 503.561L66.8627 503.679L67.103 503.806C67.2484 503.888 67.3947 503.979 67.5401 504.077C67.6871 504.177 67.8319 504.283 67.9707 504.393C68.1161 504.508 68.2592 504.628 68.3947 504.751C68.5397 504.881 68.6762 505.014 68.8026 505.143C68.9337 505.279 69.0644 505.424 69.191 505.573C69.313 505.716 69.4328 505.867 69.5467 506.019C69.6581 506.169 69.7629 506.323 69.8601 506.474C69.9567 506.625 70.045 506.776 70.1219 506.92L81.4345 526.738L79.96 526.753C78.4888 526.769 77.0159 526.785 75.5492 526.791L65.3132 508.978L63.235 512.598L63.7968 513.504L65.3124 510.861L75.0125 527.735L83.0491 527.661ZM101.066 395.422L93.2196 409.063L93.7776 409.975L102.692 394.478H94.3849L89.7703 402.032L88.9229 402.04L89.4941 402.974L90.3018 402.966L94.9078 395.422H101.066ZM88.3435 419.422L91.64 413.692H90.5575L87.2615 419.422H88.3435ZM110.251 390.135L90.7715 390.201C73.2131 390.259 55.6537 390.313 38.0934 390.363L37.5573 391.296C42.6783 391.277 47.7989 391.258 52.9192 391.239L108.63 391.081L95.8638 413.385L96.0515 413.692H95.6882L92.4083 419.422H93.4824C99.0718 409.66 104.661 399.897 110.251 390.135ZM50.1732 434.913L43.7444 424.515L42.6424 424.518C44.7838 427.988 46.9267 431.457 49.0712 434.925L50.1732 434.913ZM59.3991 532.752L60.244 532.751L59.7032 531.811L58.8888 531.811C57.627 533.755 56.3687 535.701 55.1139 537.649L56.2334 537.649L59.3991 532.752ZM35.8968 424.539C35.5292 424.54 35.1617 424.542 34.7942 424.543L41.2886 435.008L42.3852 434.996L35.8968 424.539ZM33.3471 439.543L35.7116 443.627L36.7956 443.628L34.4282 439.539L33.3471 439.543ZM38.3382 448.164L41.1626 453.041L42.2407 453.032L39.4216 448.163L38.3382 448.164ZM104.301 539.556L71.4216 486.574C71.2853 486.319 71.1441 486.073 71.0032 485.838C70.8601 485.602 70.711 485.368 70.5577 485.143C70.4053 484.92 70.2497 484.705 70.0911 484.499C69.9366 484.299 69.773 484.102 69.6058 483.912C69.4392 483.724 69.2721 483.547 69.1045 483.382C68.9349 483.216 68.7615 483.057 68.589 482.913C68.4155 482.767 68.2384 482.629 68.0599 482.503C67.8865 482.379 67.7057 482.263 67.5225 482.158L67.2067 481.987L66.8856 481.835L66.5628 481.708L66.2374 481.601L65.9079 481.514L65.5785 481.449L65.2461 481.406L64.9205 481.388L64.5836 481.391L64.2466 481.416L63.9066 481.465L63.5697 481.537L63.2344 481.633L62.9033 481.75L62.5701 481.892L62.2422 482.055C62.0614 482.152 61.8766 482.263 61.6912 482.386C61.5119 482.505 61.3303 482.637 61.1479 482.782C60.9731 482.921 60.7928 483.077 60.6136 483.245C60.4402 483.408 60.2669 483.581 60.0971 483.764C59.9267 483.947 59.7558 484.145 59.5877 484.35C59.4308 484.543 59.2649 484.761 59.0931 485C58.9266 485.233 58.7651 485.47 58.6114 485.71C58.46 485.946 58.3063 486.201 58.1493 486.472L51.6712 497.66C51.7077 497.66 51.745 497.647 51.7815 497.648C52.084 497.659 52.3835 497.711 52.6714 497.805L58.9603 486.943C59.1013 486.698 59.2447 486.46 59.3901 486.234C59.5326 486.011 59.6791 485.793 59.8296 485.58C59.9771 485.372 60.1279 485.175 60.2779 484.988C60.4356 484.792 60.5909 484.612 60.7401 484.449C60.8975 484.277 61.0574 484.115 61.215 483.965C61.3753 483.813 61.5367 483.672 61.6965 483.543C61.8555 483.415 62.0214 483.294 62.1888 483.182C62.3501 483.074 62.5142 482.976 62.681 482.886L62.9553 482.749L63.2297 482.632L63.5092 482.531L63.7816 482.454L64.0619 482.392L64.3378 482.353L64.6135 482.331L64.8971 482.327L65.16 482.343L65.4382 482.378L65.7056 482.431L65.9846 482.505L66.2454 482.592L66.5191 482.702L66.783 482.826L67.0529 482.972C67.2163 483.068 67.3815 483.173 67.5441 483.29C67.7056 483.403 67.8653 483.529 68.0228 483.662C68.1744 483.79 68.3303 483.934 68.4908 484.094C68.6477 484.249 68.8014 484.413 68.9492 484.583C69.0938 484.749 69.2409 484.93 69.3863 485.12C69.5342 485.314 69.6773 485.514 69.8115 485.712C69.9411 485.903 70.0769 486.118 70.217 486.351C70.3505 486.573 70.4801 486.803 70.6054 487.036L102.61 538.615L81.2241 538.598L79.3685 538.597L79.9561 539.544C88.071 539.548 96.1859 539.552 104.301 539.556ZM7.38509 124.896L7.92754 125.833L34.4148 125.822C29.9808 132.967 25.267 140.295 20.5695 147.668L21.2432 148.831L36.1071 124.88C26.5331 124.888 16.9591 124.894 7.38509 124.896ZM92.1885 532.728L78.3917 510.406L64.6016 488.071C61.9487 492.705 59.2953 497.339 56.6414 501.973L57.2034 502.879L64.6316 489.906L70.9686 500.138L77.5865 510.845L90.5023 531.79L75.1508 531.8L75.7338 532.74L92.1885 532.728ZM12.6331 295.295L12.0971 294.358L6.96909 294.343L7.5071 295.278L12.6331 295.295ZM22.0774 453.403C21.6332 453.4 21.1887 453.393 20.7445 453.389L21.2917 454.334L21.5453 454.337L26.1591 461.892H34.4665L25.7773 446.786L23.814 443.622H23.9576L18.202 433.616L18.0511 433.616L9.3683 419.422H10.0378L4.62501 410.012C4.49471 409.779 4.36566 409.563 4.24117 409.364C4.10938 409.153 3.97823 408.955 3.85084 408.774C3.71822 408.587 3.58094 408.405 3.44378 408.234C3.30356 408.059 3.1636 407.895 3.02392 407.743C2.91681 407.626 2.80675 407.518 2.69706 407.411L2.18728 408.232C2.2491 408.296 2.31128 408.355 2.37262 408.423C2.49548 408.559 2.61992 408.707 2.74575 408.864C2.86942 409.021 2.99147 409.184 3.10977 409.353C3.22598 409.519 3.34511 409.7 3.46554 409.891L3.81107 410.477L32.842 460.948H26.6838L22.0774 453.403ZM3.18005 287.77H8.32445L7.78221 286.823H2.55653C2.78268 287.126 2.99089 287.442 3.18005 287.77V287.77ZM75.9743 415.065C75.036 416.526 74.0959 417.979 73.1538 419.423H74.2707L77.975 413.692H28.0601L31.6163 419.423H32.7218L29.5035 414.236H31.3864C46.7751 414.236 62.1678 414.237 76.4937 414.255L75.9743 415.065ZM13.0642 272.755L4.56108 272.729L5.10867 273.674L13.6422 273.7L13.0642 272.755ZM12.1029 566H13.1863L13.7226 565.073L12.6465 565.061L12.1029 566ZM37.2064 557.429H31.0479L34.6829 551.11L33.5949 551.121L29.4237 558.373H37.7307L42.2157 551.03L41.1064 551.042L37.2064 557.429ZM22.6073 561.411L23.6894 561.408L26.151 557.109H25.0707C24.25 558.543 23.4288 559.978 22.6073 561.411ZM24.4831 175.18H23.4022C22.8991 176.059 22.3957 176.938 21.892 177.817L22.4688 177.816C25.9082 177.807 29.3481 177.797 32.7884 177.785C32.6081 177.47 32.4279 177.156 32.2479 176.841C29.3366 176.853 26.4251 176.864 23.5132 176.874C23.8367 176.309 24.16 175.745 24.4831 175.18ZM37.2334 172.534H34.9671L35.5155 173.481H37.7601L42.3723 165.925L97.3923 165.339C95.9374 162.811 94.4837 160.282 93.0312 157.752L46.9891 157.943L56.1752 141.963L65.3416 125.968L75.0418 142.84L83.0771 142.766L70.9707 121.572C70.8834 121.407 70.7846 121.241 70.6789 121.076C70.5697 120.905 70.4493 120.73 70.3211 120.559C70.1945 120.39 70.0594 120.221 69.92 120.056C69.7837 119.895 69.6382 119.734 69.4893 119.581C69.342 119.429 69.1898 119.282 69.0361 119.143C68.8913 119.012 68.734 118.879 68.5642 118.746C68.4088 118.624 68.246 118.505 68.081 118.394C67.9153 118.283 67.7509 118.181 67.5912 118.091L67.2978 117.936L67.0048 117.798L66.7169 117.679L66.4213 117.576L66.1297 117.49L65.8393 117.424L65.5462 117.376L65.259 117.346L64.9271 117.334L64.5947 117.344L64.2693 117.377L63.9415 117.435L63.6231 117.518L63.303 117.623L62.9856 117.754L62.6744 117.906C62.5242 117.986 62.3688 118.079 62.2122 118.184C62.059 118.285 61.9085 118.396 61.7607 118.515C61.6137 118.633 61.4653 118.761 61.3175 118.9C61.1818 119.028 61.0408 119.172 60.8947 119.331C60.7559 119.482 60.6149 119.646 60.474 119.823C60.3367 119.993 60.2003 120.174 60.0668 120.364C59.9338 120.554 59.8009 120.753 59.6727 120.957C59.5385 121.171 59.4111 121.386 59.2915 121.601L32.4739 168.228L33.0155 169.163L60.1083 122.065C60.2282 121.851 60.3445 121.654 60.4551 121.479C60.5748 121.286 60.694 121.106 60.8101 120.94C60.9279 120.772 61.0491 120.609 61.1712 120.455C61.2963 120.296 61.4221 120.147 61.5449 120.011C61.6748 119.866 61.8035 119.734 61.9288 119.615C62.0591 119.491 62.1888 119.376 62.317 119.273C62.4509 119.164 62.5845 119.065 62.7132 118.978C62.846 118.89 62.9809 118.809 63.1126 118.739L63.3699 118.612L63.62 118.509C63.7863 118.447 63.9571 118.397 64.1311 118.36L64.395 118.312L64.6566 118.285L64.9225 118.276L65.1895 118.286L65.4246 118.311L65.6735 118.353L65.9114 118.408L66.1558 118.479L66.4007 118.565L66.6456 118.667L66.8967 118.786L67.1341 118.913C67.2774 118.993 67.422 119.083 67.5668 119.181C67.7153 119.28 67.8617 119.388 68.0018 119.499C68.1389 119.605 68.2799 119.727 68.4216 119.854C68.5671 119.986 68.7043 120.119 68.8316 120.249C68.9664 120.389 69.0963 120.533 69.2167 120.675C69.3441 120.825 69.464 120.976 69.5733 121.124C69.6887 121.28 69.7956 121.434 69.8899 121.584C69.9886 121.739 70.0769 121.889 70.1501 122.026L81.4631 141.842L75.577 141.896L65.3423 124.085L45.365 158.89L92.493 158.696C93.3869 160.239 94.2575 161.759 95.1363 163.293L95.78 164.416L41.8425 164.99L37.2334 172.534ZM29.4524 173.481H30.3241L29.8891 172.722L29.4524 173.481ZM23.4735 161.517L20.9317 165.907L21.4718 166.846L24.0124 162.458L23.4735 161.517ZM48.7553 271.81L47.6728 271.813L52.5219 280.188H22.6324L23.068 280.912L18.063 280.927L17.611 280.188H8.88012L9.42755 281.134H54.1537L48.7553 271.81ZM19.5741 243.527L14.8025 235.232L14.2401 236.138L19.0305 244.466L19.5741 243.527ZM24.8307 172.685L25.3725 173.627C26.2119 172.161 27.0511 170.696 27.8899 169.23L27.3496 168.286C26.5103 169.753 25.6707 171.219 24.8308 172.685L24.8307 172.685ZM18.5711 254.855L18.4043 254.564L18.2387 254.853L18.5711 254.855ZM33.4156 306.731L33.6301 306.732L33.5211 306.556L33.4156 306.731ZM49.5627 217.712L54.703 217.691L54.1638 216.752L50.1038 216.769L49.5627 217.712ZM64.4118 370.137L63.8199 369.178L58.6007 369.193L59.1486 370.153C60.9031 370.147 62.6575 370.142 64.4118 370.137ZM78.1468 266.732L81.4642 261.003H80.3793L77.062 266.732H78.1468ZM52.3308 197.872L50.8631 197.877L50.3334 198.802C51.0025 198.8 51.6717 198.797 52.3409 198.794L52.8995 198.793C52.7101 198.486 52.5205 198.179 52.3308 197.872ZM53.2997 369.208C52.2764 369.211 51.2531 369.215 50.2298 369.219L49.6777 370.181C51.308 370.176 52.9382 370.171 54.5684 370.167L54.0162 369.206L53.2997 369.208ZM89.1183 197.759C78.5621 197.794 68.0058 197.826 57.4494 197.856L58.0213 198.778L108.643 198.635L86.1033 238.015L75.8783 255.865C76.2383 255.863 76.5981 255.862 76.9578 255.861C88.0585 236.469 99.1612 217.078 110.266 197.688L89.1183 197.759ZM84.4547 255.838L86.0945 253.006L85.5416 252.087L83.3678 255.841C83.7302 255.84 84.0925 255.839 84.4547 255.838ZM45.9543 376.668L45.4352 377.572H58.8238L58.3043 376.668H45.9543ZM31.8603 383.735H36.9438L37.4774 382.807H32.3915L31.8603 383.735ZM80.8358 419.422C81.9326 417.512 83.029 415.602 84.125 413.692H83.0442L79.7581 419.422H80.8358ZM46.9493 357.382L46.4074 358.328L57.0473 358.215C56.855 357.904 56.6627 357.592 56.4703 357.281L46.9493 357.382ZM26.5692 401.772C25.2609 401.777 23.8913 401.78 22.3382 401.78C22.197 401.549 22.0609 401.327 21.92 401.096L21.3865 402.027L21.8122 402.722L26.0297 402.71L26.5692 401.772ZM50.9624 350.373C50.7824 350.687 50.6026 351.001 50.423 351.315L52.779 351.305C52.586 350.993 52.3929 350.68 52.1998 350.368L50.9624 350.373ZM55.364 335.033C55.0963 335.177 54.8121 335.288 54.5178 335.363L45.349 351.336L45.5499 351.335L47.1386 348.591C47.7542 347.416 48.6351 346.402 49.7109 345.63L56.0739 334.561C55.8511 334.738 55.6137 334.896 55.3642 335.033H55.364ZM83.9147 402.094L34.751 402.616L38.2336 408.673L39.3132 408.669C38.5128 407.269 37.7262 405.902 36.9466 404.552L36.3628 403.539L84.4766 403.027L83.9147 402.094ZM18.7203 397.673L19.2598 396.741C17.6045 394.033 15.9593 391.344 14.3241 388.674L13.7651 389.575L15.8233 392.942L18.7203 397.673ZM14.4536 405.042L9.48828 396.467L8.92803 397.37L13.912 405.977L14.4536 405.042ZM15.2195 419.422L11.9391 413.692H10.8637L14.1449 419.422H15.2195ZM11.1912 385.363C11.3762 385.064 11.5611 384.765 11.7458 384.466L11.2979 383.735H12.1973C12.3885 383.426 12.5795 383.116 12.7704 382.807H9.6291L11.1912 385.363ZM13.0031 372.023L10.179 376.901L10.6792 376.906L10.2986 377.572H16.0046C16.1909 377.271 16.377 376.969 16.563 376.668H11.3965L14.0853 372.024L13.0031 372.023ZM4.49838 389.75C4.64674 389.982 4.79088 390.221 4.92862 390.463L6.43441 393.063L6.99354 392.158L5.73962 389.993C5.58382 389.721 5.43027 389.467 5.27901 389.23C5.12611 388.991 4.96415 388.753 4.79827 388.521C4.65447 388.321 4.51133 388.136 4.36915 387.958L3.86504 388.841C3.92947 388.927 3.99196 389.005 4.05801 389.096C4.20806 389.307 4.35673 389.525 4.49841 389.75L4.49838 389.75ZM10.6994 411.526L5.63437 402.678L5.07413 403.58L10.1585 412.46L10.6994 411.526ZM36.9218 266.732H38.004C36.9098 264.823 35.8162 262.913 34.7232 261.003H33.6413L36.9218 266.732ZM7.52398 363.36L6.15271 363.354C5.33523 364.74 4.54927 366.115 3.75832 367.492L4.95981 367.492L7.52398 363.36ZM18.3786 413.692L21.6968 419.422H22.7802L19.462 413.692H18.3786ZM39.5891 255.979L33.6618 245.742L33.4578 245.744L33.0063 246.483L38.5064 255.982L39.5891 255.979ZM30.9287 318.269L34.3998 318.268C33.8085 319.221 33.1959 320.188 32.5949 321.147L33.1392 322.087L36.0929 317.328C34.1904 317.33 32.2879 317.331 30.3852 317.331L30.9287 318.269ZM26.8831 332.167L30.4527 326.416L29.8956 325.443C28.4849 327.671 27.06 329.911 25.621 332.164L26.8831 332.167ZM28.0023 443.624L29.078 443.624L23.1908 433.348L18.1803 424.595L17.6385 424.596L23.0572 433.601L22.265 433.604L28.0023 443.624ZM26.1458 310.009L26.6864 310.942L29.1537 306.65L24.1706 306.597L24.7193 307.545L27.5426 307.575L27.1228 308.307C26.7995 308.871 26.4726 309.44 26.1459 310.009H26.1458ZM17.093 294.373L17.6354 295.31L26.56 295.338L25.9774 294.399L17.093 294.373ZM58.4975 255.919L54.5631 249.545L52.0905 245.546L50.986 245.557C53.1208 249.013 55.2552 252.468 57.3894 255.923C57.7589 255.922 58.1283 255.921 58.4975 255.919ZM-0.165062 180.763L-0.499893 181.041V182.21L-0.165062 181.96V180.763ZM-0.165062 192.513C-0.276077 192.493 -0.386269 192.47 -0.499893 192.449V193.4C-0.37867 193.424 -0.274963 193.458 -0.165062 193.481V192.513ZM-0.165062 286.823H-0.499893V287.77H-0.165062V286.823ZM0.94799 169.014L-0.149956 169.003L-0.449402 169.487L-0.499924 169.663V170.181L0.118271 170.357L0.94799 169.014ZM2.20159 206.094L3.28818 206.106L0.123344 200.577L-0.499893 200.744V201.29L-0.453972 201.457L2.20159 206.094ZM-0.165001 132.27C0.217247 132.314 0.587593 132.431 0.925652 132.615L0.953255 132.633L6.9372 132.637L6.39803 131.696C4.09881 131.693 1.79952 131.692 -0.499817 131.691V132.632L-0.164986 132.632L-0.165001 132.27ZM0.50415 160.665C0.643089 160.55 0.772728 160.437 0.893181 160.324L0.978889 160.24L-0.165001 160.24V159.994L-0.499847 160.254V161.405L0.269623 160.853L0.50415 160.665ZM2.51974 146.074C2.86301 145.48 3.2066 144.873 3.55002 144.278L3.00647 143.332L-0.453896 149.352L-0.499817 149.519V150.06L0.123398 150.227L2.51974 146.074ZM-0.164986 272.943V272.714L-0.499817 272.713V273.657L0.245285 273.66L-0.164986 272.943ZM2.50597 124.899C1.5041 124.899 0.502182 124.9 -0.499786 124.9V125.837L3.04237 125.835L2.50597 124.899ZM3.98321 280.188H-0.499786V281.134H4.52471L3.98321 280.188ZM24.5175 266.732H25.6188L22.1208 261.003H9.45581L9.56114 260.821C6.20724 260.783 2.85356 260.747 -0.499893 260.713V261.656L21.5589 261.89L24.5175 266.732ZM-0.164986 253.839L-0.499817 253.838V254.777L-0.164986 254.778V253.839ZM4.31705 243.822L4.89728 242.883L-0.499786 242.877V243.818L1.36663 243.817C2.34991 243.816 3.33457 243.814 4.31698 243.822L4.31705 243.822ZM3.01915 229.647L3.55946 228.707L0.123421 222.723L-0.499817 222.89V223.43L-0.453896 223.597L3.01915 229.647ZM0.70462 249.67L-0.499786 249.67V250.612L0.12278 250.612L0.70462 249.67ZM0.821487 214.705C0.875198 214.734 0.930511 214.771 0.985237 214.804L2.54216 214.803C2.41801 214.689 2.29386 214.578 2.17391 214.482C2.02444 214.363 1.87237 214.252 1.71995 214.15C1.56918 214.05 1.41466 213.958 1.2587 213.873L1.03179 213.758L0.805771 213.659L0.581161 213.572C0.22168 213.454 -0.132614 213.374 -0.499733 213.281V214.247L0.122208 214.41C0.362236 214.491 0.59594 214.589 0.821388 214.705L0.821487 214.705ZM101.64 357.706L108.465 369.054L68.9903 369.164L69.584 370.121C71.6731 370.115 73.7623 370.108 75.8515 370.102L110.128 369.989L103.3 358.642L109.79 358.623C111.15 360.823 112.477 362.981 113.772 365.098L120.832 376.668H73.6468L74.208 377.572H122.485C118.423 370.946 114.347 364.324 110.317 357.679C107.425 357.696 104.532 357.698 101.64 357.706ZM108.482 176.608L53.2522 176.761C47.984 176.778 42.7164 176.798 37.4495 176.821L37.9984 177.769C49.0183 177.737 60.038 177.704 71.0574 177.67L110.142 177.542L103.314 166.194L109.805 166.176C111.163 168.371 112.49 170.527 113.783 172.646L120.846 184.222H41.7347L41.8682 184.453H10.194L9.80492 185.125H122.5L118.288 178.246C115.642 173.905 112.967 169.58 110.331 165.233C107.439 165.249 104.546 165.25 101.653 165.258L108.482 176.608ZM78.0319 383.735H120.731L73.153 465.906C73.0097 466.155 72.8643 466.396 72.7189 466.624C72.5741 466.852 72.4279 467.069 72.2838 467.272C72.1383 467.476 71.9863 467.676 71.8301 467.869C71.681 468.055 71.5265 468.234 71.3712 468.405C71.2217 468.569 71.0627 468.73 70.8992 468.885C70.7335 469.042 70.5713 469.184 70.4152 469.308C70.2541 469.438 70.0911 469.558 69.9291 469.666C69.7612 469.778 69.5938 469.878 69.4301 469.965L69.1564 470.102L68.8823 470.221L68.6025 470.32L68.3334 470.396L68.0516 470.458L67.7757 470.497L67.4962 470.521L67.2188 470.523L66.9497 470.506L66.6798 470.472L66.4446 470.426L65.9554 471.271L66.2102 471.338L66.5353 471.401L66.8677 471.443L67.1947 471.463L67.5279 471.461L67.8678 471.435L68.2008 471.386L68.5431 471.314L68.8718 471.221L69.2111 471.101L69.5411 470.96L69.8726 470.795C70.0596 470.696 70.2444 470.584 70.4252 470.465C70.6076 470.343 70.7901 470.21 70.968 470.068C71.1429 469.928 71.3208 469.774 71.4995 469.608C71.6733 469.445 71.8475 469.27 72.018 469.086C72.1905 468.9 72.3622 468.702 72.5312 468.494C72.6934 468.294 72.859 468.076 73.0241 467.847C73.1906 467.615 73.3528 467.378 73.5058 467.137C73.6558 466.902 73.8096 466.648 73.9658 466.377L122.354 382.807H77.4564L78.0319 383.735ZM26.5728 158.036L58.9891 102.05C59.1316 101.803 59.2763 101.563 59.421 101.336C59.5672 101.107 59.7142 100.89 59.8597 100.685C60.0126 100.471 60.1634 100.272 60.3096 100.09C60.4596 99.9041 60.6149 99.7239 60.7718 99.5529C60.9285 99.3812 61.0877 99.2193 61.2452 99.0696C61.4058 98.9182 61.5678 98.7767 61.7283 98.6473C61.8836 98.5219 62.0472 98.4016 62.2139 98.2895C62.3759 98.1813 62.5431 98.0823 62.7099 97.9916L62.9834 97.8552L63.2591 97.7381L63.5352 97.6382L63.8101 97.5604L64.092 97.499L64.3656 97.459L64.6446 97.4372L64.928 97.4339L65.1971 97.4499L65.4691 97.4854L65.7414 97.5392L66.0105 97.6113L66.272 97.6982L66.55 97.8093L66.8162 97.9341L67.0809 98.0779C67.2505 98.1761 67.4154 98.2822 67.5714 98.3926C67.7282 98.5039 67.8882 98.6293 68.0493 98.7663C68.2077 98.901 68.3642 99.045 68.5188 99.1985C68.675 99.355 68.8295 99.5192 68.9773 99.6886C69.1219 99.854 69.269 100.034 69.4144 100.225C69.5628 100.42 69.7061 100.618 69.8396 100.817C69.9782 101.024 70.1154 101.238 70.2458 101.457C70.3844 101.688 70.5144 101.918 70.6339 102.141L102.638 153.722L80.3852 153.704L55.6498 153.699L59.427 147.858L92.2171 147.834L78.4209 125.512L64.6326 103.177C53.0628 123.388 41.4901 143.599 29.9145 163.807L30.4577 164.745C41.8609 144.836 53.2616 124.925 64.6596 105.012L77.6153 125.951L90.5324 146.894L58.9175 146.915C57.2487 149.487 55.5844 152.061 53.9245 154.639C70.7266 154.653 87.5286 154.66 104.331 154.661L71.4448 101.67C71.307 101.412 71.169 101.17 71.0342 100.947C70.8811 100.695 70.7318 100.461 70.5872 100.248C70.4364 100.027 70.2803 99.8117 70.1227 99.6073C69.9669 99.4053 69.8033 99.208 69.6358 99.0173C69.4693 98.8297 69.3021 98.6536 69.1369 98.4907C68.9665 98.3235 68.7923 98.1656 68.6206 98.0202C68.4455 97.8741 68.2672 97.7356 68.0885 97.6086C67.9082 97.4823 67.7282 97.3657 67.5487 97.2643L67.2307 97.0926L66.9102 96.9413L66.5861 96.8111L66.259 96.7038L65.9258 96.6168L65.6033 96.5541L65.2738 96.5123L64.9483 96.4934L64.6113 96.4964L64.2736 96.5223L63.9359 96.5698L63.5974 96.6423L63.2621 96.7371L62.9288 96.8558L62.5969 96.9964L62.2707 97.1598C62.0838 97.2605 61.8991 97.3718 61.7174 97.4913C61.535 97.613 61.3526 97.7454 61.1755 97.8877C61.0036 98.0245 60.8254 98.179 60.641 98.3514C60.4672 98.5132 60.2952 98.6873 60.1249 98.8704C59.9529 99.0558 59.7812 99.2534 59.6139 99.4604C59.4504 99.6616 59.2844 99.8789 59.1193 100.108C58.9535 100.339 58.7922 100.576 58.6398 100.815C58.4824 101.062 58.3254 101.318 58.1763 101.58L26.0308 157.1L26.5728 158.036ZM48.0142 517.161C48.5387 516.082 49.3574 515.174 50.3753 514.544C50.4384 514.51 50.5006 514.503 50.5635 514.475L54.7379 507.185C54.5511 506.882 54.3641 506.579 54.1771 506.277C47.067 518.692 39.9578 531.108 32.8495 543.524L48.0142 517.161ZM93.0033 542.647L46.9599 542.837L47.3445 542.167L46.2625 542.167L45.3346 543.783L92.4613 543.59C93.4835 545.348 94.4571 547.05 95.4317 548.752L95.7522 549.311L75.4998 549.526L76.0371 550.461L97.3644 550.233C95.9099 547.706 94.4562 545.177 93.0033 542.647ZM101.625 550.153L108.451 561.502L93.0818 561.545L93.6599 562.49L110.114 562.436L103.284 551.088L103.746 551.087C105.637 551.078 107.52 551.07 109.775 551.07L118.912 566H120.011L110.302 550.129L101.625 550.153ZM24.2664 120.847L4.99473 120.767L5.54086 121.711C11.9628 121.74 18.3849 121.766 24.807 121.789L29.1673 114.203L-0.499893 113.888V114.828L27.5565 115.128L24.2664 120.847ZM5.77134 5.09875C5.62382 4.83942 5.46929 4.58575 5.31236 4.34076C5.15783 4.09955 4.99426 3.85962 4.82628 3.62372C4.66805 3.4035 4.50395 3.18909 4.33401 2.98053C4.16522 2.77271 3.994 2.57507 3.82215 2.38971C3.65029 2.20435 3.47548 2.02893 3.30133 1.86633C3.12799 1.70422 2.94997 1.55078 2.77159 1.40857C2.59373 1.26636 2.41178 1.13391 2.22935 1.0119C2.04693 0.891052 1.86157 0.778992 1.67477 0.678284L1.39043 0.535278L1.11468 0.414429L0.83213 0.306274C0.396126 0.171814 -0.0490494 0.069519 -0.499863 0V0.950806C-0.211143 1.00604 0.0548706 1.05438 0.338257 1.13385L0.557678 1.20654L0.787666 1.29565L1.00758 1.39423L1.23756 1.50922C1.39822 1.5954 1.56377 1.69525 1.73143 1.80731C1.89324 1.91534 2.05603 2.03564 2.21898 2.16644C2.37964 2.29517 2.54243 2.43738 2.70293 2.58868C2.86035 2.7384 3.02022 2.90045 3.17847 3.07281C3.33461 3.24304 3.48976 3.42389 3.64133 3.61218C3.79423 3.80145 3.94418 3.99872 4.08912 4.20154C4.2347 4.40643 4.38223 4.62592 4.52928 4.8551C4.67309 5.08148 4.81721 5.31903 4.95824 5.56647L52.5363 87.7404H-0.499893V88.6847H54.1682L5.77134 5.09875ZM33.4299 114.283C36.3214 114.294 39.2134 114.307 42.1049 114.307C46.1781 107.669 50.2436 101.025 54.3014 94.3762H-0.499863V95.3209H52.6205L45.9776 106.198L41.5811 113.367L35.091 113.35L41.9196 102L-0.499863 101.875V102.808L40.2567 102.935L33.4299 114.283ZM0.128685 120.747L-0.499893 120.745V121.686C-0.110374 121.688 0.279251 121.689 0.668991 121.691L0.128685 120.747ZM5.03207 50.436L-0.499863 50.4307V51.3717L1.34693 51.3702C2.40366 51.3688 3.46357 51.3663 4.52019 51.3755C5.50671 52.8833 6.51695 54.4525 7.52464 56.0169L8.29668 57.2181L-0.499893 57.2234V58.164L10.0227 58.157C8.35754 55.5848 6.694 53.0112 5.03207 50.436V50.436ZM42.0565 81.3373L20.94 44.4738L0.123344 8.10516L-0.499893 8.27209V8.81555L-0.453972 8.98267L40.4345 80.3939L-0.499863 80.2637V81.2116L41.4793 81.3357L42.0565 81.3373ZM18.5847 62.4082L0.123398 30.2505L-0.499847 30.4167V30.9568L-0.453911 31.1235L16.9602 61.4618L-0.499863 61.3899V62.3293L18.0051 62.4058L18.5847 62.4082ZM40.1218 489.833H39.022L35.3291 495.971H36.4277L40.1218 489.833ZM26.1883 76.9977H34.4957L4.65372 25.118C4.52226 24.8858 4.39439 24.6687 4.26989 24.4697C4.14345 24.2685 4.0128 24.0709 3.88019 23.882C3.74694 23.6927 3.61045 23.5112 3.47335 23.3402C3.33377 23.1654 3.19356 23.0012 3.0556 22.8515C2.91539 22.6985 2.77077 22.5526 2.62749 22.418C2.48045 22.2796 2.33212 22.1509 2.18587 22.033C2.03672 21.9142 1.88433 21.803 1.73143 21.7007C1.57612 21.598 1.42242 21.5057 1.27295 21.4268L1.04604 21.3118L0.816071 21.2107L0.589333 21.1229C0.228226 21.0025 -0.130463 20.9254 -0.499863 20.8339V21.7968L0.146721 21.9642C0.384758 22.0453 0.616547 22.1439 0.84021 22.2591C0.96389 22.3251 1.09666 22.4059 1.23589 22.4982C1.36573 22.5852 1.49913 22.6837 1.63238 22.7925C1.7593 22.8953 1.88946 23.0112 2.02061 23.1361C2.15255 23.2632 2.28078 23.3954 2.40352 23.5316C2.534 23.6762 2.65816 23.8235 2.77518 23.9719C2.89803 24.127 3.02009 24.2913 3.13842 24.4585C3.2522 24.6219 3.37295 24.805 3.49872 25.0062L3.841 25.5835L32.869 76.0531H26.7124L22.1052 68.5082C14.5707 68.4439 7.03455 68.3508 -0.5 68.2683V69.2089L21.5739 69.4431L26.1883 76.9977ZM20.7122 479.271H-0.499893V480.215H21.2887L20.7122 479.271ZM2.02351 294.329L-0.499977 294.321V295.253L2.55966 295.263C2.3812 294.952 2.2025 294.64 2.02354 294.329L2.02351 294.329ZM-0.165085 472.635H-0.499924V473.58H-0.165085V472.635ZM12.4478 465.2L6.45866 465.181L6.74008 465.616L-0.165062 465.619V465.16L-0.499893 465.159V466.104C3.99664 466.125 8.49339 466.13 12.9902 466.144C12.8094 465.829 12.6286 465.515 12.4478 465.2ZM1.59507 446.293L-0.499863 446.285V447.224L2.1357 447.235L1.59507 446.293ZM-0.165062 498.786L-0.499893 498.783V499.722L-0.165062 499.726V498.786ZM5.57542 453.227C3.55025 453.204 1.52515 453.183 -0.499893 453.162V454.102L6.11798 454.173L5.57542 453.227ZM0.830421 566L1.00247 565.828C1.1388 565.689 1.27901 565.537 1.41827 565.377C1.57976 565.193 1.73947 565 1.89106 564.8C2.04686 564.597 2.2009 564.384 2.34922 564.163C2.50454 563.933 2.65076 563.706 2.78353 563.482C2.93106 563.236 3.06868 562.995 3.19641 562.758L36.077 509.774C35.2064 509.775 34.3357 509.775 33.4649 509.775L33.2265 510.165L28.2216 510.151L28.4455 509.778C18.7971 509.786 9.14858 509.792 -0.499893 509.795V510.73L34.3863 510.715C23.8918 527.627 11.671 545.695 2.0547 562.876L1.72149 563.417L1.37315 563.927C1.26003 564.085 1.1396 564.243 1.01446 564.4L0.659363 564.822L0.298256 565.206L-0.0349503 565.523L-0.499893 565.911V566H0.830421ZM18.9522 524.717L17.8469 524.717L-0.449402 554.335L-0.499924 554.511V555.031L0.118271 555.206L18.9522 524.717ZM-0.164955 442.118L-0.499786 442.118V443.059L-0.164955 443.059V442.118ZM-0.164955 544.866L-0.499786 545.127V546.285L-0.164955 546.04V544.866ZM2.45585 531.021C3.6796 528.896 4.89358 526.785 6.0845 524.708L4.99872 524.708L-0.453911 534.196L-0.499847 534.363V534.904L0.123375 535.071L2.45585 531.021ZM20.6526 520.175L21.7588 520.174L23.6494 517.114L23.9642 516.603C15.8102 516.603 7.65559 516.597 -0.499634 516.586V517.525L22.2782 517.544L20.6526 520.175ZM10.2994 529.592L13.0867 524.713L12.0006 524.712C11.0757 526.337 10.1438 527.957 9.21995 529.583L10.2994 529.592ZM27.9714 501.129L26.8923 501.126L24.2378 505.742L-0.499817 505.64V506.58C7.92574 506.62 16.3518 506.654 24.7783 506.682L27.9714 501.129ZM-0.164955 486.77L-0.499786 486.769V487.7L-0.164955 487.701V486.77ZM3.28922 337.142H2.20879L-0.453911 341.775L-0.499847 341.941V342.483L0.123375 342.649L3.28922 337.142ZM19.2409 324.153C12.6608 324.151 6.08064 324.146 -0.499649 324.138V325.079L19.8152 325.094L19.2409 324.153ZM0.497513 353.107L0.888153 352.765L1.26485 352.394C1.40668 352.248 1.54838 352.09 1.68925 351.926C1.82947 351.76 1.96453 351.59 2.08813 351.423C2.21765 351.249 2.33678 351.077 2.44144 350.913C2.54629 350.749 2.64497 350.583 2.73244 350.419L3.90376 348.368L2.8215 348.365C2.44391 349.02 2.07557 349.681 1.6967 350.335L1.4427 350.717L1.16016 351.094L0.851135 351.462L0.544228 351.79L0.221733 352.102L-0.0639114 352.352L-0.49968 352.69V353.845L0.0286026 353.468C0.185326 353.356 0.342773 353.234 0.497269 353.107L0.497513 353.107ZM8.97297 306.435L-0.499893 306.334V307.275L9.51652 307.382L8.97297 306.435ZM4.49306 436.27L5.90717 438.445L8.26791 442.113L4.12914 442.116L4.67016 443.056L9.79733 443.052C9.28479 442.157 8.77214 441.262 8.25938 440.366L5.00335 435.329L-0.499863 435.326V436.266L1.33866 436.264C2.38919 436.263 3.44218 436.261 4.49306 436.27ZM12.8827 313.247L-0.499893 313.191V314.131C4.14111 314.154 8.78242 314.173 13.424 314.189L12.8827 313.247ZM-0.165062 317.345L-0.499893 317.346V318.284L-0.165062 318.284V317.345ZM-0.165062 361.452L-0.449402 361.912L-0.499924 362.087V362.601L-0.165085 362.696L-0.165062 361.452ZM16.2264 454.28L15.6852 453.335C13.9737 453.317 12.2625 453.299 10.5514 453.28L11.0951 454.225L16.2264 454.28ZM6.54386 446.313L7.08562 447.255L12.2159 447.276L11.6766 446.334L6.54386 446.313ZM16.9301 446.356L16.6716 446.355L17.2169 447.297L17.9755 447.3L18.5552 447.301L0.123344 415.196L-0.499893 415.362V415.902L-0.453972 416.069L16.9301 446.356ZM0.5802 373.795C0.728867 373.663 0.872704 373.526 1.00996 373.386C1.14792 373.245 1.2876 373.094 1.42901 372.934C1.59406 372.745 1.75475 372.548 1.90765 372.35C1.98686 372.247 2.06815 372.127 2.14851 372.015L0.976379 372.015L0.661049 372.389C0.547264 372.518 0.424088 372.647 0.297485 372.773L-0.0378189 373.092L-0.499893 373.476V374.646L0.311928 374.026L0.5802 373.795ZM0.768791 386.194L0.785995 386.202L1.25681 385.383L1.09872 385.314L0.8246 385.208L0.314819 385.054C0.0419998 384.993 -0.224655 384.946 -0.499924 384.895V385.849C-0.144814 385.911 0.205536 385.998 0.548531 386.109L0.768791 386.194ZM-0.165085 405.822C-0.276901 405.794 -0.385796 405.761 -0.499924 405.732V406.697L-0.165085 406.785V405.822ZM-0.165085 394.43V393.127L-0.499924 393.216V393.76L-0.453995 393.926L-0.165085 394.43ZM42.404 473.58L41.8178 472.635H31.8877L32.4348 473.58H42.404ZM18.3305 221.137L18.8906 220.23L18.3736 219.337L17.2878 219.337L18.3305 221.137ZM32.9221 266.732L29.6264 261.003H28.5429L31.8387 266.732H32.9221ZM9.04296 227.103L11.7441 231.799L12.3053 230.891L9.58279 226.158L9.04296 227.103ZM14.9905 226.544C13.6144 224.14 12.2379 221.736 10.861 219.332L9.7807 219.331L14.4299 227.451L14.9905 226.544ZM20.4936 206.289C18.3117 202.716 16.1542 199.189 14.0213 195.709L12.9148 195.706C15.0687 199.23 17.224 202.754 19.3808 206.278L20.4936 206.289ZM30.8853 223.992L29.5178 221.788H32.1613L32.7053 220.848C31.0801 220.847 29.4548 220.846 27.8296 220.846L30.3525 224.912L30.8853 223.992ZM31.8598 256.003C31.0441 254.579 30.2284 253.154 29.4128 251.73H28.3314L30.7802 256.006L31.8598 256.003ZM31.0734 241.271L28.5304 236.88L27.9911 237.822L30.5328 242.211L31.0734 241.271ZM11.5395 140.676C10.6902 142.166 9.83978 143.655 8.9882 145.144L9.53191 146.09L12.0826 141.624L11.5395 140.676ZM14.8518 136.775L14.2598 136.77L14.5594 137.287L14.8518 136.775ZM13.3694 210.695L12.2815 210.69L14.6597 214.798L15.7448 214.797L13.3694 210.695ZM19.0195 171.081L18.4633 170.17L13.0979 179.437L14.1796 179.44L19.0195 171.081ZM13.4093 161.454C13.167 161.033 12.9249 160.611 12.6829 160.189C11.7993 161.613 10.9159 163.037 10.0485 164.459L11.5411 164.465L13.4093 161.454ZM5.99734 159.052L6.56229 159.925L9.65652 154.917L9.12452 153.99L5.99734 159.052ZM23.6784 198.901C26.3839 198.889 29.0892 198.879 31.7943 198.871L32.3583 197.934C29.1078 197.943 25.8572 197.953 22.6065 197.964L22.0165 197.964L28.8424 209.315L22.3527 209.333C21.997 208.749 21.6532 208.188 21.3001 207.609L20.7648 208.54C21.1186 209.118 21.4721 209.696 21.8251 210.274L30.5055 210.248L23.6784 198.901ZM12.2213 150.765L14.8657 146.484L14.3346 145.557L11.6888 149.839L12.2213 150.765ZM42.0778 499.203L50.1578 485.997C49.9487 485.728 49.7534 485.448 49.5728 485.158C46.8928 489.547 44.2111 493.939 41.5533 498.261L40.5112 498.259L39.9373 499.197L42.0778 499.203ZM25.977 232.469L21.4109 224.583L20.8495 225.488L25.4344 233.406L25.977 232.469ZM52.5919 480.215L52.1268 480.977L52.6808 481.874L54.2736 479.271H51.0727L51.6562 480.215H52.5919ZM66.6061 461.524L63.9579 457.234L63.4252 458.16C64.3094 459.59 65.1929 461.02 66.0757 462.451L66.6061 461.524ZM52.9427 471.515C52.5802 471.434 52.231 471.302 51.9052 471.123C51.7485 471.027 51.5969 470.923 51.4511 470.811L52.5075 472.635H46.9737L47.5573 473.58H54.1386L52.9427 471.515ZM36.2763 480.215H46.5212L45.9353 479.271H35.7295L36.2763 480.215ZM41.89 486.894L40.1406 486.889L40.9999 488.373L41.89 486.894ZM17.924 151.825C17.0314 153.234 16.1487 154.644 15.2635 156.053L15.9841 157.306L18.6252 153.05L17.924 151.825ZM69.253 439.396L68.289 439.4L66.8017 441.989L65.3206 439.412L64.2418 439.416L66.7435 443.768L69.253 439.396ZM68.2007 450.52L68.522 450.438L68.8429 450.331L69.1573 450.2L69.4694 450.048C69.6193 449.967 69.7738 449.876 69.9308 449.771C70.082 449.67 70.2328 449.559 70.3807 449.442C70.5269 449.324 70.6746 449.197 70.8216 449.058C70.9649 448.923 71.1079 448.777 71.2488 448.624C71.3869 448.475 71.5265 448.312 71.6657 448.138C71.8038 447.966 71.941 447.784 72.075 447.594C72.2041 447.412 72.3358 447.213 72.4694 447C72.6041 446.785 72.734 446.568 72.8531 446.353L85.4893 424.385C85.128 424.386 84.7668 424.387 84.4057 424.388L72.0372 445.893L71.6876 446.481C71.5724 446.665 71.4533 446.845 71.3319 447.018C71.2136 447.187 71.0922 447.349 70.9708 447.503C70.8442 447.662 70.7192 447.811 70.5976 447.945C70.4694 448.086 70.3399 448.219 70.2119 448.342C70.082 448.465 69.9525 448.58 69.8245 448.684C69.6925 448.791 69.5589 448.889 69.4296 448.976C69.2968 449.065 69.1618 449.146 69.0298 449.216L68.7736 449.343L68.5228 449.447L68.4167 449.482L67.7805 450.588L67.8728 450.579L68.2007 450.52ZM10.2337 190.347H9.63735L9.78732 190.592H41.9324L41.5075 191.287H120.744L88.0051 247.832L88.5626 248.743L122.375 190.346L10.2337 190.347ZM27.2403 247.936C26.4 246.469 25.5599 245.001 24.72 243.534L24.1794 244.478L26.6984 248.878L27.2403 247.936ZM75.931 301.37L75.3983 302.29L102.624 346.169L80.3996 346.15L55.6361 346.147L59.4134 340.304L92.2035 340.281L78.4058 317.959L72.1723 307.862L71.6453 308.772L77.601 318.398L90.518 339.342L58.9024 339.363L54.4644 346.23C54.7431 346.496 55.0015 346.782 55.2373 347.086C71.5967 347.1 87.9564 347.107 104.316 347.109L75.931 301.37ZM93.0183 350.201L57.3135 350.347L57.8954 351.284L92.4764 351.143C93.4932 352.9 94.507 354.663 95.5179 356.432L95.7641 356.863L61.5825 357.226L62.1621 358.16L97.3774 357.786C95.9235 355.258 94.4705 352.73 93.0183 350.201ZM42.4303 382.807L41.8978 383.735H72.8117L72.2386 382.807H42.4303ZM62.8682 376.668L63.3845 377.572H69.0048C68.8185 377.271 68.6324 376.969 68.4464 376.668H62.8682ZM27.2771 473.58L26.7362 472.635H21.6845L22.2279 473.58H27.2771ZM8.84736 358.855L10.3102 358.871L16.8047 348.407L15.3003 348.402C13.1067 351.893 10.9557 355.378 8.84736 358.855V358.855ZM5.10524 332.103L6.18404 332.106L7.33928 330.096L13.2245 330.148C12.8488 330.806 12.4727 331.465 12.0963 332.123L13.1792 332.127L14.8382 329.222L6.80241 329.15L5.10524 332.103ZM11.059 343.282H12.1623L15.9555 337.142H14.852L11.059 343.282ZM16.7129 367.486L19.0745 363.408L17.9941 363.404L15.6299 367.487L16.7129 367.486ZM23.4761 314.231L22.9359 313.288L17.8545 313.267L18.397 314.21C20.0903 314.217 21.7832 314.227 23.4761 314.231L23.4761 314.231ZM25.7896 318.272L25.2521 317.333C23.5663 317.334 21.8805 317.335 20.1949 317.336L20.7348 318.274L25.7896 318.272ZM19.0435 332.144L21.684 327.87H21.5108L21.048 327.112L17.9416 332.141L19.0435 332.144ZM46.6406 443.632L47.7442 443.633L45.1766 439.495L44.0759 439.499L46.6406 443.632ZM31.0762 480.215C30.8957 479.9 30.7155 479.585 30.5354 479.271H25.5011L26.0443 480.215H31.0762ZM19.6162 307.49L19.0737 306.543L13.9553 306.488L14.5002 307.436L19.6162 307.49ZM37.2513 465.276L27.6096 465.246L28.1556 466.189C31.3824 466.197 34.6091 466.207 37.8356 466.218L37.2513 465.276ZM6.80826 343.282L10.3149 337.142H9.23051C8.06583 339.192 6.89706 341.239 5.72423 343.282H6.80826ZM17.9593 466.159C19.6519 466.164 21.3443 466.169 23.0366 466.174L22.4963 465.231L17.4162 465.215L17.9593 466.159ZM2.58216 358.789L9.01062 348.384L7.90977 348.38L1.48723 358.777L2.58216 358.789ZM-0.0652618 394.605L2.60309 399.265L3.16253 398.359L0.642029 393.956C0.423149 394.19 0.186699 394.407 -0.065239 394.605H-0.0652618ZM22.1592 239.063C20.6023 236.343 19.0452 233.624 17.488 230.905L16.9259 231.81L21.6159 240.001L22.1592 239.063ZM4.07398 196.652C4.22024 196.857 4.36649 197.075 4.51274 197.303C4.65295 197.523 4.79675 197.763 4.94218 198.015L9.6666 206.174L10.7587 206.186L5.75555 197.545C5.60103 197.273 5.44653 197.02 5.29656 196.784C5.1427 196.544 4.97992 196.305 4.81341 196.072C4.71768 195.939 4.61525 195.811 4.51479 195.681L3.29999 195.677C3.40662 195.799 3.51308 195.919 3.62457 196.057C3.76952 196.238 3.9203 196.438 4.07401 196.652H4.07398ZM1.74404 178.53C1.62736 178.712 1.50823 178.885 1.3912 179.047C1.30633 179.166 1.21366 179.284 1.12163 179.402L2.28027 179.405C2.31062 179.362 2.34276 179.321 2.37262 179.277C2.52419 179.054 2.67269 178.824 2.81277 178.589C2.95235 178.358 3.09095 178.115 3.22601 177.864L8.66679 169.097L7.26874 169.082C5.49108 172.059 3.74544 175.029 2.0885 177.972L1.74404 178.53ZM7.18672 214.801L8.26616 214.8C7.47707 213.421 6.68753 212.043 5.89757 210.664L4.81553 210.66L7.18672 214.801ZM8.45444 224.196L5.65443 219.329L4.57028 219.328L7.36499 224.186L8.45444 224.196ZM5.47482 139.037L6.01675 139.979C6.46257 139.198 6.90842 138.436 7.35428 137.647C8.1729 137.658 8.9969 137.663 9.81878 137.67L9.2772 136.724L6.81693 136.702L5.47482 139.037ZM3.84715 155.726L3.94337 155.875L7.06696 150.406L6.52408 149.46C5.33249 151.549 4.14002 153.637 2.94669 155.725L3.84715 155.726ZM3.77833 164.433L6.37022 160.237L5.26514 160.237L2.67616 164.428L3.77833 164.433ZM23.9928 131.708C19.7701 131.708 15.5473 131.705 11.3244 131.699L11.8695 132.641L22.3091 132.649L16.9224 141.368L17.4564 142.29L23.6778 132.219L23.9928 131.708ZM52.6062 287.77L50.6672 290.944L51.7645 290.945C52.6048 289.57 53.4455 288.196 54.2865 286.823H40.8591L31.8009 286.86L31.7795 286.823H12.7215L13.2699 287.77H52.6062ZM26.7594 256.019L22.1549 248.014L21.6144 248.958L25.678 256.022C26.0385 256.021 26.399 256.02 26.7594 256.019V256.019ZM18.7385 273.715L41.4649 273.784L42.0429 273.785L41.7545 273.282C41.4779 272.8 41.2016 272.317 40.9255 271.834L39.8449 271.838L40.4196 272.841L18.1706 272.771L18.7385 273.715ZM15.8051 250.037L10.9084 241.508L10.3464 242.413L15.2611 250.977L15.8051 250.037ZM7.58849 246.858L7.03944 247.743C7.4533 248.384 7.86958 249.024 8.28297 249.667L5.84492 249.668L5.26146 250.608L10.0105 250.605C9.20266 249.356 8.39531 248.107 7.58842 246.858H7.58849ZM5.31079 233.64L7.86147 238.084L8.42188 237.177L5.8496 232.696L5.31079 233.64ZM2.66645 254.79L13.0287 254.832L13.5712 253.895L3.2477 253.853L2.66645 254.79Z" fill="#E595AF"/>
<path d="M-0.164719 425.653V427.4L32.2443 484.002L-0.164719 483.901V484.778C11.1394 484.814 22.4432 484.848 33.7467 484.878C22.4335 465.141 11.1297 445.4 -0.164719 425.653ZM53.3054 312.766L45.6472 299.44L39.1286 299.499L48.7803 316.401C49.421 317.557 50.3565 318.521 51.491 319.195C52.0653 319.53 52.706 319.735 53.3678 319.794C54.092 319.847 54.816 319.689 55.4527 319.339C56.6175 318.634 57.5572 317.609 58.161 316.385L81.8892 275.132H75.1559L71.4956 281.126L27.7703 281.59L31.3024 287.733L67.761 287.584L53.3054 312.766ZM31.8013 286.86L29.2634 282.446L71.9858 281.991L75.6416 276.006H80.3847L57.4065 315.955C56.8807 317.033 56.062 317.94 55.0449 318.571C54.5523 318.842 53.9921 318.964 53.4319 318.923C52.8973 318.873 52.3801 318.706 51.9168 318.433C50.921 317.843 50.1008 316.995 49.5411 315.979L40.6218 300.357L45.1488 300.316L53.3062 314.509L69.2655 286.706L31.8013 286.86ZM48.4015 332.182C49.0987 333.627 50.1789 334.85 51.5236 335.718C52.1583 336.097 52.8778 336.31 53.6159 336.337C54.3692 336.351 55.1128 336.166 55.7725 335.8C57.1675 334.951 58.3 333.729 59.0437 332.271L97.4952 265.862H7.82878C11.0752 271.175 14.3249 276.488 17.5777 281.799L24.6069 281.778L19.1895 272.774L86.3856 272.563L53.8449 329.396L33.431 296.349L58.4376 296.331L62.4792 290.078C49.0729 290.078 35.6668 290.072 22.261 290.06L48.4015 332.182ZM57.9657 295.46L31.8715 295.479C39.2003 307.354 46.5339 319.226 53.8724 331.094L87.8876 271.688C64.476 271.765 41.0637 271.838 17.6509 271.907L23.0683 280.912L18.0633 280.926L9.38004 266.732H95.987L58.293 331.835C57.629 333.151 56.6155 334.257 55.3645 335.032C54.8365 335.326 54.2408 335.476 53.637 335.467C53.0434 335.443 52.4652 335.27 51.9553 334.964C50.7452 334.17 49.7758 333.057 49.1529 331.748L23.8266 290.932L60.8821 290.949L57.9657 295.46ZM4.90335 424.294C4.15845 422.837 3.02592 421.616 1.63142 420.765C1.07767 420.461 0.465019 420.28 -0.164742 420.235V421.109C0.322136 421.154 0.79464 421.299 1.22354 421.534C2.4742 422.308 3.48738 423.414 4.1512 424.729L41.8452 489.833H-0.164719V490.707H43.3559L4.90335 424.294ZM52.1258 367.659L59.7853 380.985L66.3031 380.926L56.6514 364.024C56.0106 362.868 55.0751 361.904 53.9406 361.231C53.3663 360.895 52.7256 360.691 52.0638 360.631C51.3398 360.578 50.6158 360.736 49.9791 361.086C48.8147 361.792 47.8752 362.816 47.2708 364.039L23.5432 405.294H30.2758L33.9359 399.3L77.6615 398.834L74.1296 392.691L37.6709 392.842L52.1258 367.659ZM73.6304 393.564L76.1682 397.979L33.4468 398.433L29.7902 404.419H25.0469L48.0252 364.47C48.5505 363.392 49.3693 362.485 50.3868 361.854C50.8795 361.584 51.4395 361.461 51.9997 361.502C52.5345 361.552 53.0517 361.719 53.5149 361.992C54.5108 362.583 55.3312 363.43 55.8908 364.446L64.8099 380.069L60.2828 380.109L52.1258 365.916L36.1672 393.719L73.6304 393.564ZM26.6833 511.017L33.7129 511.037L43.4651 495.097H-0.164719V495.971H41.9109L33.2269 510.165L28.2219 510.151L33.6389 501.146C22.371 501.116 11.1032 501.083 -0.164719 501.047V501.912L32.1012 502.013L26.6833 511.017ZM-0.164719 443.227V444.968L13.6191 468.982L-0.164719 468.925V469.796L15.1228 469.859C10.0237 460.983 4.92787 452.106 -0.164719 443.227ZM52.1377 214.969L59.7975 228.295L66.3145 228.236L56.6624 211.334C56.0215 210.178 55.0861 209.214 53.9521 208.541C53.378 208.206 52.7376 208.001 52.076 207.942C51.3518 207.888 50.6275 208.046 49.9903 208.396C48.8255 209.101 47.8859 210.126 47.2821 211.35L23.5544 252.604H30.2868L33.9471 246.61L77.6728 246.144L74.1407 240.002L37.6829 240.152L52.1377 214.969ZM73.6418 240.875L76.1797 245.289L33.4581 245.744L29.8015 251.73H25.0583L48.0366 211.78C48.5621 210.702 49.3809 209.795 50.3982 209.164C50.8909 208.894 51.4509 208.771 52.0111 208.812C52.5457 208.863 53.0627 209.03 53.526 209.303C54.522 209.893 55.3424 210.74 55.902 211.756L64.8213 227.378L60.2943 227.42L52.1377 213.226L36.1792 241.029L73.6418 240.875ZM21.0148 481.435H27.7483L4.01931 440.181C3.41527 438.957 2.47604 437.932 1.31185 437.226C0.85524 436.977 0.352814 436.824 -0.164742 436.776V437.653C0.209534 437.698 0.571915 437.814 0.903023 437.994C1.91937 438.624 2.73715 439.53 3.26162 440.607L26.2432 480.56H21.4997L17.8447 474.573L-0.164719 474.381V475.253L17.3541 475.44L21.0148 481.435ZM97.5976 261.843C94.3528 256.542 91.1089 251.239 87.8659 245.936L80.8363 245.957L86.2544 254.962L19.0568 255.173L51.5979 198.34L72.0121 231.386L47.0055 231.404L42.9645 237.657C56.3703 237.665 69.7765 237.671 83.183 237.675L57.0417 195.553C56.3446 194.109 55.2643 192.885 53.9196 192.017C53.2847 191.638 52.5649 191.425 51.8265 191.398C51.0734 191.385 50.3301 191.57 49.6706 191.935C48.2757 192.785 47.1432 194.006 46.3995 195.464L7.96511 261.843H97.5976ZM47.1501 195.901C47.8141 194.585 48.8275 193.478 50.0786 192.704C50.6067 192.41 51.2023 192.26 51.8061 192.269C52.3995 192.293 52.9774 192.466 53.4871 192.772C54.6978 193.566 55.6676 194.678 56.2903 195.988L81.6164 236.803L44.561 236.786L47.4772 232.275L73.5716 232.256C66.2331 220.389 58.8995 208.517 51.5708 196.641C40.2245 216.439 28.886 236.241 17.5552 256.048C40.9676 255.986 64.3802 255.912 87.7928 255.827L82.3748 246.823L87.3798 246.809L96.0631 261.002H9.45615L47.1501 195.901ZM80.8252 398.647L86.2423 407.652L19.0455 407.862L51.5869 351.029L72.0009 384.077L46.994 384.093L42.9532 390.346C56.3587 390.355 69.7649 390.362 83.1716 390.365L57.0305 348.242C56.3329 346.799 55.2527 345.576 53.9084 344.708C53.2734 344.328 52.5537 344.115 51.8152 344.087C51.0622 344.074 50.3189 344.259 49.6594 344.624C48.2648 345.475 47.1324 346.697 46.388 348.154L7.95393 414.533H97.5858C94.3421 409.231 91.0984 403.929 87.8547 398.626L80.8252 398.647ZM9.44497 413.692L47.1389 348.591C47.803 347.275 48.8163 346.168 50.0671 345.393C50.5953 345.099 51.191 344.95 51.7948 344.959C52.3881 344.983 52.9659 345.156 53.4755 345.462C54.6859 346.256 55.6555 347.368 56.2782 348.678L81.6054 389.493L44.5498 389.476L47.466 384.965L73.5603 384.946C66.2217 373.078 58.8881 361.207 51.5596 349.331C40.2133 369.128 28.8747 388.931 17.544 408.737C40.9557 408.675 64.368 408.602 87.7809 408.518L82.3635 399.514L87.3685 399.499L96.0517 413.692L9.44497 413.692ZM-0.164719 524.704V525.575L17.8592 525.588L-0.164719 554.766V556.42L19.4187 524.718L-0.164719 524.704ZM2.88779 561.422L29.0305 519.299C19.2987 519.305 9.567 519.31 -0.164719 519.315V520.184L27.4643 520.172L2.13716 560.987C1.58508 562.102 0.799973 563.086 -0.164719 563.87V564.917C1.14594 564.047 2.20009 562.84 2.88779 561.422V561.422ZM52.1143 520.349L59.7742 533.675L66.2919 533.616L56.6394 516.714C55.9985 515.558 55.0633 514.594 53.9295 513.921C53.3551 513.585 52.7145 513.381 52.0527 513.321C51.3282 513.268 50.604 513.426 49.9668 513.776C48.8023 514.482 47.8627 515.506 47.2586 516.73L23.5318 557.984H30.2643L33.9246 551.99L77.6502 551.524L74.1181 545.381L37.6596 545.531L52.1143 520.349ZM73.6193 546.255L76.157 550.668L33.4348 551.124L29.779 557.109H25.0355L48.014 517.16C48.5395 516.082 49.3582 515.175 50.3756 514.544C50.8683 514.273 51.4284 514.151 51.9886 514.192C52.5231 514.242 53.0402 514.409 53.5034 514.682C54.4991 515.273 55.3194 516.12 55.8794 517.136L64.7988 532.759L60.2708 532.799L52.1144 518.606L36.1559 546.409L73.6193 546.255ZM80.8129 551.336L86.2311 560.341L19.0342 560.552L51.5753 503.72L71.9896 536.766L46.9828 536.784L42.9419 543.035C56.3474 543.045 69.7536 543.051 83.1604 543.055L57.019 500.933C56.3217 499.489 55.2415 498.266 53.897 497.397C53.2625 497.018 52.5433 496.805 51.8053 496.777C51.0517 496.763 50.3077 496.949 49.6481 497.315C48.253 498.165 47.1203 499.386 46.3761 500.844L8.65033 566H9.65528L47.1275 501.28C47.7912 499.964 48.8047 498.857 50.0559 498.083C50.5835 497.789 51.1787 497.639 51.782 497.648C52.3759 497.672 52.9545 497.845 53.4644 498.152C54.675 498.945 55.6445 500.058 56.2668 501.368L81.5939 542.182L44.539 542.166L47.4546 537.655L73.5483 537.636C66.2098 525.768 58.8765 513.896 51.5483 502.021C40.202 521.818 28.8634 541.62 17.5325 561.427C40.9446 561.365 64.3568 561.292 87.7693 561.207L82.3514 552.203L87.3572 552.188L95.8068 566H96.8261C93.8305 561.106 90.8363 556.211 87.8433 551.316L80.8129 551.336ZM4.31843 154.854L-0.164803 154.852V155.723L3.84737 155.726L6.76372 160.237L-0.164803 160.24V161.112L8.36027 161.107L4.31843 154.854ZM23.5198 510.83L-0.164803 510.578V511.449L22.0272 511.686L19.4893 516.1L-0.164818 516.019V516.89L19.9885 516.972L23.5198 510.83ZM17.5665 434.489L24.5953 434.468L19.1775 425.463L86.3742 425.253L53.8337 482.085L33.4189 449.038L58.4263 449.02L62.4673 442.768C49.0608 442.768 35.6547 442.762 22.249 442.75L48.3901 484.872C49.0874 486.316 50.1675 487.539 51.512 488.407C52.1465 488.786 52.8655 489 53.6033 489.028C54.3571 489.041 55.1013 488.856 55.761 488.49C57.1563 487.64 58.2889 486.419 59.0325 484.961L97.4785 418.562H7.82278C11.0678 423.872 14.3157 429.181 17.5665 434.489H17.5665ZM58.2817 484.524C57.6174 485.84 56.6042 486.947 55.3535 487.722C54.8258 488.016 54.2305 488.166 53.6271 488.156C53.0329 488.133 52.4541 487.96 51.9439 487.653C50.7338 486.859 49.7643 485.747 49.1415 484.437L23.8144 443.622L60.87 443.638L57.9544 448.15L31.86 448.168C39.189 460.044 46.5226 471.915 53.8608 483.783L87.8766 424.377C64.4639 424.454 41.0516 424.527 17.6397 424.596L23.0571 433.601L18.0518 433.616L9.3685 419.422H95.9756L58.2817 484.524ZM53.2939 465.456L45.6352 452.13L39.1171 452.188L48.7692 469.091C49.4098 470.247 50.3453 471.211 51.4796 471.884C52.054 472.219 52.6948 472.424 53.3567 472.484C54.0808 472.537 54.8048 472.379 55.4414 472.028C56.606 471.323 57.5456 470.298 58.1497 469.075L81.8782 427.822H75.1448L71.4838 433.816L27.7589 434.281L31.291 440.423L67.7489 440.273L53.2939 465.456ZM31.79 439.55L29.252 435.136L71.9743 434.681L75.6296 428.695H80.3737L57.3953 468.644C56.8692 469.722 56.0507 470.629 55.0338 471.261C54.5412 471.532 53.981 471.654 53.4208 471.612C52.8862 471.562 52.3689 471.395 51.9056 471.123C50.91 470.532 50.0897 469.685 49.5298 468.67L40.6107 453.046L45.1376 453.005L53.2947 467.198L69.2533 439.396L31.79 439.55ZM2.50783 545.639L12.1628 528.738L5.64375 528.679L-0.164742 538.785V540.527L6.14098 529.555L10.6688 529.596L1.74976 545.218C1.27795 546.071 0.624153 546.808 -0.164803 547.377V548.413C0.953308 547.74 1.87508 546.783 2.50783 545.639ZM26.7067 205.637L33.7355 205.658L43.4877 189.718H-0.164719V190.592H41.9327L33.2499 204.786L28.2444 204.771L33.6631 195.766C22.3869 195.737 11.111 195.704 -0.164742 195.667V196.532L32.1239 196.633L26.7067 205.637ZM4.91406 271.604C4.17019 270.147 3.03764 268.925 1.64262 268.076C1.08555 267.77 0.46891 267.588 -0.164742 267.545V268.418C0.326134 268.461 0.802734 268.606 1.23492 268.844C2.48521 269.618 3.49822 270.724 4.1623 272.039L41.8564 337.142H-0.164742V338.018H43.3677L4.91406 271.604ZM26.6953 358.327L33.7248 358.348L43.4763 342.408H-0.164742V343.282H41.922L33.2387 357.476L28.2329 357.461L33.6509 348.456C22.3793 348.427 11.1074 348.393 -0.16478 348.356V349.222L32.1126 349.323L26.6953 358.327ZM-0.164719 290.516V292.259L13.6311 316.293L-0.164719 316.235V317.107L15.1348 317.169C10.032 308.288 4.93214 299.403 -0.164719 290.516V290.516ZM21.0264 328.745H27.7597L4.03051 287.491C3.42651 286.267 2.48698 285.242 1.3224 284.536C0.862259 284.286 0.356323 284.132 -0.164742 284.085V284.962C0.213478 285.006 0.579788 285.123 0.914528 285.305C1.93103 285.934 2.74887 286.84 3.27315 287.917L26.2552 327.87H21.511L17.8559 321.885L-0.16478 321.692V322.563L17.366 322.75L21.0264 328.745ZM-0.164719 272.943V274.691L32.256 331.313L-0.164742 331.211V332.087C11.1431 332.124 22.4507 332.157 33.758 332.188C22.4413 312.445 11.1337 292.697 -0.164719 272.943V272.943ZM2.89978 408.732L29.0411 366.61C19.3055 366.616 9.57018 366.621 -0.164803 366.625V367.494L27.4754 367.481L2.14752 408.297C1.59393 409.417 0.805084 410.404 -0.164742 411.188V412.234C1.15129 411.364 2.20978 410.154 2.89978 408.732ZM23.5318 358.141L-0.164719 357.888V358.76L22.0387 358.996L19.5001 363.41L-0.164635 363.328V364.2L19.9998 364.283L23.5318 358.141ZM-0.164719 372.014V372.885L17.871 372.897L-0.164719 402.094V403.746C6.36405 393.172 12.8956 382.599 19.4299 372.028L-0.164719 372.014ZM2.51937 392.95L12.1733 376.048L5.65498 375.989L-0.164719 386.115V387.857L6.15329 376.865L10.6796 376.905L1.7602 392.529C1.28607 393.385 0.628685 394.125 -0.164658 394.696V395.73C0.958504 395.057 1.88445 394.098 2.51929 392.95L2.51937 392.95ZM-0.164719 219.324V220.195L17.8826 220.209L-0.164719 249.423V251.077L19.442 219.338L-0.164719 219.324ZM4.30806 307.544L-0.164719 307.541V308.413L3.8361 308.415L6.75146 312.927L-0.164864 312.93V313.802L8.34866 313.797L4.30806 307.544ZM-0.164719 120.234V121.981L32.268 178.622L-0.164719 178.521V179.398C11.146 179.434 22.4576 179.468 33.7701 179.499C22.4494 159.749 11.1378 139.994 -0.164719 120.234ZM4.92609 118.915C4.18133 117.457 3.04871 116.236 1.654 115.386C1.0935 115.078 0.472786 114.896 -0.164818 114.854V115.727C0.330078 115.769 0.810707 115.914 1.24604 116.154C2.49712 116.928 3.51062 118.035 4.17455 119.35L41.8686 184.453H-0.164719V185.328H43.379L4.92609 118.915ZM21.0378 176.055H27.7704L4.04106 134.801C3.43812 133.577 2.49897 132.552 1.33443 131.847C0.870918 131.594 0.360672 131.44 -0.164719 131.393V132.27C0.217537 132.314 0.587868 132.431 0.925926 132.615C1.9422 133.245 2.75989 134.151 3.28429 135.228L26.2664 175.18H21.5222L17.8681 169.195L-0.164742 169.002V169.874L17.3773 170.061L21.0378 176.055ZM4.29668 460.234L-0.164742 460.231V461.103L3.82405 461.106L6.74039 465.616L-0.164742 465.619V466.492L8.33759 466.486L4.29668 460.234ZM23.5432 205.45L-0.164658 205.198V206.069L22.0499 206.306L19.5121 210.72L-0.164658 210.639V211.51L20.0111 211.593L23.5432 205.45ZM2.9113 256.042L29.053 213.92C19.3138 213.926 9.57455 213.931 -0.164742 213.937V214.804L27.4868 214.792L2.15968 255.607C1.60419 256.732 0.810928 257.721 -0.16478 258.507V259.551C1.1574 258.681 2.22038 257.469 2.91132 256.042H2.9113ZM-0.164742 137.807V139.548L13.6418 163.603L-0.164742 163.545V164.416L15.1463 164.48C10.0387 155.591 4.93497 146.7 -0.164719 137.807H-0.164742ZM2.53039 240.26L12.1849 223.358L5.6668 223.299L-0.164719 233.446V235.187L6.16443 224.175L10.6916 224.216L1.77229 239.838C1.29596 240.699 0.634209 241.443 -0.164719 242.014V243.047C0.963608 242.374 1.89365 241.412 2.53041 240.26H2.53039Z" fill="#B1BDCB"/>
</svg>
