<svg width="123" height="566" viewBox="0 0 123 566" fill="none" xmlns="http://www.w3.org/2000/svg">
<path d="M0.335312 425.653V427.4L32.7444 484.002L0.335312 483.901V484.778C11.6394 484.814 22.9432 484.848 34.2468 484.878C22.9336 465.141 11.6298 445.4 0.335312 425.653ZM53.8054 312.766L46.1472 299.44L39.6286 299.499L49.2804 316.401C49.921 317.557 50.8566 318.521 51.9911 319.195C52.5654 319.53 53.2061 319.735 53.8679 319.794C54.592 319.847 55.316 319.689 55.9528 319.339C57.1175 318.634 58.0572 317.609 58.661 316.385L82.3892 275.132H75.6559L71.9956 281.126L28.2703 281.59L31.8024 287.733L68.261 287.584L53.8054 312.766ZM32.3013 286.86L29.7634 282.446L72.4859 281.991L76.1416 276.006H80.8848L57.9066 315.955C57.3807 317.033 56.5621 317.94 55.545 318.571C55.0523 318.842 54.4921 318.964 53.9319 318.923C53.3973 318.873 52.8802 318.706 52.4168 318.433C51.4211 317.843 50.6008 316.995 50.0411 315.979L41.1218 300.357L45.6488 300.316L53.8063 314.509L69.7656 286.706L32.3013 286.86ZM48.9015 332.182C49.5987 333.627 50.679 334.85 52.0236 335.718C52.6583 336.097 53.3778 336.31 54.116 336.337C54.8692 336.351 55.6128 336.166 56.2725 335.8C57.6676 334.951 58.8001 333.729 59.5437 332.271L97.9952 265.862H8.32881C11.5753 271.175 14.8249 276.488 18.0778 281.799L25.1069 281.778L19.6895 272.774L86.8856 272.563L54.3449 329.396L33.9311 296.349L58.9377 296.331L62.9792 290.078C49.5729 290.078 36.1668 290.072 22.761 290.06L48.9015 332.182ZM58.4657 295.46L32.3716 295.479C39.7003 307.354 47.0339 319.226 54.3724 331.094L88.3877 271.688C64.976 271.765 41.5637 271.838 18.151 271.907L23.5683 280.912L18.5634 280.926L9.88007 266.732H96.487L58.7931 331.835C58.129 333.151 57.1156 334.257 55.8645 335.032C55.3365 335.326 54.7409 335.476 54.137 335.467C53.5434 335.443 52.9652 335.27 52.4553 334.964C51.2452 334.17 50.2758 333.057 49.6529 331.748L24.3267 290.932L61.3821 290.949L58.4657 295.46ZM5.40338 424.294C4.65849 422.837 3.52595 421.616 2.13145 420.765C1.57771 420.461 0.96505 420.28 0.335289 420.235V421.109C0.822166 421.154 1.29467 421.299 1.72357 421.534C2.97423 422.308 3.98741 423.414 4.65123 424.729L42.3452 489.833H0.335312V490.707H43.8559L5.40338 424.294ZM52.6259 367.659L60.2854 380.985L66.8031 380.926L57.1514 364.024C56.5107 362.868 55.5751 361.904 54.4407 361.231C53.8663 360.895 53.2256 360.691 52.5639 360.631C51.8398 360.578 51.1159 360.736 50.4791 361.086C49.3148 361.792 48.3752 362.816 47.7709 364.039L24.0432 405.294H30.7758L34.436 399.3L78.1616 398.834L74.6296 392.691L38.1709 392.842L52.6259 367.659ZM74.1304 393.564L76.6683 397.979L33.9468 398.433L30.2902 404.419H25.5469L48.5252 364.47C49.0505 363.392 49.8693 362.485 50.8868 361.854C51.3795 361.584 51.9395 361.461 52.4998 361.502C53.0345 361.552 53.5517 361.719 54.015 361.992C55.0109 362.583 55.8312 363.43 56.3909 364.446L65.31 380.069L60.7828 380.109L52.6259 365.916L36.6673 393.719L74.1304 393.564ZM27.1833 511.017L34.213 511.037L43.9651 495.097H0.335312V495.971H42.411L33.7269 510.165L28.7219 510.151L34.139 501.146C22.8711 501.116 11.6032 501.083 0.335312 501.047V501.912L32.6012 502.013L27.1833 511.017ZM0.335312 443.227V444.968L14.1191 468.982L0.335312 468.925V469.796L15.6228 469.859C10.5237 460.983 5.4279 452.106 0.335312 443.227ZM52.6377 214.969L60.2976 228.295L66.8145 228.236L57.1625 211.334C56.5215 210.178 55.5862 209.214 54.4521 208.541C53.878 208.206 53.2376 208.001 52.5761 207.942C51.8518 207.888 51.1276 208.046 50.4904 208.396C49.3256 209.101 48.3859 210.126 47.7821 211.35L24.0544 252.604H30.7868L34.4472 246.61L78.1728 246.144L74.6407 240.002L38.183 240.152L52.6377 214.969ZM74.1418 240.875L76.6797 245.289L33.9581 245.744L30.3015 251.73H25.5584L48.5366 211.78C49.0622 210.702 49.8809 209.795 50.8982 209.164C51.3909 208.894 51.9509 208.771 52.5111 208.812C53.0457 208.863 53.5628 209.03 54.026 209.303C55.0221 209.893 55.8425 210.74 56.4021 211.756L65.3213 227.378L60.7943 227.42L52.6377 213.226L36.6793 241.029L74.1418 240.875ZM21.5148 481.435H28.2483L4.51934 440.181C3.9153 438.957 2.97607 437.932 1.81188 437.226C1.35527 436.977 0.852844 436.824 0.335289 436.776V437.653C0.709564 437.698 1.07195 437.814 1.40305 437.994C2.4194 438.624 3.23718 439.53 3.76165 440.607L26.7432 480.56H21.9997L18.3447 474.573L0.335312 474.381V475.253L17.8541 475.44L21.5148 481.435ZM98.0977 261.843C94.8528 256.542 91.6089 251.239 88.3659 245.936L81.3363 245.957L86.7545 254.962L19.5568 255.173L52.0979 198.34L72.5121 231.386L47.5055 231.404L43.4645 237.657C56.8703 237.665 70.2765 237.671 83.683 237.675L57.5418 195.553C56.8446 194.109 55.7643 192.885 54.4196 192.017C53.7848 191.638 53.0649 191.425 52.3265 191.398C51.5735 191.385 50.8301 191.57 50.1707 191.935C48.7757 192.785 47.6433 194.006 46.8996 195.464L8.46514 261.843H98.0977ZM47.6501 195.901C48.3141 194.585 49.3276 193.478 50.5787 192.704C51.1068 192.41 51.7024 192.26 52.3062 192.269C52.8995 192.293 53.4774 192.466 53.9871 192.772C55.1978 193.566 56.1676 194.678 56.7903 195.988L82.1165 236.803L45.061 236.786L47.9772 232.275L74.0717 232.256C66.7332 220.389 59.3996 208.517 52.0708 196.641C40.7246 216.439 29.386 236.241 18.0552 256.048C41.4677 255.986 64.8802 255.912 88.2929 255.827L82.8749 246.823L87.8798 246.809L96.5631 261.002H9.95618L47.6501 195.901ZM81.3253 398.647L86.7423 407.652L19.5456 407.862L52.0869 351.029L72.5009 384.077L47.494 384.093L43.4533 390.346C56.8588 390.355 70.2649 390.362 83.6716 390.365L57.5305 348.242C56.8329 346.799 55.7527 345.576 54.4084 344.708C53.7735 344.328 53.0537 344.115 52.3153 344.087C51.5622 344.074 50.819 344.259 50.1595 344.624C48.7649 345.475 47.6325 346.697 46.888 348.154L8.45396 414.533H98.0858C94.8421 409.231 91.5984 403.929 88.3547 398.626L81.3253 398.647ZM9.945 413.692L47.639 348.591C48.303 347.275 49.3163 346.168 50.5671 345.393C51.0953 345.099 51.691 344.95 52.2948 344.959C52.8881 344.983 53.4659 345.156 53.9756 345.462C55.1859 346.256 56.1555 347.368 56.7783 348.678L82.1054 389.493L45.0498 389.476L47.966 384.965L74.0603 384.946C66.7217 373.078 59.3881 361.207 52.0597 349.331C40.7133 369.128 29.3748 388.931 18.044 408.737C41.4557 408.675 64.868 408.602 88.2809 408.518L82.8635 399.514L87.8685 399.499L96.5518 413.692L9.945 413.692ZM0.335312 524.704V525.575L18.3592 525.588L0.335312 554.766V556.42L19.9187 524.718L0.335312 524.704ZM3.38782 561.422L29.5305 519.299C19.7988 519.305 10.067 519.31 0.335312 519.315V520.184L27.9643 520.172L2.63719 560.987C2.08511 562.102 1.3 563.086 0.335312 563.87V564.917C1.64597 564.047 2.70012 562.84 3.38782 561.422V561.422ZM52.6144 520.349L60.2742 533.675L66.7919 533.616L57.1394 516.714C56.4985 515.558 55.5634 514.594 54.4295 513.921C53.8551 513.585 53.2145 513.381 52.5527 513.321C51.8283 513.268 51.1041 513.426 50.4669 513.776C49.3023 514.482 48.3627 515.506 47.7586 516.73L24.0318 557.984H30.7643L34.4246 551.99L78.1502 551.524L74.6181 545.381L38.1596 545.531L52.6144 520.349ZM74.1194 546.255L76.6571 550.668L33.9348 551.124L30.279 557.109H25.5355L48.5141 517.16C49.0395 516.082 49.8583 515.175 50.8757 514.544C51.3683 514.273 51.9284 514.151 52.4886 514.192C53.0231 514.242 53.5403 514.409 54.0035 514.682C54.9992 515.273 55.8194 516.12 56.3794 517.136L65.2988 532.759L60.7709 532.799L52.6144 518.606L36.6559 546.409L74.1194 546.255ZM81.3129 551.336L86.7311 560.341L19.5342 560.552L52.0754 503.72L72.4896 536.766L47.4828 536.784L43.4419 543.035C56.8474 543.045 70.2536 543.051 83.6604 543.055L57.519 500.933C56.8217 499.489 55.7416 498.266 54.3971 497.397C53.7625 497.018 53.0433 496.805 52.3054 496.777C51.5517 496.763 50.8078 496.949 50.1481 497.315C48.753 498.165 47.6203 499.386 46.8762 500.844L9.15036 566H10.1553L47.6276 501.28C48.2912 499.964 49.3047 498.857 50.556 498.083C51.0835 497.789 51.6787 497.639 52.282 497.648C52.876 497.672 53.4545 497.845 53.9644 498.152C55.175 498.945 56.1446 500.058 56.7668 501.368L82.0939 542.182L45.0391 542.166L47.9546 537.655L74.0483 537.636C66.7098 525.768 59.3765 513.896 52.0483 502.021C40.702 521.818 29.3634 541.62 18.0326 561.427C41.4446 561.365 64.8568 561.292 88.2693 561.207L82.8514 552.203L87.8572 552.188L96.3069 566H97.3261C94.3306 561.106 91.3363 556.211 88.3434 551.316L81.3129 551.336ZM4.81846 154.854L0.335228 154.852V155.723L4.3474 155.726L7.26375 160.237L0.335228 160.24V161.112L8.8603 161.107L4.81846 154.854ZM24.0198 510.83L0.335228 510.578V511.449L22.5273 511.686L19.9894 516.1L0.335213 516.019V516.89L20.4885 516.972L24.0198 510.83ZM18.0665 434.489L25.0953 434.468L19.6775 425.463L86.8742 425.253L54.3338 482.085L33.9189 449.038L58.9263 449.02L62.9674 442.768C49.5609 442.768 36.1548 442.762 22.749 442.75L48.8901 484.872C49.5874 486.316 50.6676 487.539 52.0121 488.407C52.6465 488.786 53.3655 489 54.1033 489.028C54.8571 489.041 55.6013 488.856 56.261 488.49C57.6563 487.64 58.7889 486.419 59.5325 484.961L97.9785 418.562H8.32281C11.5678 423.872 14.8158 429.181 18.0666 434.489H18.0665ZM58.7817 484.524C58.1175 485.84 57.1042 486.947 55.8535 487.722C55.3258 488.016 54.7305 488.166 54.1271 488.156C53.5329 488.133 52.9541 487.96 52.4439 487.653C51.2338 486.859 50.2644 485.747 49.6415 484.437L24.3144 443.622L61.37 443.638L58.4545 448.15L32.36 448.168C39.6891 460.044 47.0227 471.915 54.3608 483.783L88.3766 424.377C64.964 424.454 41.5517 424.527 18.1397 424.596L23.5571 433.601L18.5518 433.616L9.86853 419.422H96.4756L58.7817 484.524ZM53.7939 465.456L46.1352 452.13L39.6172 452.188L49.2692 469.091C49.9099 470.247 50.8453 471.211 51.9796 471.884C52.554 472.219 53.1948 472.424 53.8567 472.484C54.5809 472.537 55.3049 472.379 55.9415 472.028C57.106 471.323 58.0456 470.298 58.6497 469.075L82.3783 427.822H75.6448L71.9838 433.816L28.2589 434.281L31.791 440.423L68.2489 440.273L53.7939 465.456ZM32.2901 439.55L29.752 435.136L72.4743 434.681L76.1296 428.695H80.8737L57.8954 468.644C57.3693 469.722 56.5507 470.629 55.5338 471.261C55.0413 471.532 54.4811 471.654 53.9209 471.612C53.3862 471.562 52.8689 471.395 52.4057 471.123C51.41 470.532 50.5897 469.685 50.0298 468.67L41.1107 453.046L45.6377 453.005L53.7948 467.198L69.7534 439.396L32.2901 439.55ZM3.00786 545.639L12.6628 528.738L6.14378 528.679L0.335289 538.785V540.527L6.64101 529.555L11.1688 529.596L2.24979 545.218C1.77798 546.071 1.12418 546.808 0.335228 547.377V548.413C1.45334 547.74 2.37511 546.783 3.00786 545.639ZM27.2067 205.637L34.2355 205.658L43.9877 189.718H0.335312V190.592H42.4327L33.7499 204.786L28.7445 204.771L34.1631 195.766C22.887 195.737 11.611 195.704 0.335289 195.667V196.532L32.6239 196.633L27.2067 205.637ZM5.41409 271.604C4.67022 270.147 3.53767 268.925 2.14265 268.076C1.58558 267.77 0.968941 267.588 0.335289 267.545V268.418C0.826164 268.461 1.30276 268.606 1.73495 268.844C2.98524 269.618 3.99825 270.724 4.66233 272.039L42.3564 337.142H0.335289V338.018H43.8678L5.41409 271.604ZM27.1954 358.327L34.2248 358.348L43.9764 342.408H0.335289V343.282H42.422L33.7387 357.476L28.733 357.461L34.151 348.456C22.8793 348.427 11.6074 348.393 0.335251 348.356V349.222L32.6127 349.323L27.1954 358.327ZM0.335312 290.516V292.259L14.1311 316.293L0.335312 316.235V317.107L15.6348 317.169C10.532 308.288 5.43217 299.403 0.335312 290.516V290.516ZM21.5264 328.745H28.2597L4.53054 287.491C3.92654 286.267 2.98701 285.242 1.82243 284.536C1.36229 284.286 0.856354 284.132 0.335289 284.085V284.962C0.713509 285.006 1.07982 285.123 1.41456 285.305C2.43106 285.934 3.2489 286.84 3.77318 287.917L26.7552 327.87H22.0111L18.3559 321.885L0.335251 321.692V322.563L17.8661 322.75L21.5264 328.745ZM0.335312 272.943V274.691L32.756 331.313L0.335289 331.211V332.087C11.6431 332.124 22.9507 332.157 34.2581 332.188C22.9413 312.445 11.6338 292.697 0.335312 272.943V272.943ZM3.39981 408.732L29.5411 366.61C19.8055 366.616 10.0702 366.621 0.335228 366.625V367.494L27.9754 367.481L2.64755 408.297C2.09396 409.417 1.30511 410.404 0.335289 411.188V412.234C1.65132 411.364 2.70981 410.154 3.39981 408.732ZM24.0318 358.141L0.335312 357.888V358.76L22.5388 358.996L20.0001 363.41L0.335396 363.328V364.2L20.4998 364.283L24.0318 358.141ZM0.335312 372.014V372.885L18.371 372.897L0.335312 402.094V403.746C6.86408 393.172 13.3956 382.599 19.9299 372.028L0.335312 372.014ZM3.0194 392.95L12.6734 376.048L6.15501 375.989L0.335312 386.115V387.857L6.65332 376.865L11.1797 376.905L2.26023 392.529C1.7861 393.385 1.12872 394.125 0.335373 394.696V395.73C1.45853 395.057 2.38448 394.098 3.01932 392.95L3.0194 392.95ZM0.335312 219.324V220.195L18.3826 220.209L0.335312 249.423V251.077L19.9421 219.338L0.335312 219.324ZM4.80809 307.544L0.335312 307.541V308.413L4.33613 308.415L7.2515 312.927L0.335167 312.93V313.802L8.84869 313.797L4.80809 307.544ZM0.335312 120.234V121.981L32.768 178.622L0.335312 178.521V179.398C11.646 179.434 22.9576 179.468 34.2701 179.499C22.9495 159.749 11.6379 139.994 0.335312 120.234ZM5.42612 118.915C4.68136 117.457 3.54874 116.236 2.15403 115.386C1.59353 115.078 0.972816 114.896 0.335213 114.854V115.727C0.830109 115.769 1.31074 115.914 1.74607 116.154C2.99715 116.928 4.01065 118.035 4.67458 119.35L42.3686 184.453H0.335312V185.328H43.879L5.42612 118.915ZM21.5378 176.055H28.2704L4.54109 134.801C3.93815 133.577 2.999 132.552 1.83447 131.847C1.37095 131.594 0.860703 131.44 0.335312 131.393V132.27C0.717567 132.314 1.0879 132.431 1.42596 132.615C2.44223 133.245 3.25992 134.151 3.78432 135.228L26.7664 175.18H22.0223L18.3681 169.195L0.335289 169.002V169.874L17.8773 170.061L21.5378 176.055ZM4.79671 460.234L0.335289 460.231V461.103L4.32408 461.106L7.24042 465.616L0.335289 465.619V466.492L8.83762 466.486L4.79671 460.234ZM24.0433 205.45L0.335373 205.198V206.069L22.5499 206.306L20.0121 210.72L0.335373 210.639V211.51L20.5111 211.593L24.0433 205.45ZM3.41133 256.042L29.553 213.92C19.8138 213.926 10.0746 213.931 0.335289 213.937V214.804L27.9868 214.792L2.65971 255.607C2.10422 256.732 1.31096 257.721 0.335251 258.507V259.551C1.65743 258.681 2.72041 257.469 3.41135 256.042H3.41133ZM0.335289 137.807V139.548L14.1418 163.603L0.335289 163.545V164.416L15.6464 164.48C10.5387 155.591 5.435 146.7 0.335312 137.807H0.335289ZM3.03042 240.26L12.6849 223.358L6.16683 223.299L0.335312 233.446V235.187L6.66446 224.175L11.1916 224.216L2.27232 239.838C1.79599 240.699 1.13424 241.443 0.335312 242.014V243.047C1.46364 242.374 2.39368 241.412 3.03044 240.26H3.03042Z" fill="white"/>
</svg>
