<svg width="33" height="32" viewBox="0 0 33 32" fill="none" xmlns="http://www.w3.org/2000/svg">
<path class="str" d="M23.885 16.4375V21.7172H21.8475V16.8C21.8475 16.1257 21.7322 15.4813 21.4061 14.9915C21.0579 14.4684 20.5099 14.1828 19.8084 14.1828C18.6921 14.1828 18.0518 14.9649 17.7866 15.634C17.6659 15.9312 17.6491 16.2992 17.6491 16.5797V21.7156H15.61V15.5594C15.61 14.5639 15.5842 13.7007 15.5528 12.9406H17.218L17.311 13.8494L17.357 14.2984H17.8084H17.8694H18.1459L18.2929 14.0642C18.6257 13.5338 19.4623 12.7203 20.8881 12.7203C21.772 12.7203 22.5009 13.013 23.0142 13.5839C23.5325 14.1605 23.885 15.0814 23.885 16.4375ZM16.9631 0.5C8.40262 0.5 1.46313 7.43948 1.46313 16C1.46313 24.5605 8.40262 31.5 16.9631 31.5C25.5237 31.5 32.4631 24.5605 32.4631 16C32.4631 7.43948 25.5237 0.5 16.9631 0.5ZM12.7913 21.7172H10.7538V12.9422H12.7913V21.7172ZM11.7538 10.7422C11.0705 10.7422 10.6741 10.2864 10.6741 9.72187C10.6741 9.42082 10.7842 9.17404 10.9631 9.00157C11.1421 8.82904 11.4177 8.70469 11.7928 8.70469C12.1663 8.70469 12.4298 8.82784 12.6006 8.99692C12.7723 9.16693 12.8832 9.41597 12.8912 9.72729C12.8899 10.02 12.7832 10.2659 12.6055 10.4393C12.4277 10.6127 12.1487 10.7422 11.7538 10.7422Z" stroke="#4B5765"/>
<path class="path" d="M13.2913 22.2172H10.2538V12.4422H13.2913V22.2172ZM11.7538 11.2422C10.7944 11.2422 10.1741 10.5625 10.1741 9.7219C10.1741 8.86409 10.8131 8.20471 11.7928 8.20471C12.7725 8.20471 13.3725 8.86409 13.3913 9.7219C13.3913 10.5625 12.7725 11.2422 11.7538 11.2422ZM24.385 22.2172H21.3475V16.8C21.3475 15.5391 20.9069 14.6828 19.8084 14.6828C18.9694 14.6828 18.4709 15.2625 18.2506 15.8203C18.1694 16.0188 18.1491 16.3 18.1491 16.5797V22.2156H15.11V15.5594C15.11 14.3391 15.0709 13.3188 15.0303 12.4406H17.6694L17.8084 13.7985H17.8694C18.2694 13.161 19.2491 12.2203 20.8881 12.2203C22.8866 12.2203 24.385 13.5594 24.385 16.4375V22.2172Z" fill="#4B5765"/>
</svg>
