<svg width="50" height="50" viewBox="0 0 50 50" fill="none" xmlns="http://www.w3.org/2000/svg">
<circle cx="25" cy="25" r="25" fill="#00AEEF"/>
<path d="M22.8571 23.9V20.6L28.3333 25L22.8571 29.4V26.1H13V23.9H22.8571ZM14.5969 28.3H16.9231C17.6877 30.191 19.0826 31.7564 20.8694 32.7285C22.6562 33.7006 24.7238 34.019 26.7185 33.6292C28.7131 33.2394 30.511 32.1656 31.8045 30.5916C33.098 29.0175 33.8067 27.0409 33.8095 25C33.8107 22.9569 33.1039 20.9771 31.8106 19.4001C30.5173 17.8232 28.7179 16.7473 26.7211 16.3571C24.7243 15.9669 22.6546 16.2866 20.8669 17.2615C19.0791 18.2363 17.6848 19.8056 16.9231 21.7H14.5969C15.9922 17.2373 20.1431 14 25.0476 14C31.0966 14 36 18.9247 36 25C36 31.0753 31.0966 36 25.0476 36C20.1431 36 15.9922 32.7627 14.5969 28.3Z" fill="white"/>
</svg>
