<svg width="184" height="30" viewBox="0 0 184 30" fill="none" xmlns="http://www.w3.org/2000/svg">
<path fill-rule="evenodd" clip-rule="evenodd" d="M5.99927 26H7.55482L8.66593 24.1319C8.71038 24.0863 8.66594 24.1319 8.71038 24.0863H25.9993C25.8659 23.8129 25.6882 23.5851 25.5548 23.3117C25.4215 23.0384 25.2437 22.765 25.1104 22.5372H9.42149C9.46593 22.446 9.77705 21.8537 9.86593 21.717L11.2437 19.3021C11.8215 18.2086 12.4882 17.1606 13.0659 16.0671C13.1993 15.7937 13.377 15.5659 13.5104 15.2925L16.2659 10.4628C16.3548 10.3261 16.6215 9.68817 16.7104 9.6426L17.1548 10.4172C17.2882 10.6906 17.4659 10.9184 17.5993 11.1918C17.9104 11.693 18.177 12.2397 18.4882 12.7409C18.7993 13.2877 19.0659 13.7889 19.377 14.2901C19.5104 14.5635 19.6882 14.7913 19.8215 15.0647L20.2659 15.8848H21.9104C21.8215 15.657 21.1104 14.4724 20.977 14.2445L18.1326 9.1414C17.8215 8.59464 17.5548 7.95674 16.6659 8.00231C15.9993 8.04787 15.6437 8.73133 15.3326 9.27809C15.1993 9.55148 15.0215 9.82486 14.8437 10.0982C14.7104 10.3716 14.5326 10.645 14.3548 10.9184L12.4882 14.2445C12.177 14.7913 11.8659 15.3836 11.5548 15.9304C11.2882 16.4316 10.8437 17.1151 10.6215 17.6163C10.3104 18.2086 9.99927 18.7098 9.68816 19.3021C9.06594 20.4412 8.44371 21.5347 7.82149 22.6283L5.99927 26Z" fill="#275CAA"/>
<path fill-rule="evenodd" clip-rule="evenodd" d="M26.2216 13.5351L19.3439 1.70876C18.9866 0.98928 18.4954 0.539607 18.0041 0.269804C17.6915 0.0899345 17.3342 0 17.0216 0C16.6643 0 16.3517 0.0899345 16.039 0.269804C15.5478 0.539607 15.1012 0.98928 14.7439 1.61882L0.586509 25.9461C0.139904 26.6206 -0.0387378 27.2502 0.00592266 27.8347C0.00592266 28.1945 0.095243 28.5092 0.273885 28.779C0.452527 29.0489 0.67583 29.3187 0.943793 29.4985C1.43506 29.8133 2.06031 29.9932 2.81953 29.9482H17.3342L31.0896 29.9932C31.8935 30.0381 32.5634 29.8583 33.0547 29.5435C33.3673 29.3636 33.5906 29.0938 33.7246 28.824C33.9032 28.5542 33.9926 28.1945 33.9926 27.8797C34.0372 27.3401 33.8586 26.7106 33.4566 26.081L32.0722 23.6977H30.0178L32.6081 28.1945H1.3904L17.0216 0.944312L26.8915 18.1668H15.3691L14.4759 19.6957H29.7945C29.3032 18.8862 26.2216 13.5801 26.2216 13.5351Z" fill="#275CAA"/>
<path d="M99.9314 4.4654C100.105 4.55247 100.193 4.72659 100.193 4.90072V17.9602C100.193 18.1344 100.105 18.3085 99.9314 18.3955C99.7572 18.4826 99.5831 18.5697 99.409 18.5697C99.2349 18.5697 98.9737 18.4826 98.8866 18.3955C98.7125 18.3085 98.6254 18.1344 98.6254 17.9602V4.90072C98.6254 4.72659 98.7125 4.55247 98.8866 4.4654C99.0607 4.37834 99.2349 4.29127 99.409 4.29127C99.6702 4.29127 99.8443 4.29128 99.9314 4.4654ZM106.287 4.37834C106.461 4.46541 106.548 4.55246 106.722 4.63953L118.041 16.306V4.81366C118.041 4.63953 118.128 4.46541 118.215 4.37834C118.302 4.29128 118.563 4.20421 118.737 4.20421C118.911 4.20421 119.085 4.29128 119.259 4.37834C119.346 4.46541 119.434 4.63953 119.434 4.81366V17.9602C119.434 18.1344 119.346 18.3085 119.259 18.3955C119.172 18.4826 118.998 18.5697 118.737 18.5697C118.563 18.5697 118.476 18.5697 118.302 18.4826C118.128 18.3955 118.041 18.3085 117.953 18.2214L106.548 6.46786V17.9602C106.548 18.1344 106.461 18.3085 106.374 18.3955C106.287 18.4826 106.026 18.5697 105.852 18.5697C105.678 18.5697 105.503 18.4826 105.416 18.3955C105.329 18.3085 105.242 18.1344 105.242 17.9602V4.81366C105.242 4.63953 105.329 4.46541 105.416 4.37834C105.503 4.29128 105.678 4.20421 105.939 4.20421C106.026 4.29127 106.113 4.29128 106.287 4.37834ZM136.846 18.5697C136.585 18.5697 136.324 18.4826 136.237 18.2214L134.67 15.1742C133.451 12.8235 132.232 10.6469 131.013 8.29619L129.707 5.94548C129.359 6.55492 129.011 7.16437 128.749 7.86088C127.618 10.0375 126.399 12.214 125.18 14.4777C124.657 15.5225 123.787 17.2637 123.177 18.2214C123.003 18.4826 122.829 18.5697 122.568 18.5697C122.394 18.5697 122.22 18.4826 122.045 18.3955C121.958 18.3085 121.871 18.1344 121.871 17.9602C121.871 17.8732 121.871 17.8732 121.871 17.7861C122.568 15.6095 127.53 7.25143 128.923 4.63953C129.011 4.4654 129.098 4.37834 129.272 4.29127C129.359 4.20421 129.533 4.20421 129.707 4.20421C129.881 4.20421 130.055 4.20421 130.142 4.29127C130.316 4.37834 130.404 4.4654 130.491 4.63953C131.971 7.33849 136.846 15.4354 137.543 17.699C137.543 17.7861 137.543 17.7861 137.543 17.8732C137.543 18.0473 137.456 18.2214 137.282 18.3085C137.194 18.4826 137.02 18.5697 136.846 18.5697ZM140.938 4.37834C141.112 4.46541 141.199 4.55246 141.374 4.63953L152.779 16.306V4.81366C152.779 4.63953 152.866 4.46541 152.953 4.37834C153.04 4.29128 153.301 4.20421 153.475 4.20421C153.649 4.20421 153.824 4.29128 153.998 4.37834C154.085 4.46541 154.172 4.63953 154.172 4.81366V17.9602C154.172 18.1344 154.085 18.3085 153.998 18.3955C153.911 18.4826 153.737 18.5697 153.475 18.5697C153.301 18.5697 153.214 18.5697 153.04 18.4826C152.866 18.3955 152.779 18.3085 152.692 18.2214L141.286 6.46786V17.9602C141.286 18.1344 141.199 18.3085 141.112 18.3955C141.025 18.4826 140.764 18.5697 140.59 18.5697C140.416 18.5697 140.242 18.4826 140.155 18.3955C140.068 18.3085 139.981 18.1344 139.981 17.9602V4.81366C139.981 4.63953 140.068 4.46541 140.155 4.37834C140.242 4.29128 140.416 4.20421 140.677 4.20421C140.677 4.29127 140.851 4.29128 140.938 4.37834ZM181.945 11.8658H175.154V17.2637H182.903C183.077 17.2637 183.251 17.3508 183.425 17.4378C183.512 17.5249 183.599 17.699 183.599 17.8732C183.599 18.0473 183.512 18.2214 183.425 18.3085C183.338 18.3955 183.164 18.4826 182.903 18.4826H174.458C174.283 18.4826 174.022 18.3955 173.935 18.3085C173.761 18.2214 173.674 18.0473 173.674 17.8732V4.90072C173.674 4.72659 173.761 4.55247 173.935 4.4654C174.109 4.37834 174.283 4.29127 174.458 4.29127H182.729C182.903 4.29127 183.077 4.37834 183.251 4.4654C183.338 4.55247 183.425 4.72659 183.425 4.90072C183.425 5.07485 183.338 5.24897 183.251 5.33604C183.164 5.4231 182.99 5.51016 182.729 5.51016H175.241V10.734H182.032C182.206 10.734 182.38 10.821 182.555 10.9081C182.642 10.9952 182.729 11.1693 182.729 11.3434C182.729 11.5175 182.642 11.6046 182.555 11.7787C182.293 11.7787 182.119 11.8658 181.945 11.8658ZM170.017 6.20667C169.93 6.20667 169.93 6.20667 169.843 6.11961C169.321 5.85842 168.711 5.59723 168.015 5.51016C167.318 5.33604 166.622 5.33604 165.751 5.33604C164.707 5.33604 163.749 5.51016 162.965 5.77135C162.095 6.03254 161.398 6.46786 160.702 7.07731C160.092 7.68675 159.57 8.29619 159.222 8.9927C158.873 9.6892 158.699 10.5598 158.699 11.4305C158.699 12.3011 158.873 13.1717 159.222 13.8682C159.57 14.5648 160.092 15.2613 160.702 15.7836C161.398 16.306 162.182 16.7413 163.052 17.0896C163.923 17.3508 164.881 17.5249 166.012 17.5249C166.796 17.5249 167.493 17.4378 168.189 17.2637C168.886 17.0896 169.495 16.8284 170.104 16.4801C170.192 16.4801 170.279 16.3931 170.279 16.3931C170.366 16.3931 170.453 16.3931 170.453 16.3931C170.54 16.3931 170.627 16.3931 170.714 16.4801C170.801 16.4801 170.888 16.5672 170.975 16.6543C170.975 16.7413 171.062 16.7413 171.062 16.8284C171.062 16.9155 171.062 16.9155 171.062 17.0025C171.062 17.0896 171.062 17.1767 170.975 17.2637C170.975 17.3508 170.888 17.4378 170.801 17.4378C170.192 17.8732 169.321 18.1344 168.45 18.3955C167.58 18.6567 166.622 18.7438 165.751 18.7438C164.445 18.7438 163.314 18.5697 162.182 18.2214C161.137 17.8732 160.179 17.4378 159.396 16.7413C158.612 16.0448 158.003 15.3483 157.567 14.4777C157.132 13.6071 156.958 12.6494 156.958 11.5175C156.958 10.4728 157.132 9.51508 157.567 8.64444C157.916 7.77381 158.525 6.99024 159.309 6.29373C160.092 5.59723 160.963 5.07484 162.008 4.72659C163.052 4.37834 164.184 4.20421 165.49 4.20421C166.448 4.20421 167.405 4.29128 168.189 4.4654C168.973 4.63953 169.669 4.90072 170.279 5.24898C170.366 5.33604 170.453 5.33604 170.54 5.4231C170.627 5.51016 170.627 5.59723 170.627 5.68429C170.627 5.68429 170.627 5.77135 170.627 5.85842C170.627 5.94548 170.54 5.94548 170.54 6.03254C170.366 6.20667 170.192 6.29373 169.93 6.29373C170.104 6.20667 170.017 6.20667 170.017 6.20667ZM67.892 18.3955H80.4292C80.6033 18.3955 80.7774 18.3085 80.9515 18.2214C81.0386 18.1343 81.1257 17.9602 81.1257 17.7861C81.1257 17.612 81.0386 17.4378 80.9515 17.3508C80.8645 17.2637 80.6903 17.1767 80.4292 17.1767H69.5462L80.6033 5.33604C80.6903 5.16191 80.8645 5.07485 80.8645 4.98778C80.9515 4.90072 80.9515 4.81365 80.9515 4.72659C80.9515 4.55246 80.8645 4.46541 80.7774 4.37834C80.6903 4.29128 80.5162 4.29127 80.3421 4.29127H68.5885C68.4144 4.29127 68.2403 4.37834 68.0662 4.4654C67.9791 4.55247 67.892 4.7266 67.892 4.81366V4.90072C67.892 5.07485 67.9791 5.24897 68.0662 5.33604C68.1532 5.4231 68.3273 5.51016 68.5885 5.51016H78.6879L67.892 17.0896V18.3955Z" fill="#275CAA"/>
<path d="M93.8369 11.2563C94.2722 11.2563 94.5334 10.9951 94.5334 10.6469C94.5334 10.2986 94.2722 10.0374 93.8369 10.0374H85.8271V3.42059H94.7075C95.1429 3.42059 95.404 3.15941 95.404 2.81115C95.404 2.4629 95.1429 2.20171 94.7075 2.20171H85.1306C84.6953 2.20171 84.2599 2.4629 84.2599 2.89821V17.8731C84.2599 18.2214 84.6082 18.4826 85.0435 18.4826C85.4788 18.4826 85.8271 18.2214 85.8271 17.8731V11.2563H93.8369Z" fill="#275CAA"/>
<path d="M65.5413 18.1342C65.7154 18.3954 65.8896 18.4825 66.2378 18.4825C66.5861 18.4825 67.0214 18.1342 67.0214 17.873C67.0214 17.786 67.0214 17.6989 66.9343 17.6118L58.8374 2.54988C58.6633 2.28869 58.4021 2.11456 57.9668 2.11456C57.6185 2.11456 57.3574 2.28869 57.1832 2.54988L49.0863 17.6118C48.9993 17.6989 48.9993 17.786 48.9993 17.873C48.9993 18.2213 49.3475 18.4825 49.7828 18.4825C50.1311 18.4825 50.3052 18.3954 50.4793 18.1342C53.0912 13.2587 55.442 8.81844 58.0539 3.85583C60.4916 8.38313 62.9294 12.9104 65.2801 17.5248L65.3672 17.6989L65.5413 18.1342Z" fill="#275CAA"/>
<path d="M179.072 22.4004C178.985 22.3133 178.898 22.3133 178.811 22.3133C178.637 22.3133 178.55 22.4004 178.55 22.4875V22.5745L180.552 25.3606V27.5372C180.552 27.6242 180.639 27.7113 180.813 27.7113C180.987 27.7113 181.074 27.6242 181.074 27.5372V25.3606L183.077 22.5745L183.164 22.4875C183.164 22.4004 183.077 22.3133 182.903 22.3133C182.816 22.3133 182.729 22.3133 182.642 22.4004L180.813 24.9253L179.072 22.4004ZM170.801 22.4875C170.714 22.4004 170.627 22.3133 170.54 22.3133C170.366 22.3133 170.279 22.4004 170.279 22.4875V27.6242C170.279 27.7113 170.366 27.7983 170.54 27.7983C170.714 27.7983 170.801 27.7113 170.801 27.6242V23.0969L174.893 27.7113C174.98 27.7983 175.067 27.8854 175.154 27.8854C175.328 27.8854 175.328 27.7983 175.328 27.7113V22.5745C175.328 22.4875 175.241 22.4004 175.067 22.4004C174.893 22.4004 174.806 22.4875 174.806 22.5745V27.1018L170.801 22.4875ZM165.49 25.5347H162.965L164.271 22.9228L165.49 25.5347ZM166.535 27.7113C166.622 27.7983 166.622 27.7983 166.709 27.7983C166.796 27.7983 166.97 27.7113 166.97 27.6242V27.5372L164.445 22.4875C164.358 22.4004 164.271 22.3133 164.184 22.3133C164.097 22.3133 164.01 22.4004 163.923 22.4875L161.398 27.5372V27.6242C161.398 27.7113 161.485 27.7983 161.659 27.7983C161.746 27.7983 161.833 27.7983 161.833 27.7113L162.704 25.97H165.664L166.535 27.7113ZM156.087 22.7487C156.435 22.7487 156.784 22.7487 157.132 22.7487C158.264 22.7487 158.786 23.271 158.786 23.9676C158.786 24.7511 158.177 25.2735 157.132 25.2735C156.871 25.2735 156.523 25.2735 156.174 25.2735V22.7487H156.087ZM157.045 22.3133C156.697 22.3133 156.348 22.3133 155.826 22.3133C155.652 22.3133 155.565 22.4004 155.565 22.5745V27.6242C155.565 27.7113 155.652 27.7983 155.826 27.7983C156 27.7983 156.087 27.7113 156.087 27.6242V25.6218C156.435 25.6218 156.697 25.6218 157.132 25.6218C157.828 25.6218 158.438 25.4476 158.786 25.0994C159.134 24.7511 159.309 24.4029 159.309 23.8805C159.222 23.184 158.786 22.3133 157.045 22.3133ZM148.513 25.7959C148.513 25.7959 148.6 25.8829 148.687 25.8829C148.774 25.8829 148.774 25.8829 148.861 25.7959L151.038 23.184V27.6242C151.038 27.7113 151.125 27.7983 151.299 27.7983C151.473 27.7983 151.56 27.7113 151.56 27.6242V22.5745C151.56 22.4875 151.473 22.4004 151.299 22.4004C151.212 22.4004 151.038 22.4875 150.95 22.6616L148.687 25.4476L146.249 22.6616C146.075 22.4875 145.988 22.4004 145.901 22.4004C145.727 22.4004 145.64 22.4875 145.64 22.6616V27.7113C145.64 27.7983 145.727 27.8854 145.901 27.8854C146.075 27.8854 146.162 27.7983 146.162 27.7113V23.271L148.513 25.7959ZM136.585 25.0123C136.585 24.3158 136.846 23.7934 137.282 23.271C137.804 22.8357 138.413 22.5745 139.11 22.5745C139.806 22.5745 140.416 22.8357 140.938 23.271C141.461 23.7064 141.635 24.3158 141.635 25.0123C141.635 25.7088 141.374 26.2312 140.938 26.7536C140.416 27.1889 139.806 27.4501 139.11 27.4501C138.413 27.4501 137.804 27.1889 137.282 26.7536C136.846 26.3183 136.585 25.7088 136.585 25.0123ZM136.063 25.0123C136.063 25.7959 136.324 26.4924 136.933 27.0148C137.543 27.5372 138.239 27.7983 139.11 27.7983C139.981 27.7983 140.764 27.5372 141.286 27.0148C141.896 26.4924 142.157 25.7959 142.157 25.0123C142.157 24.2287 141.896 23.5322 141.286 23.0099C140.677 22.4875 139.981 22.2263 139.11 22.2263C138.239 22.2263 137.456 22.4875 136.933 23.0099C136.324 23.6193 136.063 24.2287 136.063 25.0123ZM133.015 23.0099C133.102 23.0099 133.102 23.0099 133.102 23.0099C133.19 23.0099 133.277 23.0099 133.277 22.9228V22.8357C133.277 22.7487 133.277 22.7487 133.19 22.6616C132.754 22.4004 132.232 22.2263 131.535 22.2263C130.665 22.2263 129.881 22.4875 129.359 23.0099C128.836 23.5322 128.575 24.2287 128.575 25.0123C128.575 25.8829 128.836 26.5795 129.446 27.0148C130.055 27.5372 130.752 27.7983 131.709 27.7983C132.319 27.7983 133.015 27.6242 133.451 27.276C133.538 27.276 133.538 27.1889 133.538 27.1018C133.538 27.1018 133.538 27.0148 133.451 27.0148C133.364 26.9277 133.364 26.9277 133.277 26.9277C133.19 26.9277 133.19 26.9277 133.102 26.9277C132.667 27.1889 132.145 27.363 131.622 27.363C130.839 27.363 130.229 27.1018 129.707 26.6665C129.185 26.2312 129.011 25.6218 129.011 24.9253C129.011 24.2287 129.272 23.6193 129.707 23.184C130.142 22.7487 130.752 22.4875 131.535 22.4875C132.145 22.6616 132.667 22.7487 133.015 23.0099ZM119.521 22.7487H121.61C121.697 22.7487 121.871 22.6616 121.871 22.5745C121.871 22.4875 121.784 22.4004 121.61 22.4004H116.996C116.822 22.4004 116.735 22.4875 116.735 22.5745C116.735 22.6616 116.822 22.7487 116.996 22.7487H119.085V27.6242C119.085 27.7113 119.172 27.7983 119.346 27.7983C119.521 27.7983 119.608 27.7113 119.608 27.6242V22.7487H119.521ZM109.073 22.4875C108.986 22.4004 108.899 22.3133 108.812 22.3133C108.638 22.3133 108.551 22.4004 108.551 22.4875V27.6242C108.551 27.7113 108.638 27.7983 108.812 27.7983C108.986 27.7983 109.073 27.7113 109.073 27.6242V23.0969L113.165 27.7113C113.252 27.7983 113.339 27.8854 113.426 27.8854C113.6 27.8854 113.6 27.7983 113.6 27.7113V22.5745C113.6 22.4875 113.513 22.4004 113.339 22.4004C113.165 22.4004 113.078 22.4875 113.078 22.5745V27.1018L109.073 22.4875ZM104.459 25.1864C104.633 25.1864 104.72 25.0994 104.72 25.0123C104.72 24.9252 104.633 24.8382 104.459 24.8382H102.021V22.7487H104.72C104.894 22.7487 104.981 22.6616 104.981 22.5745C104.981 22.4875 104.894 22.4004 104.72 22.4004H101.76C101.586 22.4004 101.498 22.4875 101.498 22.6616V27.6242C101.498 27.7113 101.586 27.8854 101.76 27.8854H104.72C104.894 27.8854 104.981 27.7983 104.981 27.7113C104.981 27.6242 104.894 27.5372 104.72 27.5372H101.934V25.1864H104.459ZM94.4464 25.7959C94.4464 25.7959 94.5334 25.8829 94.6205 25.8829C94.7075 25.8829 94.7075 25.8829 94.7946 25.7959L96.9712 23.184V27.6242C96.9712 27.7113 97.0583 27.7983 97.2324 27.7983C97.4065 27.7983 97.4936 27.7113 97.4936 27.6242V22.5745C97.4936 22.4875 97.4065 22.4004 97.2324 22.4004C97.1453 22.4004 96.9712 22.4875 96.8841 22.6616L94.6205 25.4476L92.1827 22.6616C92.0086 22.4875 91.9215 22.4004 91.8345 22.4004C91.6603 22.4004 91.5733 22.4875 91.5733 22.6616V27.7113C91.5733 27.7983 91.6603 27.8854 91.8345 27.8854C92.0086 27.8854 92.0956 27.7983 92.0956 27.7113V23.271L94.4464 25.7959ZM86.2624 22.7487H88.3519C88.439 22.7487 88.6131 22.6616 88.6131 22.5745C88.6131 22.4875 88.526 22.4004 88.3519 22.4004H83.7376C83.5634 22.4004 83.4764 22.4875 83.4764 22.5745C83.4764 22.6616 83.5634 22.7487 83.7376 22.7487H85.8271V27.6242C85.8271 27.7113 85.9141 27.7983 86.0883 27.7983C86.2624 27.7983 86.3495 27.7113 86.3495 27.6242V22.7487H86.2624ZM77.1207 27.1018C77.1207 27.1889 77.1207 27.1889 77.2078 27.276C77.7302 27.6242 78.3396 27.8854 78.9491 27.8854C79.4715 27.8854 79.9938 27.7113 80.3421 27.4501C80.6903 27.1889 80.8645 26.8406 80.8645 26.4053C80.8645 24.4899 77.7302 25.0994 77.7302 23.6193C77.7302 23.0099 78.2526 22.6616 79.0361 22.6616C79.4715 22.6616 79.8197 22.7487 80.255 23.0099C80.3421 23.0099 80.3421 23.0099 80.4291 23.0099C80.5162 23.0099 80.6033 23.0099 80.6033 22.9228L80.6903 22.8357C80.6903 22.7487 80.6903 22.7487 80.6033 22.6616C80.168 22.4004 79.6456 22.2263 79.1232 22.2263C77.9914 22.2263 77.2949 22.8357 77.2949 23.6193C77.2949 25.4476 80.4291 24.9252 80.4291 26.4053C80.4291 26.7536 80.255 27.0148 79.9938 27.1889C79.7326 27.363 79.3844 27.4501 78.9491 27.4501C78.5138 27.4501 77.9914 27.276 77.469 26.9277C77.3819 26.9277 77.3819 26.8406 77.2949 26.8406C77.2078 26.8406 77.2078 26.8406 77.1207 26.9277C77.1207 27.0148 77.1207 27.0148 77.1207 27.1018ZM71.0263 25.1864H73.4641C73.6382 25.1864 73.7253 25.0994 73.7253 25.0123C73.7253 24.9252 73.6382 24.8382 73.4641 24.8382H71.0263V22.7487H73.7253C73.8994 22.7487 73.9865 22.6616 73.9865 22.5745C73.9865 22.4875 73.8994 22.4004 73.7253 22.4004H70.7651C70.591 22.4004 70.5039 22.4875 70.5039 22.6616V27.6242C70.5039 27.7113 70.591 27.8854 70.7651 27.8854H73.8123C73.9865 27.8854 74.0735 27.7983 74.0735 27.7113C74.0735 27.6242 73.9865 27.5372 73.8123 27.5372H71.0263V25.1864ZM62.407 22.4004C62.407 22.3133 62.32 22.3133 62.2329 22.3133C62.0588 22.3133 61.9717 22.4004 61.9717 22.4875V22.5745L64.4095 27.7113C64.4966 27.7983 64.4965 27.8854 64.6707 27.8854C64.7577 27.8854 64.8448 27.7983 64.9319 27.7113L67.3696 22.5745V22.4875C67.3696 22.4004 67.2826 22.3133 67.1084 22.3133C67.0214 22.3133 66.9343 22.3133 66.9343 22.4004L64.7577 27.1018L62.407 22.4004ZM54.2231 22.4875C54.136 22.4004 54.0489 22.3133 53.9619 22.3133C53.7878 22.3133 53.7007 22.4004 53.7007 22.4875V27.6242C53.7007 27.7113 53.7878 27.7983 53.9619 27.7983C54.136 27.7983 54.2231 27.7113 54.2231 27.6242V23.0969L58.315 27.7113C58.4021 27.7983 58.4892 27.8854 58.5762 27.8854C58.7504 27.8854 58.7504 27.7983 58.7504 27.7113V22.5745C58.7504 22.4875 58.6633 22.4004 58.4892 22.4004C58.315 22.4004 58.228 22.4875 58.228 22.5745V27.1018L54.2231 22.4875ZM49.5216 22.4875C49.5216 22.4004 49.4346 22.3133 49.2605 22.3133C49.0863 22.3133 48.9993 22.4004 48.9993 22.4875V27.5372C48.9993 27.6242 49.0863 27.7113 49.2605 27.7113C49.4346 27.7113 49.5216 27.6242 49.5216 27.5372V22.4875Z" fill="#275CAA"/>
<path fill-rule="evenodd" clip-rule="evenodd" d="M125.354 11.8656H131.187C131.535 11.8656 131.797 12.1268 131.797 12.4751C131.797 12.8233 131.535 13.0845 131.187 13.0845H125.354V11.8656Z" fill="#275CAA"/>
<path fill-rule="evenodd" clip-rule="evenodd" d="M52.743 12.214H60.4046C60.7528 12.214 61.014 12.4752 61.014 12.8234C61.014 13.1717 60.7528 13.4329 60.4046 13.4329H52.743V12.214Z" fill="#275CAA"/>
</svg>
