<svg width="70" height="82" viewBox="0 0 70 82" fill="none" xmlns="http://www.w3.org/2000/svg">
<g filter="url(#filter0_d)">
<path fill-rule="evenodd" clip-rule="evenodd" d="M41.9713 57.0151C52.3861 53.9971 60 44.3877 60 33C60 19.1929 48.8071 8 35 8C21.1929 8 10 19.1929 10 33C10 44.3877 17.6139 53.9971 28.0288 57.0151L35 69.0897L41.9713 57.0151Z" fill="#275CAA"/>
</g>
<path fill-rule="evenodd" clip-rule="evenodd" d="M25.2941 39.5333H26.6667L27.6471 37.9143C27.6863 37.8748 27.6471 37.9143 27.6863 37.8748H42.9412C42.8235 37.6379 42.6667 37.4404 42.549 37.2035C42.4314 36.9666 42.2745 36.7296 42.1569 36.5322H28.3137C28.3529 36.4532 28.6275 35.9399 28.7059 35.8214L29.9216 33.7285C30.4314 32.7808 31.0196 31.8725 31.5294 30.9248C31.6471 30.6879 31.8039 30.4904 31.9216 30.2535L34.3529 26.0677C34.4314 25.9493 34.6667 25.3964 34.7451 25.3569L35.1373 26.0282C35.2549 26.2652 35.4118 26.4626 35.5294 26.6995C35.8039 27.1339 36.0392 27.6078 36.3137 28.0421C36.5882 28.516 36.8235 28.9504 37.098 29.3848C37.2157 29.6217 37.3725 29.8191 37.4902 30.0561L37.8824 30.7669H39.3333C39.2549 30.5694 38.6275 29.5427 38.5098 29.3453L36 24.9225C35.7255 24.4487 35.4902 23.8958 34.7059 23.9353C34.1176 23.9748 33.8039 24.5672 33.5294 25.041C33.4118 25.2779 33.2549 25.5149 33.098 25.7518C32.9804 25.9887 32.8235 26.2257 32.6667 26.4626L31.0196 29.3453C30.7451 29.8191 30.4706 30.3325 30.1961 30.8064C29.9608 31.2407 29.5686 31.8331 29.3726 32.2674C29.098 32.7808 28.8235 33.2152 28.549 33.7285C28 34.7157 27.451 35.6634 26.902 36.6112L25.2941 39.5333Z" fill="white"/>
<path fill-rule="evenodd" clip-rule="evenodd" d="M43.1374 28.7305L37.0688 18.4809C36.7536 17.8574 36.3201 17.4677 35.8866 17.2338C35.6108 17.0779 35.2955 17 35.0197 17C34.7044 17 34.4286 17.0779 34.1527 17.2338C33.7193 17.4677 33.3252 17.8574 33.01 18.403L20.5182 39.4866C20.1241 40.0712 19.9665 40.6168 20.0059 41.1234C20.0059 41.4352 20.0847 41.708 20.2423 41.9418C20.3999 42.1757 20.597 42.4095 20.8334 42.5654C21.2669 42.8382 21.8186 42.9941 22.4885 42.9551H35.2955L47.4327 42.9941C48.142 43.033 48.7331 42.8772 49.1666 42.6044C49.4424 42.4485 49.6394 42.2146 49.7577 41.9808C49.9153 41.747 49.9941 41.4352 49.9941 41.1624C50.0335 40.6947 49.8759 40.1491 49.5212 39.6035L48.2996 37.538H46.4869L48.7725 41.4352H21.2275L35.0197 17.8184L43.7285 32.7445H33.5616L32.7735 34.0696H46.2899C45.8564 33.3681 43.1374 28.7694 43.1374 28.7305Z" fill="white"/>
<defs>
<filter id="filter0_d" x="0" y="0" width="70" height="81.0897" filterUnits="userSpaceOnUse" color-interpolation-filters="sRGB">
<feFlood flood-opacity="0" result="BackgroundImageFix"/>
<feColorMatrix in="SourceAlpha" type="matrix" values="0 0 0 0 0 0 0 0 0 0 0 0 0 0 0 0 0 0 127 0"/>
<feOffset dy="2"/>
<feGaussianBlur stdDeviation="5"/>
<feColorMatrix type="matrix" values="0 0 0 0 0 0 0 0 0 0 0 0 0 0 0 0 0 0 0.25 0"/>
<feBlend mode="normal" in2="BackgroundImageFix" result="effect1_dropShadow"/>
<feBlend mode="normal" in="SourceGraphic" in2="effect1_dropShadow" result="shape"/>
</filter>
</defs>
</svg>
