<svg width="201" height="104" viewBox="0 0 201 104" fill="none" xmlns="http://www.w3.org/2000/svg">
<path d="M104.231 2.84793L115.761 22.5586C115.761 22.6335 120.927 31.4771 121.751 32.8261H96.0697L97.5672 30.278H116.884L100.337 1.57385L74.1322 46.9908H126.468L122.125 39.4963H125.569L127.89 43.4684C128.564 44.5176 128.864 45.5668 128.789 46.4662C128.789 46.9908 128.639 47.5904 128.34 48.04C128.115 48.4897 127.741 48.9394 127.216 49.2392C126.393 49.7638 125.27 50.0635 123.922 49.9886L100.862 49.9137H76.5281C75.2553 49.9886 74.2071 49.6888 73.3835 49.1642C72.9343 48.8644 72.5599 48.4148 72.2604 47.9651C71.9609 47.5154 71.8112 46.9908 71.8112 46.3912C71.7363 45.4169 72.0358 44.3677 72.7845 43.2435L96.519 2.69804C97.1179 1.6488 97.8667 0.899345 98.6903 0.449673C99.2144 0.149891 99.7385 0 100.337 0C100.862 0 101.461 0.149891 101.985 0.449673C102.808 0.899345 103.632 1.6488 104.231 2.84793Z" fill="#275CAA"/>
<path d="M84.839 42.7185H82.2184L85.2882 37.1725C86.3364 35.3738 87.3846 33.5752 88.4328 31.7015C88.6949 31.2144 88.9569 30.7647 89.219 30.315C89.481 29.8654 89.7431 29.4157 90.0051 28.9285C90.2369 28.4181 90.6123 27.7926 90.9712 27.1946C91.1919 26.8269 91.4064 26.4695 91.5774 26.1556C91.8395 25.7059 92.1016 25.2375 92.3636 24.7691C92.6257 24.3007 92.8877 23.8323 93.1498 23.3826L96.2944 17.9116C96.5939 17.4619 96.8934 17.0122 97.118 16.5625C97.4175 16.1129 97.717 15.6632 97.9416 15.2135C97.9661 15.1715 97.9907 15.129 98.0156 15.0861C98.5228 14.2114 99.1171 13.1865 100.188 13.1151C101.555 13.0466 102.049 13.916 102.523 14.7524C102.568 14.8317 102.613 14.9108 102.659 14.9887L107.45 23.3826C107.487 23.4431 107.548 23.5446 107.627 23.6739C108.034 24.3455 108.897 25.7664 109.023 26.0806H106.252L105.504 24.7316C105.391 24.5068 105.26 24.3007 105.129 24.0946C104.998 23.8885 104.867 23.6824 104.755 23.4575C104.388 22.8799 104.057 22.3024 103.712 21.699C103.565 21.4412 103.414 21.1786 103.257 20.9094C102.995 20.4972 102.752 20.0662 102.509 19.6353C102.265 19.2044 102.022 18.7734 101.76 18.3612C101.648 18.1364 101.517 17.9303 101.386 17.7242C101.255 17.5181 101.124 17.312 101.011 17.0872L100.263 15.8131C100.168 15.8602 99.9556 16.2931 99.7735 16.6636C99.6661 16.882 99.5694 17.0787 99.5139 17.1621L94.8718 25.1063C94.7595 25.3312 94.6285 25.5373 94.4975 25.7434C94.3664 25.9495 94.2354 26.1556 94.1231 26.3804C93.6364 27.2797 93.1123 28.1603 92.5882 29.041C92.0641 29.9216 91.54 30.8022 91.0533 31.7015L88.7323 35.6736C88.5826 35.8985 88.0585 36.8728 87.9836 37.0226H114.413C114.475 37.1257 114.543 37.2343 114.613 37.3471C114.797 37.6446 114.999 37.9707 115.162 38.2967C115.274 38.5216 115.405 38.7276 115.536 38.9338C115.668 39.1399 115.799 39.346 115.911 39.5708H86.7856L86.7108 39.6457L84.839 42.7185Z" fill="#275CAA"/>
<path d="M75.9792 68.4931C76.238 68.6224 76.3673 68.8812 76.3673 69.1399V88.5448C76.3673 88.8036 76.238 89.0623 75.9792 89.1917C75.7205 89.321 75.4618 89.4504 75.203 89.4504C74.9443 89.4504 74.5562 89.321 74.4268 89.1917C74.1681 89.0623 74.0387 88.8036 74.0387 88.5448V69.1399C74.0387 68.8812 74.1681 68.6224 74.4268 68.4931C74.6856 68.3637 74.9443 68.2343 75.203 68.2343C75.5911 68.2343 75.8499 68.2343 75.9792 68.4931ZM85.423 68.3637C85.6817 68.4931 85.8111 68.6224 86.0698 68.7518L102.887 86.0869V69.0105C102.887 68.7518 103.017 68.4931 103.146 68.3637C103.275 68.2343 103.664 68.105 103.922 68.105C104.181 68.105 104.44 68.2343 104.698 68.3637C104.828 68.4931 104.957 68.7518 104.957 69.0105V88.5448C104.957 88.8036 104.828 89.0623 104.698 89.1917C104.569 89.321 104.31 89.4504 103.922 89.4504C103.664 89.4504 103.534 89.4504 103.275 89.321C103.017 89.1916 102.887 89.0623 102.758 88.9329L85.811 71.4685V88.5448C85.811 88.8036 85.6817 89.0623 85.5523 89.1917C85.4229 89.321 85.0349 89.4504 84.7761 89.4504C84.5174 89.4504 84.2587 89.321 84.1293 89.1917C83.9999 89.0623 83.8706 88.8036 83.8706 88.5448V69.0105C83.8706 68.7518 83.9999 68.4931 84.1293 68.3637C84.2587 68.2343 84.5174 68.105 84.9055 68.105C85.0349 68.2343 85.1642 68.2343 85.423 68.3637ZM130.83 89.4504C130.442 89.4504 130.054 89.321 129.925 88.9329L127.596 84.4051C125.785 80.9122 123.974 77.6781 122.163 74.1852L120.222 70.6923C119.705 71.5979 119.187 72.5034 118.799 73.5384C117.118 76.7725 115.307 80.0067 113.495 83.3702C112.719 84.9226 111.426 87.5099 110.52 88.9329C110.261 89.321 110.003 89.4504 109.614 89.4504C109.356 89.4504 109.097 89.321 108.838 89.1917C108.709 89.0623 108.579 88.8036 108.579 88.5448C108.579 88.4155 108.579 88.4154 108.579 88.2861C109.614 85.0519 116.988 72.6328 119.058 68.7518C119.188 68.4931 119.317 68.3637 119.576 68.2343C119.705 68.105 119.964 68.105 120.222 68.105C120.481 68.105 120.74 68.105 120.869 68.2343C121.128 68.3637 121.257 68.4931 121.387 68.7518C123.586 72.7622 130.83 84.7932 131.865 88.1567C131.865 88.2861 131.865 88.2861 131.865 88.4155C131.865 88.6742 131.736 88.9329 131.477 89.0623C131.348 89.321 131.089 89.4504 130.83 89.4504ZM136.911 68.3637C137.169 68.4931 137.299 68.6224 137.557 68.7518L154.504 86.0869V69.0105C154.504 68.7518 154.634 68.4931 154.763 68.3637C154.893 68.2343 155.281 68.105 155.539 68.105C155.798 68.105 156.057 68.2343 156.316 68.3637C156.445 68.4931 156.574 68.7518 156.574 69.0105V88.5448C156.574 88.8036 156.445 89.0623 156.316 89.1917C156.186 89.321 155.927 89.4504 155.539 89.4504C155.281 89.4504 155.151 89.4504 154.893 89.321C154.634 89.1916 154.504 89.0623 154.375 88.9329L137.428 71.4685V88.5448C137.428 88.8036 137.299 89.0623 137.169 89.1917C137.04 89.321 136.652 89.4504 136.393 89.4504C136.134 89.4504 135.876 89.321 135.746 89.1917C135.617 89.0623 135.488 88.8036 135.488 88.5448V69.0105C135.488 68.7518 135.617 68.4931 135.746 68.3637C135.876 68.2343 136.134 68.105 136.523 68.105C136.523 68.2343 136.781 68.2343 136.911 68.3637ZM197.842 79.4892H187.752V87.5099H199.265C199.524 87.5099 199.783 87.6393 200.041 87.7686C200.171 87.898 200.3 88.1567 200.3 88.4155C200.3 88.6742 200.171 88.9329 200.041 89.0623C199.912 89.1917 199.653 89.321 199.265 89.321H186.717C186.458 89.321 186.07 89.1917 185.94 89.0623C185.682 88.9329 185.552 88.6742 185.552 88.4155V69.1399C185.552 68.8812 185.682 68.6224 185.94 68.4931C186.199 68.3637 186.458 68.2343 186.717 68.2343H199.006C199.265 68.2343 199.524 68.3637 199.783 68.4931C199.912 68.6224 200.041 68.8812 200.041 69.1399C200.041 69.3986 199.912 69.6574 199.783 69.7867C199.653 69.9161 199.394 70.0455 199.006 70.0455H187.881V77.8074H197.971C198.23 77.8074 198.489 77.9368 198.748 78.0662C198.877 78.1955 199.006 78.4543 199.006 78.713C199.006 78.9717 198.877 79.1011 198.748 79.3598C198.36 79.3598 198.101 79.4892 197.842 79.4892ZM180.119 71.0804C179.99 71.0804 179.99 71.0804 179.86 70.951C179.084 70.5629 178.178 70.1748 177.144 70.0455C176.109 69.7867 175.074 69.7867 173.78 69.7867C172.228 69.7867 170.805 70.0455 169.64 70.4336C168.347 70.8217 167.312 71.4685 166.277 72.3741C165.371 73.2796 164.595 74.1852 164.078 75.2201C163.56 76.255 163.301 77.5487 163.301 78.8424C163.301 80.136 163.56 81.4297 164.078 82.4646C164.595 83.4995 165.371 84.5345 166.277 85.3107C167.312 86.0869 168.476 86.7337 169.77 87.2512C171.063 87.6393 172.486 87.898 174.168 87.898C175.332 87.898 176.367 87.7686 177.402 87.5099C178.437 87.2512 179.343 86.8631 180.248 86.3456C180.378 86.3456 180.507 86.2162 180.507 86.2162C180.636 86.2162 180.766 86.2162 180.766 86.2162C180.895 86.2162 181.024 86.2162 181.154 86.3456C181.283 86.3456 181.413 86.475 181.542 86.6043C181.542 86.7337 181.671 86.7337 181.671 86.8631C181.671 86.9924 181.671 86.9924 181.671 87.1218C181.671 87.2512 181.671 87.3805 181.542 87.5099C181.542 87.6393 181.413 87.7686 181.283 87.7686C180.378 88.4155 179.084 88.8036 177.79 89.1917C176.497 89.5797 175.074 89.7091 173.78 89.7091C171.84 89.7091 170.158 89.4504 168.476 88.9329C166.924 88.4154 165.501 87.7686 164.336 86.7337C163.172 85.6988 162.266 84.6638 161.62 83.3702C160.973 82.0765 160.714 80.6535 160.714 78.9717C160.714 77.4193 160.973 75.9963 161.62 74.7026C162.137 73.409 163.043 72.2447 164.207 71.2098C165.371 70.1748 166.665 69.3986 168.217 68.8812C169.77 68.3637 171.451 68.105 173.392 68.105C174.815 68.105 176.238 68.2343 177.402 68.4931C178.567 68.7518 179.601 69.1399 180.507 69.6574C180.636 69.7867 180.766 69.7867 180.895 69.9161C181.025 70.0455 181.024 70.1748 181.024 70.3042C181.024 70.3042 181.024 70.4336 181.024 70.5629C181.024 70.6923 180.895 70.6923 180.895 70.8217C180.636 71.0804 180.378 71.2098 179.99 71.2098C180.248 71.0804 180.119 71.0804 180.119 71.0804ZM28.3725 89.1917H47.0012C47.26 89.1917 47.5187 89.0623 47.7774 88.9329C47.9068 88.8035 48.0362 88.5448 48.0362 88.2861C48.0362 88.0273 47.9068 87.7686 47.7774 87.6393C47.6481 87.5099 47.3893 87.3805 47.0012 87.3805H30.8305L47.26 69.7867C47.3893 69.528 47.648 69.3986 47.648 69.2693C47.7774 69.1399 47.7774 69.0105 47.7774 68.8812C47.7774 68.6224 47.6481 68.4931 47.5187 68.3637C47.3893 68.2343 47.1306 68.2343 46.8719 68.2343H29.4074C29.1487 68.2343 28.89 68.3637 28.6312 68.4931C28.5019 68.6224 28.3725 68.8812 28.3725 69.0105V69.1399C28.3725 69.3986 28.5019 69.6574 28.6312 69.7867C28.7606 69.9161 29.0193 70.0455 29.4074 70.0455H44.4139L28.3725 87.2512V89.1917Z" fill="#275CAA"/>
<path d="M66.9236 78.5836C67.5704 78.5836 67.9585 78.1955 67.9585 77.678C67.9585 77.1605 67.5704 76.7724 66.9236 76.7724H55.0219V66.9406H68.2172C68.8641 66.9406 69.2522 66.5525 69.2522 66.0351C69.2522 65.5176 68.8641 65.1295 68.2172 65.1295H53.987C53.3401 65.1295 52.6933 65.5176 52.6933 66.1644V88.4154C52.6933 88.9328 53.2108 89.3209 53.8576 89.3209C54.5044 89.3209 55.0219 88.9328 55.0219 88.4154V78.5836H66.9236Z" fill="#275CAA"/>
<path d="M24.8796 88.8034C25.1383 89.1915 25.3971 89.3208 25.9145 89.3208C26.432 89.3208 27.0788 88.8034 27.0788 88.4153C27.0788 88.2859 27.0788 88.1565 26.9495 88.0272L14.9184 65.6468C14.6597 65.2587 14.2716 65 13.6248 65C13.1073 65 12.7192 65.2587 12.4605 65.6468L0.429415 88.0272C0.300049 88.1565 0.300049 88.2859 0.300049 88.4153C0.300049 88.9327 0.817513 89.3208 1.46434 89.3208C1.98181 89.3208 2.24054 89.1915 2.49927 88.8034C6.38026 81.5589 9.87314 74.9612 13.7541 67.5873C17.3764 74.3144 20.9986 81.0414 24.4915 87.8978L24.6209 88.1565L24.8796 88.8034Z" fill="#275CAA"/>
<path d="M193.573 95.1424C193.444 95.0131 193.314 95.0131 193.185 95.0131C192.926 95.0131 192.797 95.1424 192.797 95.2718V95.4011L195.772 99.5409V102.775C195.772 102.904 195.902 103.034 196.16 103.034C196.419 103.034 196.548 102.904 196.548 102.775V99.5409L199.524 95.4011L199.653 95.2718C199.653 95.1424 199.524 95.0131 199.265 95.0131C199.136 95.0131 199.006 95.0131 198.877 95.1424L196.16 98.894L193.573 95.1424ZM181.283 95.2718C181.154 95.1424 181.024 95.0131 180.895 95.0131C180.636 95.0131 180.507 95.1424 180.507 95.2718V102.904C180.507 103.034 180.636 103.163 180.895 103.163C181.154 103.163 181.283 103.034 181.283 102.904V96.1774L187.363 103.034C187.493 103.163 187.622 103.292 187.751 103.292C188.01 103.292 188.01 103.163 188.01 103.034V95.4011C188.01 95.2718 187.881 95.1424 187.622 95.1424C187.363 95.1424 187.234 95.2718 187.234 95.4011V102.128L181.283 95.2718ZM173.392 99.7996H169.64L171.581 95.9186L173.392 99.7996ZM174.944 103.034C175.074 103.163 175.074 103.163 175.203 103.163C175.332 103.163 175.591 103.034 175.591 102.904V102.775L171.839 95.2718C171.71 95.1424 171.581 95.0131 171.451 95.0131C171.322 95.0131 171.193 95.1424 171.063 95.2718L167.312 102.775V102.904C167.312 103.034 167.441 103.163 167.7 103.163C167.829 103.163 167.959 103.163 167.959 103.034L169.252 100.446H173.651L174.944 103.034ZM159.42 95.6599C159.938 95.6599 160.455 95.6599 160.973 95.6599C162.654 95.6599 163.431 96.4361 163.431 97.471C163.431 98.6353 162.525 99.4115 160.973 99.4115C160.585 99.4115 160.067 99.4115 159.55 99.4115V95.6599H159.42ZM160.843 95.0131C160.326 95.0131 159.808 95.0131 159.032 95.0131C158.773 95.0131 158.644 95.1424 158.644 95.4011V102.904C158.644 103.034 158.773 103.163 159.032 103.163C159.291 103.163 159.42 103.034 159.42 102.904V99.929C159.938 99.929 160.326 99.929 160.973 99.929C162.008 99.929 162.913 99.6702 163.431 99.1528C163.948 98.6353 164.207 98.1178 164.207 97.3416C164.078 96.3067 163.431 95.0131 160.843 95.0131ZM148.165 100.188C148.165 100.188 148.295 100.317 148.424 100.317C148.554 100.317 148.554 100.317 148.683 100.188L151.917 96.3067V102.904C151.917 103.034 152.046 103.163 152.305 103.163C152.564 103.163 152.693 103.034 152.693 102.904V95.4011C152.693 95.2718 152.564 95.1424 152.305 95.1424C152.176 95.1424 151.917 95.2718 151.788 95.5305L148.424 99.6702L144.802 95.5305C144.543 95.2718 144.414 95.1424 144.285 95.1424C144.026 95.1424 143.896 95.2718 143.896 95.5305V103.034C143.896 103.163 144.026 103.292 144.285 103.292C144.543 103.292 144.673 103.163 144.673 103.034V96.4361L148.165 100.188ZM130.442 99.0234C130.442 97.9885 130.83 97.2123 131.477 96.4361C132.253 95.7892 133.159 95.4011 134.194 95.4011C135.229 95.4011 136.134 95.7892 136.911 96.4361C137.687 97.0829 137.946 97.9885 137.946 99.0234C137.946 100.058 137.557 100.835 136.911 101.611C136.134 102.258 135.229 102.646 134.194 102.646C133.159 102.646 132.253 102.258 131.477 101.611C130.83 100.964 130.442 100.058 130.442 99.0234ZM129.666 99.0234C129.666 100.188 130.054 101.223 130.96 101.999C131.865 102.775 132.9 103.163 134.194 103.163C135.488 103.163 136.652 102.775 137.428 101.999C138.334 101.223 138.722 100.188 138.722 99.0234C138.722 97.8591 138.334 96.8242 137.428 96.048C136.523 95.2718 135.488 94.8837 134.194 94.8837C132.9 94.8837 131.736 95.2718 130.96 96.048C130.054 96.9535 129.666 97.8591 129.666 99.0234ZM125.138 96.048C125.268 96.048 125.268 96.048 125.268 96.048C125.397 96.048 125.526 96.048 125.526 95.9186V95.7892C125.526 95.6599 125.526 95.6599 125.397 95.5305C124.75 95.1424 123.974 94.8837 122.939 94.8837C121.645 94.8837 120.481 95.2718 119.705 96.048C118.929 96.8242 118.541 97.8591 118.541 99.0234C118.541 100.317 118.929 101.352 119.834 101.999C120.74 102.775 121.775 103.163 123.198 103.163C124.103 103.163 125.138 102.904 125.785 102.387C125.915 102.387 125.915 102.258 125.915 102.128C125.915 102.128 125.915 101.999 125.785 101.999C125.656 101.869 125.656 101.869 125.526 101.869C125.397 101.869 125.397 101.869 125.268 101.869C124.621 102.258 123.845 102.516 123.068 102.516C121.904 102.516 120.999 102.128 120.222 101.481C119.446 100.835 119.187 99.929 119.187 98.894C119.187 97.8591 119.576 96.9535 120.222 96.3067C120.869 95.6599 121.775 95.2718 122.939 95.2718C123.845 95.5305 124.621 95.6599 125.138 96.048ZM105.087 95.6599H108.191C108.321 95.6599 108.579 95.5305 108.579 95.4011C108.579 95.2718 108.45 95.1424 108.191 95.1424H101.335C101.076 95.1424 100.947 95.2718 100.947 95.4011C100.947 95.5305 101.076 95.6599 101.335 95.6599H104.44V102.904C104.44 103.034 104.569 103.163 104.828 103.163C105.087 103.163 105.216 103.034 105.216 102.904V95.6599H105.087ZM89.5627 95.2718C89.4333 95.1424 89.3039 95.0131 89.1745 95.0131C88.9158 95.0131 88.7865 95.1424 88.7865 95.2718V102.904C88.7865 103.034 88.9158 103.163 89.1745 103.163C89.4333 103.163 89.5627 103.034 89.5627 102.904V96.1774L95.6429 103.034C95.7722 103.163 95.9016 103.292 96.031 103.292C96.2897 103.292 96.2897 103.163 96.2897 103.034V95.4011C96.2897 95.2718 96.1603 95.1424 95.9016 95.1424C95.6429 95.1424 95.5135 95.2718 95.5135 95.4011V102.128L89.5627 95.2718ZM82.7062 99.2821C82.965 99.2821 83.0943 99.1528 83.0943 99.0234C83.0943 98.894 82.965 98.7647 82.7062 98.7647H79.084V95.6599H83.0943C83.3531 95.6599 83.4824 95.5305 83.4824 95.4011C83.4824 95.2718 83.3531 95.1424 83.0943 95.1424H78.6959C78.4372 95.1424 78.3078 95.2718 78.3078 95.5305V102.904C78.3078 103.034 78.4372 103.292 78.6959 103.292H83.0943C83.3531 103.292 83.4824 103.163 83.4824 103.034C83.4824 102.904 83.3531 102.775 83.0943 102.775H78.9546V99.2821H82.7062ZM67.8291 100.188C67.8291 100.188 67.9585 100.317 68.0879 100.317C68.2172 100.317 68.2172 100.317 68.3466 100.188L71.5808 96.3067V102.904C71.5808 103.034 71.7101 103.163 71.9689 103.163C72.2276 103.163 72.357 103.034 72.357 102.904V95.4011C72.357 95.2718 72.2276 95.1424 71.9689 95.1424C71.8395 95.1424 71.5808 95.2718 71.4514 95.5305L68.0879 99.6702L64.4656 95.5305C64.2069 95.2718 64.0775 95.1424 63.9482 95.1424C63.6894 95.1424 63.5601 95.2718 63.5601 95.5305V103.034C63.5601 103.163 63.6894 103.292 63.9482 103.292C64.2069 103.292 64.3363 103.163 64.3363 103.034V96.4361L67.8291 100.188ZM55.6687 95.6599H58.7735C58.9029 95.6599 59.1616 95.5305 59.1616 95.4011C59.1616 95.2718 59.0323 95.1424 58.7735 95.1424H51.9171C51.6584 95.1424 51.529 95.2718 51.529 95.4011C51.529 95.5305 51.6584 95.6599 51.9171 95.6599H55.0219V102.904C55.0219 103.034 55.1513 103.163 55.41 103.163C55.6687 103.163 55.7981 103.034 55.7981 102.904V95.6599H55.6687ZM42.0853 102.128C42.0853 102.258 42.0853 102.258 42.2147 102.387C42.9909 102.904 43.8964 103.292 44.802 103.292C45.5782 103.292 46.3544 103.034 46.8718 102.646C47.3893 102.258 47.648 101.74 47.648 101.093C47.648 98.2472 42.9909 99.1528 42.9909 96.9535C42.9909 96.048 43.7671 95.5305 44.9314 95.5305C45.5782 95.5305 46.0956 95.6599 46.7425 96.048C46.8718 96.048 46.8718 96.048 47.0012 96.048C47.1306 96.048 47.2599 96.048 47.2599 95.9186L47.3893 95.7892C47.3893 95.6599 47.3893 95.6599 47.2599 95.5305C46.6131 95.1424 45.8369 94.8837 45.0607 94.8837C43.379 94.8837 42.344 95.7893 42.344 96.9535C42.344 99.6702 47.0012 98.894 47.0012 101.093C47.0012 101.611 46.7425 101.999 46.3544 102.258C45.9663 102.516 45.4488 102.646 44.802 102.646C44.1552 102.646 43.379 102.387 42.6028 101.869C42.4734 101.869 42.4734 101.74 42.344 101.74C42.2147 101.74 42.2147 101.74 42.0853 101.869C42.0853 101.999 42.0853 101.999 42.0853 102.128ZM33.0297 99.2821H36.6519C36.9107 99.2821 37.04 99.1528 37.04 99.0234C37.04 98.894 36.9107 98.7647 36.6519 98.7647H33.0297V95.6599H37.04C37.2987 95.6599 37.4281 95.5305 37.4281 95.4011C37.4281 95.2718 37.2987 95.1424 37.04 95.1424H32.6416C32.3828 95.1424 32.2535 95.2718 32.2535 95.5305V102.904C32.2535 103.034 32.3828 103.292 32.6416 103.292H37.1694C37.4281 103.292 37.5575 103.163 37.5575 103.034C37.5575 102.904 37.4281 102.775 37.1694 102.775H33.0297V99.2821ZM20.2224 95.1424C20.2224 95.0131 20.0931 95.0131 19.9637 95.0131C19.705 95.0131 19.5756 95.1424 19.5756 95.2718V95.4011L23.1978 103.034C23.3272 103.163 23.3272 103.292 23.5859 103.292C23.7153 103.292 23.8447 103.163 23.974 103.034L27.5963 95.4011V95.2718C27.5963 95.1424 27.4669 95.0131 27.2082 95.0131C27.0788 95.0131 26.9495 95.0131 26.9495 95.1424L23.7153 102.128L20.2224 95.1424ZM8.06201 95.2718C7.93265 95.1424 7.80328 95.0131 7.67392 95.0131C7.41518 95.0131 7.28582 95.1424 7.28582 95.2718V102.904C7.28582 103.034 7.41518 103.163 7.67392 103.163C7.93265 103.163 8.06201 103.034 8.06201 102.904V96.1774L14.1422 103.034C14.2716 103.163 14.401 103.292 14.5303 103.292C14.7891 103.292 14.7891 103.163 14.7891 103.034V95.4011C14.7891 95.2718 14.6597 95.1424 14.401 95.1424C14.1422 95.1424 14.0129 95.2718 14.0129 95.4011V102.128L8.06201 95.2718ZM1.07625 95.2718C1.07625 95.1424 0.946879 95.0131 0.688147 95.0131C0.429415 95.0131 0.300049 95.1424 0.300049 95.2718V102.775C0.300049 102.904 0.429415 103.034 0.688147 103.034C0.946879 103.034 1.07625 102.904 1.07625 102.775V95.2718Z" fill="#275CAA"/>
<path fill-rule="evenodd" clip-rule="evenodd" d="M113.754 79.4889H122.422C122.939 79.4889 123.327 79.877 123.327 80.3945C123.327 80.912 122.939 81.3001 122.422 81.3001H113.754V79.4889Z" fill="#275CAA"/>
<path fill-rule="evenodd" clip-rule="evenodd" d="M5.86277 80.0066H17.247C17.7645 80.0066 18.1526 80.3947 18.1526 80.9121C18.1526 81.4296 17.7645 81.8177 17.247 81.8177H5.86277V80.0066Z" fill="#275CAA"/>
</svg>
