<svg width="70" height="376" viewBox="0 0 70 376" fill="none" xmlns="http://www.w3.org/2000/svg">
<path d="M15.9923 241.337L18.6198 236.328L32.7856 236.152L32.4559 235.533L18.3164 235.708L15.6937 240.71H12.1895L28.7112 207.247C28.7785 207.105 28.8444 206.975 28.909 206.855C28.9763 206.73 29.0437 206.611 29.1103 206.501C29.1776 206.39 29.2471 206.281 29.317 206.178C29.3912 206.069 29.4624 205.97 29.5298 205.883C29.5975 205.796 29.6687 205.711 29.7422 205.629L29.0129 205.631C28.9818 205.675 28.9509 205.713 28.9198 205.758C28.8422 205.872 28.7645 205.992 28.6886 206.118C28.6156 206.239 28.5401 206.371 28.4638 206.512C28.3939 206.643 28.3214 206.785 28.2475 206.937L11.2646 241.337H15.9923ZM35.8599 218.286L36.4767 218.287L35.1238 215.545L34.5092 215.548L35.8599 218.286ZM28.8947 228.846L28.5644 228.226C27.7706 228.225 26.9574 228.224 26.1743 228.223L26.2872 228.017C26.6565 227.349 27.0256 226.681 27.3907 226.022L27.0809 225.44L25.1925 228.844C26.4265 228.844 27.6606 228.845 28.8947 228.846ZM31.0957 195.107L31.4888 195.106L31.285 194.722L31.0957 195.107ZM30.3244 212.604L31.6909 209.833L33.0408 212.57L33.6524 212.562L31.6901 208.585C31.0292 209.927 30.368 211.27 29.7065 212.611L30.3244 212.604ZM35.2689 202.234C34.5973 200.968 33.9259 199.701 33.2546 198.435H32.6257L34.6384 202.234H35.2689ZM27.5936 202.234H28.2078L30.0756 198.435H29.4605C28.8383 199.701 28.216 200.967 27.5936 202.234L27.5936 202.234ZM28.8593 215.575L28.2451 215.578C27.8012 216.479 27.3572 217.38 26.913 218.282L27.5243 218.282L28.8593 215.575ZM45.0514 235.377L42.0856 235.413C41.9553 235.637 41.8093 235.847 41.6491 236.042L44.7434 236.003L45.0514 235.377ZM41.6784 215.513L43.152 218.291L43.7826 218.291C43.2913 217.364 42.7999 216.437 42.3083 215.51L41.6784 215.513ZM45.8339 222.16C45.2439 221.046 44.6534 219.932 44.0625 218.819L43.7404 219.4L45.531 222.774L45.8339 222.16ZM42.8408 228.235C40.9614 228.235 39.0952 228.234 37.2424 228.233L37.5471 228.851C39.2101 228.852 40.8731 228.853 42.536 228.854L42.8408 228.235ZM38.2347 235.461L35.3755 235.497C35.4849 235.703 35.5943 235.909 35.7037 236.116L38.7373 236.078C38.5534 235.892 38.3851 235.685 38.2347 235.461H38.2347ZM31.5224 228.229C31.6318 228.435 31.7411 228.642 31.8503 228.848C32.8811 228.848 33.9119 228.849 34.9426 228.85L34.6398 228.232C33.5952 228.231 32.5537 228.23 31.5225 228.229H31.5224ZM36.2841 231.587L35.9793 230.965L32.9805 230.979L33.3104 231.602L36.2841 231.587ZM20.3202 231.664L30.3696 231.616L30.0383 230.994L21.2445 231.036L25.4791 222.433L25.1615 221.837C23.5478 225.112 21.934 228.388 20.3202 231.664H20.3202ZM49.7047 130.441C51.3782 130.433 53.0516 130.426 54.7249 130.419L55.0583 129.793C53.3783 129.798 51.6982 129.804 50.0179 129.811L49.7047 130.441ZM50.2049 151.748H50.8216L52.8447 147.677H52.2281L50.2049 151.748ZM57.6428 124.94H52.4382L52.1403 125.54H57.3235L57.6428 124.94ZM46.3772 125.54H49.2808L49.5755 124.94H46.6733L46.3772 125.54ZM56.3584 131.63L55.7431 131.63C54.6547 133.844 53.5668 136.057 52.4793 138.271L53.0935 138.273C54.1817 136.059 55.27 133.844 56.3584 131.63V131.63ZM53.6587 110.79L55.1297 113.638C55.2311 113.432 55.3326 113.225 55.4341 113.019L53.964 110.172L53.6587 110.79ZM50.8652 116.449C51.828 116.446 52.7907 116.443 53.7534 116.439C53.8555 116.231 53.9577 116.023 54.0599 115.815C53.0973 115.82 52.1346 115.824 51.1719 115.828L50.8652 116.449ZM37.6364 212.513L34.8944 206.919C34.8442 206.81 34.788 206.699 34.728 206.59C34.6653 206.476 34.5967 206.36 34.5242 206.247C34.4551 206.139 34.3784 206.026 34.2952 205.912C34.2209 205.811 34.1421 205.71 34.0616 205.613C33.8002 205.614 33.5387 205.615 33.2773 205.616C33.334 205.67 33.3914 205.725 33.4445 205.781C33.5259 205.867 33.6035 205.954 33.6748 206.04C33.752 206.134 33.8266 206.23 33.8967 206.326C33.9683 206.424 34.0356 206.523 34.0982 206.622C34.1617 206.722 34.2222 206.825 34.2781 206.926C34.3325 207.025 34.3822 207.124 34.4256 207.22L37.0234 212.521L37.6364 212.513ZM31.6208 176.785L31.9229 176.173L30.4172 173.338L30.1174 173.948L31.6208 176.785ZM27.9943 178.268L29.0642 180.277C29.1432 180.448 29.2217 180.609 29.298 180.757C29.3593 180.875 29.4239 180.989 29.4887 181.104L29.7888 180.496C29.7746 180.469 29.7594 180.444 29.7456 180.416C29.667 180.264 29.5931 180.113 29.5258 179.965L28.2955 177.655L27.9943 178.268ZM27.6134 193.662L26.8875 195.123L27.506 195.12L28.0751 193.975C28.1583 193.807 28.2408 193.649 28.3205 193.502C28.4037 193.351 28.4867 193.207 28.5697 193.071C28.6537 192.933 28.7392 192.801 28.8246 192.677C28.9146 192.546 29.0029 192.426 29.0883 192.318C29.1776 192.205 29.2681 192.098 29.3577 191.999C29.4495 191.899 29.5412 191.805 29.6326 191.719C29.724 191.634 29.8185 191.554 29.9141 191.478C30.0084 191.405 30.1019 191.34 30.1924 191.283L30.3495 191.192L30.5057 191.114L30.6635 191.05L30.8192 190.998L30.9801 190.956L31.1344 190.93L31.2937 190.915L31.4536 190.913L31.606 190.924L31.7608 190.947L31.9177 190.983L32.0718 191.031L32.2224 191.09L32.3772 191.162L32.5316 191.247L32.6804 191.341C32.7744 191.404 32.8684 191.474 32.9585 191.549C33.0478 191.623 33.1394 191.706 33.2313 191.797C33.3209 191.886 33.4106 191.982 33.4981 192.084C33.5874 192.187 33.6753 192.296 33.7593 192.41C33.8434 192.522 33.9283 192.642 34.0125 192.771C34.0936 192.894 34.1743 193.024 34.2519 193.16C34.3307 193.296 34.4083 193.438 34.483 193.585C34.5607 193.736 34.6344 193.887 34.7018 194.035L35.2649 195.092L35.892 195.09L35.1654 193.726C35.0922 193.567 35.0128 193.404 34.9283 193.24C34.8472 193.082 34.7623 192.928 34.6752 192.779C34.5886 192.631 34.4998 192.488 34.4097 192.351C34.3218 192.219 34.229 192.089 34.1333 191.963C34.0391 191.839 33.9442 191.722 33.85 191.614C33.7529 191.504 33.6542 191.398 33.5556 191.301C33.4565 191.205 33.3557 191.113 33.2536 191.03C33.1515 190.945 33.0485 190.868 32.9472 190.8L32.7655 190.686L32.5818 190.586L32.3957 190.5L32.213 190.43L32.0236 190.372L31.8396 190.33L31.6556 190.303L31.4669 190.29L31.2726 190.292L31.0825 190.309L30.8912 190.341L30.6986 190.389L30.5086 190.452L30.3177 190.531L30.1281 190.625L29.9424 190.734C29.8361 190.8 29.7304 190.873 29.627 190.954C29.5227 191.034 29.4189 191.123 29.3182 191.217C29.2162 191.312 29.115 191.414 29.0159 191.521C28.9171 191.628 28.8185 191.744 28.7212 191.867C28.6232 191.99 28.5246 192.122 28.4285 192.26C28.3368 192.392 28.2429 192.534 28.1498 192.685C28.0554 192.839 27.9639 192.995 27.8774 193.154C27.7907 193.312 27.7027 193.482 27.6134 193.662V193.662ZM35.3212 167.139C35.2561 167.261 35.1874 167.381 35.118 167.497C35.0502 167.609 34.9802 167.719 34.9089 167.823C34.8386 167.927 34.7679 168.025 34.6983 168.115C34.6288 168.205 34.5559 168.292 34.4808 168.376C34.4062 168.459 34.332 168.536 34.2592 168.605C34.182 168.677 34.1051 168.743 34.0314 168.8C33.9586 168.857 33.8834 168.91 33.806 168.958L33.6606 169.042L33.5175 169.111L33.3733 169.168L33.2266 169.211L33.0765 169.243L32.9276 169.261L32.7765 169.266L32.6252 169.26L32.4917 169.244L32.4345 169.233L32.1538 169.804L32.2481 169.829L32.4157 169.862L32.5848 169.883L32.774 169.89L32.9619 169.884L33.1469 169.862L33.3342 169.823L33.5165 169.768L33.6976 169.698L33.879 169.611L34.0545 169.51C34.1446 169.454 34.2321 169.393 34.3169 169.327C34.4035 169.26 34.4903 169.187 34.5743 169.108C34.6576 169.031 34.7424 168.945 34.8256 168.853C34.9072 168.763 34.9888 168.667 35.0681 168.567C35.1461 168.467 35.226 168.358 35.3061 168.242C35.3837 168.129 35.4619 168.008 35.5382 167.883C35.6115 167.761 35.687 167.629 35.763 167.488C35.8397 167.346 35.9127 167.202 35.9809 167.06L40.3527 158.204C40.2463 158.003 40.14 157.803 40.0337 157.602L35.5163 166.752C35.4516 166.888 35.3859 167.017 35.3212 167.139V167.139ZM22.4436 153.027L29.3333 167.08C29.3834 167.19 29.4393 167.3 29.4993 167.409C29.5593 167.519 29.628 167.634 29.7013 167.751C29.7694 167.858 29.8463 167.969 29.9291 168.083C29.9761 168.147 30.0275 168.21 30.0777 168.273L30.3582 167.709L30.3315 167.675C30.2595 167.575 30.1912 167.475 30.1294 167.378C30.0621 167.271 30.0011 167.169 29.9492 167.074C29.8921 166.97 29.8424 166.871 29.8003 166.779L23.3624 153.639L24.1956 153.63C25.0346 153.62 25.8746 153.61 26.7114 153.605L32.0195 164.366L32.329 163.743L27.0168 152.978L22.4436 153.027ZM41.7425 155.325L41.7589 155.356L52.9621 132.662H48.6008L45.8026 138.293L45.9107 138.292L48.5339 133.288H52.0378L41.4445 154.745C41.5466 154.929 41.6474 155.117 41.7425 155.325V155.325ZM43.9452 130.466C44.9189 130.462 45.8926 130.458 46.8661 130.453L47.177 129.821C46.2043 129.824 45.2316 129.827 44.2589 129.831L43.9452 130.466ZM29.4638 224.346L44.7628 224.334L45.0699 223.71L29.1335 223.723C29.2437 223.931 29.3538 224.139 29.4638 224.346V224.346ZM45.5196 162.417L48.3582 156.705L48.0499 156.084L45.2004 161.818L45.5196 162.417ZM29.3125 87.0666L28.7547 87.0735L27.774 88.9444C26.9629 90.5914 26.1516 92.2382 25.34 93.885C25.5443 93.8843 25.7486 93.8835 25.9528 93.8828L26.4725 92.8271L29.3125 87.0666ZM59.1698 147.677H58.3418L56.1733 151.748H56.9442C57.6867 150.394 58.4285 149.037 59.1698 147.677ZM51.5822 86.7898L55.0546 93.7769C55.2598 93.7762 55.4649 93.7755 55.67 93.7746L52.195 86.7822L51.5822 86.7898ZM57.4047 137.261L53.9274 144.258L54.5429 144.26L58.0173 137.268L57.4047 137.261ZM48.5607 228.236C47.5916 228.236 46.6201 228.236 45.6537 228.236L45.3477 228.856C46.3169 228.856 47.2862 228.857 48.2554 228.857L48.5607 228.236ZM49.1805 174.854C49.075 174.655 48.9696 174.456 48.8641 174.257L46.2185 179.379L46.8452 179.378L49.1805 174.854ZM59.8192 120.854H54.4689L54.1632 121.469H59.4915L59.8192 120.854ZM34.936 65.6343C34.8544 65.4771 34.77 65.3231 34.6828 65.1736C34.5963 65.0267 34.507 64.8837 34.4175 64.7468C34.3471 64.641 34.2695 64.5347 34.191 64.4286L33.9079 65.0046C33.944 65.0568 33.9798 65.104 34.0162 65.1591C34.0973 65.283 34.1793 65.4156 34.2599 65.5534C34.3358 65.6838 34.413 65.8262 34.4911 65.9769C34.5671 66.1253 34.6412 66.2774 34.7108 66.4294L35.4449 67.8078L35.7464 67.1971L35.1736 66.1219C35.0999 65.9628 35.0207 65.8003 34.936 65.6343L34.936 65.6343ZM34.7746 74.8711L36.6181 78.3507L36.7334 78.1428L37.1391 78.1425C36.4519 76.8468 35.7649 75.5511 35.0781 74.2553L34.7746 74.8711ZM34.0561 87.0075L37.2177 93.4165L41.791 93.3683L38.6453 86.9505L38.0338 86.9582L40.8737 92.7543L37.5244 92.7885L34.6681 87L34.0561 87.0075ZM33.5329 77.44L33.5161 77.4257L33.2467 77.9725C33.315 78.0364 33.384 78.1032 33.4535 78.1769C33.5355 78.2632 33.6131 78.351 33.6843 78.4367C33.7619 78.5296 33.8362 78.6247 33.9053 78.7197C33.9752 78.8156 34.043 78.9154 34.1077 79.016C34.1734 79.1194 34.2339 79.2218 34.2875 79.3201C34.3429 79.4219 34.393 79.5207 34.4355 79.614L35.1303 81.032L35.4564 80.4444L34.9017 79.3126C34.8519 79.2038 34.7962 79.0934 34.7362 78.9839C34.6736 78.8705 34.6053 78.7552 34.5321 78.6413C34.4603 78.529 34.3836 78.4172 34.3041 78.3083C34.2263 78.2014 34.1437 78.0957 34.059 77.9937C33.9799 77.8985 33.8929 77.8006 33.8003 77.7019C33.7185 77.6157 33.629 77.5279 33.5329 77.44V77.44ZM35.7945 81.1344L35.1802 81.1341L36.5439 83.9174L37.1571 83.9144L35.7945 81.1344ZM37.2056 69.9367L36.9044 70.5483L40.947 78.1393L41.5743 78.1387L37.2056 69.9367ZM39.561 83.9029L40.1918 83.8999C39.7034 82.9785 39.2149 82.0571 38.7263 81.1359L38.0935 81.1356L38.6711 82.2258L39.561 83.9029ZM46.0596 172.52C46.7468 172.52 47.3637 172.522 47.9454 172.524L47.6159 171.902C46.9976 171.901 46.3792 171.896 45.761 171.896C45.5462 172.304 45.3319 172.712 45.1181 173.121L45.4198 173.736L46.0596 172.52ZM50.9527 223.369L49.4497 220.547L49.1474 221.159L50.6512 223.982C50.7517 223.778 50.8522 223.573 50.9527 223.369ZM40.8548 205.588L44.4976 212.428L45.1217 212.42L41.4818 205.586C41.2728 205.587 41.0638 205.587 40.8548 205.588ZM43.6417 198.435L45.5295 202.234H46.1468L44.2588 198.435H43.6417ZM46.1294 215.492L47.6823 218.408L47.9842 217.795L46.756 215.489L46.1294 215.492ZM48.7611 233.571L48.4521 234.193C48.5317 234.353 48.6139 234.521 48.6935 234.682L49.0131 235.328L47.8812 235.342L47.5697 235.968L49.9297 235.939L48.7611 233.571ZM44.0174 231.55L46.9388 231.536L47.246 230.911L44.326 230.925L44.0174 231.55ZM48.7271 243.444C47.0995 243.451 45.4718 243.458 43.8442 243.465L43.5382 244.081C45.1595 244.075 46.7807 244.069 48.402 244.063L48.7271 243.444ZM43.5 177.384L44.1411 176.166L44.0212 176.167L43.7777 175.673C43.1285 176.91 42.4793 178.146 41.8302 179.382L42.4526 179.382L43.5 177.384ZM45.8949 151.748H46.4714C47.1384 150.391 47.8054 149.034 48.4722 147.677H47.8566C46.2268 150.993 44.597 154.309 42.9673 157.625L43.2876 158.226C44.2535 156.261 45.2192 154.296 46.1848 152.331L45.8949 151.748ZM43.7822 164.672L42.3704 167.513L42.6767 168.138L44.1007 165.273C43.9944 165.072 43.8883 164.872 43.7822 164.672ZM41.562 160.484C40.9891 161.651 40.4159 162.817 39.8426 163.983C39.955 164.03 40.0642 164.087 40.1695 164.153C40.2214 164.187 40.2668 164.233 40.3168 164.271C40.8385 163.21 41.3601 162.149 41.8816 161.087L41.562 160.484ZM39.113 215.526L38.4975 215.528L39.8502 218.289L40.4676 218.289L39.113 215.526ZM56.6682 116.428L56.8581 116.428L57.1939 116.427L56.9264 115.909L56.6682 116.428ZM37.045 198.435L39.0683 202.233H39.6965L37.6732 198.435H37.045ZM41.0564 170.157L36.1522 180.025C36.0728 180.186 35.9906 180.344 35.9055 180.5C35.8249 180.647 35.7417 180.791 35.6572 180.93C35.5723 181.069 35.4865 181.201 35.4011 181.324C35.3153 181.448 35.2274 181.567 35.1386 181.679C35.0488 181.794 34.9583 181.901 34.8687 182C34.7774 182.1 34.6852 182.194 34.5938 182.28C34.5012 182.366 34.4086 182.446 34.3158 182.518C34.2248 182.59 34.1307 182.655 34.034 182.716L33.879 182.806L33.7217 182.885L33.565 182.95L33.4097 183.001L33.2493 183.043L33.0945 183.068L32.9336 183.084L32.7727 183.086L32.6238 183.075L32.4669 183.051L32.3128 183.017L32.1563 182.969L32.007 182.91L31.8518 182.838L31.6965 182.752L31.5467 182.657L31.5449 182.656L31.2786 183.196L31.2807 183.198L31.4601 183.311L31.6445 183.413L31.8277 183.499L32.0138 183.569L32.2022 183.627L32.3869 183.669L32.5758 183.696L32.762 183.709L32.9523 183.707L33.1464 183.69L33.3386 183.657L33.5303 183.61L33.72 183.547L33.9086 183.468L34.0965 183.376L34.2858 183.267C34.3882 183.203 34.4937 183.129 34.5984 183.047C34.7027 182.966 34.8065 182.877 34.9082 182.784C35.0071 182.691 35.1093 182.588 35.2114 182.478C35.2402 182.447 35.2683 182.41 35.297 182.377L35.0673 182.377L36.7271 179.386L37.087 179.386L41.3638 170.78L41.0564 170.157ZM35.1406 32.5417L36.5661 29.6481L36.2581 29.0195L34.821 31.9388L35.1406 32.5417ZM37.3475 36.7042L38.8382 33.6845C38.6962 33.5497 38.5628 33.4029 38.439 33.2453L37.0284 36.1026C37.1348 36.3032 37.2411 36.5037 37.3475 36.7042ZM37.7655 25.9574L37.5629 26.3692L37.8724 26.9968L41.9131 18.7953L41.296 18.7958L37.7655 25.9574ZM32.8419 22.0483L29.5788 22.0511L29.9092 22.6743L33.1474 22.6718L32.8419 22.0483ZM49.0538 12.9906L48.4369 12.9935L39.6974 30.6964L40.0052 31.3205L49.0538 12.9906ZM22.4517 25.421L29.3414 39.4748C29.3916 39.5841 29.4482 39.6954 29.5083 39.8053C29.5709 39.9186 29.6396 40.0336 29.7121 40.1464C29.7823 40.2573 29.8592 40.3686 29.9395 40.4796C30.018 40.5863 30.1007 40.6926 30.1861 40.7954C30.2694 40.8952 30.3556 40.9931 30.4431 41.085C30.5255 41.1712 30.6154 41.2605 30.712 41.3483C30.8 41.429 30.8918 41.5074 30.9849 41.581C31.0767 41.6534 31.171 41.7215 31.2649 41.7822L31.4322 41.8861L31.5982 41.9779L31.7639 42.0576L31.93 42.1248L32.0967 42.1815L32.2619 42.2252L32.4287 42.2568L32.593 42.2774L32.7831 42.2848L32.9718 42.2788L33.1554 42.2568L33.3445 42.2172L33.5265 42.1626C33.5934 42.1404 33.6543 42.1169 33.7074 42.0928L33.886 42.007L34.064 41.9053C34.1472 41.8535 34.2351 41.7917 34.327 41.7215C34.4084 41.6583 34.4942 41.5851 34.5826 41.5034C34.6623 41.429 34.746 41.3443 34.8344 41.248C34.9163 41.1588 34.997 41.0629 35.0769 40.9617C35.1557 40.8614 35.2359 40.7525 35.3153 40.6371C35.39 40.5281 35.4673 40.4082 35.5474 40.2773C35.6199 40.157 35.6949 40.025 35.7709 39.8846C35.8251 39.7841 35.8815 39.6708 35.9376 39.5572L35.6187 38.9585L35.5251 39.1481C35.4608 39.2816 35.393 39.4135 35.3248 39.541C35.2596 39.6629 35.1922 39.7813 35.124 39.8945C35.0566 40.0073 34.9867 40.1162 34.9168 40.219C34.8431 40.3279 34.773 40.4248 34.7066 40.5096C34.6341 40.6034 34.5603 40.6912 34.4878 40.7718C34.414 40.8547 34.3399 40.9309 34.2674 40.9985C34.1914 41.0709 34.1154 41.1355 34.0426 41.1926C33.9649 41.253 33.8886 41.3067 33.8152 41.3523L33.6685 41.4365L33.5257 41.5052L33.3794 41.5626L33.2341 41.6056L33.0865 41.6367L32.9359 41.6553L32.7837 41.6618L32.6322 41.6537L32.4971 41.6372L32.3598 41.6107L32.2221 41.573L32.0849 41.526L31.9441 41.4678L31.8043 41.401L31.6635 41.3231L31.5267 41.2389C31.444 41.1848 31.3608 41.1241 31.278 41.0593C31.1943 40.9931 31.1119 40.9228 31.033 40.8496C30.9502 40.7735 30.8687 40.6937 30.7916 40.6125C30.7091 40.5262 30.6315 40.4378 30.5595 40.3525C30.4849 40.2623 30.4105 40.166 30.3385 40.0672C30.269 39.9724 30.2008 39.8721 30.136 39.7712C30.0726 39.6719 30.013 39.57 29.9576 39.4696C29.9027 39.3693 29.8524 39.2695 29.8087 39.1738L23.3706 26.0331L24.2098 26.0235C25.047 26.0129 25.8853 26.0025 26.72 25.9979L32.5453 37.8094L33.7281 35.4089L33.4083 34.8085L32.5458 36.5607L27.0254 25.3723L22.4517 25.421ZM12.1984 113.105L16.6636 104.06L16.3461 103.455L11.2728 113.731H16.0005L18.6267 108.722L19.1089 108.716L18.7839 108.097L18.3242 108.103L15.7029 113.105H12.1984ZM19.4386 97.1908L17.5626 100.991H18.1787L20.0544 97.1908H19.4386ZM6.97077 116.61L18.0569 116.567C28.0494 116.528 38.0426 116.492 48.0363 116.459L48.3414 115.84C45.427 115.853 42.5128 115.866 39.5989 115.878L7.89341 115.983L15.1588 101.194L15.052 100.991H15.2587L17.1253 97.1908H16.5141C13.3331 103.664 10.152 110.137 6.97077 116.61ZM41.1616 86.9193L44.8202 93.8142L45.4474 93.8119C44.2287 91.5112 43.0092 89.2111 41.7887 86.9116L41.1616 86.9193ZM35.9111 22.0456L35.4302 22.046L35.738 22.6699L36.2015 22.6696C36.9196 21.3807 37.6357 20.0903 38.3498 18.7983L37.7127 18.7988L35.9111 22.0456ZM49.2864 93.7979C49.4956 93.7973 49.7048 93.7965 49.9139 93.7956L46.2179 86.8565L45.5938 86.8642L49.2864 93.7979ZM50.7374 83.8492L49.3918 81.1413L48.7749 81.141L50.1222 83.8522L50.7374 83.8492ZM47.8969 78.1335L46.2896 74.8993L45.676 74.9056L47.2804 78.134L47.8969 78.1335ZM10.3573 17.5345L29.069 52.6646C29.1466 52.8336 29.2269 52.9971 29.3071 53.1527C29.3886 53.3096 29.4734 53.4641 29.5606 53.6137C29.6474 53.7616 29.7359 53.9039 29.8262 54.0405C29.9141 54.1736 30.0072 54.3041 30.1024 54.4298C30.1972 54.5548 30.2923 54.672 30.3877 54.7815C30.4842 54.8913 30.5829 54.9967 30.681 55.0926C30.7798 55.1894 30.8806 55.2807 30.9822 55.3644C31.0809 55.4462 31.1837 55.523 31.288 55.5932L31.4678 55.7065L31.6505 55.8068L31.8342 55.8916L32.0194 55.9624L32.2069 56.02L32.3944 56.0632L32.5835 56.0912L32.7688 56.1037L32.9606 56.1018L33.1523 56.0852L33.3458 56.0521L33.5376 56.0045L33.7284 55.9408L33.9168 55.8631L34.1065 55.7693L34.293 55.6609C34.3959 55.5972 34.5011 55.5236 34.6066 55.4416C34.7087 55.3629 34.812 55.2751 34.9159 55.1794C35.0153 55.0867 35.1179 54.9833 35.2199 54.8719C35.3186 54.7641 35.4172 54.6492 35.5138 54.5277C35.6108 54.4064 35.7081 54.2754 35.8038 54.1396C35.893 54.0116 35.9875 53.8666 36.0852 53.7086C36.18 53.5541 36.2719 53.3967 36.3594 53.2376C36.4455 53.0812 36.533 52.912 36.6223 52.7325L40.3091 45.3137C40.2883 45.3139 40.2671 45.3225 40.2463 45.3218C40.0742 45.3148 39.9037 45.2799 39.7398 45.218L36.1608 52.4199C36.0806 52.5825 35.999 52.7405 35.9162 52.89C35.8351 53.038 35.7517 53.1826 35.6661 53.3239C35.5821 53.4618 35.4963 53.5927 35.411 53.7166C35.3212 53.8466 35.2328 53.966 35.1479 54.0737C35.0583 54.1882 34.9674 54.2954 34.8777 54.3949C34.7864 54.4953 34.6945 54.589 34.6036 54.6747C34.5131 54.7594 34.4187 54.8398 34.3235 54.9139C34.2317 54.9853 34.1383 55.0507 34.0433 55.1101L33.8872 55.201L33.731 55.2786L33.572 55.3454L33.417 55.3965L33.2575 55.4377L33.1005 55.4638L32.9435 55.4782L32.7822 55.481L32.6325 55.4703L32.4742 55.4468L32.322 55.4116L32.1632 55.3629L32.0148 55.3048L31.8591 55.232L31.7089 55.1497L31.5553 55.053C31.4623 54.9897 31.3682 54.9196 31.2757 54.8422C31.1838 54.7671 31.0929 54.6837 31.0033 54.5959C30.917 54.5111 30.8283 54.4156 30.737 54.3095C30.6477 54.2067 30.5602 54.0977 30.476 53.985C30.3937 53.8746 30.3101 53.7551 30.2273 53.6287C30.1432 53.5 30.0617 53.3679 29.9853 53.2361C29.9116 53.1096 29.8343 52.9672 29.7546 52.8126C29.6786 52.6652 29.6048 52.5132 29.5335 52.3582L11.3195 18.1579L23.4904 18.1696L24.5464 18.1698L24.212 17.542C19.5937 17.5396 14.9755 17.537 10.3573 17.5345ZM65.5126 292.482L65.2038 291.86L50.1298 291.868C52.6532 287.13 55.3359 282.271 58.0093 277.383L57.6258 276.611L49.1667 292.492C54.6153 292.487 60.0639 292.483 65.5126 292.482ZM17.2504 22.0617L25.1023 36.8623L32.9503 51.6724C34.4601 48.5995 35.9702 45.5268 37.4805 42.4543L37.1607 41.8538L32.9332 50.4555L29.3268 43.671L25.5605 36.5713L18.2101 22.6832L26.9467 22.6766L26.6149 22.0536L17.2504 22.0617ZM62.5259 179.496L62.8309 180.117L65.7493 180.127L65.4431 179.507L62.5259 179.496ZM57.1511 74.6591C57.4039 74.6616 57.6569 74.6658 57.9097 74.6685L57.5982 74.0419L57.4539 74.0402L54.8282 69.0303H50.1004L55.0454 79.0469L56.1628 81.1447H56.081L59.3566 87.7796L59.4425 87.7793L64.3839 97.1909H64.0029L67.0833 103.431C67.1575 103.585 67.2309 103.728 67.3018 103.86C67.3768 104 67.4514 104.131 67.5239 104.251C67.5994 104.376 67.6775 104.496 67.7556 104.609C67.8354 104.726 67.915 104.834 67.9945 104.935C68.0555 105.012 68.1181 105.084 68.1805 105.155L68.4707 104.611C68.4355 104.568 68.4001 104.529 68.3652 104.484C68.2953 104.394 68.2244 104.296 68.1528 104.192C68.0825 104.088 68.013 103.979 67.9457 103.868C67.8795 103.758 67.8117 103.638 67.7432 103.511L67.5466 103.122L51.0249 69.6568H54.5296L57.1511 74.6591ZM67.9057 184.485H64.978L65.2866 185.113H68.2605C68.1318 184.912 68.0133 184.703 67.9057 184.485V184.485ZM26.4781 100.08C27.012 99.1113 27.5471 98.1481 28.0832 97.1908H27.4476L25.3395 100.991H53.7463L51.7224 97.1908H51.0933L52.9249 100.63H51.8532C43.0955 100.63 34.3354 100.629 26.1825 100.617L26.4781 100.08ZM62.2805 194.441L67.1197 194.459L66.8081 193.832L61.9516 193.814L62.2805 194.441ZM62.8276 0H62.2111L61.9058 0.614365L62.5183 0.622364L62.8276 0ZM48.5411 5.68295H52.0459L49.9772 9.8732L50.5964 9.86554L52.9703 5.05692H48.2427L45.6902 9.92634L46.3216 9.91845L48.5411 5.68295ZM56.8495 3.04254L56.2337 3.0447L54.8328 5.8952H55.4475C55.9147 4.94417 56.382 3.99328 56.8495 3.04254ZM55.782 259.14H56.3971C56.6835 258.557 56.9699 257.974 57.2566 257.391L56.9283 257.392C54.9709 257.398 53.0133 257.405 51.0554 257.413C51.158 257.621 51.2605 257.83 51.363 258.039C53.0198 258.031 54.6768 258.024 56.334 258.017C56.1498 258.391 55.9658 258.766 55.782 259.14ZM48.5257 260.895H49.8155L49.5034 260.267H48.2259L45.6011 265.277L14.2889 265.665C15.1169 267.341 15.9442 269.018 16.7709 270.696L42.9737 270.569L37.7458 281.165L32.5292 291.771L27.0087 280.584L22.4358 280.632L29.3256 294.686C29.3753 294.795 29.4315 294.905 29.4917 295.015C29.5538 295.128 29.6224 295.244 29.6953 295.357C29.7674 295.469 29.8442 295.581 29.9236 295.691C30.0012 295.798 30.084 295.904 30.1687 296.006C30.2525 296.107 30.3391 296.204 30.4266 296.297C30.509 296.383 30.5985 296.471 30.6952 296.56C30.7836 296.64 30.8762 296.719 30.9702 296.793C31.0645 296.867 31.158 296.934 31.2489 296.994L31.4159 297.097L31.5826 297.188L31.7465 297.267L31.9147 297.335L32.0807 297.393L32.2459 297.436L32.4127 297.468L32.5762 297.488L32.7651 297.496L32.9542 297.489L33.1394 297.467L33.326 297.429L33.5072 297.374L33.6894 297.304L33.87 297.217L34.0471 297.116C34.1326 297.063 34.221 297.001 34.3101 296.932C34.3973 296.865 34.483 296.792 34.5671 296.713C34.6508 296.635 34.7352 296.549 34.8193 296.457C34.8966 296.372 34.9768 296.277 35.06 296.172C35.1389 296.072 35.2192 295.963 35.2994 295.846C35.3775 295.733 35.4551 295.612 35.5311 295.486C35.6068 295.361 35.6824 295.229 35.7554 295.093C35.8318 294.952 35.9043 294.809 35.9723 294.666L51.2344 263.75L50.9261 263.13L35.5075 294.359C35.4392 294.501 35.3731 294.631 35.3101 294.748C35.242 294.876 35.1741 294.995 35.1081 295.105C35.041 295.216 34.972 295.324 34.9026 295.426C34.8314 295.532 34.7598 295.63 34.6899 295.721C34.616 295.817 34.5427 295.904 34.4714 295.983C34.3973 296.065 34.3235 296.142 34.2505 296.21C34.1743 296.283 34.0983 296.348 34.025 296.406C33.9494 296.464 33.8727 296.518 33.7977 296.564L33.6513 296.649L33.5089 296.717C33.4143 296.758 33.3171 296.791 33.2181 296.815L33.0679 296.847L32.919 296.865L32.7677 296.871L32.6158 296.864L32.4819 296.848L32.3403 296.82L32.2049 296.784L32.0658 296.737L31.9264 296.679L31.787 296.612L31.6442 296.533L31.509 296.449C31.4275 296.396 31.3452 296.336 31.2628 296.271C31.1783 296.205 31.095 296.134 31.0153 296.06C30.9372 295.99 30.857 295.909 30.7763 295.825C30.6935 295.737 30.6154 295.649 30.543 295.563C30.4662 295.47 30.3924 295.375 30.3238 295.281C30.2513 295.181 30.1831 295.081 30.1209 294.983C30.0552 294.88 29.9944 294.777 29.9407 294.678C29.8845 294.575 29.8343 294.476 29.7926 294.385L23.3543 281.245L26.7041 281.21L32.5288 293.02L43.898 269.942L17.0772 270.07C16.5684 269.047 16.073 268.039 15.5728 267.022L15.2065 266.277L45.9027 265.897L48.5257 260.895ZM52.9539 260.267H52.4578L52.7054 260.77L52.9539 260.267ZM56.3566 268.199L57.8031 265.289L57.4957 264.666L56.0498 267.575L56.3566 268.199ZM41.9685 195.068L42.5846 195.066L39.8249 189.513H56.8353L56.5873 189.033L59.4357 189.023L59.693 189.513H64.6617L64.3502 188.886H38.8962L41.9685 195.068ZM58.5757 213.821L61.2913 219.321L61.6113 218.72L58.8851 213.199L58.5757 213.821ZM55.5841 260.794L55.2758 260.17C54.7981 261.142 54.3205 262.113 53.8431 263.085L54.1506 263.711C54.6283 262.739 55.1061 261.766 55.5841 260.794L55.5841 260.794ZM59.1465 206.31L59.2415 206.503L59.3357 206.311L59.1465 206.31ZM50.6984 171.913L50.5763 171.912L50.6384 172.029L50.6984 171.913ZM41.5091 230.939L38.5837 230.953L38.8905 231.575L41.2011 231.564L41.5091 230.939ZM33.0583 129.871L33.3952 130.506L36.3655 130.496L36.0536 129.86C35.0552 129.864 34.0567 129.867 33.0583 129.871ZM25.2417 198.435L23.3537 202.234H23.9712L25.859 198.435H25.2417ZM39.9337 244.094L40.7689 244.091L41.0704 243.477C40.6896 243.479 40.3088 243.48 39.928 243.482L39.6101 243.483C39.7178 243.687 39.8257 243.89 39.9337 244.094ZM39.3823 130.486C39.9646 130.484 40.547 130.482 41.1294 130.479L41.4436 129.841C40.5158 129.844 39.588 129.848 38.6603 129.851L38.9745 130.488L39.3823 130.486ZM18.9977 244.169C25.0053 244.146 31.013 244.124 37.0207 244.104L36.6952 243.493L7.88611 243.588L20.7136 217.476L26.5327 205.641C26.3278 205.641 26.123 205.642 25.9183 205.643C19.6008 218.501 13.2822 231.359 6.96256 244.215L18.9977 244.169ZM21.6518 205.658L20.7186 207.536L21.0333 208.146L22.2704 205.656C22.0641 205.657 21.8579 205.658 21.6518 205.658ZM43.5626 125.54L43.858 124.94H36.2385L36.5342 125.54H43.5626ZM51.5836 120.854H48.6905L48.3868 121.469H51.2813L51.5836 120.854ZM23.7114 97.1908C23.0872 98.4573 22.4632 99.7239 21.8394 100.991H22.4545L24.3247 97.1908H23.7114ZM42.9963 138.328L43.3047 137.7L37.2495 137.775C37.3589 137.982 37.4684 138.188 37.5779 138.395L42.9963 138.328ZM54.5948 108.894C55.3393 108.891 56.1188 108.889 57.0026 108.889C57.083 109.042 57.1605 109.189 57.2407 109.343L57.5443 108.725L57.302 108.264L54.9018 108.272L54.5948 108.894ZM40.7125 142.975C40.8149 142.767 40.9172 142.559 41.0194 142.351L39.6786 142.357C39.7884 142.564 39.8983 142.771 40.0083 142.979L40.7125 142.975ZM38.2075 153.147C38.3598 153.051 38.5216 152.978 38.6891 152.928L43.9071 142.337L43.7927 142.338L42.8886 144.157C42.5382 144.936 42.0369 145.608 41.4247 146.12L37.8035 153.46C37.9303 153.342 38.0654 153.238 38.2074 153.147H38.2075ZM21.9591 108.681L49.9384 108.334L47.9565 104.319L47.3421 104.321C47.7976 105.25 48.2452 106.156 48.6889 107.051L49.0212 107.723L21.6393 108.062L21.9591 108.681ZM59.0616 111.612L58.7546 112.23C59.6966 114.026 60.6329 115.809 61.5635 117.579L61.8816 116.982L60.7103 114.749L59.0616 111.612ZM61.4898 106.726L64.3156 112.412L64.6345 111.813L61.798 106.106L61.4898 106.726ZM61.054 97.1908L62.9208 100.991H63.5329L61.6655 97.1908H61.054ZM63.3465 119.774C63.2412 119.973 63.136 120.171 63.0309 120.37L63.2858 120.854H62.7739C62.6651 121.059 62.5564 121.264 62.4477 121.469H64.2355L63.3465 119.774ZM62.3153 128.62L63.9225 125.385L63.6379 125.382L63.8545 124.94H60.6072C60.5011 125.14 60.3952 125.34 60.2894 125.54H63.2296L61.6994 128.619L62.3153 128.62ZM67.1554 116.866C67.071 116.712 66.9889 116.554 66.9105 116.393L66.0536 114.669L65.7354 115.269L66.449 116.705C66.5377 116.885 66.6251 117.053 66.7111 117.21C66.7981 117.369 66.8903 117.527 66.9847 117.681C67.0666 117.813 67.148 117.936 67.2289 118.054L67.5158 117.468C67.4792 117.411 67.4436 117.36 67.406 117.299C67.3206 117.159 67.236 117.015 67.1554 116.866L67.1554 116.866ZM63.6264 102.427L66.5089 108.294L66.8277 107.695L63.9342 101.807L63.6264 102.427ZM48.7031 198.435H48.0871C48.7099 199.701 49.3323 200.967 49.9543 202.234H50.57L48.7031 198.435ZM65.4335 134.364L66.2139 134.368C66.6791 133.449 67.1264 132.537 67.5766 131.624L66.8928 131.624L65.4335 134.364ZM59.2561 100.991L57.3677 97.1908H56.7511L58.6395 100.991H59.2561ZM47.1851 205.565L50.5583 212.353L50.6744 212.351L50.9314 211.861L47.8012 205.563L47.1851 205.565ZM52.1137 164.262L50.1383 164.263C50.4748 163.631 50.8235 162.99 51.1655 162.354L50.8557 161.731L49.1748 164.886C50.2575 164.885 51.3402 164.885 52.4231 164.884L52.1137 164.262ZM54.4161 155.047L52.3846 158.86L52.7017 159.506C53.5045 158.028 54.3154 156.543 55.1344 155.049L54.4161 155.047ZM53.7792 81.1435L53.167 81.1432L56.5175 87.9573L59.369 93.7612L59.6773 93.7601L56.5935 87.7893L57.0443 87.7877L53.7792 81.1435ZM54.8357 169.739L54.528 169.12L53.1239 171.966L55.9599 172.001L55.6476 171.373L54.0408 171.353L54.2797 170.868C54.4637 170.494 54.6497 170.117 54.8357 169.739H54.8357ZM59.9877 180.107L59.679 179.486L54.6 179.467L54.9316 180.09L59.9877 180.107ZM36.4242 205.604L38.6633 209.831L40.0705 212.483L40.699 212.475C39.4841 210.184 38.2694 207.893 37.0548 205.602C36.8445 205.603 36.6343 205.604 36.4242 205.604ZM69.8094 255.438L69.9999 255.254V254.478L69.8094 254.645V255.438ZM69.8094 247.647C69.8726 247.66 69.9353 247.676 69.9999 247.689V247.059C69.931 247.043 69.8719 247.02 69.8094 247.005V247.647ZM69.8094 185.113H69.9999V184.485H69.8094V185.113ZM69.1759 263.228L69.8008 263.236L69.9712 262.915L70 262.798V262.455L69.6481 262.338L69.1759 263.228ZM68.4625 238.642L67.8441 238.634L69.6453 242.3L69.9999 242.189V241.828L69.9738 241.717L68.4625 238.642ZM69.8094 287.592C69.5918 287.563 69.3811 287.486 69.1887 287.364L69.173 287.352L65.7674 287.349L66.0743 287.973C67.3828 287.975 68.6913 287.976 69.9999 287.976V287.352L69.8093 287.352L69.8094 287.592ZM69.4285 268.764C69.3495 268.84 69.2757 268.916 69.2071 268.991L69.1584 269.046L69.8094 269.046V269.209L69.9999 269.037V268.274L69.562 268.64L69.4285 268.764ZM68.2814 278.439C68.0861 278.833 67.8906 279.235 67.6951 279.63L68.0045 280.258L69.9738 276.265L69.9999 276.155V275.796L69.6452 275.686L68.2814 278.439ZM69.8093 194.316V194.469L69.9999 194.469V193.843L69.5759 193.841L69.8093 194.316ZM68.2893 292.48C68.8595 292.48 69.4297 292.479 69.9999 292.479V291.858L67.984 291.859L68.2893 292.48ZM67.4486 189.513H69.9999V188.886H67.1404L67.4486 189.513ZM55.7624 198.435H55.1357L57.1264 202.234H64.3341L64.2742 202.354C66.1829 202.379 68.0915 202.403 69.9999 202.426V201.801L57.4462 201.646L55.7624 198.435ZM69.8093 206.984L69.9999 206.985V206.362L69.8093 206.361V206.984ZM67.2586 213.626L66.9284 214.249L69.9999 214.252V213.628L68.9377 213.629C68.3781 213.63 67.8177 213.631 67.2586 213.626L67.2586 213.626ZM67.9972 223.024L67.6897 223.648L69.6452 227.616L69.9999 227.505V227.147L69.9738 227.037L67.9972 223.024ZM69.3144 209.748L69.9999 209.748V209.123L69.6456 209.124L69.3144 209.748ZM69.2479 232.932C69.2174 232.913 69.1859 232.888 69.1547 232.867L68.2687 232.867C68.3393 232.943 68.41 233.016 68.4783 233.08C68.5633 233.159 68.6499 233.233 68.7366 233.3C68.8224 233.367 68.9104 233.428 68.9991 233.484L69.1283 233.56L69.2569 233.626L69.3847 233.684C69.5893 233.761 69.7909 233.815 69.9999 233.876V233.236L69.6459 233.128C69.5093 233.074 69.3763 233.009 69.248 232.932L69.2479 232.932ZM11.8716 138.113L7.98735 130.589L30.4527 130.515L30.1148 129.881C28.9259 129.885 27.7369 129.889 26.5479 129.893L7.04075 129.968L10.9267 137.492L7.2332 137.505C6.45939 136.046 5.704 134.615 4.96702 133.212L0.949327 125.54H27.8027L27.4833 124.94H0.00850478C2.32022 129.334 4.64015 133.725 6.9334 138.131C8.5794 138.12 10.2257 138.118 11.8716 138.113ZM7.97783 258.193L39.4093 258.091C42.4075 258.08 45.4053 258.067 48.4027 258.052L48.0903 257.423C41.8189 257.444 35.5475 257.466 29.2763 257.489L7.03294 257.574L10.9189 265.098L7.22469 265.11C6.45169 263.655 5.69701 262.225 4.96065 260.82L0.94111 253.144H45.964L45.888 252.991H63.914L64.1354 252.546H0L2.39733 257.107C3.90317 259.986 5.42546 262.853 6.92562 265.736C8.57119 265.725 10.218 265.724 11.8639 265.719L7.97783 258.193ZM25.307 120.854H1.00677L28.0836 66.369C28.1652 66.2041 28.248 66.0441 28.3307 65.893C28.4131 65.7421 28.4963 65.5981 28.5784 65.4636C28.6611 65.3283 28.7477 65.1958 28.8365 65.0674C28.9214 64.9444 29.0093 64.8255 29.0977 64.7117C29.1828 64.6032 29.2733 64.4965 29.3663 64.3941C29.4606 64.2899 29.5529 64.1956 29.6417 64.1133C29.7335 64.0274 29.8262 63.9478 29.9184 63.876C30.014 63.8018 30.1092 63.7356 30.2024 63.6779L30.3581 63.5866L30.5141 63.5082L30.6734 63.4425L30.8265 63.392L30.9869 63.3507L31.1439 63.3247L31.303 63.3091L31.4608 63.3077L31.614 63.3186L31.7676 63.3417L31.9014 63.3723L32.1799 62.812L32.0349 62.7675L31.8498 62.7257L31.6607 62.6977L31.4746 62.6846L31.2849 62.686L31.0915 62.7026L30.902 62.7351L30.7072 62.7833L30.5201 62.8451L30.327 62.9244L30.1392 63.0182L29.9505 63.127C29.8441 63.1932 29.7389 63.267 29.636 63.3463C29.5322 63.427 29.4284 63.5153 29.3272 63.6096C29.2276 63.702 29.1264 63.8043 29.0247 63.9145C28.9258 64.0225 28.8267 64.1383 28.7296 64.2606C28.6314 64.3836 28.5337 64.5154 28.4375 64.653C28.3452 64.7858 28.251 64.9299 28.157 65.0819C28.0623 65.2359 27.97 65.3934 27.8829 65.5525C27.7975 65.7084 27.71 65.8771 27.6211 66.0565L0.0832319 121.469H25.6346L25.307 120.854ZM54.5927 270.508L36.1444 307.63C36.0633 307.794 35.981 307.953 35.8986 308.103C35.8154 308.255 35.7317 308.399 35.6489 308.535C35.5619 308.677 35.4761 308.809 35.3929 308.93C35.3076 309.053 35.2192 309.172 35.1299 309.286C35.0407 309.4 34.9501 309.507 34.8605 309.606C34.7691 309.707 34.6769 309.801 34.5855 309.886C34.4971 309.969 34.404 310.049 34.3092 310.124C34.217 310.195 34.1218 310.261 34.0269 310.321L33.8713 310.412L33.7143 310.489L33.5572 310.555L33.4008 310.607L33.2404 310.648L33.0846 310.674L32.9258 310.689L32.7646 310.691L32.6114 310.68L32.4566 310.657L32.3016 310.621L32.1485 310.573L31.9997 310.516L31.8415 310.442L31.69 310.359L31.5393 310.264C31.4428 310.199 31.349 310.128 31.2602 310.055C31.1709 309.981 31.0799 309.898 30.9882 309.807C30.898 309.718 30.809 309.623 30.721 309.521C30.6321 309.417 30.5442 309.308 30.4601 309.196C30.3778 309.086 30.2941 308.967 30.2113 308.84C30.1269 308.711 30.0453 308.579 29.9693 308.447C29.8905 308.31 29.8124 308.169 29.7381 308.023C29.6593 307.87 29.5853 307.718 29.5173 307.57L11.3033 273.368L23.9678 273.38L38.0448 273.383L35.8952 277.256L17.2342 277.272L25.0857 292.073L32.9327 306.883C39.5171 293.481 46.1032 280.081 52.6909 266.681L52.3818 266.059C45.8921 279.26 39.404 292.463 32.9173 305.666L25.5442 291.782L18.193 277.895L36.1852 277.881C37.1349 276.176 38.0821 274.469 39.0267 272.76C29.4645 272.751 19.9024 272.746 10.3403 272.746L29.0558 307.882C29.1342 308.053 29.2127 308.214 29.2895 308.361C29.3766 308.528 29.4616 308.684 29.5439 308.825C29.6297 308.972 29.7185 309.114 29.8082 309.25C29.8969 309.384 29.99 309.515 30.0853 309.641C30.1801 309.765 30.2752 309.882 30.3692 309.99C30.4662 310.101 30.5653 310.206 30.6631 310.302C30.7627 310.399 30.8642 310.491 30.9659 310.575C31.0685 310.659 31.171 310.736 31.2731 310.803L31.4541 310.917L31.6365 311.018L31.8209 311.104L32.0071 311.175L32.1967 311.233L32.3802 311.274L32.5677 311.302L32.753 311.314L32.9448 311.313L33.137 311.295L33.3292 311.264L33.5218 311.216L33.7127 311.153L33.9023 311.074L34.0912 310.981L34.2768 310.873C34.3832 310.806 34.4883 310.732 34.5917 310.653C34.6955 310.572 34.7993 310.484 34.9001 310.39C34.998 310.299 35.0994 310.197 35.2043 310.083C35.3032 309.975 35.4011 309.86 35.498 309.738C35.5959 309.615 35.6936 309.484 35.7889 309.347C35.8819 309.214 35.9764 309.07 36.0703 308.918C36.1646 308.765 36.2565 308.608 36.3432 308.449C36.4328 308.285 36.5221 308.116 36.607 307.942L54.9012 271.128L54.5927 270.508ZM42.3903 32.3837C42.0918 33.0991 41.6259 33.7008 41.0466 34.1188C41.0107 34.1411 40.9753 34.1457 40.9394 34.1647L38.5638 38.9986C38.6701 39.1994 38.7765 39.4 38.8829 39.6005C42.9294 31.3683 46.9752 23.1358 51.0206 14.9029L42.3903 32.3837ZM16.7868 15.4843L42.9903 15.3588L42.7714 15.8029L43.3872 15.8032L43.9153 14.7314L17.0952 14.8593C16.5135 13.6934 15.9594 12.5648 15.4047 11.4367L15.2224 11.0658L26.7481 10.9233L26.4423 10.3034L14.3048 10.4545C15.1326 12.1303 15.9599 13.8069 16.7868 15.4843ZM11.8802 10.5075L7.99559 2.98216L16.7421 2.95376L16.4131 2.3272L7.04883 2.36316L10.9361 9.88766L10.6728 9.88853C9.59683 9.89403 8.52494 9.89966 7.24181 9.89966L2.04219 0H1.41645L6.94196 10.5237L11.8802 10.5075ZM55.9053 295.166L66.8729 295.219L66.5621 294.594C62.9073 294.574 59.2525 294.557 55.5977 294.542L53.1162 299.572L69.9999 299.78V299.157L54.0329 298.959L55.9053 295.166ZM66.4309 371.915C66.5149 372.087 66.6028 372.255 66.6922 372.418C66.7801 372.578 66.8732 372.737 66.9688 372.893C67.0588 373.039 67.1522 373.182 67.2489 373.32C67.345 373.458 67.4424 373.589 67.5402 373.712C67.638 373.835 67.7375 373.951 67.8366 374.059C67.9353 374.166 68.0366 374.268 68.1381 374.362C68.2393 374.456 68.3429 374.544 68.4467 374.625C68.5505 374.705 68.656 374.78 68.7623 374.846L68.9241 374.941L69.0811 375.021L69.2419 375.093C69.49 375.182 69.7434 375.25 69.9999 375.296V374.666C69.8356 374.629 69.6842 374.597 69.5229 374.544L69.3981 374.496L69.2672 374.437L69.142 374.372L69.0111 374.295C68.9197 374.238 68.8255 374.172 68.7301 374.098C68.638 374.026 68.5454 373.946 68.4526 373.86C68.3612 373.774 68.2685 373.68 68.1772 373.58C68.0876 373.48 67.9966 373.373 67.9066 373.259C67.8177 373.146 67.7294 373.026 67.6432 372.901C67.5561 372.776 67.4708 372.645 67.3883 372.51C67.3055 372.374 67.2215 372.229 67.1378 372.077C67.056 371.927 66.974 371.769 66.8937 371.605L39.8168 317.118H69.9999V316.492H38.888L66.4309 371.915ZM50.6903 299.519C49.0448 299.512 47.3989 299.503 45.7533 299.503C43.4352 303.904 41.1215 308.31 38.8122 312.718H69.9999V312.092H39.7688L43.5493 304.88L46.0514 300.126L49.745 300.138L45.8588 307.663L69.9999 307.746V307.128L46.8052 307.043L50.6903 299.519ZM69.6422 295.233L69.9999 295.234V294.61C69.7783 294.609 69.5565 294.608 69.3347 294.607L69.6422 295.233ZM66.8517 341.854L69.9999 341.857V341.233L68.9489 341.234C68.3475 341.235 67.7443 341.237 67.143 341.231C66.5816 340.231 66.0066 339.19 65.4331 338.153L64.9938 337.357L69.9999 337.353V336.729L64.0115 336.734C64.9591 338.44 65.9059 340.146 66.8517 341.854V341.854ZM45.7808 321.364L57.7984 345.807L69.6453 369.922L69.9999 369.811V369.451L69.9738 369.34L46.7039 321.99L69.9999 322.076V321.447L46.1094 321.365L45.7808 321.364ZM59.1388 333.915L69.6452 355.238L69.9999 355.128V354.77L69.9738 354.659L60.0633 334.543L69.9999 334.59V333.968L59.4687 333.917L59.1388 333.915ZM46.8819 50.504H47.5078L49.6095 46.4339H48.9842L46.8819 50.504ZM54.8116 324.242H50.0838L67.067 358.641C67.1418 358.795 67.2146 358.939 67.2854 359.071C67.3574 359.204 67.4317 359.335 67.5072 359.461C67.583 359.586 67.6607 359.707 67.7387 359.82C67.8182 359.936 67.898 360.045 67.9765 360.144C68.0563 360.245 68.1386 360.342 68.2201 360.431C68.3038 360.523 68.3882 360.609 68.4715 360.687C68.5563 360.766 68.6431 360.839 68.7301 360.907C68.8185 360.975 68.9059 361.036 68.991 361.089L69.1201 361.165L69.251 361.232L69.3801 361.29C69.5856 361.37 69.7897 361.421 69.9999 361.482V360.843L69.632 360.732C69.4965 360.679 69.3646 360.613 69.2373 360.537C69.1669 360.493 69.0913 360.44 69.0121 360.378C68.9382 360.321 68.8623 360.255 68.7865 360.183C68.7142 360.115 68.6402 360.038 68.5655 359.955C68.4904 359.871 68.4174 359.783 68.3476 359.693C68.2733 359.597 68.2027 359.5 68.1361 359.401C68.0662 359.298 67.9967 359.189 67.9294 359.078C67.8646 358.97 67.7959 358.849 67.7243 358.715L67.5295 358.333L51.0095 324.868H54.5133L57.1352 329.871C61.4232 329.913 65.7121 329.975 70 330.03V329.406L57.4376 329.251L54.8116 324.242ZM57.928 57.5075H69.9999V56.8813H57.5999L57.928 57.5075ZM68.5639 180.136L70 180.141V179.523L68.2587 179.517C68.3603 179.723 68.462 179.93 68.5638 180.136L68.5639 180.136ZM69.8094 61.9072H70V61.2808H69.8094V61.9072ZM62.6313 66.8375L66.0398 66.8499L65.8796 66.5612L69.8094 66.5593V66.8636L69.9999 66.8642V66.2378C67.4409 66.2237 64.8818 66.2204 62.3227 66.2111C62.4256 66.4199 62.5285 66.6287 62.6313 66.8375ZM68.8077 79.3736L69.9999 79.3793V78.7562L68.5 78.7491L68.8077 79.3736ZM69.8094 44.5672L69.9999 44.5696V43.9467L69.8094 43.9443V44.5672ZM66.5424 74.7758C67.695 74.7912 68.8475 74.8055 69.9999 74.8189V74.1958L66.2337 74.149L66.5424 74.7758ZM69.2429 0L69.1449 0.113735C69.0674 0.206198 68.9876 0.307068 68.9083 0.412804C68.8164 0.53528 68.7255 0.663066 68.6392 0.795594C68.5506 0.930494 68.4629 1.07145 68.3785 1.21781C68.2901 1.37043 68.2069 1.52132 68.1313 1.66983C68.0474 1.83292 67.969 1.99278 67.8964 2.1494L49.1839 37.2816C49.6793 37.2811 50.1748 37.2808 50.6704 37.2807L50.8061 37.0222L53.6544 37.0318L53.5269 37.2787C59.0179 37.2734 64.5089 37.2697 69.9999 37.2675V36.6476L50.146 36.6576C56.1185 25.4436 63.0734 13.4638 68.5461 2.07175L68.7357 1.71301L68.934 1.37439C68.9984 1.2695 69.0669 1.16474 69.1381 1.06083L69.3402 0.780871L69.5457 0.526609L69.7353 0.316535L69.9999 0.058752V0H69.2429ZM58.9297 27.3731L59.5587 27.3737L69.9712 7.7345L70 7.61829V7.27351L69.6481 7.1573L58.9297 27.3731ZM69.8093 82.1419L69.9999 82.1418V81.5179L69.8093 81.518V82.1419ZM69.8093 14.0134L69.9999 13.84V13.0725L69.8093 13.2348V14.0134ZM68.3178 23.1934C67.6214 24.6023 66.9305 26.0019 66.2527 27.379L66.8707 27.3796L69.9738 21.0884L69.9999 20.9776V20.6189L69.6452 20.5081L68.3178 23.1934ZM57.962 30.3853L57.3324 30.3856L56.2565 32.4149L56.0773 32.7534C60.7178 32.7534 65.3586 32.7572 69.9998 32.7649V32.142L57.0368 32.1299L57.962 30.3853ZM63.854 24.1406L62.2677 27.3759L62.8858 27.3764C63.4122 26.2995 63.9426 25.2252 64.4683 24.1471L63.854 24.1406ZM53.7968 43.0138L54.4109 43.0159L55.9216 39.9553L69.9999 40.0226V39.3997C65.2049 39.3729 60.4096 39.3503 55.614 39.3318L53.7968 43.0138ZM69.8093 52.535L69.9999 52.5357V51.9183L69.8093 51.9175V52.535ZM67.8435 151.748H68.4584L69.9738 148.677L69.9999 148.566V148.207L69.6452 148.097L67.8435 151.748ZM58.7654 160.361C62.5101 160.362 66.2549 160.366 69.9998 160.371V159.747L58.4385 159.737L58.7654 160.361ZM69.4323 141.163L69.21 141.389L68.9956 141.635C68.9149 141.732 68.8343 141.836 68.7541 141.945C68.6743 142.056 68.5974 142.168 68.5271 142.279C68.4534 142.394 68.3856 142.509 68.326 142.617C68.2663 142.726 68.2102 142.836 68.1604 142.945L67.4938 144.304L68.1097 144.307C68.3246 143.873 68.5342 143.434 68.7498 143.001L68.8944 142.747L69.0552 142.497L69.2311 142.253L69.4057 142.035L69.5893 141.829L69.7518 141.663L69.9998 141.439V140.673L69.6992 140.923C69.61 140.998 69.5204 141.078 69.4325 141.163L69.4323 141.163ZM64.6089 172.109L69.9999 172.176V171.552L64.2995 171.481L64.6089 172.109ZM67.1584 86.0199L66.3537 84.5778L65.0101 82.1454L67.3655 82.1436L67.0576 81.5203L64.1397 81.5227C64.4314 82.1163 64.7232 82.71 65.015 83.3036L66.868 86.6435L69.9999 86.646V86.0224L68.9536 86.0239C68.3558 86.0244 67.7565 86.026 67.1584 86.0199ZM62.3838 167.592L69.9999 167.629V167.006C67.3587 166.991 64.7173 166.978 62.0758 166.967L62.3838 167.592ZM69.8094 164.875L69.9999 164.875V164.252L69.8094 164.252V164.875ZM69.8094 135.629L69.9712 135.324L70 135.208V134.867L69.8094 134.804L69.8094 135.629ZM60.4809 74.0778L60.7889 74.7044C61.7629 74.7162 62.7368 74.7284 63.7106 74.7408L63.4012 74.114L60.4809 74.0778ZM65.9913 79.3604L65.683 78.7357L62.7633 78.7219L63.0703 79.3464L65.9913 79.3604ZM60.0804 79.3322L60.2276 79.3329L59.9172 78.7084L59.4855 78.7063L59.1556 78.7052L69.6453 99.9934L69.9999 99.8829V99.5248L69.9738 99.414L60.0804 79.3322ZM69.3853 127.445C69.3006 127.532 69.2188 127.623 69.1407 127.716C69.0622 127.809 68.9827 127.909 68.9022 128.016C68.8083 128.141 68.7168 128.272 68.6298 128.403C68.5847 128.472 68.5385 128.551 68.4927 128.625L69.1598 128.625L69.3392 128.377C69.404 128.292 69.4741 128.206 69.5462 128.122L69.737 127.911L69.9999 127.656V126.881L69.5379 127.292L69.3853 127.445ZM69.2779 119.223L69.2681 119.218L69.0002 119.761L69.0902 119.807L69.2462 119.878L69.5363 119.979C69.6916 120.02 69.8433 120.051 70 120.085V119.453C69.7979 119.411 69.5985 119.354 69.4033 119.28L69.2779 119.223ZM69.8094 106.209C69.873 106.227 69.935 106.25 70 106.268V105.629L69.8094 105.57V106.209ZM69.8094 113.762V114.627L70 114.567V114.207L69.9738 114.097L69.8094 113.762ZM45.5831 61.2806L45.9167 61.9071H51.568L51.2566 61.2806H45.5831ZM59.2835 228.667L58.9647 229.269L59.2589 229.861L59.8768 229.861L59.2835 228.667ZM50.9793 198.435L52.8549 202.233H53.4715L51.5959 198.435H50.9793ZM64.5691 224.711L63.0318 221.598L62.7124 222.2L64.2618 225.338L64.5691 224.711ZM61.1843 225.082C61.9674 226.677 62.7508 228.27 63.5344 229.864L64.1492 229.865L61.5033 224.481L61.1843 225.082ZM58.0524 238.512C59.2942 240.882 60.522 243.22 61.7358 245.528L62.3656 245.53C61.1398 243.193 59.9132 240.856 58.6858 238.52L58.0524 238.512ZM52.1384 226.775L52.9167 228.236H51.4123L51.1027 228.859C52.0276 228.86 52.9525 228.86 53.8775 228.861L52.4417 226.164L52.1384 226.775ZM51.5839 205.549C52.0481 206.493 52.5123 207.438 52.9765 208.382H53.5919L52.1983 205.547L51.5839 205.549ZM52.0314 215.317L53.4786 218.229L53.7856 217.604L52.3391 214.694L52.0314 215.317ZM63.1482 282.019C63.6316 281.031 64.1156 280.043 64.6002 279.056L64.2908 278.429L62.8392 281.39L63.1482 282.019ZM61.2632 284.605L61.6001 284.609L61.4296 284.266L61.2632 284.605ZM62.1069 235.591L62.726 235.594L61.3726 232.871L60.755 232.871L62.1069 235.591ZM58.8913 261.858L59.2079 262.462L62.2614 256.317L61.6458 256.315L58.8913 261.858ZM62.0841 268.241C62.222 268.521 62.3598 268.8 62.4975 269.08C63.0004 268.136 63.5031 267.191 63.9968 266.249L63.1473 266.245L62.0841 268.241ZM66.3023 269.834L65.9808 269.255L64.2199 272.576L64.5226 273.19L66.3023 269.834ZM56.2399 243.411C54.7002 243.419 53.1606 243.426 51.6211 243.431L51.3002 244.053C53.15 244.047 55 244.04 56.85 244.033L57.1857 244.032L53.3011 236.506L56.9944 236.494C57.1968 236.881 57.3925 237.254 57.5935 237.637L57.8981 237.02C57.6967 236.637 57.4956 236.254 57.2946 235.87L52.3546 235.887L56.2399 243.411ZM62.7602 275.329L61.2553 278.167L61.5575 278.782L63.0633 275.943L62.7602 275.329ZM45.7687 44.2909L41.1704 53.0472C41.2894 53.226 41.4005 53.4117 41.5033 53.6037C43.0285 50.6935 44.5546 47.781 46.0672 44.9154L46.6603 44.9171L46.9869 44.295L45.7687 44.2909ZM54.9318 221.153L57.5304 226.383L57.8499 225.783L55.2406 220.532L54.9318 221.153ZM39.7851 56.8813L40.0498 56.376L39.7345 55.7814L38.8281 57.5074H40.6497L40.3176 56.8813H39.7851ZM31.8096 69.2744L33.3167 72.1191L33.6198 71.5051C33.1166 70.5571 32.6138 69.6088 32.1114 68.6602L31.8096 69.2744ZM39.5855 62.6502C39.7917 62.7039 39.9905 62.7913 40.1759 62.91C40.2651 62.9736 40.3513 63.0427 40.4343 63.1169L39.8331 61.9071H42.9824L42.6503 61.2806H38.9049L39.5855 62.6502ZM49.0704 56.8813H43.24L43.5734 57.5074H49.3816L49.0704 56.8813ZM45.8756 52.4524L46.8712 52.456L46.3821 51.4718L45.8756 52.4524ZM59.5148 274.626C60.0228 273.692 60.5251 272.757 61.0289 271.822L60.6188 270.992L59.1157 273.814L59.5148 274.626ZM30.3032 83.9472L30.8518 83.9446L31.6982 82.2276L32.5411 83.9365L33.1551 83.9334L31.7314 81.0483L30.3032 83.9472ZM30.9021 76.5708L30.7192 76.6255L30.5366 76.6961L30.3577 76.783L30.18 76.8842C30.0947 76.9375 30.0068 76.9982 29.9174 77.0674C29.8314 77.1347 29.7456 77.2079 29.6614 77.2861C29.5782 77.3638 29.4941 77.4486 29.4105 77.5404C29.3289 77.6298 29.2475 77.7266 29.1674 77.8284C29.0888 77.9271 29.0093 78.0351 28.9301 78.1504C28.8515 78.2642 28.7734 78.3852 28.6971 78.5111C28.6237 78.6319 28.5487 78.7639 28.4727 78.9048C28.396 79.0472 28.3221 79.1913 28.2543 79.3343L21.063 93.9006C21.2686 93.8997 21.4742 93.8989 21.6797 93.8983L28.7187 79.6392L28.9176 79.249C28.9832 79.127 29.051 79.0081 29.1201 78.8933C29.1874 78.7808 29.2565 78.6735 29.3256 78.5712C29.3976 78.4659 29.4687 78.3675 29.5379 78.2783C29.6109 78.1848 29.6846 78.0967 29.7575 78.0154C29.8314 77.9336 29.9051 77.8574 29.978 77.7887C30.053 77.7175 30.1291 77.6528 30.2027 77.5946C30.2782 77.5358 30.3551 77.4821 30.4302 77.4356L30.576 77.3518L30.7187 77.2825L30.7791 77.2592L31.1412 76.5257L31.0886 76.5321L30.9021 76.5708ZM63.8914 249.083H64.2308L64.1454 248.921H45.8515L46.0933 248.46H0.999115L19.6312 210.967L19.314 210.363L0.0711254 249.084L63.8914 249.083ZM54.2128 210.898C54.691 211.871 55.1692 212.844 55.6472 213.817L55.9548 213.191L54.5212 210.273L54.2128 210.898ZM26.5027 175.467L26.8058 174.858L11.3114 145.763L23.9596 145.775L38.0526 145.778L35.9029 149.652L17.2419 149.667L25.0943 164.468L28.6418 171.163L28.9417 170.559L25.5523 164.177L18.2011 150.289L36.1938 150.276L38.7195 145.722C38.5608 145.546 38.4138 145.356 38.2796 145.155C28.9693 145.146 19.659 145.141 10.3485 145.139L26.5027 175.467ZM16.7782 143.089L37.098 142.993L36.7669 142.371L17.0866 142.464C16.5079 141.3 15.931 140.131 15.3557 138.957L15.2156 138.672L34.6685 138.431L34.3386 137.812L14.2974 138.06C15.1248 139.736 15.9518 141.412 16.7782 143.089ZM45.5681 121.469L45.8712 120.854H28.2779L28.604 121.469H45.5681ZM33.9368 125.54L33.643 124.94H30.4444C30.5504 125.14 30.6564 125.34 30.7622 125.54H33.9368ZM54.1919 61.2806L54.4997 61.9071H57.3747L57.0654 61.2806H54.1919ZM64.6804 137.351L63.8479 137.341L60.1518 144.279L61.0079 144.282C62.2563 141.967 63.4805 139.657 64.6804 137.351V137.351ZM66.81 155.09L66.1961 155.087L65.5386 156.42L62.1893 156.386C62.4032 155.949 62.6172 155.513 62.8314 155.076L62.2151 155.074L61.2709 157L65.8442 157.048L66.81 155.09ZM63.4217 147.677H62.7938L60.6351 151.748H61.2631L63.4217 147.677ZM60.204 131.628L58.8601 134.332L59.4749 134.335L60.8204 131.627L60.204 131.628ZM56.3551 166.94L56.6625 167.565L59.5543 167.579L59.2456 166.954C58.282 166.949 57.3185 166.943 56.3551 166.94L56.3551 166.94ZM55.0384 164.26L55.3443 164.883C56.3038 164.882 57.2631 164.882 58.2224 164.881L57.9151 164.259L55.0384 164.26ZM58.8777 155.062L57.375 157.896H57.4735L57.7369 158.399L59.5048 155.064L58.8777 155.062ZM43.172 81.1381L42.544 81.1378L44.0052 83.8815L44.6316 83.8785L43.172 81.1381ZM52.0298 56.8813C52.1325 57.09 52.2351 57.2987 52.3376 57.5074H55.2026L54.8935 56.8813H52.0298ZM58.5518 171.409L58.8605 172.038L61.7734 172.074L61.4633 171.446L58.5518 171.409ZM48.5155 66.7865L54.0026 66.8064L53.6919 66.1812C51.8555 66.1762 50.0192 66.1698 48.183 66.1621L48.5155 66.7865ZM65.8408 147.677L63.8452 151.748H64.4623C65.1251 150.389 65.7903 149.032 66.4578 147.677H65.8408ZM59.4947 66.2014C58.5314 66.1982 57.5683 66.1949 56.6052 66.1913L56.9127 66.8169L59.8038 66.8273L59.4947 66.2014ZM68.2459 137.395L64.5875 144.294L65.214 144.296L68.8691 137.403L68.2459 137.395ZM69.7526 113.647L68.234 110.557L67.9156 111.157L69.3501 114.077C69.4746 113.921 69.6092 113.778 69.7526 113.647H69.7526ZM57.1045 216.782C57.9906 218.585 58.8767 220.388 59.763 222.191L60.0828 221.59L57.4137 216.159L57.1045 216.782ZM67.3969 244.903C67.3137 244.767 67.2305 244.622 67.1472 244.471C67.0674 244.325 66.9856 244.166 66.9028 243.999L64.2141 238.589L63.5926 238.581L66.4399 244.311C66.5279 244.491 66.6158 244.659 66.7011 244.815C66.7887 244.974 66.8813 245.132 66.9761 245.287C67.0306 245.376 67.0889 245.461 67.1461 245.547L67.8374 245.549C67.7767 245.468 67.7161 245.389 67.6527 245.297C67.5702 245.177 67.4844 245.045 67.3969 244.903H67.3969ZM68.7229 256.919C68.7893 256.798 68.8571 256.683 68.9237 256.576C68.972 256.497 69.0247 256.419 69.0771 256.341L68.4177 256.338C68.4005 256.367 68.3822 256.394 68.3652 256.423C68.2789 256.571 68.1944 256.724 68.1147 256.88C68.0352 257.033 67.9564 257.194 67.8795 257.361L64.7831 263.174L65.5788 263.184C66.5904 261.209 67.5839 259.24 68.5269 257.288L68.7229 256.919ZM65.6254 232.869L65.0111 232.869C65.4602 233.783 65.9095 234.698 66.3591 235.612L66.9749 235.615L65.6254 232.869ZM64.904 226.639L66.4975 229.867L67.1145 229.867L65.524 226.646L64.904 226.639ZM66.5997 283.106L66.2913 282.481C66.0376 282.998 65.7838 283.504 65.5301 284.027C65.0642 284.02 64.5953 284.017 64.1275 284.012L64.4357 284.639L65.8359 284.654L66.5997 283.106ZM67.526 272.039L67.4713 271.941L65.6936 275.567L66.0026 276.194C66.6807 274.809 67.3593 273.424 68.0385 272.04L67.526 272.039ZM67.5652 266.266L66.0901 269.048L66.719 269.048L68.1924 266.269L67.5652 266.266ZM56.061 287.965C58.4642 287.965 60.8674 287.967 63.2707 287.971L62.9604 287.346L57.0192 287.341L60.0848 281.56L59.7809 280.948L56.2403 287.626L56.061 287.965ZM39.7769 184.485L40.8804 182.381L40.256 182.38C39.7777 183.292 39.2993 184.203 38.8207 185.113H46.4623L51.6174 185.089L51.6296 185.113H62.4756L62.1635 184.485H39.7769ZM54.4865 205.538L57.107 210.846L57.4146 210.22L55.1019 205.536C54.8968 205.537 54.6917 205.537 54.4865 205.538V205.538ZM59.0513 193.804L46.1175 193.759L45.7886 193.758L45.9527 194.092C46.1101 194.412 46.2674 194.732 46.4245 195.052L47.0395 195.049L46.7124 194.384L59.3745 194.43L59.0513 193.804ZM60.7207 209.505L63.5074 215.16L63.8273 214.56L61.0303 208.882L60.7207 209.505ZM65.3968 211.613L65.7093 211.026C65.4737 210.601 65.2368 210.176 65.0016 209.75L66.3891 209.75L66.7211 209.126L64.0184 209.128C64.4782 209.956 64.9376 210.784 65.3968 211.613H65.3968ZM66.6931 220.377L65.2414 217.43L64.9225 218.032L66.3864 221.003L66.6931 220.377ZM68.198 206.353L62.3007 206.325L61.992 206.946L67.8672 206.974L68.198 206.353Z" fill="#EAC5D3"/>
<path d="M69.8092 93.0593V91.901L51.365 54.3702L69.8092 54.4374V53.8559C63.376 53.8318 56.9429 53.8095 50.51 53.7891C56.9484 66.8762 63.3815 79.9663 69.8092 93.0593ZM39.3791 167.911L43.7374 176.747L47.4472 176.708L41.9543 165.501C41.5897 164.735 41.0573 164.095 40.4116 163.649C40.0848 163.426 39.7202 163.29 39.3435 163.251C38.9314 163.216 38.5194 163.321 38.157 163.553C37.4941 164.02 36.9594 164.7 36.6157 165.511L23.1119 192.865H26.9438L29.0269 188.891L53.9112 188.583L51.9011 184.509L31.1523 184.609L39.3791 167.911ZM51.6172 185.089L53.0615 188.015L28.7479 188.317L26.6674 192.286H23.9681L37.0451 165.797C37.3444 165.082 37.8103 164.481 38.3891 164.062C38.6695 163.882 38.9883 163.801 39.3071 163.829C39.6113 163.862 39.9057 163.973 40.1693 164.153C40.736 164.545 41.2028 165.107 41.5214 165.781L46.5974 176.139L44.021 176.166L39.3786 166.756L30.2961 185.191L51.6172 185.089ZM42.1699 155.037C41.7731 154.079 41.1584 153.268 40.3931 152.693C40.0319 152.441 39.6224 152.3 39.2023 152.282C38.7737 152.273 38.3505 152.396 37.9751 152.638C37.1811 153.201 36.5366 154.011 36.1134 154.978L14.2304 199.012H65.2601C63.4125 195.489 61.5631 191.966 59.7119 188.445L55.7116 188.458L58.7946 194.429L20.553 194.568L39.072 156.885L50.6897 178.797L36.4583 178.809L34.1582 182.955C41.7878 182.955 49.4173 182.959 57.0466 182.967L42.1699 155.037ZM36.7269 179.386L51.5772 179.374C47.4064 171.5 43.2328 163.628 39.0564 155.759L19.6981 195.149C33.0218 195.098 46.3459 195.049 59.6702 195.004L56.5872 189.033L59.4355 189.023L64.3772 198.435H15.0888L36.5406 155.267C36.9185 154.395 37.4953 153.661 38.2072 153.147C38.5077 152.952 38.8467 152.853 39.1904 152.859C39.5282 152.875 39.8572 152.99 40.1474 153.193C40.8361 153.719 41.3878 154.457 41.7423 155.325L56.1556 182.388L35.0671 182.378L36.7269 179.386ZM66.925 93.9607C67.3489 94.9268 67.9934 95.7366 68.787 96.3003C69.1022 96.5022 69.4508 96.6221 69.8092 96.652V96.0725C69.5322 96.0428 69.2632 95.9468 69.0192 95.7906C68.3074 95.2774 67.7308 94.5442 67.353 93.6719L45.9011 50.504H69.8092V49.9241H45.0414L66.925 93.9607ZM40.0504 131.513L35.6913 122.677L31.982 122.717L37.4749 133.923C37.8395 134.69 38.3719 135.329 39.0176 135.776C39.3444 135.998 39.709 136.134 40.0857 136.173C40.4977 136.209 40.9097 136.104 41.2721 135.872C41.9347 135.404 42.4694 134.724 42.8134 133.913L56.3169 106.559H52.4854L50.4024 110.534L25.5179 110.842L27.5279 114.915L48.2768 114.816L40.0504 131.513ZM27.812 114.337L26.3677 111.41L50.6807 111.108L52.7617 107.139H55.4612L42.3841 133.628C42.0851 134.343 41.6191 134.944 41.0401 135.362C40.7597 135.542 40.441 135.623 40.1221 135.596C39.8178 135.563 39.5235 135.452 39.2598 135.271C38.6931 134.879 38.2262 134.317 37.9077 133.644L32.8318 123.285L35.4082 123.258L40.0504 132.669L49.1325 114.234L27.812 114.337ZM54.5299 36.4574L50.5293 36.4439L44.9792 47.0133H69.8092V46.4339H45.8637L50.8059 37.0222L53.6542 37.0318L50.5714 43.0027C56.984 43.0222 63.3966 43.0441 69.8092 43.0684V42.4945L51.4465 42.4278L54.5299 36.4574ZM69.8092 81.4069V80.2522L61.9648 64.3295L69.8092 64.367V63.7898L61.109 63.748C64.0109 69.6332 66.911 75.5195 69.8092 81.4069ZM40.0436 232.757L35.6844 223.921L31.9755 223.96L37.4686 235.168C37.8333 235.934 38.3657 236.573 39.0111 237.02C39.3378 237.242 39.7022 237.377 40.0787 237.417C40.4909 237.452 40.9031 237.348 41.2657 237.116C41.9286 236.648 42.4634 235.968 42.807 235.157L56.3105 207.803H52.4791L50.396 211.777L25.5115 212.086L27.5216 216.159L48.2699 216.059L40.0436 232.757ZM27.8055 215.58L26.3612 212.653L50.6743 212.351L52.7553 208.382H55.4546L42.3776 234.872C42.0785 235.586 41.6126 236.188 41.0336 236.606C40.7532 236.786 40.4345 236.867 40.1157 236.84C39.8114 236.806 39.5172 236.695 39.2535 236.514C38.6867 236.123 38.2198 235.561 37.9013 234.888L32.8253 224.529L35.4016 224.501L40.0436 233.913L49.1257 215.478L27.8055 215.58ZM57.7558 56.0726H53.9238L67.4281 83.4266C67.7718 84.2378 68.3064 84.9175 68.9689 85.3859C69.2288 85.5511 69.5147 85.6526 69.8092 85.6842V85.1024C69.5962 85.0729 69.39 84.9961 69.2016 84.8763C68.6232 84.4588 68.1578 83.8583 67.8593 83.1442L54.7803 56.6525H57.4799L59.56 60.622L69.8092 60.7494V60.1714L59.8392 60.0471L57.7558 56.0726ZM14.1721 201.676C16.0188 205.192 17.8649 208.708 19.7105 212.224L23.7111 212.21L20.6276 206.239L58.8702 206.099L40.3508 243.784L28.733 221.871L42.9644 221.86L45.2642 217.714C37.6348 217.708 30.0053 217.704 22.3756 217.702L37.2527 245.632C37.6495 246.589 38.2643 247.4 39.0295 247.976C39.3908 248.227 39.8005 248.369 40.2208 248.386C40.6493 248.395 41.0723 248.272 41.4476 248.03C42.2415 247.467 42.886 246.657 43.3092 245.69L65.1825 201.676H14.1721ZM42.8821 245.401C42.5042 246.273 41.9275 247.007 41.2155 247.521C40.9149 247.716 40.5759 247.815 40.2323 247.809C39.8946 247.793 39.5658 247.678 39.2757 247.476C38.5867 246.949 38.0347 246.211 37.6804 245.343L23.2671 218.28L44.3556 218.291L42.696 221.282L27.8454 221.295C32.0218 229.164 36.1954 237.035 40.3662 244.91C46.8235 231.782 53.2763 218.652 59.7247 205.519C46.4006 205.56 33.0764 205.609 19.7521 205.665L22.8355 211.636L19.9872 211.645L15.0454 202.234H64.3339L42.8821 245.401ZM23.7174 110.967L20.6345 104.996L58.8766 104.856L40.3571 142.54L28.7394 120.627L42.9709 120.616L45.2706 116.47C37.6414 116.464 30.0119 116.46 22.3821 116.458L37.2591 144.388C37.6561 145.345 38.2709 146.156 39.0359 146.732C39.3973 146.983 39.8069 147.125 40.2271 147.143C40.6557 147.152 41.0787 147.029 41.454 146.787C42.2477 146.223 42.8922 145.413 43.3158 144.446L65.1889 100.433H14.1789C16.0249 103.948 17.8709 107.464 19.7169 110.98L23.7174 110.967ZM64.3403 100.991L42.8885 144.157C42.5105 145.03 41.9338 145.763 41.222 146.277C40.9214 146.472 40.5824 146.571 40.2388 146.565C39.9011 146.549 39.5723 146.434 39.2822 146.232C38.5934 145.705 38.0416 144.968 37.6872 144.099L23.2734 117.036L44.3619 117.047L42.7023 120.038L27.8519 120.051C32.0284 127.92 36.2019 135.792 40.3726 143.666C46.8299 130.539 53.2827 117.409 59.7311 104.276C46.4074 104.317 33.0833 104.365 19.7589 104.421L22.8419 110.392L19.9936 110.402L15.0519 100.991L64.3403 100.991ZM69.8092 27.3819V26.8045L59.5517 26.796L69.8092 7.4491V6.35208L58.6642 27.3729L69.8092 27.3819ZM68.072 3.03525L53.1941 30.9656C58.7325 30.9621 64.2708 30.9586 69.8092 30.955V30.3791L54.0854 30.3871L68.4992 3.32423C68.8134 2.58438 69.2602 1.93237 69.8092 1.41256V0.718261C69.0633 1.29496 68.4634 2.09512 68.072 3.0353V3.03525ZM40.0569 30.2698L35.6977 21.4336L31.9884 21.4727L37.4817 32.6801C37.8464 33.4463 38.3786 34.0854 39.0239 34.5321C39.3508 34.7544 39.7154 34.8902 40.092 34.93C40.5043 34.9649 40.9164 34.86 41.2791 34.6279C41.9418 34.1601 42.4766 33.4807 42.8204 32.6696L56.3234 5.31529H52.4919L50.4088 9.28973L25.5243 9.59864L27.5344 13.6718L48.2832 13.572L40.0569 30.2698ZM27.8183 13.0925L26.3741 10.166L50.6876 9.86396L52.7681 5.8952H55.4676L42.3904 32.3842C42.0914 33.0991 41.6254 33.7005 41.0464 34.1188C40.7661 34.2983 40.4473 34.3793 40.1285 34.352C39.8243 34.3189 39.53 34.2081 39.2664 34.0275C38.6997 33.6357 38.2329 33.0739 37.9142 32.4003L32.8381 22.041L35.415 22.0144L40.0569 31.4254L49.1389 12.99L27.8183 13.0925ZM23.7244 9.72307L20.6409 3.75216L58.883 3.61272L40.3637 41.2961L28.7458 19.3839L42.9773 19.3724L45.277 15.227C37.6479 15.221 30.0183 15.2168 22.3884 15.2144L37.2656 43.1441C37.6625 44.1015 38.2772 44.9125 39.0424 45.4881C39.4035 45.7395 39.8128 45.881 40.2328 45.8996C40.6617 45.9086 41.0851 45.7856 41.4605 45.5429C42.2544 44.9794 42.899 44.1694 43.3226 43.2028L64.7925 0H64.2206L42.8949 42.9134C42.5172 43.7864 41.9405 44.5202 41.2284 45.0338C40.9281 45.2287 40.5894 45.328 40.2461 45.3217C39.908 45.3061 39.5788 45.1914 39.2886 44.9881C38.5996 44.462 38.0479 43.7242 37.6937 42.8556L23.28 15.7928L44.3681 15.8037L42.7088 18.7946L27.8587 18.807C32.0351 26.6765 36.2086 34.5483 40.3791 42.4222C46.8363 29.2956 53.2892 16.1655 59.7376 3.03196C46.4137 3.073 33.0897 3.12161 19.7655 3.17777L22.8488 9.14814L20 9.1582L15.1913 0H14.6112C16.316 3.24495 18.02 6.49047 19.7233 9.73655L23.7244 9.72307ZM67.2578 272.617L69.8093 272.619V272.041L67.5259 272.039L65.8662 269.049L69.8093 269.046V268.468L64.9576 268.471L67.2578 272.617ZM56.3302 36.5812L69.8093 36.7483V36.1711L57.1797 36.0139L58.624 33.0874L69.8093 33.1407V32.5633L58.3399 32.5086L56.3302 36.5812ZM59.7183 87.2009L55.7181 87.2148L58.8015 93.1852L20.5595 93.3247L39.0784 55.6413L50.6966 77.5536L36.4648 77.5655L34.165 81.7114C41.7947 81.7114 49.4242 81.7152 57.0535 81.7229L42.1764 53.7933C41.7796 52.8359 41.1648 52.0249 40.3997 51.4492C40.0386 51.1979 39.6294 51.0565 39.2096 51.0378C38.7806 51.0287 38.357 51.1517 37.9816 51.3946C37.1875 51.9577 36.5429 52.7679 36.1198 53.7345L14.2399 97.7612H65.2635C63.4167 94.2402 61.5683 90.7201 59.7183 87.2009H59.7183ZM36.5471 54.0241C36.9251 53.1514 37.5017 52.4176 38.2135 51.9036C38.5138 51.7087 38.8526 51.6095 39.196 51.6158C39.5342 51.6313 39.8636 51.746 40.1539 51.9493C40.8426 52.4758 41.3943 53.2134 41.7488 54.0817L56.1626 81.1447L35.074 81.134L36.7333 78.1425L51.5838 78.1305C47.4128 70.2562 43.2392 62.3845 39.063 54.5152L19.7044 93.9055C33.0287 93.8543 46.3528 93.8058 59.6766 93.7601L56.5936 87.7893L59.4421 87.7792L64.3838 97.1908H15.0952L36.5471 54.0241ZM39.3856 66.6676L43.7442 75.5038L47.4537 75.4647L41.9607 64.2573C41.5961 63.4909 41.0637 62.8517 40.4182 62.4053C40.0913 62.1828 39.7266 62.047 39.3499 62.0075C38.9378 61.9722 38.5257 62.0771 38.1634 62.3095C37.5007 62.7773 36.966 63.4567 36.6222 64.2678L23.1181 91.6216H26.9502L29.0336 87.6472L53.9178 87.3387L51.9076 83.2661L31.1592 83.3654L39.3856 66.6676ZM51.6236 83.845L53.068 86.7714L28.7545 87.0735L26.6743 91.0423H23.9743L37.0515 64.5533C37.3509 63.8386 37.8167 63.2374 38.3954 62.8186C38.6758 62.6389 38.9946 62.5579 39.3134 62.5854C39.6177 62.6185 39.912 62.7293 40.1757 62.91C40.7423 63.3016 41.2092 63.8632 41.5278 64.5366L46.6037 74.8959L44.0274 74.923L39.3852 65.5124L30.303 83.9472L51.6236 83.845ZM68.2883 13.5009L62.7936 24.7073L66.5036 24.7464L69.8092 18.0455V16.8903L66.2206 24.1654L63.6438 24.1384L68.7197 13.7798C68.9882 13.2145 69.3603 12.7256 69.8093 12.3482V11.6614C69.173 12.1078 68.6484 12.7422 68.2883 13.5009ZM54.5165 238.945L50.5164 238.931L44.9664 249.5H69.8092V248.921H45.8513L50.7928 239.509L53.6414 239.519L50.5576 245.49C56.9749 245.509 63.3922 245.531 69.8092 245.556V244.982L51.4336 244.915L54.5165 238.945ZM66.9189 195.204C67.3422 196.171 67.9867 196.981 68.7807 197.544C69.0977 197.747 69.4486 197.867 69.8092 197.896V197.317C69.5299 197.288 69.2586 197.192 69.0127 197.035C68.3011 196.521 67.7246 195.788 67.3467 194.916L45.8948 151.748H69.8092V151.168H45.0347L66.9189 195.204ZM54.523 137.701L50.5225 137.687L44.9729 148.257H69.8092V147.677H45.8574L50.7991 138.265L53.648 138.275L50.5645 144.246C56.9793 144.266 63.3942 144.288 69.8093 144.312V143.739L51.44 143.672L54.523 137.701ZM69.8092 182.664V181.509L61.9579 165.573L69.8092 165.611V165.033L61.1022 164.992C64.0062 170.881 66.9086 176.772 69.8092 182.664V182.664ZM57.7492 157.316H53.9173L67.4217 184.671C67.7654 185.482 68.3001 186.161 68.9629 186.63C69.2248 186.795 69.5127 186.897 69.8092 186.929V186.347C69.594 186.318 69.3855 186.241 69.195 186.12C68.6165 185.702 68.1511 185.102 67.8527 184.388L54.7735 157.896H57.4734L59.5536 161.865L69.8093 161.992V161.415L59.8324 161.291L57.7492 157.316ZM69.8092 194.317V193.158L51.3584 155.613L69.8092 155.681V155.1C63.3739 155.076 56.9387 155.054 50.5036 155.033C56.944 168.124 63.3792 181.219 69.8092 194.316V194.317ZM68.0652 104.279L53.188 132.209C58.7286 132.205 64.269 132.202 69.8093 132.199V131.623L54.0791 131.631L68.4933 104.568C68.8084 103.825 69.2573 103.171 69.8092 102.65V101.957C69.0603 102.534 68.4579 103.336 68.0652 104.279ZM56.3234 137.825L69.8092 137.992V137.414L57.1731 137.258L58.6179 134.331L69.8092 134.385V133.807L58.3335 133.752L56.3234 137.825ZM69.8092 128.626V128.048L59.545 128.04L69.8092 108.681V107.585C66.0937 114.597 62.3765 121.607 58.6578 128.616L69.8092 128.626ZM68.2817 114.744L62.7876 125.951L66.4972 125.99L69.8092 119.276V118.121L66.2136 125.409L63.6376 125.382L68.7137 115.023C68.9836 114.455 69.3577 113.964 69.8092 113.586V112.901C69.17 113.347 68.643 113.983 68.2817 114.744L68.2817 114.744ZM69.8092 229.869V229.292L59.5384 229.283L69.8092 209.912V208.815L58.6509 229.86L69.8092 229.869ZM67.2637 171.374L69.8092 171.376V170.798L67.5323 170.796L65.8732 167.805L69.8093 167.803V167.224L64.9642 167.228L67.2637 171.374ZM69.8092 295.573V294.414L51.3516 256.857L69.8092 256.925V256.343C63.3722 256.319 56.9347 256.297 50.4967 256.277C56.9394 269.372 63.3769 282.47 69.8092 295.573ZM66.912 296.448C67.3359 297.414 67.9804 298.224 68.7742 298.788C69.0932 298.992 69.4464 299.112 69.8093 299.14V298.562C69.5276 298.534 69.2541 298.437 69.0064 298.278C68.2944 297.765 67.7176 297.031 67.3397 296.159L45.8878 252.991H69.8092V252.412H45.0283L66.912 296.448ZM57.7428 258.56H53.9112L67.4157 285.914C67.7588 286.725 68.2933 287.405 68.9561 287.873C69.2198 288.04 69.5102 288.143 69.8092 288.174V287.592C69.5917 287.563 69.3809 287.486 69.1885 287.364C68.6102 286.946 68.1448 286.345 67.8464 285.631L54.7671 259.14H57.4671L59.5467 263.109L69.8092 263.236V262.658L59.826 262.535L57.7428 258.56ZM67.2702 70.1299L69.8092 70.1319V69.554L67.5392 69.552L65.8795 66.5613L69.8092 66.5593V65.9804L64.9705 65.9843L67.2702 70.1299ZM56.3169 239.069L69.8092 239.236V238.658L57.1667 238.501L58.6111 235.575L69.8092 235.628V235.051L58.327 234.996L56.3169 239.069ZM68.0586 205.523L53.1813 233.453C58.7239 233.449 64.2665 233.445 69.8092 233.442V232.867L54.0726 232.875L68.4864 205.812C68.8025 205.066 69.254 204.41 69.8093 203.889V203.197C69.0568 203.773 68.4519 204.577 68.0586 205.523H68.0586ZM69.8092 283.921V282.766L61.9519 266.816L69.8092 266.855V266.277L61.0956 266.235C64.0024 272.129 66.907 278.024 69.8092 283.921H69.8092ZM68.2754 215.988L62.781 227.195L66.4905 227.234L69.8092 220.506V219.351L66.2073 226.653L63.6308 226.626L68.7069 216.267C68.9779 215.696 69.3545 215.203 69.8092 214.824V214.14C69.1671 214.586 68.6378 215.224 68.2754 215.988L68.2754 215.988Z" fill="#275CAA"/>
</svg>
