<svg width="57" height="50" viewBox="0 0 57 50" fill="none" xmlns="http://www.w3.org/2000/svg">
<path d="M32.4307 2.84793L43.961 22.5586C43.961 22.6335 49.1272 31.4771 49.9508 32.8261H24.2697L25.7671 30.278H45.0841L28.5374 1.57385L2.33219 46.9908H54.6677L50.3252 39.4963H53.7693L56.0903 43.4684C56.7641 44.5176 57.0636 45.5668 56.9888 46.4662C56.9888 46.9908 56.839 47.5904 56.5395 48.04C56.3149 48.4897 55.9406 48.9394 55.4164 49.2392C54.5929 49.7638 53.4698 50.0635 52.1221 49.9886L29.0615 49.9137H4.72809C3.45527 49.9886 2.40706 49.6888 1.58347 49.1642C1.13424 48.8644 0.759876 48.4148 0.460388 47.9651C0.1609 47.5154 0.011157 46.9908 0.011157 46.3912C-0.063715 45.4169 0.235773 44.3677 0.984493 43.2435L24.7189 2.69804C25.3179 1.6488 26.0666 0.899345 26.8902 0.449673C27.4143 0.149891 27.9384 0 28.5374 0C29.0615 0 29.6605 0.149891 30.1846 0.449673C31.0082 0.899345 31.8318 1.6488 32.4307 2.84793Z" fill="#275CAA"/>
<path d="M13.0389 42.7185H10.4184L13.4882 37.1725C14.5364 35.3738 15.5846 33.5752 16.6328 31.7015C16.8948 31.2144 17.1569 30.7647 17.4189 30.315C17.681 29.8654 17.943 29.4157 18.2051 28.9285C18.4369 28.4181 18.8122 27.7926 19.1711 27.1946C19.3919 26.8269 19.6063 26.4695 19.7774 26.1556C20.0395 25.7059 20.3015 25.2375 20.5636 24.7691C20.8256 24.3007 21.0877 23.8323 21.3497 23.3826L24.4943 17.9116C24.7938 17.4619 25.0933 17.0122 25.3179 16.5625C25.6174 16.1129 25.9169 15.6632 26.1415 15.2135C26.166 15.1715 26.1907 15.129 26.2155 15.0861C26.7227 14.2114 27.3171 13.1865 28.3877 13.1151C29.7554 13.0466 30.2487 13.916 30.7232 14.7524C30.7682 14.8317 30.8131 14.9108 30.8585 14.9887L35.6503 23.3826C35.6865 23.4431 35.7482 23.5446 35.8267 23.6739C36.2344 24.3455 37.097 25.7664 37.2226 26.0806H34.4523L33.7036 24.7316C33.5913 24.5068 33.4603 24.3007 33.3292 24.0946C33.1982 23.8885 33.0672 23.6824 32.9549 23.4575C32.5877 22.8799 32.2572 22.3024 31.912 21.699C31.7645 21.4412 31.6143 21.1786 31.4574 20.9094C31.1954 20.4972 30.952 20.0662 30.7087 19.6353C30.4654 19.2044 30.222 18.7734 29.96 18.3612C29.8477 18.1364 29.7167 17.9303 29.5856 17.7242C29.4546 17.5181 29.3236 17.312 29.2113 17.0872L28.4626 15.8131C28.3683 15.8602 28.1556 16.2931 27.9734 16.6636C27.8661 16.882 27.7694 17.0787 27.7138 17.1621L23.0718 25.1063C22.9595 25.3312 22.8284 25.5373 22.6974 25.7434C22.5664 25.9495 22.4354 26.1556 22.323 26.3804C21.8364 27.2797 21.3123 28.1603 20.7882 29.041C20.2641 29.9216 19.74 30.8022 19.2533 31.7015L16.9323 35.6736C16.7825 35.8985 16.2584 36.8728 16.1835 37.0226H42.6134C42.6751 37.1257 42.7425 37.2343 42.8125 37.3471C42.997 37.6446 43.1992 37.9707 43.3621 38.2967C43.4744 38.5216 43.6054 38.7276 43.7364 38.9338C43.8675 39.1399 43.9985 39.346 44.1108 39.5708H14.9856L14.9107 39.6457L13.0389 42.7185Z" fill="#275CAA"/>
</svg>
