<svg width="33" height="32" viewBox="0 0 33 32" fill="none" xmlns="http://www.w3.org/2000/svg">
<path class="str" d="M8.78084 10.1396L8.789 10.1322L8.79681 10.1244L11.3301 7.59107C11.4604 7.48389 11.5523 7.46031 11.602 7.45738C11.6642 7.45373 11.7908 7.4816 11.9416 7.70698L13.9749 11.5631C14.0872 11.8122 14.0272 12.0802 13.8389 12.274L12.9017 13.2111L12.8742 13.2386L12.8514 13.2699C12.7505 13.4082 12.6604 13.5969 12.6582 13.8273L12.6576 13.8932L12.6741 13.9571C13.0712 15.4942 14.2521 16.8617 15.2372 17.7655C15.394 17.9093 15.5535 18.0624 15.7211 18.2233C15.7365 18.2381 15.752 18.253 15.7676 18.2679C16.559 19.028 17.5489 19.9786 18.8025 20.2489C18.9139 20.2787 19.0554 20.3041 19.205 20.2974C19.3605 20.2904 19.573 20.2458 19.7498 20.0815L19.7582 20.0737L19.7662 20.0655L20.8296 18.9825C21.1161 18.778 21.4218 18.7577 21.5736 18.8458L21.69 18.9134H21.7063L25.2827 21.0245C25.5579 21.2003 25.5549 21.481 25.3979 21.6456L22.8531 24.1705L22.853 24.1704L22.8472 24.1763C22.5969 24.433 22.2491 24.5399 21.8499 24.5417C19.8518 24.4794 17.9258 23.4954 16.2799 22.4269C13.5861 20.4655 11.1452 18.0546 9.61829 15.1683C9.00587 13.9001 8.36397 12.4206 8.42447 11.1738L8.42492 11.1646L8.42503 11.1553C8.43026 10.7005 8.55389 10.3474 8.78084 10.1396ZM16.9631 0.5C8.40272 0.5 1.46313 7.43958 1.46313 16C1.46313 24.5604 8.40272 31.5 16.9631 31.5C25.5236 31.5 32.4631 24.5604 32.4631 16C32.4631 7.43958 25.5236 0.5 16.9631 0.5Z" stroke="#4B5765"/>
<path class="path" fill-rule="evenodd" clip-rule="evenodd" d="M12.3728 7.45264C12.161 7.12476 11.8817 6.94004 11.5726 6.95826C11.3872 6.96921 11.1907 7.05304 10.9922 7.22199L8.44336 9.77081C8.07336 10.1095 7.93121 10.6242 7.92516 11.1496C7.85738 12.5462 8.56756 14.1427 9.17211 15.3939C10.7484 18.3779 13.2592 20.8477 15.9965 22.839C17.6641 23.9228 19.6943 24.9774 21.843 25.0418C22.3289 25.0412 22.8289 24.9114 23.2053 24.5254L25.7541 21.9967C26.143 21.5964 26.0867 20.9383 25.5435 20.5978L21.843 18.4134H21.8247C21.4225 18.1799 20.8775 18.3183 20.5008 18.6038L19.4095 19.7152C19.2906 19.8258 19.0869 19.8092 18.9206 19.7628C17.8011 19.5267 16.8955 18.6574 16.0674 17.8626C15.9006 17.7025 15.737 17.5454 15.5753 17.3971C14.6112 16.5126 13.5185 15.2264 13.1583 13.832C13.1592 13.7336 13.1974 13.6441 13.2554 13.5647L14.1947 12.6254C14.5168 12.2961 14.6395 11.8026 14.4236 11.3418L12.3728 7.45264Z" fill="#4B5765"/>
</svg>
