<svg width="123" height="566" viewBox="0 0 123 566" fill="none" xmlns="http://www.w3.org/2000/svg">
<path d="M28.1008 363.97L32.7176 356.416L57.6089 356.151L57.0297 355.217L32.1846 355.481L27.5761 363.025H21.4187L50.4496 312.558C50.5679 312.344 50.6838 312.147 50.7973 311.967C50.9156 311.779 51.0339 311.599 51.1509 311.433C51.2692 311.265 51.3913 311.102 51.5142 310.946C51.6444 310.781 51.7696 310.632 51.8881 310.501C52.0071 310.37 52.1322 310.241 52.2612 310.117L50.9799 310.121C50.9252 310.186 50.8709 310.245 50.8161 310.313C50.6798 310.484 50.5433 310.666 50.4099 310.855C50.2817 311.037 50.1489 311.237 50.015 311.45C49.8922 311.647 49.7648 311.861 49.6349 312.09L19.7936 363.97H28.1008ZM63.011 329.207L64.0948 329.208L61.7176 325.072L60.6377 325.077L63.011 329.207ZM50.7721 345.132L50.1917 344.197C48.7969 344.195 47.3681 344.194 45.9919 344.193L46.1904 343.883C46.8392 342.874 47.4879 341.867 48.1294 340.874L47.5851 339.996L44.2667 345.129C46.4352 345.129 48.6036 345.13 50.7721 345.132ZM54.6395 294.25L55.3303 294.248L54.9723 293.669L54.6395 294.25ZM53.2843 320.637L55.6855 316.458L58.0574 320.586L59.1321 320.574L55.684 314.576C54.5227 316.6 53.3609 318.625 52.1986 320.648L53.2843 320.637ZM61.9725 304.997C60.7924 303.088 59.6126 301.178 58.4331 299.268H57.328L60.8646 304.997H61.9725ZM48.486 304.997H49.5651L52.8471 299.268H51.7663C50.6729 301.177 49.5795 303.087 48.4859 304.997L48.486 304.997ZM50.7099 325.118L49.6307 325.122C48.8507 326.481 48.0704 327.841 47.29 329.2L48.3641 329.2L50.7099 325.118ZM79.1618 354.982L73.9504 355.037C73.7215 355.374 73.4649 355.691 73.1834 355.985L78.6205 355.927L79.1618 354.982ZM73.2348 325.025L75.8241 329.213L76.9323 329.214C76.069 327.816 75.2055 326.418 74.3417 325.02L73.2348 325.025ZM80.5367 335.048C79.5 333.369 78.4624 331.689 77.4242 330.01L76.8581 330.886L80.0046 335.976L80.5367 335.048ZM75.2775 344.211C71.975 344.21 68.6959 344.21 65.4402 344.208L65.9756 345.14C68.8978 345.142 71.8199 345.143 74.7419 345.144L75.2775 344.211ZM67.1838 355.109L62.1599 355.163C62.352 355.474 62.5442 355.785 62.7365 356.096L68.0669 356.039C67.7438 355.758 67.4481 355.447 67.1839 355.109H67.1838ZM55.3894 344.202C55.5816 344.513 55.7736 344.824 55.9656 345.135C57.7768 345.136 59.588 345.137 61.3992 345.138L60.8671 344.206C59.0316 344.205 57.2016 344.204 55.3895 344.202H55.3894ZM63.7564 349.267L63.2208 348.328L57.9515 348.35L58.5311 349.288L63.7564 349.267ZM35.7054 349.382L53.3638 349.309L52.7816 348.371L37.3296 348.435L44.7704 335.46L44.2124 334.561C41.3768 339.501 38.5411 344.442 35.7055 349.382H35.7054ZM87.3382 196.724C90.2787 196.712 93.2192 196.701 96.1595 196.69L96.7454 195.746C93.7933 195.754 90.8411 195.763 87.8886 195.773L87.3382 196.724ZM88.2172 228.858H89.3008L92.8556 222.718H91.7723L88.2172 228.858ZM101.287 188.428H92.1415L91.6179 189.332H100.726L101.287 188.428ZM81.4914 189.332H86.5934L87.1112 188.428H82.0116L81.4914 189.332ZM99.0297 198.517L97.9486 198.517C96.0361 201.855 94.1245 205.194 92.2137 208.533L93.2929 208.536C95.205 205.196 97.1173 201.856 99.0297 198.517V198.517ZM94.2861 167.088L96.8707 171.382C97.0489 171.071 97.2272 170.76 97.4056 170.448L94.8225 166.155L94.2861 167.088ZM89.3774 175.622C91.0692 175.617 92.7609 175.612 94.4525 175.606C94.6318 175.293 94.8113 174.979 94.991 174.666C93.2995 174.673 91.6079 174.679 89.9164 174.685L89.3774 175.622ZM66.1325 320.5L61.3145 312.064C61.2262 311.899 61.1276 311.731 61.022 311.567C60.9118 311.396 60.7914 311.221 60.664 311.049C60.5426 310.887 60.4077 310.717 60.2615 310.545C60.131 310.392 59.9925 310.24 59.851 310.094C59.3917 310.095 58.9324 310.097 58.473 310.098C58.5726 310.18 58.6734 310.262 58.7667 310.347C58.9098 310.476 59.0462 310.607 59.1715 310.738C59.3071 310.879 59.4381 311.024 59.5613 311.169C59.6871 311.316 59.8054 311.467 59.9155 311.615C60.027 311.766 60.1333 311.921 60.2315 312.073C60.3271 312.223 60.4144 312.373 60.4907 312.517L65.0554 320.511L66.1325 320.5ZM55.5623 266.617L56.093 265.694L53.4474 261.418L52.9206 262.338L55.5623 266.617ZM49.19 268.853L51.07 271.883C51.2088 272.142 51.3467 272.384 51.4808 272.607C51.5884 272.785 51.702 272.958 51.8158 273.13L52.3431 272.213C52.3183 272.173 52.2915 272.135 52.2672 272.094C52.1292 271.863 51.9994 271.636 51.8811 271.413L49.7192 267.929L49.19 268.853ZM48.5207 292.07L47.2452 294.273L48.3319 294.269L49.332 292.542C49.4781 292.289 49.623 292.05 49.7631 291.829C49.9093 291.6 50.0553 291.383 50.201 291.178C50.3486 290.97 50.4989 290.772 50.6489 290.585C50.807 290.387 50.9623 290.206 51.1123 290.043C51.2692 289.872 51.4283 289.71 51.5856 289.562C51.7469 289.411 51.9081 289.269 52.0688 289.14C52.2293 289.011 52.3953 288.89 52.5634 288.777C52.7291 288.666 52.8933 288.567 53.0524 288.482L53.3284 288.345L53.6029 288.228L53.8801 288.13L54.1537 288.051L54.4364 287.989L54.7077 287.95L54.9875 287.927L55.2684 287.924L55.5362 287.941L55.8082 287.976L56.0839 288.03L56.3547 288.101L56.6194 288.191L56.8914 288.299L57.1627 288.428L57.4242 288.57C57.5893 288.665 57.7545 288.77 57.9127 288.884C58.0696 288.994 58.2307 289.12 58.3922 289.257C58.5496 289.391 58.7072 289.536 58.8609 289.689C59.0178 289.846 59.1723 290.01 59.3199 290.181C59.4677 290.35 59.6169 290.532 59.7647 290.726C59.9072 290.912 60.0491 291.108 60.1854 291.312C60.324 291.519 60.4603 291.733 60.5915 291.954C60.7281 292.182 60.8577 292.41 60.976 292.632L61.9655 294.227L63.0673 294.223L61.7907 292.166C61.662 291.927 61.5224 291.681 61.3741 291.433C61.2316 291.195 61.0823 290.962 60.9292 290.738C60.7771 290.515 60.621 290.3 60.4628 290.093C60.3082 289.893 60.1453 289.697 59.9771 289.508C59.8116 289.32 59.6448 289.144 59.4792 288.981C59.3086 288.815 59.1353 288.656 58.962 288.51C58.7878 288.364 58.6107 288.225 58.4313 288.1C58.2519 287.973 58.0709 287.856 57.8929 287.753L57.5737 287.582L57.2509 287.43L56.9238 287.301L56.6028 287.195L56.2701 287.108L55.9468 287.045L55.6235 287.004L55.2919 286.985L54.9504 286.988L54.6164 287.013L54.2803 287.062L53.9419 287.133L53.6079 287.229L53.2726 287.348L52.9394 287.489L52.613 287.653C52.4262 287.753 52.2405 287.864 52.0589 287.985C51.8757 288.107 51.6933 288.24 51.5162 288.383C51.337 288.526 51.1591 288.679 50.985 288.841C50.8115 289.003 50.6382 289.178 50.4673 289.362C50.2951 289.548 50.1217 289.747 49.9529 289.955C49.7918 290.155 49.6267 290.369 49.4631 290.597C49.2973 290.829 49.1366 291.064 48.9845 291.304C48.8322 291.542 48.6776 291.799 48.5207 292.07V292.07ZM62.0643 252.069C61.95 252.254 61.8293 252.435 61.7073 252.609C61.5881 252.779 61.4653 252.944 61.34 253.101C61.2163 253.258 61.0922 253.405 60.9698 253.541C60.8477 253.677 60.7197 253.809 60.5877 253.935C60.4566 254.061 60.3263 254.176 60.1982 254.28C60.0626 254.39 59.9275 254.489 59.798 254.575C59.6701 254.661 59.5379 254.741 59.402 254.813L59.1465 254.94L58.895 255.043L58.6416 255.129L58.3839 255.194L58.1202 255.242L57.8585 255.27L57.593 255.278L57.3271 255.268L57.0926 255.244L56.9921 255.227L56.4989 256.088L56.6644 256.126L56.959 256.176L57.2562 256.208L57.5886 256.219L57.9187 256.21L58.2438 256.176L58.5729 256.117L58.8933 256.035L59.2114 255.928L59.5302 255.797L59.8386 255.645C59.9969 255.561 60.1507 255.469 60.2997 255.369C60.4519 255.268 60.6043 255.157 60.752 255.038C60.8983 254.922 61.0474 254.793 61.1936 254.654C61.3369 254.519 61.4803 254.374 61.6197 254.222C61.7568 254.072 61.897 253.908 62.0379 253.734C62.1743 253.562 62.3116 253.38 62.4458 253.191C62.5745 253.008 62.7072 252.809 62.8406 252.596C62.9755 252.382 63.1037 252.164 63.2236 251.95L70.9055 238.594C70.7185 238.292 70.5316 237.989 70.3449 237.686L62.4072 251.486C62.2935 251.69 62.1781 251.885 62.0643 252.069V252.069ZM39.4365 230.786L51.5429 251.981C51.6308 252.146 51.729 252.313 51.8345 252.477C51.9398 252.643 52.0605 252.816 52.1895 252.992C52.3091 253.153 52.4443 253.321 52.5897 253.492C52.6723 253.59 52.7627 253.684 52.8508 253.78L53.3437 252.929L53.2968 252.877C53.1702 252.727 53.0503 252.577 52.9417 252.429C52.8234 252.269 52.7163 252.115 52.6251 251.971C52.5248 251.814 52.4373 251.665 52.3634 251.527L41.0511 231.71L42.5151 231.695C43.9894 231.68 45.4653 231.665 46.9357 231.658L56.2629 247.888L56.8067 246.948L47.4723 230.713L39.4365 230.786ZM73.3475 234.252L73.3764 234.299L93.062 200.074H85.3985L80.4817 208.566L80.6717 208.564L85.281 201.017H91.4378L72.8239 233.377C73.0032 233.655 73.1805 233.939 73.3475 234.252V234.252ZM77.218 196.762C78.9289 196.756 80.6398 196.749 82.3505 196.742L82.8968 195.788C81.1876 195.793 79.4784 195.798 77.7692 195.804L77.218 196.762ZM51.772 338.346L78.6546 338.328L79.1943 337.387L51.1917 337.407C51.3853 337.72 51.5787 338.033 51.772 338.346V338.346ZM79.9843 244.948L84.9723 236.333L84.4305 235.398L79.4236 244.045L79.9843 244.948ZM51.5062 131.309L50.5261 131.319L48.803 134.141C47.3777 136.625 45.952 139.108 44.5259 141.592C44.8849 141.591 45.2439 141.59 45.6028 141.589L46.5159 139.996L51.5062 131.309ZM103.97 222.718H102.515L98.7044 228.858H100.059C101.364 226.815 102.667 224.769 103.97 222.718ZM90.6373 130.891L96.7387 141.429C97.0993 141.428 97.4598 141.427 97.8201 141.425L91.7141 130.88L90.6373 130.891ZM100.868 207.009L94.7582 217.561L95.8396 217.564L101.945 207.02L100.868 207.009ZM85.3281 344.212C83.6252 344.212 81.9181 344.212 80.22 344.212L79.6823 345.147C81.3855 345.148 83.0886 345.149 84.7916 345.149L85.3281 344.212ZM86.4172 263.704C86.2318 263.404 86.0465 263.104 85.8611 262.804L81.2126 270.528L82.3138 270.528L86.4172 263.704ZM105.111 182.265H95.7096L95.1725 183.193H104.535L105.111 182.265ZM61.3875 98.9858C61.2442 98.7488 61.0959 98.5165 60.9427 98.2911C60.7906 98.0696 60.6337 97.8539 60.4764 97.6473C60.3527 97.4879 60.2164 97.3276 60.0784 97.1674L59.581 98.0362C59.6444 98.1148 59.7073 98.1862 59.7714 98.2693C59.9139 98.4561 60.058 98.656 60.1995 98.8638C60.3329 99.0604 60.4686 99.2753 60.6057 99.5025C60.7393 99.7264 60.8696 99.9557 60.9918 100.185L62.2818 102.264L62.8115 101.343L61.8051 99.7212C61.6756 99.4812 61.5364 99.2362 61.3876 98.9859L61.3875 98.9858ZM61.104 112.916L64.3432 118.164L64.5459 117.85L65.2587 117.85C64.0512 115.896 62.844 113.942 61.6372 111.988L61.104 112.916ZM59.8415 131.22L65.3968 140.885L73.4328 140.813L67.9053 131.134L66.8308 131.145L71.8209 139.887L65.9357 139.938L60.9168 131.208L59.8415 131.22ZM58.9221 116.791L58.8925 116.769L58.4192 117.594C58.5391 117.69 58.6604 117.791 58.7826 117.902C58.9267 118.032 59.0631 118.164 59.1882 118.294C59.3245 118.434 59.455 118.577 59.5764 118.72C59.6993 118.865 59.8184 119.016 59.9322 119.167C60.0476 119.323 60.1539 119.478 60.248 119.626C60.3454 119.78 60.4333 119.929 60.5082 120.069L61.729 122.208L62.3019 121.322L61.3273 119.615C61.2398 119.451 61.1419 119.284 61.0365 119.119C60.9264 118.948 60.8065 118.774 60.6778 118.602C60.5517 118.433 60.417 118.264 60.2772 118.1C60.1404 117.939 59.9954 117.779 59.8465 117.626C59.7075 117.482 59.5546 117.334 59.392 117.185C59.2483 117.055 59.0909 116.923 58.9221 116.791V116.791ZM62.8961 122.362L61.8167 122.362L64.2129 126.559L65.2903 126.555L62.8961 122.362ZM65.3755 105.475L64.8464 106.397L71.9498 117.845L73.052 117.844L65.3755 105.475ZM69.5143 126.537L70.6228 126.533C69.7646 125.143 68.9062 123.754 68.0476 122.364L66.9357 122.364L67.9506 124.008L69.5143 126.537ZM80.9333 260.185C82.1408 260.185 83.2248 260.187 84.2469 260.191L83.6679 259.253C82.5814 259.25 81.4948 259.244 80.4086 259.244C80.0312 259.859 79.6547 260.475 79.279 261.091L79.8091 262.019L80.9333 260.185ZM89.5312 336.872L86.8901 332.616L86.3591 333.539L89.0014 337.797C89.178 337.489 89.3546 337.18 89.5312 336.872ZM71.7878 310.056L78.1887 320.372L79.2853 320.36L72.8895 310.053C72.5222 310.054 72.155 310.055 71.7878 310.056ZM76.6846 299.268L80.0019 304.997H81.0865L77.7691 299.268H76.6846ZM81.056 324.992L83.7845 329.39L84.3151 328.466L82.157 324.988L81.056 324.992ZM85.6801 352.258L85.1373 353.196C85.2772 353.438 85.4216 353.692 85.5613 353.934L86.1231 354.907L84.134 354.929L83.5868 355.874L87.7337 355.83L85.6801 352.258ZM77.3448 349.211L82.4782 349.19L83.018 348.247L77.8871 348.268L77.3448 349.211ZM85.6205 367.148C82.7605 367.159 79.9005 367.169 77.0404 367.18L76.5029 368.108C79.3517 368.099 82.2005 368.091 85.0492 368.082L85.6205 367.148ZM76.4357 267.52L77.5622 265.683L77.3516 265.685L76.9238 264.94C75.783 266.805 74.6423 268.669 73.5017 270.534L74.5952 270.533L76.4357 267.52ZM80.6439 228.858H81.6568C82.8289 226.811 84.0008 224.765 85.1725 222.718H84.0908C81.2271 227.719 78.3634 232.72 75.4997 237.721L76.0626 238.628C77.7597 235.664 79.4566 232.701 81.1532 229.737L80.6439 228.858ZM76.9315 248.349L74.4508 252.633L74.989 253.576L77.4912 249.255C77.3045 248.953 77.1179 248.651 76.9315 248.349ZM73.0304 242.033C72.0236 243.792 71.0166 245.551 70.0092 247.309C70.2066 247.381 70.3986 247.467 70.5835 247.566C70.6747 247.618 70.7544 247.687 70.8424 247.745C71.7591 246.144 72.6756 244.543 73.5919 242.943L73.0304 242.033ZM68.7272 325.043L67.6456 325.048L70.0225 329.21L71.1074 329.211L68.7272 325.043ZM99.5741 175.59L99.9077 175.589L100.498 175.588L100.028 174.807L99.5741 175.59ZM65.0933 299.268L68.6485 304.997H69.7525L66.1973 299.268H65.0933ZM72.1419 256.62L63.5245 271.503C63.3851 271.746 63.2407 271.985 63.0911 272.22C62.9494 272.442 62.8032 272.659 62.6547 272.869C62.5056 273.078 62.3548 273.276 62.2048 273.462C62.054 273.649 61.8995 273.829 61.7436 273.998C61.5858 274.171 61.4268 274.332 61.2693 274.482C61.1088 274.633 60.9468 274.774 60.7862 274.904C60.6236 275.035 60.4608 275.155 60.2978 275.264C60.1378 275.371 59.9726 275.47 59.8027 275.561L59.5303 275.698L59.2538 275.816L58.9785 275.915L58.7057 275.992L58.4238 276.054L58.1518 276.093L57.8691 276.116L57.5864 276.119L57.3248 276.103L57.049 276.068L56.7783 276.015L56.5032 275.943L56.2409 275.855L55.9681 275.745L55.6953 275.616L55.432 275.473L55.429 275.471L54.961 276.286L54.9647 276.289L55.2799 276.46L55.604 276.613L55.9257 276.742L56.2528 276.848L56.5839 276.936L56.9085 276.998L57.2404 277.04L57.5674 277.06L57.9019 277.057L58.2429 277.031L58.5806 276.981L58.9176 276.91L59.2508 276.815L59.5823 276.696L59.9125 276.556L60.245 276.392C60.425 276.296 60.6103 276.184 60.7944 276.061C60.9776 275.939 61.16 275.805 61.3387 275.664C61.5125 275.525 61.692 275.369 61.8715 275.202C61.9221 275.155 61.9715 275.1 62.0218 275.051L61.6182 275.051L64.5347 270.54L65.1672 270.539L72.6821 257.56L72.1419 256.62ZM61.747 49.0776L64.2519 44.7136L63.7107 43.7656L61.1854 48.1683L61.747 49.0776ZM65.6248 55.3552L68.2443 50.801C67.9948 50.5976 67.7603 50.3763 67.5429 50.1387L65.0643 54.4479C65.2511 54.7504 65.4379 55.0528 65.6248 55.3552ZM66.3594 39.1475L66.0033 39.7685L66.5472 40.715L73.6472 28.346L72.5629 28.3468L66.3594 39.1475ZM57.7079 33.252L51.9743 33.2562L52.5548 34.1961L58.2448 34.1924L57.7079 33.252ZM86.1946 19.5917L85.1106 19.5961L69.754 46.2945L70.2948 47.2357L86.1946 19.5917ZM39.4509 38.3386L51.557 59.5336C51.6453 59.6985 51.7446 59.8664 51.8503 60.0321C51.9603 60.2029 52.0811 60.3764 52.2085 60.5465C52.3318 60.7138 52.4669 60.8816 52.6079 61.049C52.7458 61.2099 52.8913 61.3702 53.0413 61.5253C53.1876 61.6758 53.3391 61.8234 53.4928 61.9621C53.6376 62.0921 53.7957 62.2268 53.9654 62.3592C54.12 62.4809 54.2813 62.5991 54.4449 62.7101C54.6062 62.8192 54.7719 62.922 54.937 63.0135L55.2309 63.1702L55.5225 63.3087L55.8137 63.4288L56.1055 63.5302L56.3985 63.6156L56.6888 63.6816L56.9819 63.7293L57.2706 63.7603L57.6047 63.7715L57.9362 63.7624L58.2587 63.7293L58.5911 63.6695L58.9108 63.5871C59.0283 63.5537 59.1354 63.5182 59.2288 63.4819L59.5425 63.3526L59.8553 63.1991C60.0015 63.1211 60.156 63.0279 60.3175 62.922C60.4605 62.8267 60.6113 62.7163 60.7666 62.593C60.9066 62.4809 61.0538 62.353 61.209 62.2079C61.353 62.0733 61.4946 61.9287 61.635 61.7761C61.7736 61.6247 61.9145 61.4605 62.0541 61.2866C62.1853 61.1222 62.3212 60.9413 62.4618 60.744C62.5892 60.5625 62.721 60.3634 62.8546 60.1517C62.9498 60 63.0488 59.8292 63.1475 59.6579L62.5871 58.755L62.4227 59.0409C62.3097 59.2422 62.1906 59.4412 62.0707 59.6334C61.9561 59.8173 61.8377 59.9958 61.7178 60.1665C61.5995 60.3368 61.4766 60.501 61.3538 60.656C61.2243 60.8203 61.1011 60.9663 60.9844 61.0942C60.857 61.2357 60.7275 61.368 60.6001 61.4897C60.4704 61.6147 60.3401 61.7296 60.2127 61.8316C60.0793 61.9408 59.9457 62.0382 59.8176 62.1243C59.6811 62.2154 59.5471 62.2964 59.4182 62.3651L59.1603 62.4922L58.9095 62.5958L58.6524 62.6823L58.397 62.7471L58.1376 62.794L57.8731 62.822L57.6056 62.832L57.3394 62.8198L57.102 62.7948L56.8608 62.7548L56.6188 62.6979L56.3777 62.6271L56.1304 62.5393L55.8846 62.4386L55.6373 62.3212L55.397 62.1941C55.2516 62.1125 55.1053 62.021 54.9599 61.9232C54.8129 61.8234 54.6681 61.7175 54.5293 61.607C54.3839 61.4923 54.2408 61.3718 54.1053 61.2494C53.9603 61.1193 53.8238 60.986 53.6974 60.8573C53.5663 60.7212 53.4356 60.576 53.309 60.427C53.187 60.2841 53.0672 60.1328 52.9533 59.9806C52.8419 59.8309 52.7371 59.6772 52.6399 59.5258C52.5433 59.3745 52.455 59.224 52.3781 59.0797L41.0655 39.2617L42.54 39.2472C44.0112 39.2312 45.4841 39.2154 46.9508 39.2086L57.1868 57.0219L59.265 53.4016L58.7032 52.4962L57.1876 55.1387L47.4875 38.2651L39.4509 38.3386ZM21.4344 170.578L29.2804 156.937L28.7224 156.025L19.8079 171.522H28.1151L32.7297 163.968L33.5771 163.96L33.0059 163.026L32.1982 163.034L27.5922 170.578H21.4344ZM34.1565 146.578L30.86 152.308H31.9425L35.2385 146.578H34.1565ZM12.2486 175.865L31.7285 175.799C49.2869 175.741 66.8463 175.687 84.4066 175.637L84.9427 174.704C79.8217 174.723 74.7011 174.742 69.5808 174.761L13.8698 174.919L26.6362 152.615L26.4485 152.308H26.8118L30.0917 146.578H29.0176C23.4282 156.34 17.8386 166.103 12.2486 175.865ZM72.3268 131.087L78.7556 141.485L79.8576 141.482C77.7162 138.012 75.5733 134.543 73.4288 131.075L72.3268 131.087ZM63.1009 33.2479L62.256 33.2486L62.7968 34.1895L63.6112 34.189C64.873 32.2452 66.1313 30.299 67.3861 28.3505L66.2666 28.3513L63.1009 33.2479ZM86.6032 141.461C86.9708 141.46 87.3383 141.458 87.7058 141.457L81.2114 130.992L80.1148 131.004L86.6032 141.461ZM89.1529 126.457L86.7884 122.373L85.7044 122.372L88.0718 126.461L89.1529 126.457ZM84.1618 117.836L81.3374 112.959L80.2593 112.968L83.0784 117.837L84.1618 117.836ZM18.1993 26.4445L51.0784 79.4257C51.2147 79.6806 51.3559 79.9272 51.4968 80.1618C51.6399 80.3985 51.789 80.6315 51.9423 80.857C52.0947 81.0802 52.2503 81.2948 52.4089 81.5008C52.5634 81.7015 52.727 81.8983 52.8942 82.0879C53.0608 82.2764 53.2279 82.4532 53.3955 82.6183C53.5651 82.784 53.7385 82.9428 53.911 83.0874C54.0845 83.2334 54.2616 83.3712 54.4401 83.4975C54.6135 83.6208 54.7943 83.7366 54.9775 83.8425L55.2933 84.0133L55.6144 84.1646L55.9372 84.2925L56.2626 84.3992L56.5921 84.4862L56.9215 84.5513L57.2539 84.5935L57.5795 84.6124L57.9164 84.6095L58.2534 84.5844L58.5934 84.5346L58.9303 84.4627L59.2656 84.3666L59.5967 84.2495L59.9299 84.1081L60.2578 83.9445C60.4386 83.8484 60.6234 83.7375 60.8088 83.6138C60.9881 83.4951 61.1697 83.3627 61.3521 83.2184C61.5269 83.0786 61.7072 82.9227 61.8864 82.7546C62.0598 82.592 62.2331 82.4187 62.4029 82.2356C62.5733 82.0527 62.7442 81.8551 62.9123 81.6502C63.0692 81.4571 63.2351 81.2385 63.4069 81.0002C63.5734 80.7673 63.7349 80.5298 63.8886 80.2898C64.04 80.054 64.1937 79.7988 64.3507 79.5281L70.8288 68.3396C70.7923 68.3399 70.755 68.3527 70.7185 68.3518C70.416 68.3412 70.1165 68.2885 69.8286 68.1952L63.5397 79.0567C63.3987 79.3019 63.2553 79.5402 63.1099 79.7657C62.9674 79.9888 62.8209 80.207 62.6704 80.42C62.5229 80.628 62.3721 80.8255 62.2221 81.0123C62.0644 81.2083 61.9091 81.3884 61.7599 81.5508C61.6025 81.7235 61.4426 81.8852 61.285 82.0353C61.1247 82.1866 60.9633 82.328 60.8035 82.4572C60.6445 82.585 60.4786 82.7062 60.3112 82.818C60.1499 82.9256 59.9858 83.0243 59.819 83.1139L59.5447 83.2509L59.2703 83.368L58.9908 83.4687L58.7184 83.5458L58.4381 83.608L58.1622 83.6473L57.8865 83.6691L57.6029 83.6732L57.34 83.6572L57.0618 83.6216L56.7944 83.5685L56.5154 83.4951L56.2546 83.4076L55.9809 83.2978L55.717 83.1736L55.4471 83.0277C55.2837 82.9322 55.1185 82.8265 54.9559 82.7099C54.7944 82.5965 54.6347 82.4707 54.4772 82.3383C54.3256 82.2104 54.1697 82.0665 54.0092 81.9065C53.8523 81.7514 53.6986 81.5871 53.5508 81.417C53.4062 81.2505 53.2591 81.0704 53.1137 80.8798C52.9658 80.6856 52.8227 80.4864 52.6885 80.2877C52.5589 80.0968 52.4231 79.882 52.283 79.649C52.1495 79.4266 52.0199 79.1974 51.8946 78.9637L19.89 27.3847L41.2759 27.4023L43.1315 27.4026L42.5439 26.4559C34.429 26.4521 26.3141 26.4484 18.1993 26.4445ZM115.115 441.104L114.572 440.167L88.0852 440.178C92.5192 433.033 97.233 425.705 101.931 418.332L101.257 417.169L86.3929 441.12C95.9669 441.112 105.541 441.106 115.115 441.104ZM30.3115 33.2722L44.1083 55.5935L57.8984 77.9293C60.5513 73.2949 63.2047 68.6609 65.8586 64.0271L65.2966 63.1214L57.8684 76.094L51.5314 65.8622L44.9135 55.1548L31.9977 34.2095L47.3492 34.1996L46.7662 33.26L30.3115 33.2722ZM109.867 270.705L110.403 271.642L115.531 271.657L114.993 270.722L109.867 270.705ZM100.423 112.597C100.867 112.6 101.311 112.607 101.756 112.611L101.208 111.666L100.955 111.663L96.3409 104.108H88.0335L96.7227 119.214L98.686 122.378H98.5424L104.298 132.384L104.449 132.384L113.132 146.578H112.462L117.875 155.988C118.005 156.221 118.134 156.437 118.259 156.636C118.391 156.847 118.522 157.045 118.649 157.226C118.782 157.413 118.919 157.595 119.056 157.766C119.196 157.941 119.336 158.105 119.476 158.257C119.583 158.374 119.693 158.482 119.803 158.589L120.313 157.768C120.251 157.704 120.189 157.645 120.127 157.577C120.005 157.441 119.88 157.293 119.754 157.136C119.631 156.979 119.509 156.816 119.39 156.647C119.274 156.481 119.155 156.3 119.034 156.109L118.689 155.523L89.658 105.052H95.8162L100.423 112.597ZM119.32 278.23H114.176L114.718 279.177H119.943C119.717 278.874 119.509 278.558 119.32 278.23V278.23ZM46.5257 150.935C47.464 149.474 48.4041 148.021 49.3462 146.577H48.2293L44.525 152.308H94.4399L90.8837 146.577H89.7782L92.9965 151.764H91.1136C75.7249 151.764 60.3322 151.763 46.0063 151.745L46.5257 150.935ZM109.436 293.245L117.939 293.271L117.391 292.326L108.858 292.3L109.436 293.245ZM110.397 0H109.314L108.777 0.92655L109.854 0.938614L110.397 0ZM85.2936 8.57069H91.4521L87.8171 14.8902L88.9051 14.8786L93.0763 7.62655H84.7693L80.2843 14.9703L81.3936 14.9584L85.2936 8.57069ZM99.8927 4.58858L98.8106 4.59184L96.349 8.89079H97.4293C98.25 7.45651 99.0712 6.02244 99.8927 4.58858ZM98.0169 390.82H99.0978C99.6009 389.941 100.104 389.062 100.608 388.183L100.031 388.184C96.5918 388.193 93.1519 388.203 89.7116 388.215C89.8919 388.53 90.0721 388.844 90.2521 389.159C93.1634 389.147 96.0749 389.136 98.9868 389.126C98.6633 389.691 98.34 390.255 98.0169 390.82ZM85.2666 393.466H87.5329L86.9845 392.519H84.7399L80.1277 400.075L25.1077 400.661C26.5626 403.189 28.0163 405.718 29.4688 408.248L75.5109 408.057L66.3248 424.037L57.1584 440.032L47.4582 423.16L39.4229 423.234L51.5293 444.428C51.6166 444.593 51.7154 444.759 51.8211 444.924C51.9303 445.095 52.0507 445.27 52.1789 445.441C52.3055 445.61 52.4406 445.779 52.58 445.944C52.7163 446.105 52.8618 446.266 53.0107 446.419C53.158 446.571 53.3102 446.718 53.4639 446.857C53.6087 446.988 53.766 447.121 53.9358 447.254C54.0912 447.376 54.254 447.495 54.419 447.606C54.5847 447.717 54.7491 447.819 54.9088 447.909L55.2022 448.064L55.4952 448.202L55.7831 448.321L56.0787 448.424L56.3703 448.51L56.6607 448.576L56.9538 448.624L57.241 448.654L57.5729 448.666L57.9053 448.656L58.2307 448.623L58.5585 448.565L58.8769 448.482L59.197 448.377L59.5144 448.246L59.8256 448.094C59.9758 448.014 60.1312 447.921 60.2878 447.816C60.441 447.715 60.5915 447.604 60.7393 447.485C60.8863 447.367 61.0347 447.239 61.1825 447.1C61.3182 446.972 61.4592 446.828 61.6053 446.669C61.7441 446.518 61.8851 446.354 62.026 446.177C62.1633 446.007 62.2997 445.826 62.4332 445.636C62.5662 445.446 62.6991 445.247 62.8273 445.043C62.9615 444.829 63.0889 444.614 63.2085 444.399L90.0261 397.772L89.4845 396.837L62.3917 443.935C62.2718 444.149 62.1555 444.346 62.0449 444.521C61.9252 444.714 61.806 444.894 61.6899 445.06C61.5721 445.228 61.4509 445.391 61.3288 445.545C61.2037 445.704 61.0779 445.853 60.9551 445.989C60.8252 446.134 60.6965 446.266 60.5712 446.385C60.4409 446.509 60.3112 446.624 60.183 446.727C60.0491 446.836 59.9155 446.935 59.7868 447.022C59.654 447.11 59.5191 447.191 59.3874 447.261L59.1301 447.388L58.88 447.491C58.7137 447.553 58.5429 447.603 58.3689 447.64L58.105 447.688L57.8434 447.715L57.5775 447.724L57.3105 447.714L57.0754 447.689L56.8265 447.647L56.5886 447.592L56.3442 447.521L56.0993 447.435L55.8544 447.333L55.6033 447.214L55.3659 447.087C55.2226 447.007 55.078 446.917 54.9332 446.819C54.7847 446.72 54.6383 446.612 54.4982 446.501C54.3611 446.395 54.2201 446.273 54.0784 446.146C53.9329 446.014 53.7957 445.881 53.6684 445.751C53.5336 445.611 53.4037 445.467 53.2833 445.325C53.1559 445.175 53.036 445.024 52.9267 444.876C52.8113 444.72 52.7044 444.566 52.6101 444.416C52.5114 444.261 52.4231 444.111 52.3499 443.974L41.0369 424.158L46.923 424.104L57.1577 441.915L77.135 407.11L30.007 407.304C29.1131 405.761 28.2425 404.241 27.3637 402.707L26.72 401.584L80.6575 401.01L85.2666 393.466ZM93.0476 392.519H92.1759L92.6109 393.278L93.0476 392.519ZM99.0265 404.483L101.568 400.093L101.028 399.154L98.4876 403.542L99.0265 404.483ZM73.7447 294.19L74.8272 294.187L69.9781 285.812H99.8676L99.432 285.088L104.437 285.073L104.889 285.812H113.62L113.072 284.866H68.3463L73.7447 294.19ZM102.926 322.473L107.697 330.768L108.26 329.862L103.469 321.534L102.926 322.473ZM97.6693 393.315L97.1275 392.373C96.2881 393.839 95.4489 395.304 94.6101 396.77L95.1504 397.714C95.9897 396.247 96.8293 394.781 97.6692 393.315L97.6693 393.315ZM103.929 311.145L104.096 311.436L104.261 311.147L103.929 311.145ZM89.0844 259.269L88.8699 259.268L88.9789 259.444L89.0844 259.269ZM72.9373 348.288L67.797 348.309L68.3362 349.248L72.3962 349.231L72.9373 348.288ZM58.0882 195.863L58.6801 196.822L63.8993 196.807L63.3514 195.847C61.5969 195.853 59.8425 195.858 58.0882 195.863ZM44.3532 299.268L41.0358 304.997H42.1207L45.438 299.268H44.3532ZM70.1692 368.128L71.6369 368.123L72.1666 367.198C71.4975 367.2 70.8283 367.203 70.1591 367.206L69.6005 367.207C69.7899 367.514 69.9795 367.821 70.1692 368.128ZM69.2003 196.792C70.2236 196.789 71.2469 196.785 72.2702 196.781L72.8223 195.819C71.192 195.824 69.5618 195.829 67.9316 195.833L68.4838 196.794L69.2003 196.792ZM33.3817 368.241C43.9379 368.206 54.4942 368.174 65.0506 368.144L64.4787 367.222L13.857 367.365L36.3967 327.985L46.6217 310.135C46.2617 310.137 45.9019 310.138 45.5422 310.139C34.4415 329.531 23.3388 348.922 12.2342 368.312L33.3817 368.241ZM38.0453 310.162L36.4055 312.994L36.9584 313.913L39.1322 310.159C38.7698 310.16 38.4075 310.161 38.0453 310.162ZM76.5457 189.332L77.0648 188.428H63.6762L64.1957 189.332H76.5457ZM90.6397 182.265H85.5562L85.0226 183.193H90.1085L90.6397 182.265ZM41.6642 146.578C40.5674 148.488 39.471 150.398 38.375 152.308H39.4558L42.7419 146.578H41.6642ZM75.5507 208.618L76.0926 207.672L65.4527 207.785C65.645 208.096 65.8373 208.408 66.0297 208.719L75.5507 208.618ZM95.9308 164.228C97.2391 164.223 98.6087 164.22 100.162 164.22C100.303 164.451 100.439 164.673 100.58 164.904L101.113 163.973L100.688 163.278L96.4703 163.29L95.9308 164.228ZM71.5376 215.627C71.7176 215.313 71.8974 214.999 72.077 214.685L69.721 214.695C69.914 215.007 70.1071 215.32 70.3002 215.632L71.5376 215.627ZM67.136 230.967C67.4037 230.823 67.6879 230.712 67.9822 230.637L77.151 214.664L76.9501 214.665L75.3614 217.409C74.7458 218.584 73.8649 219.598 72.7891 220.37L66.4261 231.439C66.6489 231.262 66.8863 231.104 67.1358 230.967H67.136ZM38.5853 163.906L87.749 163.384L84.2664 157.327L83.1868 157.331C83.9872 158.731 84.7738 160.098 85.5534 161.448L86.1372 162.461L38.0234 162.973L38.5853 163.906ZM103.78 168.327L103.24 169.259C104.896 171.967 106.541 174.656 108.176 177.326L108.735 176.425L106.677 173.058L103.78 168.327ZM108.046 160.958L113.012 169.533L113.572 168.63L108.588 160.023L108.046 160.958ZM107.281 146.578L110.561 152.308H111.636L108.355 146.578H107.281ZM111.309 180.637C111.124 180.936 110.939 181.235 110.754 181.534L111.202 182.265H110.303C110.112 182.574 109.92 182.884 109.73 183.193H112.871L111.309 180.637ZM109.497 193.977L112.321 189.099L111.821 189.094L112.201 188.428H106.495C106.309 188.729 106.123 189.031 105.937 189.332H111.103L108.415 193.976L109.497 193.977ZM118.002 176.25C117.853 176.018 117.709 175.779 117.571 175.537L116.066 172.937L115.506 173.842L116.76 176.007C116.916 176.279 117.07 176.533 117.221 176.77C117.374 177.009 117.536 177.247 117.702 177.479C117.846 177.679 117.989 177.864 118.131 178.042L118.635 177.159C118.571 177.073 118.508 176.995 118.442 176.904C118.292 176.693 118.143 176.475 118.002 176.25L118.002 176.25ZM111.801 154.474L116.866 163.322L117.426 162.42L112.341 153.54L111.801 154.474ZM85.5782 299.268H84.496C85.5902 301.177 86.6838 303.087 87.7768 304.997H88.8587L85.5782 299.268ZM114.976 202.64L116.347 202.646C117.165 201.26 117.951 199.885 118.742 198.508L117.54 198.508L114.976 202.64ZM104.121 152.308L100.803 146.578H99.7198L103.038 152.308H104.121ZM82.9109 310.021L88.8382 320.258L89.0422 320.256L89.4937 319.517L83.9936 310.018L82.9109 310.021ZM91.5713 247.731L88.1002 247.732C88.6915 246.779 89.3041 245.812 89.9051 244.853L89.3608 243.913L86.4071 248.672C88.3096 248.67 90.2121 248.669 92.1148 248.669L91.5713 247.731ZM95.6169 233.833L92.0473 239.584L92.6044 240.557C94.0151 238.329 95.44 236.089 96.879 233.836L95.6169 233.833ZM94.4977 122.376L93.422 122.376L99.3092 132.652L104.32 141.405L104.861 141.404L99.4428 132.399L100.235 132.396L94.4977 122.376ZM96.3542 255.991L95.8136 255.058L93.3463 259.35L98.3294 259.403L97.7807 258.455L94.9574 258.425L95.3772 257.693C95.7005 257.129 96.0274 256.56 96.3541 255.991H96.3542ZM105.407 271.627L104.865 270.69L95.94 270.662L96.5226 271.601L105.407 271.627ZM64.0025 310.081L67.9369 316.455L70.4095 320.454L71.514 320.443C69.3792 316.987 67.2448 313.532 65.1106 310.077C64.7411 310.078 64.3717 310.079 64.0025 310.081ZM122.665 385.237L123 384.959V383.79L122.665 384.04V385.237ZM122.665 373.487C122.776 373.507 122.886 373.53 123 373.551V372.6C122.879 372.576 122.775 372.542 122.665 372.519V373.487ZM122.665 279.177H123V278.23H122.665V279.177ZM121.552 396.986L122.65 396.997L122.949 396.513L123 396.337V395.819L122.382 395.643L121.552 396.986ZM120.298 359.906L119.212 359.894L122.377 365.423L123 365.256V364.71L122.954 364.543L120.298 359.906ZM122.665 433.73C122.283 433.686 121.912 433.569 121.574 433.385L121.547 433.367L115.563 433.363L116.102 434.304C118.401 434.307 120.7 434.308 123 434.309V433.368L122.665 433.368L122.665 433.73ZM121.996 405.335C121.857 405.45 121.727 405.563 121.607 405.676L121.521 405.76L122.665 405.76V406.006L123 405.746V404.595L122.23 405.147L121.996 405.335ZM119.98 419.926C119.637 420.52 119.293 421.127 118.95 421.722L119.494 422.668L122.954 416.648L123 416.481V415.94L122.377 415.773L119.98 419.926ZM122.665 293.057V293.286L123 293.287V292.343L122.255 292.34L122.665 293.057ZM119.994 441.101C120.996 441.101 121.998 441.1 123 441.1V440.163L119.458 440.165L119.994 441.101ZM118.517 285.812H123V284.866H117.975L118.517 285.812ZM97.9825 299.268H96.8812L100.379 304.997H113.044L112.939 305.179C116.293 305.217 119.646 305.253 123 305.287V304.344L100.941 304.11L97.9825 299.268ZM122.665 312.161L123 312.162V311.223L122.665 311.222V312.161ZM118.183 322.178L117.603 323.117L123 323.123V322.182L121.133 322.183C120.15 322.184 119.165 322.186 118.183 322.178L118.183 322.178ZM119.481 336.353L118.941 337.293L122.377 343.277L123 343.11V342.57L122.954 342.403L119.481 336.353ZM121.795 316.33L123 316.33V315.388L122.377 315.388L121.795 316.33ZM121.679 351.295C121.625 351.266 121.569 351.229 121.515 351.196L119.958 351.197C120.082 351.311 120.206 351.422 120.326 351.518C120.476 351.637 120.628 351.748 120.78 351.85C120.931 351.95 121.085 352.042 121.241 352.127L121.468 352.242L121.694 352.341L121.919 352.428C122.278 352.546 122.633 352.626 123 352.719V351.753L122.378 351.59C122.138 351.509 121.904 351.411 121.679 351.295L121.679 351.295ZM20.86 208.294L14.0349 196.946L53.5097 196.836L52.916 195.879C50.8269 195.885 48.7377 195.892 46.6485 195.898L12.3716 196.011L19.1997 207.358L12.7098 207.377C11.3501 205.177 10.0227 203.019 8.72776 200.902L1.6681 189.332H48.8532L48.292 188.428H0.0149441C4.07695 195.054 8.1534 201.676 12.183 208.321C15.0752 208.304 17.968 208.302 20.86 208.294ZM14.0182 389.392L69.2478 389.239C74.516 389.222 79.7836 389.202 85.0505 389.179L84.5016 388.231C73.4817 388.263 62.462 388.296 51.4426 388.33L12.3579 388.458L19.1861 399.806L12.6948 399.824C11.3365 397.629 10.0105 395.473 8.71657 393.354L1.65366 381.778H80.7653L80.6318 381.547H112.306L112.695 380.875H0L4.21246 387.754C6.85842 392.095 9.53331 396.42 12.1693 400.767C15.0608 400.751 17.9544 400.75 20.8466 400.742L14.0182 389.392ZM44.4681 182.265H1.76904L49.347 100.094C49.4903 99.8451 49.6357 99.6039 49.7811 99.376C49.9259 99.1484 50.0721 98.9313 50.2162 98.7285C50.3617 98.5244 50.5137 98.3245 50.6699 98.131C50.819 97.9454 50.9735 97.7661 51.1288 97.5945C51.2783 97.4308 51.4373 97.2699 51.6008 97.1155C51.7665 96.9583 51.9287 96.8161 52.0848 96.6919C52.2459 96.5624 52.4089 96.4424 52.5709 96.3341C52.7388 96.2222 52.9062 96.1223 53.0699 96.0353L53.3436 95.8977L53.6177 95.7794L53.8975 95.6804L54.1666 95.6042L54.4484 95.5419L54.7243 95.5027L55.0038 95.4792L55.2812 95.4771L55.5503 95.4935L55.8202 95.5282L56.0554 95.5745L56.5446 94.7294L56.2898 94.6623L55.9647 94.5992L55.6323 94.557L55.3053 94.5373L54.9721 94.5394L54.6322 94.5645L54.2992 94.6135L53.9569 94.6862L53.6282 94.7793L53.2889 94.8989L52.9589 95.0404L52.6274 95.2045C52.4404 95.3044 52.2556 95.4157 52.0748 95.5352C51.8924 95.6569 51.7099 95.7902 51.532 95.9324C51.3571 96.0716 51.1792 96.2259 51.0005 96.3922C50.8267 96.555 50.6525 96.7297 50.482 96.9141C50.3095 97.0997 50.1378 97.2984 49.9688 97.5059C49.8066 97.7063 49.641 97.9236 49.4759 98.1528C49.3094 98.385 49.1472 98.6225 48.9942 98.8625C48.8442 99.0975 48.6904 99.352 48.5342 99.6226L0.14625 183.193H45.0436L44.4681 182.265ZM95.9272 407.964L63.5109 463.95C63.3684 464.197 63.2237 464.437 63.079 464.664C62.9328 464.893 62.7858 465.11 62.6403 465.315C62.4874 465.529 62.3366 465.728 62.1904 465.91C62.0404 466.096 61.8851 466.276 61.7282 466.447C61.5715 466.619 61.4123 466.781 61.2548 466.93C61.0942 467.082 60.9322 467.223 60.7717 467.353C60.6164 467.478 60.4528 467.598 60.2861 467.711C60.1241 467.819 59.9569 467.918 59.7901 468.008L59.5166 468.145L59.2409 468.262L58.9648 468.362L58.6899 468.44L58.408 468.501L58.1344 468.541L57.8554 468.563L57.572 468.566L57.3029 468.55L57.0309 468.515L56.7586 468.461L56.4895 468.389L56.228 468.302L55.95 468.191L55.6838 468.066L55.4191 467.922C55.2495 467.824 55.0846 467.718 54.9286 467.607C54.7718 467.496 54.6118 467.371 54.4507 467.234C54.2923 467.099 54.1358 466.955 53.9812 466.802C53.825 466.645 53.6705 466.481 53.5227 466.311C53.3781 466.146 53.231 465.966 53.0856 465.775C52.9372 465.58 52.7939 465.382 52.6604 465.183C52.5218 464.976 52.3846 464.762 52.2542 464.543C52.1156 464.312 51.9856 464.082 51.8661 463.859L19.8616 412.278L42.1148 412.296L66.8502 412.301L63.073 418.142L30.2829 418.166L44.0791 440.488L57.8674 462.823C69.4372 442.612 81.0099 422.401 92.5855 402.193L92.0423 401.255C80.6391 421.164 69.2384 441.075 57.8404 460.988L44.8847 440.049L31.9676 419.106L63.5825 419.085C65.2513 416.513 66.9156 413.939 68.5755 411.361C51.7734 411.347 34.9714 411.34 18.1694 411.339L51.0552 464.33C51.193 464.588 51.331 464.83 51.4658 465.053C51.6189 465.305 51.7682 465.539 51.9128 465.752C52.0636 465.973 52.2197 466.188 52.3773 466.393C52.5331 466.595 52.6967 466.792 52.8642 466.983C53.0307 467.17 53.1979 467.346 53.3631 467.509C53.5335 467.676 53.7077 467.834 53.8794 467.98C54.0545 468.126 54.2328 468.264 54.4115 468.391C54.5918 468.518 54.7718 468.634 54.9513 468.736L55.2693 468.907L55.5898 469.059L55.9139 469.189L56.241 469.296L56.5742 469.383L56.8967 469.446L57.2262 469.488L57.5517 469.507L57.8887 469.504L58.2264 469.478L58.5641 469.43L58.9026 469.358L59.2379 469.263L59.5712 469.144L59.9031 469.004L60.2293 468.84C60.4162 468.74 60.6009 468.628 60.7826 468.509C60.965 468.387 61.1474 468.255 61.3245 468.112C61.4964 467.976 61.6746 467.821 61.859 467.649C62.0328 467.487 62.2048 467.313 62.3751 467.13C62.5471 466.944 62.7188 466.747 62.8861 466.54C63.0496 466.338 63.2156 466.121 63.3807 465.892C63.5465 465.661 63.7078 465.424 63.8602 465.185C64.0176 464.938 64.1746 464.682 64.3237 464.42L96.4692 408.9L95.9272 407.964ZM74.4858 48.8392C73.9613 49.9181 73.1426 50.8255 72.1247 51.456C72.0616 51.4897 71.9994 51.4966 71.9365 51.5252L67.7621 58.8154C67.9489 59.1182 68.1359 59.4208 68.3229 59.7232C75.433 47.3079 82.5422 34.8921 89.6505 22.4757L74.4858 48.8392ZM29.4967 23.3526L75.5401 23.1633L75.1555 23.833L76.2375 23.8335L77.1654 22.2171L30.0387 22.4099C29.0165 20.6517 28.0429 18.9496 27.0683 17.2481L26.7478 16.6889L47.0002 16.4738L46.4629 15.539L25.1356 15.7669C26.5901 18.2942 28.0438 20.8228 29.4967 23.3526ZM20.8753 15.8469L14.0494 4.49752L29.4182 4.45468L28.8401 3.50975L12.3858 3.56398L19.2163 14.912L18.7536 14.9133C16.863 14.9216 14.9795 14.9301 12.7249 14.9301L3.58842 0H2.48891L12.198 15.8712L20.8753 15.8469ZM98.2336 445.153L117.505 445.233L116.959 444.289C110.537 444.26 104.115 444.234 97.693 444.211L93.3327 451.797L123 452.112V451.172L94.9435 450.872L98.2336 445.153ZM116.729 560.901C116.876 561.161 117.031 561.414 117.188 561.659C117.342 561.9 117.506 562.14 117.674 562.376C117.832 562.596 117.996 562.811 118.166 563.019C118.335 563.227 118.506 563.425 118.678 563.61C118.85 563.796 119.025 563.971 119.199 564.134C119.372 564.296 119.55 564.449 119.728 564.591C119.906 564.734 120.088 564.866 120.271 564.988C120.453 565.109 120.638 565.221 120.825 565.322L121.11 565.465L121.385 565.586L121.668 565.694C122.104 565.828 122.549 565.93 123 566V565.049C122.711 564.994 122.445 564.946 122.162 564.866L121.942 564.793L121.712 564.704L121.492 564.606L121.262 564.491C121.102 564.405 120.936 564.305 120.769 564.193C120.607 564.085 120.444 563.964 120.281 563.834C120.12 563.705 119.958 563.563 119.797 563.411C119.64 563.262 119.48 563.1 119.322 562.927C119.165 562.757 119.01 562.576 118.859 562.388C118.706 562.199 118.556 562.001 118.411 561.798C118.265 561.594 118.118 561.374 117.971 561.145C117.827 560.919 117.683 560.681 117.542 560.434L69.9637 478.26H123V477.315H68.3318L116.729 560.901ZM89.0701 451.717C86.1786 451.706 83.2866 451.693 80.3951 451.693C76.3219 458.331 72.2564 464.975 68.1986 471.624H123V470.679H69.8795L76.5224 459.802L80.9189 452.633L87.409 452.65L80.5804 464L123 464.125V463.192L82.2433 463.065L89.0701 451.717ZM122.371 445.253L123 445.255V444.314C122.61 444.312 122.221 444.311 121.831 444.309L122.371 445.253ZM117.468 515.564L123 515.569V514.628L121.153 514.63C120.096 514.631 119.036 514.634 117.98 514.624C116.993 513.117 115.983 511.548 114.975 509.983L114.203 508.782L123 508.777V507.836L112.477 507.843C114.142 510.415 115.806 512.989 117.468 515.564V515.564ZM80.4435 484.663L101.56 521.526L122.377 557.895L123 557.728V557.184L122.954 557.017L82.0655 485.606L123 485.736V484.788L81.0207 484.664L80.4435 484.663ZM103.915 503.592L122.377 535.749L123 535.583V535.043L122.954 534.877L105.54 504.538L123 504.61V503.671L104.495 503.594L103.915 503.592ZM82.3782 76.1673H83.478L87.1709 70.0289H86.0723L82.3782 76.1673ZM96.3117 489.002H88.0043L117.846 540.882C117.978 541.114 118.106 541.331 118.23 541.53C118.357 541.732 118.487 541.929 118.62 542.118C118.753 542.307 118.89 542.489 119.027 542.66C119.166 542.835 119.306 542.999 119.444 543.148C119.585 543.301 119.729 543.447 119.873 543.582C120.02 543.72 120.168 543.849 120.314 543.967C120.463 544.086 120.616 544.197 120.769 544.299C120.924 544.402 121.078 544.494 121.227 544.573L121.454 544.688L121.684 544.789L121.911 544.877C122.272 544.997 122.63 545.075 123 545.166V544.203L122.353 544.036C122.115 543.955 121.883 543.856 121.66 543.741C121.536 543.675 121.403 543.594 121.264 543.502C121.134 543.415 121.001 543.316 120.868 543.207C120.741 543.105 120.611 542.989 120.479 542.864C120.347 542.737 120.219 542.605 120.096 542.468C119.966 542.324 119.842 542.177 119.725 542.028C119.602 541.873 119.48 541.709 119.362 541.542C119.248 541.378 119.127 541.195 119.001 540.994L118.659 540.417L89.631 489.947H95.7876L100.395 497.492C107.929 497.556 115.465 497.649 123 497.732V496.791L100.926 496.557L96.3117 489.002ZM101.788 86.7294H123V85.7851H101.211L101.788 86.7294ZM120.476 271.671L123 271.679V270.747L119.94 270.737C120.119 271.048 120.298 271.36 120.476 271.671L120.476 271.671ZM122.665 93.3649H123V92.4201H122.665V93.3649ZM110.052 100.8L116.041 100.819L115.76 100.384L122.665 100.381V100.84L123 100.841V99.896C118.503 99.8748 114.007 99.8698 109.51 99.8557C109.691 100.171 109.871 100.485 110.052 100.8ZM120.905 119.707L123 119.715V118.776L120.364 118.765L120.905 119.707ZM122.665 67.2137L123 67.2173V66.2778L122.665 66.2742V67.2137ZM116.925 112.773C118.95 112.796 120.975 112.817 123 112.838V111.898L116.382 111.827L116.925 112.773ZM121.67 0L121.498 0.171528C121.361 0.310976 121.221 0.463102 121.082 0.622566C120.92 0.807279 120.761 0.999998 120.609 1.19987C120.453 1.40332 120.299 1.61589 120.151 1.83663C119.995 2.0668 119.849 2.29437 119.716 2.51834C119.569 2.76431 119.431 3.00539 119.304 3.24161L86.423 56.226C87.2936 56.2252 88.1643 56.2247 89.0351 56.2246L89.2735 55.8347L94.2784 55.8492L94.0545 56.2216C103.703 56.2136 113.351 56.208 123 56.2047V55.2698L88.1137 55.2848C98.6082 38.3726 110.829 20.3053 120.445 3.1245L120.779 2.58346L121.127 2.07278C121.24 1.91459 121.36 1.75659 121.486 1.59988L121.841 1.17766L122.202 0.794201L122.535 0.47738L123 0.0886064V0H121.67ZM103.548 41.2826L104.653 41.2834L122.949 11.6647L123 11.4895V10.9695L122.382 10.7942L103.548 41.2826ZM122.665 123.882L123 123.882V122.941L122.665 122.941V123.882ZM122.665 21.1343L123 20.8727V19.7151L122.665 19.96V21.1343ZM120.044 34.979C118.82 37.1038 117.606 39.2145 116.415 41.2915L117.501 41.2923L122.954 31.8044L123 31.6372V31.0963L122.377 30.9291L120.044 34.979ZM101.847 45.8253L100.741 45.8258L98.8506 48.8862L98.5358 49.3967C106.69 49.3967 114.844 49.4025 123 49.4142V48.4747L100.222 48.4565L101.847 45.8253ZM112.201 36.4075L109.413 41.2867L110.499 41.2875C111.424 39.6633 112.356 38.0432 113.28 36.4173L112.201 36.4075ZM94.5286 64.871L95.6077 64.8741L98.2622 60.2583L123 60.3597V59.4203C114.574 59.3799 106.148 59.3458 97.7217 59.318L94.5286 64.871ZM122.665 79.2303L123 79.2313V78.3002L122.665 78.299V79.2303ZM119.211 228.858H120.291L122.954 224.225L123 224.059V223.517L122.377 223.351L119.211 228.858ZM103.259 241.847C109.839 241.849 116.419 241.854 123 241.862V240.921L102.685 240.906L103.259 241.847ZM122.002 212.893L121.612 213.235L121.235 213.606C121.093 213.752 120.952 213.91 120.811 214.074C120.671 214.24 120.535 214.41 120.412 214.577C120.282 214.751 120.163 214.923 120.059 215.087C119.954 215.251 119.855 215.417 119.768 215.581L118.596 217.632L119.678 217.635C120.056 216.98 120.424 216.319 120.803 215.665L121.057 215.283L121.34 214.906L121.649 214.538L121.956 214.21L122.278 213.898L122.564 213.648L123 213.31V212.155L122.471 212.532C122.315 212.644 122.157 212.766 122.003 212.893L122.002 212.893ZM113.527 259.565L123 259.666V258.725L112.983 258.618L113.527 259.565ZM118.007 129.73L116.593 127.555L114.232 123.887L118.371 123.884L117.83 122.944L112.703 122.948C113.215 123.843 113.728 124.738 114.241 125.634L117.497 130.671L123 130.674V129.734L121.161 129.736C120.111 129.737 119.058 129.739 118.007 129.73ZM109.617 252.753L123 252.809V251.869C118.359 251.846 113.718 251.827 109.076 251.811L109.617 252.753ZM122.665 248.655L123 248.654V247.716L122.665 247.716V248.655ZM122.665 204.548L122.949 204.088L123 203.913V203.399L122.665 203.304L122.665 204.548ZM106.274 111.72L106.815 112.665C108.526 112.683 110.238 112.701 111.949 112.72L111.405 111.775L106.274 111.72ZM115.956 119.687L115.414 118.745L110.284 118.724L110.823 119.666L115.956 119.687ZM105.57 119.644L105.828 119.645L105.283 118.703L104.524 118.7L103.945 118.699L122.377 150.804L123 150.638V150.098L122.954 149.931L105.57 119.644ZM121.92 192.205C121.771 192.337 121.627 192.474 121.49 192.614C121.352 192.755 121.212 192.906 121.071 193.066C120.906 193.255 120.745 193.452 120.592 193.65C120.513 193.753 120.432 193.873 120.351 193.985L121.524 193.985L121.839 193.611C121.953 193.482 122.076 193.353 122.203 193.227L122.538 192.908L123 192.524V191.354L122.188 191.974L121.92 192.205ZM121.731 179.806L121.714 179.798L121.243 180.617L121.401 180.686L121.675 180.792L122.185 180.946C122.458 181.007 122.725 181.054 123 181.105V180.151C122.645 180.089 122.294 180.002 121.951 179.891L121.731 179.806ZM122.665 160.178C122.777 160.206 122.886 160.239 123 160.268V159.303L122.665 159.215V160.178ZM122.665 171.57V172.873L123 172.784V172.24L122.954 172.074L122.665 171.57ZM80.096 92.4199L80.6822 93.3647H90.6123L90.0652 92.4199H80.096ZM104.17 344.863L103.609 345.77L104.126 346.663L105.212 346.663L104.17 344.863ZM89.5779 299.268L92.8736 304.997H93.9571L90.6613 299.268H89.5779ZM113.457 338.897L110.756 334.201L110.195 335.109L112.917 339.842L113.457 338.897ZM107.509 339.456C108.886 341.86 110.262 344.264 111.639 346.668L112.719 346.669L108.07 338.549L107.509 339.456ZM102.006 359.711C104.188 363.284 106.346 366.811 108.479 370.291L109.585 370.294C107.431 366.77 105.276 363.246 103.119 359.722L102.006 359.711ZM91.6147 342.008L92.9822 344.212H90.3387L89.7947 345.152C91.4199 345.153 93.0452 345.154 94.6704 345.154L92.1475 341.088L91.6147 342.008ZM90.6402 309.997C91.4559 311.421 92.2716 312.846 93.0872 314.27H94.1686L91.7198 309.994L90.6402 309.997ZM91.4266 324.729L93.9696 329.12L94.5089 328.178L91.9672 323.789L91.4266 324.729ZM110.96 425.324C111.81 423.834 112.66 422.345 113.512 420.856L112.968 419.91L110.417 424.376L110.96 425.324ZM107.648 429.225L108.24 429.23L107.941 428.713L107.648 429.225ZM109.131 355.305L110.218 355.31L107.84 351.202L106.755 351.203L109.131 355.305ZM103.481 394.919L104.037 395.83L109.402 386.563L108.32 386.56L103.481 394.919ZM109.091 404.546C109.333 404.967 109.575 405.389 109.817 405.811C110.701 404.387 111.584 402.963 112.452 401.541L110.959 401.535L109.091 404.546ZM116.503 406.948L115.938 406.075L112.843 411.083L113.375 412.01L116.503 406.948ZM98.8216 367.099C96.1161 367.111 93.4108 367.121 90.7057 367.129L90.1417 368.066C93.3922 368.057 96.6428 368.047 99.8935 368.036L100.483 368.036L93.6576 356.685L100.147 356.667C100.503 357.251 100.847 357.812 101.2 358.391L101.735 357.46C101.381 356.882 101.028 356.304 100.675 355.726L91.9945 355.752L98.8216 367.099ZM110.279 415.235L107.634 419.516L108.165 420.443L110.811 416.161L110.279 415.235ZM80.4222 66.7969L72.3422 80.0028C72.5513 80.2723 72.7466 80.5524 72.9272 80.842C75.6072 76.453 78.2889 72.0605 80.9467 67.7388L81.9888 67.7414L82.5627 66.8032L80.4222 66.7969ZM96.523 333.531L101.089 341.417L101.651 340.512L97.0656 332.594L96.523 333.531ZM69.9081 85.7851L70.3732 85.0231L69.8192 84.1263L68.2264 86.7294H71.4273L70.8438 85.7851H69.9081ZM55.8939 104.476L58.5421 108.766L59.0748 107.84C58.1906 106.41 57.3071 104.98 56.4243 103.549L55.8939 104.476ZM69.5573 94.4854C69.9198 94.5664 70.269 94.6983 70.5948 94.8772C70.7515 94.9732 70.9031 95.0773 71.0489 95.1893L69.9925 93.3647H75.5263L74.9427 92.4199H68.3614L69.5573 94.4854ZM86.2237 85.785H75.9788L76.5647 86.7294H86.7705L86.2237 85.785ZM80.61 79.1057L82.3594 79.1111L81.5001 77.6268L80.61 79.1057ZM104.576 414.175C105.469 412.766 106.351 411.356 107.237 409.947L106.516 408.694L103.875 412.95L104.576 414.175ZM53.247 126.604L54.211 126.6L55.6983 124.011L57.1794 126.588L58.2582 126.584L55.7565 122.232L53.247 126.604ZM54.2993 115.48L53.978 115.562L53.6571 115.669L53.3427 115.8L53.0306 115.952C52.8807 116.033 52.7262 116.124 52.5692 116.229C52.418 116.33 52.2672 116.441 52.1193 116.558C51.9731 116.676 51.8254 116.803 51.6784 116.942C51.5351 117.077 51.3921 117.223 51.2512 117.376C51.1131 117.525 50.9735 117.688 50.8343 117.862C50.6962 118.034 50.559 118.216 50.425 118.406C50.2959 118.588 50.1642 118.787 50.0306 119C49.8959 119.215 49.766 119.432 49.6469 119.647L37.0107 141.615C37.372 141.614 37.7332 141.613 38.0943 141.612L50.4628 120.107L50.8124 119.519C50.9276 119.335 51.0467 119.155 51.1681 118.982C51.2864 118.813 51.4078 118.651 51.5292 118.497C51.6558 118.338 51.7808 118.189 51.9024 118.055C52.0306 117.914 52.1601 117.781 52.2881 117.658C52.418 117.535 52.5475 117.42 52.6755 117.316C52.8075 117.209 52.9411 117.111 53.0704 117.024C53.2032 116.935 53.3382 116.854 53.4702 116.784L53.7264 116.657L53.9772 116.553L54.0833 116.518L54.7195 115.412L54.6272 115.421L54.2993 115.48ZM112.266 375.653H112.863L112.713 375.408H80.5676L80.9925 374.713H1.75559L34.4949 318.168L33.9374 317.257L0.124977 375.654L112.266 375.653ZM95.2597 318.064C96.1 319.531 96.9401 320.999 97.78 322.466L98.3206 321.522L95.8016 317.122L95.2597 318.064ZM46.569 264.63L47.1017 263.71L19.8757 219.831L42.1004 219.85L66.8639 219.853L63.0866 225.696L30.2965 225.719L44.0942 248.041L50.3277 258.138L50.8547 257.228L44.899 247.602L31.982 226.658L63.5976 226.637L68.0356 219.77C67.7569 219.504 67.4985 219.218 67.2627 218.914C50.9033 218.9 34.5436 218.893 18.1838 218.891L46.569 264.63ZM29.4817 215.799L65.1865 215.653L64.6046 214.716L30.0236 214.857C29.0068 213.1 27.993 211.337 26.9821 209.568L26.7359 209.137L60.9175 208.774L60.3379 207.84L25.1226 208.214C26.5765 210.742 28.0295 213.27 29.4817 215.799ZM80.0697 183.193L80.6022 182.265H49.6883L50.2614 183.193H80.0697ZM59.6318 189.332L59.1155 188.428H53.4952C53.6815 188.729 53.8676 189.031 54.0536 189.332H59.6318ZM95.2229 92.4199L95.7638 93.3647H100.815L100.272 92.4199H95.2229ZM113.653 207.145L112.19 207.129L105.695 217.593L107.2 217.598C109.393 214.107 111.544 210.622 113.653 207.145V207.145ZM117.395 233.897L116.316 233.894L115.161 235.904L109.276 235.852C109.651 235.194 110.027 234.535 110.404 233.877L109.321 233.873L107.662 236.778L115.698 236.85L117.395 233.897ZM111.441 222.718H110.338L106.545 228.858H107.648L111.441 222.718ZM105.787 198.514L103.426 202.592L104.506 202.596L106.87 198.513L105.787 198.514ZM99.0239 251.769L99.5641 252.712L104.645 252.733L104.103 251.79C102.41 251.783 100.717 251.773 99.0239 251.769L99.0239 251.769ZM96.7104 247.728L97.2479 248.667C98.9337 248.666 100.619 248.665 102.305 248.664L101.765 247.726L96.7104 247.728ZM103.456 233.856L100.816 238.13H100.989L101.452 238.888L104.558 233.859L103.456 233.856ZM75.8594 122.368L74.7558 122.367L77.3234 126.505L78.4241 126.501L75.8594 122.368ZM91.4238 85.7851C91.6043 86.0998 91.7845 86.4146 91.9646 86.7294H96.9989L96.4557 85.7851H91.4238ZM102.884 258.51L103.426 259.457L108.545 259.512L108 258.564L102.884 258.51ZM85.2487 100.724L94.8904 100.754L94.3444 99.8107C91.1176 99.8031 87.8909 99.7935 84.6644 99.7819L85.2487 100.724ZM115.692 222.718L112.185 228.858H113.269C114.434 226.808 115.603 224.761 116.776 222.718H115.692ZM104.541 99.8411C102.848 99.8364 101.156 99.8313 99.4634 99.8259L100.004 100.769L105.084 100.785L104.541 99.8411ZM119.918 207.211L113.489 217.616L114.59 217.62L121.013 207.223L119.918 207.211ZM122.565 171.395L119.897 166.735L119.337 167.641L121.858 172.044C122.077 171.81 122.313 171.593 122.565 171.395H122.565ZM100.341 326.937C101.898 329.657 103.455 332.376 105.012 335.095L105.574 334.19L100.884 325.999L100.341 326.937ZM118.426 369.348C118.28 369.143 118.134 368.925 117.987 368.697C117.847 368.477 117.703 368.237 117.558 367.985L112.833 359.826L111.741 359.814L116.744 368.455C116.899 368.727 117.053 368.98 117.203 369.216C117.357 369.456 117.52 369.695 117.687 369.928C117.782 370.061 117.885 370.189 117.985 370.319L119.2 370.323C119.093 370.201 118.987 370.081 118.875 369.943C118.73 369.762 118.58 369.562 118.426 369.348H118.426ZM120.756 387.47C120.873 387.288 120.992 387.115 121.109 386.953C121.194 386.834 121.286 386.716 121.378 386.598L120.22 386.595C120.189 386.638 120.157 386.679 120.127 386.723C119.976 386.946 119.827 387.176 119.687 387.411C119.548 387.642 119.409 387.885 119.274 388.136L113.833 396.903L115.231 396.918C117.009 393.941 118.755 390.971 120.411 388.028L120.756 387.47ZM115.313 351.199L114.234 351.2C115.023 352.579 115.812 353.957 116.602 355.336L117.684 355.34L115.313 351.199ZM114.046 341.804L116.846 346.671L117.93 346.672L115.135 341.814L114.046 341.804ZM117.025 426.963L116.483 426.021C116.037 426.802 115.592 427.564 115.146 428.353C114.327 428.342 113.503 428.337 112.681 428.33L113.223 429.276L115.683 429.298L117.025 426.963ZM118.653 410.274L118.557 410.125L115.433 415.594L115.976 416.54C117.168 414.451 118.36 412.363 119.553 410.275L118.653 410.274ZM118.722 401.567L116.13 405.763L117.235 405.763L119.824 401.572L118.722 401.567ZM98.5072 434.292C102.73 434.292 106.953 434.295 111.176 434.301L110.63 433.359L100.191 433.351L105.578 424.632L105.044 423.71L98.8222 433.781L98.5072 434.292ZM69.8938 278.23L71.8328 275.056L70.7355 275.055C69.8952 276.43 69.0545 277.804 68.2135 279.177H81.6409L90.6991 279.14L90.7205 279.177H109.779L109.23 278.23H69.8938ZM95.7406 309.981L100.345 317.986L100.886 317.042L96.822 309.978C96.4615 309.979 96.101 309.98 95.7406 309.981V309.981ZM103.762 292.285L81.0351 292.216L80.4571 292.215L80.7455 292.718C81.0221 293.2 81.2984 293.683 81.5745 294.166L82.6551 294.162L82.0804 293.159L104.329 293.229L103.762 292.285ZM106.695 315.963L111.592 324.492L112.154 323.587L107.239 315.023L106.695 315.963ZM114.912 319.142L115.461 318.257C115.047 317.616 114.63 316.976 114.217 316.333L116.655 316.332L117.239 315.392L112.49 315.395C113.297 316.644 114.105 317.893 114.912 319.142H114.912ZM117.189 332.36L114.639 327.916L114.078 328.823L116.65 333.304L117.189 332.36ZM119.834 311.21L109.471 311.168L108.929 312.105L119.252 312.147L119.834 311.21Z" fill="#EAC5D3"/>
<path d="M122.665 140.347V138.6L90.2556 81.9979L122.665 82.0993V81.2223C111.361 81.186 100.057 81.1524 88.7532 81.1217C100.066 100.859 111.37 120.6 122.665 140.347ZM69.1946 253.234L76.8528 266.56L83.3714 266.501L73.7196 249.599C73.079 248.443 72.1434 247.479 71.0089 246.805C70.4346 246.47 69.7939 246.265 69.1321 246.206C68.408 246.153 67.684 246.311 67.0472 246.661C65.8825 247.366 64.9428 248.391 64.339 249.615L40.6108 290.868H47.3441L51.0044 284.874L94.7297 284.41L91.1976 278.267L54.739 278.416L69.1946 253.234ZM90.6987 279.14L93.2366 283.554L50.5141 284.009L46.8584 289.994H42.1152L65.0934 250.045C65.6193 248.967 66.4379 248.06 67.455 247.429C67.9477 247.158 68.5079 247.036 69.0681 247.077C69.6027 247.127 70.1198 247.294 70.5832 247.567C71.5789 248.157 72.3992 249.005 72.9589 250.021L81.8782 265.643L77.3512 265.684L69.1937 251.491L53.2344 279.294L90.6987 279.14ZM74.0985 233.818C73.4013 232.373 72.321 231.15 70.9764 230.282C70.3417 229.903 69.6222 229.69 68.884 229.663C68.1308 229.649 67.3872 229.834 66.7275 230.2C65.3324 231.049 64.1999 232.271 63.4563 233.729L25.0048 300.138H114.671C111.425 294.825 108.175 289.512 104.922 284.201L97.8931 284.222L103.31 293.226L36.1144 293.437L68.6551 236.604L89.0689 269.651L64.0623 269.669L60.0208 275.922C73.4271 275.922 86.8332 275.928 100.239 275.94L74.0985 233.818ZM64.5343 270.54L90.6284 270.521C83.2997 258.646 75.9661 246.774 68.6276 234.906L34.6123 294.312C58.024 294.235 81.4363 294.162 104.849 294.093L99.4317 285.088L104.437 285.074L113.12 299.268H26.513L64.2069 234.165C64.871 232.849 65.8844 231.743 67.1355 230.968C67.6635 230.674 68.2591 230.524 68.863 230.533C69.4566 230.557 70.0348 230.73 70.5447 231.036C71.7548 231.83 72.7242 232.943 73.3471 234.252L98.6733 275.068L61.6179 275.051L64.5343 270.54ZM117.597 141.706C118.342 143.163 119.474 144.384 120.869 145.235C121.422 145.539 122.035 145.72 122.665 145.765V144.891C122.178 144.846 121.705 144.701 121.276 144.466C120.026 143.692 119.013 142.586 118.349 141.271L80.6548 76.1673H122.665V75.2927H79.1441L117.597 141.706ZM70.3741 198.341L62.7146 185.015L56.1969 185.074L65.8486 201.976C66.4893 203.132 67.4249 204.096 68.5593 204.769C69.1337 205.105 69.7744 205.309 70.4361 205.369C71.1602 205.422 71.8841 205.264 72.5209 204.914C73.6852 204.208 74.6248 203.184 75.2291 201.961L98.9568 160.706H92.2242L88.564 166.7L44.8384 167.166L48.3704 173.309L84.8291 173.158L70.3741 198.341ZM48.8696 172.436L46.3317 168.021L89.0532 167.567L92.7098 161.581H97.4531L74.4748 201.53C73.9495 202.608 73.1307 203.515 72.1132 204.146C71.6205 204.416 71.0605 204.539 70.5002 204.498C69.9655 204.448 69.4483 204.281 68.985 204.008C67.9891 203.417 67.1688 202.57 66.6091 201.554L57.69 185.931L62.2172 185.891L70.3741 200.084L86.3327 172.281L48.8696 172.436ZM95.8167 54.983L88.787 54.9626L79.0349 70.9027H122.665V70.0289H80.589L89.2731 55.8348L94.2781 55.8493L88.861 64.8542C100.129 64.8835 111.397 64.9166 122.665 64.9533V64.0878L90.3988 63.9871L95.8167 54.983ZM122.665 122.773V121.032L108.881 97.0181L122.665 97.0746V96.2041L107.377 96.1411C112.476 105.017 117.572 113.894 122.665 122.773ZM70.3623 351.031L62.7024 337.705L56.1855 337.764L65.8375 354.666C66.4785 355.822 67.4138 356.786 68.5479 357.459C69.122 357.794 69.7624 357.999 70.4239 358.058C71.1482 358.112 71.8724 357.954 72.5096 357.604C73.6744 356.899 74.6141 355.874 75.2179 354.65L98.9456 313.396H92.2132L88.5528 319.39L44.8272 319.856L48.3593 325.998L84.817 325.848L70.3623 351.031ZM48.8582 325.125L46.3203 320.711L89.0419 320.256L92.6985 314.27H97.4416L74.4634 354.22C73.9378 355.298 73.1191 356.205 72.1018 356.836C71.6091 357.106 71.0491 357.229 70.4889 357.188C69.9543 357.137 69.4372 356.97 68.974 356.697C67.9779 356.107 67.1575 355.26 66.5979 354.244L57.6787 338.622L62.2057 338.58L70.3623 352.774L86.3207 324.971L48.8582 325.125ZM101.485 84.5655H94.7517L118.481 125.819C119.085 127.043 120.024 128.068 121.188 128.774C121.645 129.023 122.147 129.176 122.665 129.224V128.347C122.29 128.302 121.928 128.186 121.597 128.006C120.581 127.376 119.763 126.47 119.238 125.393L96.2568 85.44H101L104.655 91.4266L122.665 91.6187V90.7471L105.146 90.5596L101.485 84.5655ZM24.9023 304.157C28.1472 309.458 31.3911 314.761 34.6341 320.064L41.6637 320.043L36.2455 311.038L103.443 310.827L70.9021 367.66L50.4879 334.614L75.4945 334.596L79.5355 328.343C66.1297 328.335 52.7235 328.329 39.317 328.325L65.4582 370.447C66.1554 371.891 67.2357 373.115 68.5804 373.983C69.2152 374.362 69.9351 374.575 70.6735 374.602C71.4265 374.615 72.1699 374.43 72.8293 374.065C74.2243 373.215 75.3567 371.994 76.1004 370.536L114.535 304.157H24.9023ZM75.3499 370.099C74.6859 371.415 73.6724 372.522 72.4213 373.296C71.8932 373.59 71.2976 373.74 70.6938 373.731C70.1005 373.707 69.5226 373.534 69.0129 373.228C67.8022 372.434 66.8324 371.322 66.2097 370.012L40.8835 329.197L77.939 329.214L75.0228 333.725L48.9283 333.744C56.2668 345.611 63.6004 357.483 70.9292 369.359C82.2754 349.561 93.614 329.759 104.945 309.952C81.5323 310.014 58.1198 310.088 34.7071 310.173L40.1251 319.177L35.1202 319.191L26.4369 304.998H113.044L75.3499 370.099ZM41.6747 167.353L36.2577 158.348L103.454 158.138L70.9131 214.971L50.4991 181.923L75.506 181.907L79.5467 175.654C66.1412 175.645 52.7351 175.638 39.3284 175.635L65.4695 217.758C66.1671 219.201 67.2473 220.424 68.5916 221.292C69.2265 221.672 69.9463 221.885 70.6847 221.913C71.4378 221.926 72.181 221.741 72.8405 221.376C74.2351 220.525 75.3675 219.303 76.112 217.846L114.546 151.467H24.9142C28.1579 156.769 31.4016 162.071 34.6453 167.374L41.6747 167.353ZM113.055 152.308L75.361 217.409C74.697 218.725 73.6837 219.832 72.4329 220.607C71.9047 220.901 71.309 221.05 70.7052 221.041C70.1119 221.017 69.5341 220.844 69.0244 220.538C67.8141 219.744 66.8445 218.632 66.2217 217.322L40.8946 176.507L77.9502 176.524L75.034 181.035L48.9397 181.054C56.2783 192.922 63.6119 204.793 70.9403 216.669C82.2867 196.872 93.6252 177.069 104.956 157.263C81.5443 157.325 58.132 157.398 34.7191 157.482L40.1365 166.486L35.1315 166.501L26.4482 152.308L113.055 152.308ZM122.665 41.2958V40.425L104.641 40.4122L122.665 11.2343V9.57984L103.081 41.2822L122.665 41.2958ZM119.612 4.57759L93.4695 46.7006C103.201 46.6953 112.933 46.6899 122.665 46.6846V45.816L95.0357 45.8281L120.363 5.01341C120.915 3.89762 121.7 2.91429 122.665 2.13034V1.08324C121.354 1.95298 120.3 3.15974 119.612 4.57767V4.57759ZM70.3856 45.6512L62.7258 32.325L56.2081 32.3839L65.8606 49.2862C66.5015 50.4417 67.4366 51.4056 68.5705 52.0794C69.1449 52.4146 69.7855 52.6194 70.4473 52.6794C71.1717 52.732 71.8959 52.5738 72.5331 52.2238C73.6977 51.5183 74.6373 50.4937 75.2414 49.2704L98.9682 8.01621H92.2357L88.5754 14.0102L44.8498 14.4761L48.3819 20.619L84.8404 20.4685L70.3856 45.6512ZM48.8806 19.7453L46.3429 15.3318L89.0652 14.8763L92.721 8.89079H97.4645L74.4859 48.8399C73.9605 49.9181 73.1417 50.8251 72.1243 51.456C71.6317 51.7267 71.0716 51.8489 70.5114 51.8077C69.9769 51.7578 69.4597 51.5907 68.9965 51.3183C68.0008 50.7274 67.1806 49.8802 66.6206 48.8643L57.7012 33.2409L62.2291 33.2009L70.3856 47.394L86.3441 19.5908L48.8806 19.7453ZM41.6871 14.6638L36.2689 5.6588L103.466 5.44849L70.9246 62.2803L50.5104 29.2337L75.5172 29.2163L79.5581 22.9646C66.1526 22.9554 52.7464 22.9491 39.3396 22.9455L65.481 65.0674C66.1783 66.5113 67.2584 67.7344 68.6029 68.6026C69.2375 68.9817 69.9567 69.1951 70.6946 69.2232C71.4483 69.2368 72.1922 69.0512 72.8519 68.6852C74.247 67.8354 75.3797 66.6137 76.1238 65.156L113.85 0H112.845L75.3724 64.7195C74.7088 66.0361 73.6953 67.1428 72.444 67.9173C71.9165 68.2113 71.3213 68.3611 70.718 68.3516C70.124 68.3281 69.5455 68.155 69.0356 67.8484C67.825 67.055 66.8554 65.9423 66.2332 64.6324L40.9061 23.8178L77.9609 23.8343L75.0454 28.345L48.9517 28.3636C56.2902 40.232 63.6235 52.1037 70.9517 63.9788C82.298 44.1819 93.6366 24.3798 104.967 4.57262C81.5554 4.63452 58.1432 4.70783 34.7307 4.79254L40.1486 13.7967L35.1428 13.8119L26.6931 0H25.6739C28.6694 4.89385 31.6637 9.78855 34.6566 14.6841L41.6871 14.6638ZM118.182 411.146L122.665 411.148V410.277L118.653 410.274L115.736 405.763L122.665 405.76V404.888L114.14 404.893L118.182 411.146ZM98.9802 55.1697L122.665 55.4216V54.5511L100.473 54.3141L103.011 49.9005L122.665 49.981V49.1101L102.512 49.0276L98.9802 55.1697ZM104.933 131.511L97.9047 131.532L103.323 140.537L36.1258 140.747L68.6662 83.915L89.0811 116.962L64.0737 116.98L60.0326 123.232C73.4391 123.232 86.8452 123.238 100.251 123.25L74.1099 81.1279C73.4126 79.684 72.3324 78.4609 70.9879 77.5928C70.3535 77.2138 69.6345 77.0004 68.8967 76.9723C68.1429 76.9585 67.3987 77.1441 66.739 77.5104C65.3437 78.3597 64.2111 79.5815 63.4675 81.0393L25.0215 147.438H114.677C111.432 142.128 108.184 136.819 104.933 131.511H104.933ZM64.2183 81.476C64.8825 80.1599 65.8958 79.0533 67.1465 78.2781C67.6742 77.9841 68.2695 77.8344 68.8729 77.8439C69.4671 77.8674 70.0459 78.0404 70.5561 78.347C71.7662 79.1409 72.7356 80.2534 73.3585 81.563L98.6856 122.378L61.63 122.362L64.5455 117.85L90.64 117.832C83.3109 105.956 75.9773 94.0846 68.6392 82.2166L34.6234 141.623C58.036 141.546 81.4483 141.473 104.86 141.404L99.4429 132.399L104.448 132.384L113.131 146.578H26.5244L64.2183 81.476ZM69.2061 100.544L76.8648 113.87L83.3828 113.812L73.7308 96.9092C73.0901 95.7534 72.1547 94.7894 71.0204 94.1161C70.446 93.7806 69.8052 93.5758 69.1433 93.5161C68.4191 93.4629 67.6951 93.6211 67.0585 93.9716C65.894 94.6771 64.9544 95.7018 64.3503 96.925L40.6217 138.178H47.3552L51.0162 132.184L94.7411 131.719L91.209 125.577L54.7511 125.727L69.2061 100.544ZM90.7099 126.45L93.248 130.864L50.5257 131.319L46.8704 137.305H42.1263L65.1046 97.3556C65.6307 96.2778 66.4493 95.3709 67.4662 94.7394C67.9587 94.4684 68.5189 94.3462 69.0791 94.3877C69.6138 94.4376 70.1311 94.6047 70.5943 94.8772C71.59 95.4678 72.4103 96.3148 72.9702 97.3304L81.8893 112.954L77.3623 112.995L69.2052 98.802L53.2466 126.604L90.7099 126.45ZM119.992 20.3613L110.337 37.2622L116.856 37.3211L122.665 27.2151V25.473L116.359 36.4449L111.831 36.4042L120.75 20.7819C121.222 19.9294 121.876 19.1921 122.665 18.6228V17.5871C121.547 18.2603 120.625 19.2171 119.992 20.3613ZM95.7933 360.363L88.7645 360.342L79.0123 376.282H122.665V375.408H80.5673L89.2501 361.214L94.2555 361.229L88.8369 370.234C100.113 370.263 111.389 370.296 122.665 370.333V369.468L90.3761 369.367L95.7933 360.363ZM117.586 294.396C118.33 295.853 119.462 297.075 120.857 297.924C121.414 298.23 122.031 298.412 122.665 298.455V297.582C122.174 297.539 121.697 297.394 121.265 297.156C120.015 296.382 119.002 295.276 118.338 293.961L80.6436 228.858H122.665V227.982H79.1322L117.586 294.396ZM95.8046 207.673L88.7752 207.652L79.0236 223.592H122.665V222.718H80.578L89.2613 208.524L94.267 208.539L88.849 217.544C100.121 217.573 111.393 217.607 122.665 217.644V216.778L90.3873 216.677L95.8046 207.673ZM122.665 275.484V273.741L108.869 249.707L122.665 249.765V248.893L107.365 248.831C112.468 257.712 117.568 266.597 122.665 275.484V275.484ZM101.474 237.255H94.7403L118.469 278.509C119.073 279.733 120.013 280.758 121.178 281.464C121.638 281.714 122.144 281.868 122.665 281.915V281.038C122.286 280.994 121.92 280.877 121.585 280.695C120.569 280.066 119.751 279.16 119.227 278.083L96.2448 238.13H100.989L104.644 244.115L122.665 244.308V243.437L105.134 243.25L101.474 237.255ZM122.665 293.057V291.309L90.244 234.687L122.665 234.789V233.913C111.357 233.876 100.049 233.843 88.7419 233.812C100.059 253.555 111.366 273.303 122.665 293.057V293.057ZM119.6 157.268L93.4589 199.39C103.194 199.384 112.93 199.379 122.665 199.375V198.506L95.0246 198.519L120.352 157.703C120.906 156.583 121.695 155.596 122.665 154.812V153.766C121.349 154.636 120.29 155.846 119.6 157.268ZM98.9682 207.859L122.665 208.112V207.24L100.461 207.004L103 202.59L122.665 202.672V201.8L102.5 201.717L98.9682 207.859ZM122.665 193.986V193.115L104.629 193.103L122.665 163.906V162.254C116.136 172.828 109.604 183.401 103.07 193.972L122.665 193.986ZM119.981 173.05L110.327 189.952L116.845 190.011L122.665 179.885V178.143L116.347 189.135L111.82 189.095L120.74 173.471C121.214 172.615 121.871 171.875 122.665 171.304V170.27C121.541 170.943 120.616 171.902 119.981 173.05L119.981 173.05ZM122.665 346.676V345.805L104.617 345.791L122.665 316.577V314.923L103.058 346.662L122.665 346.676ZM118.192 258.456L122.665 258.459V257.587L118.664 257.585L115.749 253.073L122.665 253.07V252.198L114.151 252.203L118.192 258.456ZM122.665 445.766V444.019L90.232 387.378L122.665 387.479V386.602C111.354 386.566 100.042 386.532 88.7299 386.501C100.051 406.251 111.362 426.006 122.665 445.766ZM117.574 447.085C118.319 448.543 119.451 449.764 120.846 450.614C121.406 450.922 122.027 451.104 122.665 451.146V450.273C122.17 450.231 121.689 450.086 121.254 449.846C120.003 449.072 118.989 447.965 118.325 446.65L80.6314 381.547H122.665V380.672H79.121L117.574 447.085ZM101.462 389.945H94.7296L118.459 431.199C119.062 432.423 120.001 433.448 121.166 434.153C121.629 434.406 122.139 434.56 122.665 434.607V433.73C122.282 433.686 121.912 433.569 121.574 433.385C120.558 432.755 119.74 431.849 119.216 430.772L96.2336 390.82H100.978L104.632 396.805L122.665 396.998V396.126L105.123 395.939L101.462 389.945ZM118.203 105.766L122.665 105.769V104.897L118.676 104.894L115.76 100.384L122.665 100.381V99.5078L114.162 99.5137L118.203 105.766ZM98.9567 360.55L122.665 360.802V359.931L100.45 359.694L102.988 355.28L122.665 355.361V354.49L102.489 354.407L98.9567 360.55ZM119.589 309.958L93.447 352.08C103.186 352.074 112.925 352.069 122.665 352.063V351.196L95.0132 351.208L120.34 310.393C120.896 309.268 121.689 308.279 122.665 307.493V306.449C121.343 307.319 120.28 308.531 119.589 309.958H119.589ZM122.665 428.193V426.452L108.858 402.397L122.665 402.455V401.584L107.354 401.52C112.461 410.409 117.565 419.3 122.665 428.193H122.665ZM119.97 325.74L110.315 342.642L116.833 342.701L122.665 332.554V330.813L116.336 341.825L111.808 341.784L120.728 326.162C121.204 325.301 121.866 324.557 122.665 323.986V322.953C121.536 323.626 120.606 324.588 119.97 325.74H119.97Z" fill="#275CAA"/>
</svg>
