<svg width="200" height="141" viewBox="0 0 200 141" fill="none" xmlns="http://www.w3.org/2000/svg">
<path d="M193.273 131.953C193.144 131.824 193.014 131.824 192.885 131.824C192.626 131.824 192.497 131.953 192.497 132.083V132.212L195.472 136.352V139.586C195.472 139.715 195.602 139.845 195.86 139.845C196.119 139.845 196.248 139.715 196.248 139.586V136.352L199.224 132.212L199.353 132.083C199.353 131.953 199.224 131.824 198.965 131.824C198.836 131.824 198.706 131.824 198.577 131.953L195.86 135.705L193.273 131.953ZM180.983 132.083C180.854 131.953 180.725 131.824 180.595 131.824C180.336 131.824 180.207 131.953 180.207 132.083V139.715C180.207 139.845 180.336 139.974 180.595 139.974C180.854 139.974 180.983 139.845 180.983 139.715V132.988L187.063 139.845C187.193 139.974 187.322 140.104 187.452 140.104C187.71 140.104 187.71 139.974 187.71 139.845V132.212C187.71 132.083 187.581 131.953 187.322 131.953C187.063 131.953 186.934 132.083 186.934 132.212V138.939L180.983 132.083ZM173.092 136.611H169.34L171.281 132.73L173.092 136.611ZM174.644 139.845C174.774 139.974 174.774 139.974 174.903 139.974C175.032 139.974 175.291 139.845 175.291 139.715V139.586L171.54 132.083C171.41 131.953 171.281 131.824 171.151 131.824C171.022 131.824 170.893 131.953 170.763 132.083L167.012 139.586V139.715C167.012 139.845 167.141 139.974 167.4 139.974C167.529 139.974 167.659 139.974 167.659 139.845L168.952 137.258H173.351L174.644 139.845ZM159.12 132.471C159.638 132.471 160.155 132.471 160.673 132.471C162.354 132.471 163.131 133.247 163.131 134.282C163.131 135.446 162.225 136.223 160.673 136.223C160.285 136.223 159.767 136.223 159.25 136.223V132.471H159.12ZM160.543 131.824C160.026 131.824 159.508 131.824 158.732 131.824C158.474 131.824 158.344 131.953 158.344 132.212V139.715C158.344 139.845 158.474 139.974 158.732 139.974C158.991 139.974 159.12 139.845 159.12 139.715V136.74C159.638 136.74 160.026 136.74 160.673 136.74C161.708 136.74 162.613 136.481 163.131 135.964C163.648 135.446 163.907 134.929 163.907 134.153C163.778 133.118 163.131 131.824 160.543 131.824ZM147.865 136.999C147.865 136.999 147.995 137.128 148.124 137.128C148.254 137.128 148.254 137.128 148.383 136.999L151.617 133.118V139.715C151.617 139.845 151.746 139.974 152.005 139.974C152.264 139.974 152.393 139.845 152.393 139.715V132.212C152.393 132.083 152.264 131.953 152.005 131.953C151.876 131.953 151.617 132.083 151.488 132.342L148.124 136.481L144.502 132.342C144.243 132.083 144.114 131.953 143.985 131.953C143.726 131.953 143.596 132.083 143.596 132.342V139.845C143.596 139.974 143.726 140.104 143.985 140.104C144.243 140.104 144.373 139.974 144.373 139.845V133.247L147.865 136.999ZM130.142 135.834C130.142 134.8 130.53 134.023 131.177 133.247C131.953 132.6 132.859 132.212 133.894 132.212C134.929 132.212 135.834 132.6 136.611 133.247C137.387 133.894 137.646 134.8 137.646 135.834C137.646 136.869 137.257 137.646 136.611 138.422C135.834 139.069 134.929 139.457 133.894 139.457C132.859 139.457 131.953 139.069 131.177 138.422C130.53 137.775 130.142 136.869 130.142 135.834ZM129.366 135.834C129.366 136.999 129.754 138.034 130.66 138.81C131.565 139.586 132.6 139.974 133.894 139.974C135.188 139.974 136.352 139.586 137.128 138.81C138.034 138.034 138.422 136.999 138.422 135.834C138.422 134.67 138.034 133.635 137.128 132.859C136.223 132.083 135.188 131.695 133.894 131.695C132.6 131.695 131.436 132.083 130.66 132.859C129.754 133.765 129.366 134.67 129.366 135.834ZM124.838 132.859C124.968 132.859 124.968 132.859 124.968 132.859C125.097 132.859 125.226 132.859 125.226 132.73V132.6C125.226 132.471 125.226 132.471 125.097 132.342C124.45 131.953 123.674 131.695 122.639 131.695C121.345 131.695 120.181 132.083 119.405 132.859C118.629 133.635 118.241 134.67 118.241 135.834C118.241 137.128 118.629 138.163 119.534 138.81C120.44 139.586 121.475 139.974 122.898 139.974C123.803 139.974 124.838 139.715 125.485 139.198C125.615 139.198 125.615 139.069 125.615 138.939C125.615 138.939 125.615 138.81 125.485 138.81C125.356 138.681 125.356 138.681 125.226 138.681C125.097 138.681 125.097 138.681 124.968 138.681C124.321 139.069 123.545 139.327 122.768 139.327C121.604 139.327 120.699 138.939 119.922 138.292C119.146 137.646 118.887 136.74 118.887 135.705C118.887 134.67 119.276 133.765 119.922 133.118C120.569 132.471 121.475 132.083 122.639 132.083C123.545 132.342 124.321 132.471 124.838 132.859ZM104.787 132.471H107.891C108.021 132.471 108.279 132.342 108.279 132.212C108.279 132.083 108.15 131.953 107.891 131.953H101.035C100.776 131.953 100.647 132.083 100.647 132.212C100.647 132.342 100.776 132.471 101.035 132.471H104.14V139.715C104.14 139.845 104.269 139.974 104.528 139.974C104.787 139.974 104.916 139.845 104.916 139.715V132.471H104.787ZM89.2626 132.083C89.1333 131.953 89.0039 131.824 88.8745 131.824C88.6158 131.824 88.4864 131.953 88.4864 132.083V139.715C88.4864 139.845 88.6158 139.974 88.8745 139.974C89.1333 139.974 89.2626 139.845 89.2626 139.715V132.988L95.3428 139.845C95.4722 139.974 95.6016 140.104 95.7309 140.104C95.9897 140.104 95.9897 139.974 95.9897 139.845V132.212C95.9897 132.083 95.8603 131.953 95.6016 131.953C95.3428 131.953 95.2135 132.083 95.2135 132.212V138.939L89.2626 132.083ZM78.784 136.093H82.4062C82.665 136.093 82.7943 135.964 82.7943 135.834C82.7943 135.705 82.665 135.576 82.4062 135.576H78.784V132.471H82.7943C83.0531 132.471 83.1824 132.342 83.1824 132.212C83.1824 132.083 83.0531 131.953 82.7943 131.953H78.3959C78.1371 131.953 78.0078 132.083 78.0078 132.342V139.715C78.0078 139.845 78.1371 140.104 78.3959 140.104H82.7943C83.0531 140.104 83.1824 139.974 83.1824 139.845C83.1824 139.715 83.0531 139.586 82.7943 139.586H78.6546V136.093H78.784ZM67.5291 136.999C67.5291 136.999 67.6585 137.128 67.7879 137.128C67.9172 137.128 67.9172 137.128 68.0466 136.999L71.2807 133.118V139.715C71.2807 139.845 71.4101 139.974 71.6688 139.974C71.9276 139.974 72.0569 139.845 72.0569 139.715V132.212C72.0569 132.083 71.9276 131.953 71.6688 131.953C71.5395 131.953 71.2807 132.083 71.1514 132.342L67.7879 136.481L64.1656 132.342C63.9069 132.083 63.7775 131.953 63.6481 131.953C63.3894 131.953 63.26 132.083 63.26 132.342V139.845C63.26 139.974 63.3894 140.104 63.6481 140.104C63.9069 140.104 64.0362 139.974 64.0362 139.845V133.247L67.5291 136.999ZM55.3687 132.471H58.4735C58.6029 132.471 58.8616 132.342 58.8616 132.212C58.8616 132.083 58.7322 131.953 58.4735 131.953H51.6171C51.3584 131.953 51.229 132.083 51.229 132.212C51.229 132.342 51.3584 132.471 51.6171 132.471H54.7219V139.715C54.7219 139.845 54.8512 139.974 55.11 139.974C55.3687 139.974 55.4981 139.845 55.4981 139.715V132.471H55.3687ZM41.7853 138.939C41.7853 139.069 41.7853 139.069 41.9146 139.198C42.6908 139.715 43.5964 140.104 44.502 140.104C45.2781 140.104 46.0543 139.845 46.5718 139.457C47.0893 139.069 47.348 138.551 47.348 137.904C47.348 135.058 42.6908 135.964 42.6908 133.765C42.6908 132.859 43.467 132.342 44.6313 132.342C45.2781 132.342 45.7956 132.471 46.4424 132.859C46.5718 132.859 46.5718 132.859 46.7012 132.859C46.8305 132.859 46.9599 132.859 46.9599 132.73L47.0893 132.6C47.0893 132.471 47.0893 132.471 46.9599 132.342C46.3131 131.953 45.5369 131.695 44.7607 131.695C43.0789 131.695 42.044 132.6 42.044 133.765C42.044 136.481 46.7012 135.705 46.7012 137.904C46.7012 138.422 46.4424 138.81 46.0543 139.069C45.6662 139.327 45.1488 139.457 44.502 139.457C43.8551 139.457 43.0789 139.198 42.3027 138.681C42.1734 138.681 42.1734 138.551 42.044 138.551C41.9146 138.551 41.9146 138.551 41.7853 138.681C41.7853 138.81 41.7853 138.81 41.7853 138.939ZM32.7296 136.093H36.3519C36.6106 136.093 36.74 135.964 36.74 135.834C36.74 135.705 36.6106 135.576 36.3519 135.576H32.7296V132.471H36.74C36.9987 132.471 37.1281 132.342 37.1281 132.212C37.1281 132.083 36.9987 131.953 36.74 131.953H32.3415C32.0828 131.953 31.9534 132.083 31.9534 132.342V139.715C31.9534 139.845 32.0828 140.104 32.3415 140.104H36.8694C37.1281 140.104 37.2574 139.974 37.2574 139.845C37.2574 139.715 37.1281 139.586 36.8694 139.586H32.7296V136.093ZM19.9224 131.953C19.9224 131.824 19.793 131.824 19.6637 131.824C19.4049 131.824 19.2756 131.953 19.2756 132.083V132.212L22.8978 139.845C23.0272 139.974 23.0272 140.104 23.2859 140.104C23.4153 140.104 23.5446 139.974 23.674 139.845L27.2963 132.212V132.083C27.2963 131.953 27.1669 131.824 26.9082 131.824C26.7788 131.824 26.6494 131.824 26.6494 131.953L23.4153 138.939L19.9224 131.953ZM7.76197 132.083C7.6326 131.953 7.50324 131.824 7.37387 131.824C7.11514 131.824 6.98577 131.953 6.98577 132.083V139.715C6.98577 139.845 7.11514 139.974 7.37387 139.974C7.6326 139.974 7.76197 139.845 7.76197 139.715V132.988L13.8422 139.845C13.9715 139.974 14.1009 140.104 14.2303 140.104C14.489 140.104 14.489 139.974 14.489 139.845V132.212C14.489 132.083 14.3596 131.953 14.1009 131.953C13.8422 131.953 13.7128 132.083 13.7128 132.212V138.939L7.76197 132.083ZM0.776197 132.083C0.776197 131.953 0.646831 131.824 0.388098 131.824C0.129366 131.824 0 131.953 0 132.083V139.586C0 139.715 0.129366 139.845 0.388098 139.845C0.646831 139.845 0.776197 139.715 0.776197 139.586V132.083Z" fill="white"/>
<path d="M75.6791 105.304C75.9379 105.433 76.0672 105.692 76.0672 105.951V125.356C76.0672 125.615 75.9379 125.873 75.6791 126.003C75.4204 126.132 75.1617 126.261 74.9029 126.261C74.6442 126.261 74.2561 126.132 74.1267 126.003C73.868 125.873 73.7386 125.615 73.7386 125.356V105.951C73.7386 105.692 73.868 105.433 74.1267 105.304C74.3855 105.175 74.6442 105.045 74.9029 105.045C75.291 105.045 75.5498 105.045 75.6791 105.304ZM85.1229 105.175C85.3816 105.304 85.511 105.433 85.7697 105.563L102.587 122.898V105.822C102.587 105.563 102.717 105.304 102.846 105.175C102.975 105.045 103.363 104.916 103.622 104.916C103.881 104.916 104.14 105.045 104.398 105.175C104.528 105.304 104.657 105.563 104.657 105.822V125.356C104.657 125.615 104.528 125.873 104.398 126.003C104.269 126.132 104.01 126.261 103.622 126.261C103.363 126.261 103.234 126.261 102.975 126.132C102.717 126.003 102.587 125.873 102.458 125.744L85.5109 108.279V125.356C85.5109 125.615 85.3816 125.873 85.2522 126.003C85.1229 126.132 84.7348 126.261 84.476 126.261C84.2173 126.261 83.9586 126.132 83.8292 126.003C83.6998 125.873 83.5705 125.615 83.5705 125.356V105.822C83.5705 105.563 83.6998 105.304 83.8292 105.175C83.9586 105.045 84.2173 104.916 84.6054 104.916C84.7348 105.045 84.8641 105.045 85.1229 105.175ZM130.53 126.261C130.142 126.261 129.754 126.132 129.625 125.744L127.296 121.216C125.485 117.723 123.674 114.489 121.863 110.996L119.922 107.503C119.405 108.409 118.887 109.314 118.499 110.349C116.818 113.583 115.006 116.818 113.195 120.181C112.419 121.734 111.125 124.321 110.22 125.744C109.961 126.132 109.702 126.261 109.314 126.261C109.056 126.261 108.797 126.132 108.538 126.003C108.409 125.873 108.279 125.615 108.279 125.356C108.279 125.226 108.279 125.226 108.279 125.097C109.314 121.863 116.688 109.444 118.758 105.563C118.887 105.304 119.017 105.175 119.276 105.045C119.405 104.916 119.664 104.916 119.922 104.916C120.181 104.916 120.44 104.916 120.569 105.045C120.828 105.175 120.957 105.304 121.087 105.563C123.286 109.573 130.53 121.604 131.565 124.968C131.565 125.097 131.565 125.097 131.565 125.226C131.565 125.485 131.436 125.744 131.177 125.873C131.048 126.132 130.789 126.261 130.53 126.261ZM136.611 105.175C136.869 105.304 136.999 105.433 137.257 105.563L154.204 122.898V105.822C154.204 105.563 154.334 105.304 154.463 105.175C154.592 105.045 154.981 104.916 155.239 104.916C155.498 104.916 155.757 105.045 156.015 105.175C156.145 105.304 156.274 105.563 156.274 105.822V125.356C156.274 125.615 156.145 125.873 156.015 126.003C155.886 126.132 155.627 126.261 155.239 126.261C154.981 126.261 154.851 126.261 154.592 126.132C154.334 126.003 154.204 125.873 154.075 125.744L137.128 108.279V125.356C137.128 125.615 136.999 125.873 136.869 126.003C136.74 126.132 136.352 126.261 136.093 126.261C135.834 126.261 135.576 126.132 135.446 126.003C135.317 125.873 135.188 125.615 135.188 125.356V105.822C135.188 105.563 135.317 105.304 135.446 105.175C135.576 105.045 135.834 104.916 136.222 104.916C136.222 105.045 136.481 105.045 136.611 105.175ZM197.542 116.3H187.451V124.321H198.965C199.224 124.321 199.483 124.45 199.741 124.58C199.871 124.709 200 124.968 200 125.226C200 125.485 199.871 125.744 199.741 125.873C199.612 126.003 199.353 126.132 198.965 126.132H186.417C186.158 126.132 185.77 126.003 185.64 125.873C185.382 125.744 185.252 125.485 185.252 125.226V105.951C185.252 105.692 185.382 105.433 185.64 105.304C185.899 105.175 186.158 105.045 186.417 105.045H198.706C198.965 105.045 199.224 105.175 199.483 105.304C199.612 105.433 199.741 105.692 199.741 105.951C199.741 106.21 199.612 106.468 199.483 106.598C199.353 106.727 199.094 106.856 198.706 106.856H187.581V114.618H197.671C197.93 114.618 198.189 114.748 198.448 114.877C198.577 115.007 198.706 115.265 198.706 115.524C198.706 115.783 198.577 115.912 198.448 116.171C198.059 116.171 197.801 116.3 197.542 116.3ZM179.819 107.891C179.689 107.891 179.689 107.891 179.56 107.762C178.784 107.374 177.878 106.986 176.843 106.856C175.809 106.598 174.774 106.598 173.48 106.598C171.928 106.598 170.505 106.856 169.34 107.245C168.047 107.633 167.012 108.279 165.977 109.185C165.071 110.091 164.295 110.996 163.777 112.031C163.26 113.066 163.001 114.36 163.001 115.653C163.001 116.947 163.26 118.241 163.777 119.276C164.295 120.311 165.071 121.345 165.977 122.122C167.012 122.898 168.176 123.545 169.47 124.062C170.763 124.45 172.186 124.709 173.868 124.709C175.032 124.709 176.067 124.58 177.102 124.321C178.137 124.062 179.043 123.674 179.948 123.157C180.078 123.157 180.207 123.027 180.207 123.027C180.336 123.027 180.466 123.027 180.466 123.027C180.595 123.027 180.724 123.027 180.854 123.157C180.983 123.157 181.113 123.286 181.242 123.415C181.242 123.545 181.371 123.545 181.371 123.674C181.371 123.803 181.371 123.803 181.371 123.933C181.371 124.062 181.371 124.192 181.242 124.321C181.242 124.45 181.113 124.58 180.983 124.58C180.078 125.226 178.784 125.615 177.49 126.003C176.197 126.391 174.774 126.52 173.48 126.52C171.539 126.52 169.858 126.261 168.176 125.744C166.624 125.226 165.201 124.58 164.036 123.545C162.872 122.51 161.966 121.475 161.32 120.181C160.673 118.888 160.414 117.464 160.414 115.783C160.414 114.23 160.673 112.807 161.32 111.514C161.837 110.22 162.743 109.056 163.907 108.021C165.071 106.986 166.365 106.21 167.917 105.692C169.47 105.175 171.151 104.916 173.092 104.916C174.515 104.916 175.938 105.045 177.102 105.304C178.266 105.563 179.301 105.951 180.207 106.468C180.336 106.598 180.466 106.598 180.595 106.727C180.724 106.856 180.724 106.986 180.724 107.115C180.724 107.115 180.724 107.245 180.724 107.374C180.724 107.503 180.595 107.503 180.595 107.633C180.336 107.891 180.078 108.021 179.689 108.021C179.948 107.891 179.819 107.891 179.819 107.891ZM28.0724 124.192V124.321V125.744V125.873V126.003H46.7011C46.9598 126.003 47.2186 125.873 47.4773 125.744C47.6067 125.615 47.736 125.356 47.736 125.097C47.736 124.838 47.6067 124.58 47.4773 124.45C47.3479 124.321 47.0892 124.192 46.7011 124.192H30.5303L46.9598 106.598C47.0892 106.339 47.3479 106.21 47.3479 106.08C47.4773 105.951 47.4773 105.822 47.4773 105.692C47.4773 105.433 47.3479 105.304 47.2186 105.175C47.0892 105.045 46.8305 105.045 46.5717 105.045H29.1073C28.8486 105.045 28.5899 105.175 28.3311 105.304C28.2018 105.433 28.0724 105.692 28.0724 105.822V105.951C28.0724 106.21 28.2018 106.468 28.3311 106.598C28.4605 106.727 28.7192 106.856 29.1073 106.856H44.1138L28.0724 124.062V124.192Z" fill="white"/>
<path fill-rule="evenodd" clip-rule="evenodd" d="M113.454 116.3H122.122C122.639 116.3 123.027 116.688 123.027 117.206C123.027 117.723 122.639 118.111 122.122 118.111H113.454V116.3Z" fill="white"/>
<path d="M66.6236 115.395C67.2704 115.395 67.6585 115.007 67.6585 114.489C67.6585 113.972 67.2704 113.584 66.6236 113.584H54.7219V103.752H67.9172C68.5641 103.752 68.9522 103.364 68.9522 102.846C68.9522 102.329 68.5641 101.941 67.9172 101.941H53.687C53.0401 101.941 52.3933 102.329 52.3933 102.975V125.226C52.3933 125.744 52.9108 126.132 53.5576 126.132C54.2044 126.132 54.7219 125.744 54.7219 125.226V115.395H66.6236Z" fill="white"/>
<path d="M24.5796 125.615C24.8383 126.003 25.097 126.132 25.6145 126.132C26.132 126.132 26.7788 125.615 26.7788 125.226C26.7788 125.097 26.7788 124.968 26.6494 124.838L14.6184 102.458C14.3596 102.07 13.9715 101.811 13.3247 101.811C12.8072 101.811 12.4191 102.07 12.1604 102.458L0.129366 124.838C0 124.968 0 125.097 0 125.226C0 125.744 0.517465 126.132 1.1643 126.132C1.68176 126.132 1.94049 126.003 2.19922 125.615C6.08021 118.37 9.57309 111.772 13.4541 104.398C17.0763 111.125 20.6986 117.853 24.1915 124.709L24.3208 124.968L24.5796 125.615Z" fill="white"/>
<path fill-rule="evenodd" clip-rule="evenodd" d="M5.56281 116.818H16.947C17.4645 116.818 17.8526 117.206 17.8526 117.723C17.8526 118.241 17.4645 118.629 16.947 118.629H5.56281V116.818Z" fill="white"/>
<path fill-rule="evenodd" clip-rule="evenodd" d="M68.6934 73.7387H73.2212L76.4553 68.4347C76.5847 68.3053 76.4553 68.4347 76.5847 68.3053H126.908C126.52 67.5291 126.003 66.8823 125.614 66.1061C125.226 65.3299 124.709 64.5537 124.321 63.9069H78.6546C78.7839 63.6481 79.6895 61.9664 79.9482 61.5783L83.9586 54.7219C85.6403 51.6171 87.5808 48.6417 89.2626 45.5369C89.6507 44.7607 90.1681 44.1139 90.5562 43.3377L98.5769 29.6248C98.8357 29.2367 99.6119 27.4256 99.8706 27.2963L101.164 29.4955C101.552 30.2717 102.07 30.9185 102.458 31.6947C103.363 33.1177 104.14 34.6701 105.045 36.0932C105.951 37.6455 106.727 39.0686 107.633 40.4916C108.021 41.2678 108.538 41.9146 108.926 42.6908L110.22 45.0194H115.006C114.748 44.3726 112.678 41.0091 112.29 40.3622L104.01 25.8732C103.105 24.3208 102.329 22.5097 99.7412 22.6391C97.8007 22.7684 96.7658 24.7089 95.8602 26.2613C95.4721 27.0375 94.9547 27.8137 94.4372 28.5899C94.0491 29.3661 93.5317 30.1423 93.0142 30.9185L87.5808 40.3622C86.6753 41.9146 85.7697 43.5964 84.8641 45.1488C84.0879 46.5718 82.7943 48.5123 82.1474 49.9353C81.2419 51.6171 80.3363 53.0401 79.4308 54.7219C77.6196 57.956 75.8085 61.0608 73.9974 64.1656L68.6934 73.7387Z" fill="white"/>
<path fill-rule="evenodd" clip-rule="evenodd" d="M126.649 38.9392L106.727 4.91591C105.692 2.84606 104.269 1.55239 102.846 0.776197C101.94 0.258732 100.906 0 100 0C98.965 0 98.0595 0.258732 97.1539 0.776197C95.7309 1.55239 94.4372 2.84606 93.4023 4.65718L72.3156 40.621L52.3932 74.6443C51.0996 76.5848 50.5821 78.3959 50.7115 80.0776C50.7115 81.1126 50.9702 82.0181 51.4877 82.7943C52.0051 83.5705 52.652 84.3467 53.4282 84.8642C54.8512 85.7698 56.6623 86.2872 58.8615 86.1579H100.906L140.75 86.2872C143.079 86.4166 145.019 85.8991 146.442 84.9936C147.348 84.4761 147.995 83.6999 148.383 82.9237C148.9 82.1475 149.159 81.1126 149.159 80.207C149.288 78.6546 148.771 76.8435 147.607 75.0324L143.596 68.176H137.646L145.149 81.1126H54.7218L100 2.71669L128.59 52.2639H95.2134L92.6261 56.6624H136.999C135.576 54.3338 126.649 39.0686 126.649 38.9392Z" fill="white"/>
</svg>
