<svg width="33" height="32" viewBox="0 0 33 32" fill="none" xmlns="http://www.w3.org/2000/svg">
<path class="str" d="M23.8788 11.9018L23.6553 12.0635L23.6729 12.3388C23.6817 12.4774 23.6819 12.6253 23.6819 12.7891C23.6819 17.4888 20.1054 22.8661 13.5982 22.8661C12.289 22.8661 11.0428 22.6186 9.89935 22.1687C11.3221 21.9708 12.6254 21.3996 13.7087 20.5523L14.8146 19.6873L13.4109 19.6586C12.2727 19.6353 11.2827 19.0316 10.7273 18.1357C11.0492 18.1292 11.3765 18.0873 11.7265 17.9978L11.7022 17.0234C10.9741 16.8755 10.3196 16.48 9.84999 15.9042C9.53949 15.5235 9.32247 15.0795 9.21148 14.6076C9.55357 14.7118 9.9146 14.7744 10.2842 14.7887L12.0577 14.8573L10.5808 13.873C10.1398 13.5791 9.77817 13.1809 9.52791 12.7138C9.27765 12.2466 9.14653 11.7249 9.14617 11.195C9.1462 10.856 9.19568 10.5356 9.28853 10.2361C10.1657 11.1694 11.1998 11.9448 12.3457 12.5258C13.7293 13.2272 15.245 13.6297 16.7942 13.707L17.4404 13.7392L17.3087 13.1058C16.8502 10.901 18.4859 9.13393 20.452 9.13393C21.3806 9.13393 22.2145 9.52202 22.803 10.1482L22.9904 10.3476L23.2594 10.2973C23.6055 10.2325 23.9451 10.1429 24.2754 10.0318C24.0862 10.222 23.8726 10.3889 23.6389 10.5275L23.9472 11.4547C24.1436 11.4337 24.338 11.4046 24.53 11.3681C24.3233 11.5591 24.1058 11.7376 23.8788 11.9018ZM16.9631 0.5C8.40351 0.5 1.46313 7.44038 1.46313 16C1.46313 24.5596 8.40351 31.5 16.9631 31.5C25.5228 31.5 32.4631 24.5596 32.4631 16C32.4631 7.44038 25.5228 0.5 16.9631 0.5Z" stroke="#4B5765"/>
<path class="path" d="M24.1719 12.3069C24.182 12.4643 24.182 12.6283 24.182 12.789C24.182 17.7042 20.4387 23.3661 13.5983 23.3661C11.4889 23.3661 9.53355 22.7533 7.88623 21.6986C8.18757 21.7321 8.47552 21.7455 8.78355 21.7455C10.5246 21.7455 12.1251 21.1562 13.4007 20.1585C11.7668 20.125 10.394 19.0536 9.92529 17.5803C10.4978 17.664 11.0135 17.664 11.6027 17.5134C10.7614 17.3425 10.0052 16.8855 9.46262 16.2202C8.92002 15.5549 8.62447 14.7223 8.62619 13.8638V13.8169C9.11837 14.0948 9.69761 14.2656 10.3036 14.289C9.79419 13.9495 9.37638 13.4895 9.08727 12.9499C8.79817 12.4102 8.64669 11.8075 8.64628 11.1953C8.64628 10.5022 8.82708 9.8694 9.15186 9.3203C10.0857 10.4699 11.251 11.4101 12.5719 12.0798C13.8929 12.7495 15.3401 13.1338 16.8193 13.2076C16.2936 10.6797 18.182 8.63391 20.4521 8.63391C21.5235 8.63391 22.4878 9.08257 23.1675 9.80579C24.0079 9.64842 24.8115 9.33369 25.528 8.91181C25.2501 9.7723 24.6675 10.4989 23.894 10.9576C24.644 10.8772 25.3673 10.6696 26.0369 10.3783C25.5313 11.1216 24.8985 11.7812 24.1719 12.3069Z" fill="#4B5765"/>
</svg>
